G04 #@! TF.FileFunction,Legend,Bot*
%FSLAX46Y46*%
G04 Gerber Fmt 4.6, Leading zero omitted, Abs format (unit mm)*
G04 Created by KiCad (PCBNEW 0.201509101502+6177~30~ubuntu14.04.1-product) date Παρ 18 Σεπ 2015 07:05:43 μμ EEST*
%MOMM*%
G01*
G04 APERTURE LIST*
%ADD10C,0.100000*%
%ADD11C,0.150000*%
G04 APERTURE END LIST*
D10*
D11*
X146925000Y-102835000D02*
X146925000Y-101635000D01*
X145175000Y-101635000D02*
X145175000Y-102835000D01*
X145175000Y-107985000D02*
X145175000Y-109185000D01*
X146925000Y-109185000D02*
X146925000Y-107985000D01*
X159780000Y-102905000D02*
X159780000Y-104105000D01*
X161530000Y-104105000D02*
X161530000Y-102905000D01*
X134856220Y-108099860D02*
X134495540Y-109570520D01*
X134495540Y-109570520D02*
X134216140Y-108508800D01*
X134216140Y-108508800D02*
X133906260Y-109580680D01*
X133906260Y-109580680D02*
X133565900Y-108130340D01*
X136276080Y-108790740D02*
X135486140Y-108780580D01*
X135486140Y-108780580D02*
X135475980Y-108790740D01*
X135475980Y-108790740D02*
X135475980Y-108780580D01*
X135435340Y-108069380D02*
X135435340Y-109611160D01*
X136324340Y-108059220D02*
X136324340Y-109628940D01*
X136324340Y-109628940D02*
X136314180Y-109618780D01*
X136875520Y-108160820D02*
X137226040Y-108079540D01*
X137226040Y-108079540D02*
X137546080Y-108069380D01*
X137546080Y-108069380D02*
X137784840Y-108270040D01*
X137784840Y-108270040D02*
X137815320Y-108539280D01*
X137815320Y-108539280D02*
X137574020Y-108780580D01*
X137574020Y-108780580D02*
X137185400Y-108910120D01*
X137185400Y-108910120D02*
X137005060Y-109070140D01*
X137005060Y-109070140D02*
X136964420Y-109369860D01*
X136964420Y-109369860D02*
X137195560Y-109590840D01*
X137195560Y-109590840D02*
X137515600Y-109618780D01*
X137515600Y-109618780D02*
X137866120Y-109509560D01*
X138904980Y-108059220D02*
X139153900Y-108079540D01*
X139153900Y-108079540D02*
X139395200Y-108320840D01*
X139395200Y-108320840D02*
X139484100Y-108811060D01*
X139484100Y-108811060D02*
X139456160Y-109159040D01*
X139456160Y-109159040D02*
X139255500Y-109479080D01*
X139255500Y-109479080D02*
X139004040Y-109601000D01*
X139004040Y-109601000D02*
X138694160Y-109529880D01*
X138694160Y-109529880D02*
X138475720Y-109349540D01*
X138475720Y-109349540D02*
X138404600Y-108889800D01*
X138404600Y-108889800D02*
X138455400Y-108480860D01*
X138455400Y-108480860D02*
X138564620Y-108198920D01*
X138564620Y-108198920D02*
X138925300Y-108069380D01*
X138305540Y-106339640D02*
X138564620Y-106900980D01*
X138564620Y-106900980D02*
X138026140Y-107419140D01*
X138026140Y-107419140D02*
X137505440Y-107149900D01*
X137505440Y-107149900D02*
X137226040Y-107309920D01*
X135785860Y-107289600D02*
X135455660Y-107099100D01*
X135455660Y-107099100D02*
X135016240Y-107429300D01*
X135016240Y-107429300D02*
X134543800Y-106939080D01*
X134543800Y-106939080D02*
X134825740Y-106459020D01*
X134825740Y-106459020D02*
X134635240Y-105989120D01*
X134635240Y-105989120D02*
X134025640Y-105801160D01*
X134025640Y-105801160D02*
X134025640Y-105120440D01*
X134025640Y-105120440D02*
X134584440Y-104980740D01*
X134584440Y-104980740D02*
X134785100Y-104409240D01*
X134785100Y-104409240D02*
X134515860Y-103939340D01*
X134515860Y-103939340D02*
X134985760Y-103428800D01*
X134985760Y-103428800D02*
X135503920Y-103690420D01*
X135503920Y-103690420D02*
X135973820Y-103489760D01*
X135973820Y-103489760D02*
X136144000Y-102948740D01*
X136144000Y-102948740D02*
X136834880Y-102930960D01*
X136834880Y-102930960D02*
X137045700Y-103479600D01*
X137045700Y-103479600D02*
X137464800Y-103649780D01*
X137464800Y-103649780D02*
X138015980Y-103380540D01*
X138015980Y-103380540D02*
X138534140Y-103908860D01*
X138534140Y-103908860D02*
X138285220Y-104449880D01*
X138285220Y-104449880D02*
X138455400Y-104929940D01*
X138455400Y-104929940D02*
X139004040Y-105029000D01*
X139004040Y-105029000D02*
X139014200Y-105730040D01*
X139014200Y-105730040D02*
X138455400Y-105930700D01*
X138455400Y-105930700D02*
X138315700Y-106329480D01*
X136174480Y-106309160D02*
X135874760Y-106159300D01*
X135874760Y-106159300D02*
X135674100Y-105961180D01*
X135674100Y-105961180D02*
X135524240Y-105559860D01*
X135524240Y-105559860D02*
X135524240Y-105161080D01*
X135524240Y-105161080D02*
X135674100Y-104810560D01*
X135674100Y-104810560D02*
X136126220Y-104460040D01*
X136126220Y-104460040D02*
X136575800Y-104409240D01*
X136575800Y-104409240D02*
X136974580Y-104510840D01*
X136974580Y-104510840D02*
X137375900Y-104858820D01*
X137375900Y-104858820D02*
X137525760Y-105310940D01*
X137525760Y-105310940D02*
X137474960Y-105808780D01*
X137474960Y-105808780D02*
X137226040Y-106111040D01*
X137226040Y-106111040D02*
X136875520Y-106309160D01*
X136875520Y-106309160D02*
X137226040Y-107309920D01*
X136174480Y-106309160D02*
X135775700Y-107309920D01*
X148407381Y-102068334D02*
X147931190Y-101735000D01*
X148407381Y-101496905D02*
X147407381Y-101496905D01*
X147407381Y-101877858D01*
X147455000Y-101973096D01*
X147502619Y-102020715D01*
X147597857Y-102068334D01*
X147740714Y-102068334D01*
X147835952Y-102020715D01*
X147883571Y-101973096D01*
X147931190Y-101877858D01*
X147931190Y-101496905D01*
X148407381Y-103020715D02*
X148407381Y-102449286D01*
X148407381Y-102735000D02*
X147407381Y-102735000D01*
X147550238Y-102639762D01*
X147645476Y-102544524D01*
X147693095Y-102449286D01*
X148407381Y-108418334D02*
X147931190Y-108085000D01*
X148407381Y-107846905D02*
X147407381Y-107846905D01*
X147407381Y-108227858D01*
X147455000Y-108323096D01*
X147502619Y-108370715D01*
X147597857Y-108418334D01*
X147740714Y-108418334D01*
X147835952Y-108370715D01*
X147883571Y-108323096D01*
X147931190Y-108227858D01*
X147931190Y-107846905D01*
X147502619Y-108799286D02*
X147455000Y-108846905D01*
X147407381Y-108942143D01*
X147407381Y-109180239D01*
X147455000Y-109275477D01*
X147502619Y-109323096D01*
X147597857Y-109370715D01*
X147693095Y-109370715D01*
X147835952Y-109323096D01*
X148407381Y-108751667D01*
X148407381Y-109370715D01*
X163139381Y-103338334D02*
X162663190Y-103005000D01*
X163139381Y-102766905D02*
X162139381Y-102766905D01*
X162139381Y-103147858D01*
X162187000Y-103243096D01*
X162234619Y-103290715D01*
X162329857Y-103338334D01*
X162472714Y-103338334D01*
X162567952Y-103290715D01*
X162615571Y-103243096D01*
X162663190Y-103147858D01*
X162663190Y-102766905D01*
X162139381Y-103671667D02*
X162139381Y-104290715D01*
X162520333Y-103957381D01*
X162520333Y-104100239D01*
X162567952Y-104195477D01*
X162615571Y-104243096D01*
X162710810Y-104290715D01*
X162948905Y-104290715D01*
X163044143Y-104243096D01*
X163091762Y-104195477D01*
X163139381Y-104100239D01*
X163139381Y-103814524D01*
X163091762Y-103719286D01*
X163044143Y-103671667D01*
X142518763Y-100780810D02*
X142404477Y-100818905D01*
X142214001Y-100818905D01*
X142137811Y-100780810D01*
X142099715Y-100742714D01*
X142061620Y-100666524D01*
X142061620Y-100590333D01*
X142099715Y-100514143D01*
X142137811Y-100476048D01*
X142214001Y-100437952D01*
X142366382Y-100399857D01*
X142442573Y-100361762D01*
X142480668Y-100323667D01*
X142518763Y-100247476D01*
X142518763Y-100171286D01*
X142480668Y-100095095D01*
X142442573Y-100057000D01*
X142366382Y-100018905D01*
X142175906Y-100018905D01*
X142061620Y-100057000D01*
X141375906Y-100818905D02*
X141375906Y-100399857D01*
X141414001Y-100323667D01*
X141490191Y-100285571D01*
X141642572Y-100285571D01*
X141718763Y-100323667D01*
X141375906Y-100780810D02*
X141452096Y-100818905D01*
X141642572Y-100818905D01*
X141718763Y-100780810D01*
X141756858Y-100704619D01*
X141756858Y-100628429D01*
X141718763Y-100552238D01*
X141642572Y-100514143D01*
X141452096Y-100514143D01*
X141375906Y-100476048D01*
X141109239Y-100285571D02*
X140804477Y-100285571D01*
X140994953Y-100018905D02*
X140994953Y-100704619D01*
X140956858Y-100780810D01*
X140880667Y-100818905D01*
X140804477Y-100818905D01*
X140537810Y-100818905D02*
X140537810Y-100018905D01*
X140080667Y-100818905D01*
X140080667Y-100018905D01*
X139547334Y-100018905D02*
X139394953Y-100018905D01*
X139318762Y-100057000D01*
X139242572Y-100133190D01*
X139204477Y-100285571D01*
X139204477Y-100552238D01*
X139242572Y-100704619D01*
X139318762Y-100780810D01*
X139394953Y-100818905D01*
X139547334Y-100818905D01*
X139623524Y-100780810D01*
X139699715Y-100704619D01*
X139737810Y-100552238D01*
X139737810Y-100285571D01*
X139699715Y-100133190D01*
X139623524Y-100057000D01*
X139547334Y-100018905D01*
X138442572Y-100057000D02*
X138518763Y-100018905D01*
X138633048Y-100018905D01*
X138747334Y-100057000D01*
X138823525Y-100133190D01*
X138861620Y-100209381D01*
X138899715Y-100361762D01*
X138899715Y-100476048D01*
X138861620Y-100628429D01*
X138823525Y-100704619D01*
X138747334Y-100780810D01*
X138633048Y-100818905D01*
X138556858Y-100818905D01*
X138442572Y-100780810D01*
X138404477Y-100742714D01*
X138404477Y-100476048D01*
X138556858Y-100476048D01*
X138099715Y-100780810D02*
X137985429Y-100818905D01*
X137794953Y-100818905D01*
X137718763Y-100780810D01*
X137680667Y-100742714D01*
X137642572Y-100666524D01*
X137642572Y-100590333D01*
X137680667Y-100514143D01*
X137718763Y-100476048D01*
X137794953Y-100437952D01*
X137947334Y-100399857D01*
X138023525Y-100361762D01*
X138061620Y-100323667D01*
X138099715Y-100247476D01*
X138099715Y-100171286D01*
X138061620Y-100095095D01*
X138023525Y-100057000D01*
X137947334Y-100018905D01*
X137756858Y-100018905D01*
X137642572Y-100057000D01*
X136690191Y-100399857D02*
X136423524Y-100399857D01*
X136309238Y-100818905D02*
X136690191Y-100818905D01*
X136690191Y-100018905D01*
X136309238Y-100018905D01*
X135966381Y-100285571D02*
X135966381Y-100818905D01*
X135966381Y-100361762D02*
X135928286Y-100323667D01*
X135852095Y-100285571D01*
X135737809Y-100285571D01*
X135661619Y-100323667D01*
X135623524Y-100399857D01*
X135623524Y-100818905D01*
X134899714Y-100818905D02*
X134899714Y-100018905D01*
X134899714Y-100780810D02*
X134975904Y-100818905D01*
X135128285Y-100818905D01*
X135204476Y-100780810D01*
X135242571Y-100742714D01*
X135280666Y-100666524D01*
X135280666Y-100437952D01*
X135242571Y-100361762D01*
X135204476Y-100323667D01*
X135128285Y-100285571D01*
X134975904Y-100285571D01*
X134899714Y-100323667D01*
X134556856Y-100780810D02*
X134480666Y-100818905D01*
X134328285Y-100818905D01*
X134252094Y-100780810D01*
X134213999Y-100704619D01*
X134213999Y-100666524D01*
X134252094Y-100590333D01*
X134328285Y-100552238D01*
X134442570Y-100552238D01*
X134518761Y-100514143D01*
X134556856Y-100437952D01*
X134556856Y-100399857D01*
X134518761Y-100323667D01*
X134442570Y-100285571D01*
X134328285Y-100285571D01*
X134252094Y-100323667D01*
X133985428Y-100285571D02*
X133680666Y-100285571D01*
X133871142Y-100018905D02*
X133871142Y-100704619D01*
X133833047Y-100780810D01*
X133756856Y-100818905D01*
X133680666Y-100818905D01*
X133299713Y-100818905D02*
X133375904Y-100780810D01*
X133413999Y-100742714D01*
X133452094Y-100666524D01*
X133452094Y-100437952D01*
X133413999Y-100361762D01*
X133375904Y-100323667D01*
X133299713Y-100285571D01*
X133185427Y-100285571D01*
X133109237Y-100323667D01*
X133071142Y-100361762D01*
X133033046Y-100437952D01*
X133033046Y-100666524D01*
X133071142Y-100742714D01*
X133109237Y-100780810D01*
X133185427Y-100818905D01*
X133299713Y-100818905D01*
X132690189Y-100285571D02*
X132690189Y-101085571D01*
X132690189Y-100323667D02*
X132613998Y-100285571D01*
X132461617Y-100285571D01*
X132385427Y-100323667D01*
X132347332Y-100361762D01*
X132309236Y-100437952D01*
X132309236Y-100666524D01*
X132347332Y-100742714D01*
X132385427Y-100780810D01*
X132461617Y-100818905D01*
X132613998Y-100818905D01*
X132690189Y-100780810D01*
X147649288Y-98939381D02*
X147725478Y-98901286D01*
X147877859Y-98901286D01*
X147954050Y-98939381D01*
X148030240Y-99015571D01*
X148068335Y-99091762D01*
X148068335Y-99244143D01*
X148030240Y-99320333D01*
X147954050Y-99396524D01*
X147877859Y-99434619D01*
X147725478Y-99434619D01*
X147649288Y-99396524D01*
X147801669Y-98634619D02*
X147992145Y-98672714D01*
X148182621Y-98787000D01*
X148296907Y-98977476D01*
X148335002Y-99167952D01*
X148296907Y-99358429D01*
X148182621Y-99548905D01*
X147992145Y-99663190D01*
X147801669Y-99701286D01*
X147611193Y-99663190D01*
X147420716Y-99548905D01*
X147306431Y-99358429D01*
X147268335Y-99167952D01*
X147306431Y-98977476D01*
X147420716Y-98787000D01*
X147611193Y-98672714D01*
X147801669Y-98634619D01*
X145935001Y-99548905D02*
X146315954Y-99548905D01*
X146315954Y-98748905D01*
X145668335Y-99548905D02*
X145668335Y-99015571D01*
X145668335Y-98748905D02*
X145706430Y-98787000D01*
X145668335Y-98825095D01*
X145630240Y-98787000D01*
X145668335Y-98748905D01*
X145668335Y-98825095D01*
X145287383Y-99548905D02*
X145287383Y-98748905D01*
X145287383Y-99053667D02*
X145211192Y-99015571D01*
X145058811Y-99015571D01*
X144982621Y-99053667D01*
X144944526Y-99091762D01*
X144906430Y-99167952D01*
X144906430Y-99396524D01*
X144944526Y-99472714D01*
X144982621Y-99510810D01*
X145058811Y-99548905D01*
X145211192Y-99548905D01*
X145287383Y-99510810D01*
X144563573Y-99548905D02*
X144563573Y-99015571D01*
X144563573Y-99167952D02*
X144525478Y-99091762D01*
X144487382Y-99053667D01*
X144411192Y-99015571D01*
X144335001Y-99015571D01*
X143763573Y-99510810D02*
X143839763Y-99548905D01*
X143992144Y-99548905D01*
X144068335Y-99510810D01*
X144106430Y-99434619D01*
X144106430Y-99129857D01*
X144068335Y-99053667D01*
X143992144Y-99015571D01*
X143839763Y-99015571D01*
X143763573Y-99053667D01*
X143725478Y-99129857D01*
X143725478Y-99206048D01*
X144106430Y-99282238D01*
X142811192Y-99510810D02*
X142696906Y-99548905D01*
X142506430Y-99548905D01*
X142430240Y-99510810D01*
X142392144Y-99472714D01*
X142354049Y-99396524D01*
X142354049Y-99320333D01*
X142392144Y-99244143D01*
X142430240Y-99206048D01*
X142506430Y-99167952D01*
X142658811Y-99129857D01*
X142735002Y-99091762D01*
X142773097Y-99053667D01*
X142811192Y-98977476D01*
X142811192Y-98901286D01*
X142773097Y-98825095D01*
X142735002Y-98787000D01*
X142658811Y-98748905D01*
X142468335Y-98748905D01*
X142354049Y-98787000D01*
X142011192Y-99015571D02*
X142011192Y-99815571D01*
X142011192Y-99053667D02*
X141935001Y-99015571D01*
X141782620Y-99015571D01*
X141706430Y-99053667D01*
X141668335Y-99091762D01*
X141630239Y-99167952D01*
X141630239Y-99396524D01*
X141668335Y-99472714D01*
X141706430Y-99510810D01*
X141782620Y-99548905D01*
X141935001Y-99548905D01*
X142011192Y-99510810D01*
X140944525Y-99548905D02*
X140944525Y-99129857D01*
X140982620Y-99053667D01*
X141058810Y-99015571D01*
X141211191Y-99015571D01*
X141287382Y-99053667D01*
X140944525Y-99510810D02*
X141020715Y-99548905D01*
X141211191Y-99548905D01*
X141287382Y-99510810D01*
X141325477Y-99434619D01*
X141325477Y-99358429D01*
X141287382Y-99282238D01*
X141211191Y-99244143D01*
X141020715Y-99244143D01*
X140944525Y-99206048D01*
X140220715Y-99510810D02*
X140296905Y-99548905D01*
X140449286Y-99548905D01*
X140525477Y-99510810D01*
X140563572Y-99472714D01*
X140601667Y-99396524D01*
X140601667Y-99167952D01*
X140563572Y-99091762D01*
X140525477Y-99053667D01*
X140449286Y-99015571D01*
X140296905Y-99015571D01*
X140220715Y-99053667D01*
X139573096Y-99510810D02*
X139649286Y-99548905D01*
X139801667Y-99548905D01*
X139877858Y-99510810D01*
X139915953Y-99434619D01*
X139915953Y-99129857D01*
X139877858Y-99053667D01*
X139801667Y-99015571D01*
X139649286Y-99015571D01*
X139573096Y-99053667D01*
X139535001Y-99129857D01*
X139535001Y-99206048D01*
X139915953Y-99282238D01*
X138315953Y-99129857D02*
X138582620Y-99129857D01*
X138582620Y-99548905D02*
X138582620Y-98748905D01*
X138201667Y-98748905D01*
X137782620Y-99548905D02*
X137858811Y-99510810D01*
X137896906Y-99472714D01*
X137935001Y-99396524D01*
X137935001Y-99167952D01*
X137896906Y-99091762D01*
X137858811Y-99053667D01*
X137782620Y-99015571D01*
X137668334Y-99015571D01*
X137592144Y-99053667D01*
X137554049Y-99091762D01*
X137515953Y-99167952D01*
X137515953Y-99396524D01*
X137554049Y-99472714D01*
X137592144Y-99510810D01*
X137668334Y-99548905D01*
X137782620Y-99548905D01*
X136830239Y-99015571D02*
X136830239Y-99548905D01*
X137173096Y-99015571D02*
X137173096Y-99434619D01*
X137135001Y-99510810D01*
X137058810Y-99548905D01*
X136944524Y-99548905D01*
X136868334Y-99510810D01*
X136830239Y-99472714D01*
X136449286Y-99015571D02*
X136449286Y-99548905D01*
X136449286Y-99091762D02*
X136411191Y-99053667D01*
X136335000Y-99015571D01*
X136220714Y-99015571D01*
X136144524Y-99053667D01*
X136106429Y-99129857D01*
X136106429Y-99548905D01*
X135382619Y-99548905D02*
X135382619Y-98748905D01*
X135382619Y-99510810D02*
X135458809Y-99548905D01*
X135611190Y-99548905D01*
X135687381Y-99510810D01*
X135725476Y-99472714D01*
X135763571Y-99396524D01*
X135763571Y-99167952D01*
X135725476Y-99091762D01*
X135687381Y-99053667D01*
X135611190Y-99015571D01*
X135458809Y-99015571D01*
X135382619Y-99053667D01*
X134658809Y-99548905D02*
X134658809Y-99129857D01*
X134696904Y-99053667D01*
X134773094Y-99015571D01*
X134925475Y-99015571D01*
X135001666Y-99053667D01*
X134658809Y-99510810D02*
X134734999Y-99548905D01*
X134925475Y-99548905D01*
X135001666Y-99510810D01*
X135039761Y-99434619D01*
X135039761Y-99358429D01*
X135001666Y-99282238D01*
X134925475Y-99244143D01*
X134734999Y-99244143D01*
X134658809Y-99206048D01*
X134392142Y-99015571D02*
X134087380Y-99015571D01*
X134277856Y-98748905D02*
X134277856Y-99434619D01*
X134239761Y-99510810D01*
X134163570Y-99548905D01*
X134087380Y-99548905D01*
X133820713Y-99548905D02*
X133820713Y-99015571D01*
X133820713Y-98748905D02*
X133858808Y-98787000D01*
X133820713Y-98825095D01*
X133782618Y-98787000D01*
X133820713Y-98748905D01*
X133820713Y-98825095D01*
X133325475Y-99548905D02*
X133401666Y-99510810D01*
X133439761Y-99472714D01*
X133477856Y-99396524D01*
X133477856Y-99167952D01*
X133439761Y-99091762D01*
X133401666Y-99053667D01*
X133325475Y-99015571D01*
X133211189Y-99015571D01*
X133134999Y-99053667D01*
X133096904Y-99091762D01*
X133058808Y-99167952D01*
X133058808Y-99396524D01*
X133096904Y-99472714D01*
X133134999Y-99510810D01*
X133211189Y-99548905D01*
X133325475Y-99548905D01*
X132715951Y-99015571D02*
X132715951Y-99548905D01*
X132715951Y-99091762D02*
X132677856Y-99053667D01*
X132601665Y-99015571D01*
X132487379Y-99015571D01*
X132411189Y-99053667D01*
X132373094Y-99129857D01*
X132373094Y-99548905D01*
M02*
