G04 #@! TF.FileFunction,Legend,Top*
%FSLAX46Y46*%
G04 Gerber Fmt 4.6, Leading zero omitted, Abs format (unit mm)*
G04 Created by KiCad (PCBNEW 0.201509101502+6177~30~ubuntu14.04.1-product) date Παρ 18 Σεπ 2015 07:05:43 μμ EEST*
%MOMM*%
G01*
G04 APERTURE LIST*
%ADD10C,0.100000*%
%ADD11C,0.150000*%
G04 APERTURE END LIST*
D10*
D11*
X161726000Y-109899000D02*
X161726000Y-109699000D01*
X161726000Y-107305000D02*
X161726000Y-107485000D01*
X164953744Y-107615357D02*
G75*
G03X161726000Y-107299000I-1727744J-1003643D01*
G01*
X164278006Y-107485932D02*
G75*
G03X162175000Y-107485000I-1052006J-1133068D01*
G01*
X161738780Y-109925726D02*
G75*
G03X164976000Y-109579000I1497220J1306726D01*
G01*
X162212111Y-109698253D02*
G75*
G03X164260000Y-109679000I1013889J1079253D01*
G01*
X166340000Y-101320000D02*
X166340000Y-102870000D01*
X167640000Y-101320000D02*
X166340000Y-101320000D01*
X171831000Y-102743000D02*
X177673000Y-102743000D01*
X177673000Y-102743000D02*
X177673000Y-102997000D01*
X177673000Y-102997000D02*
X171831000Y-102997000D01*
X171831000Y-102997000D02*
X171831000Y-102870000D01*
X171831000Y-102870000D02*
X177673000Y-102870000D01*
X169164000Y-102616000D02*
X168783000Y-102616000D01*
X169164000Y-103124000D02*
X168783000Y-103124000D01*
X169164000Y-105156000D02*
X168783000Y-105156000D01*
X169164000Y-105664000D02*
X168783000Y-105664000D01*
X169164000Y-107696000D02*
X168783000Y-107696000D01*
X169164000Y-108204000D02*
X168783000Y-108204000D01*
X171704000Y-104140000D02*
X171704000Y-101600000D01*
X177800000Y-103124000D02*
X171704000Y-103124000D01*
X177800000Y-102616000D02*
X177800000Y-103124000D01*
X171704000Y-102616000D02*
X177800000Y-102616000D01*
X169164000Y-104140000D02*
X171704000Y-104140000D01*
X169164000Y-101600000D02*
X169164000Y-104140000D01*
X169164000Y-101600000D02*
X171704000Y-101600000D01*
X169164000Y-106680000D02*
X171704000Y-106680000D01*
X169164000Y-106680000D02*
X169164000Y-109220000D01*
X171704000Y-107696000D02*
X177800000Y-107696000D01*
X177800000Y-107696000D02*
X177800000Y-108204000D01*
X177800000Y-108204000D02*
X171704000Y-108204000D01*
X171704000Y-109220000D02*
X171704000Y-106680000D01*
X171704000Y-106680000D02*
X171704000Y-104140000D01*
X177800000Y-105664000D02*
X171704000Y-105664000D01*
X177800000Y-105156000D02*
X177800000Y-105664000D01*
X171704000Y-105156000D02*
X177800000Y-105156000D01*
X169164000Y-106680000D02*
X171704000Y-106680000D01*
X169164000Y-104140000D02*
X169164000Y-106680000D01*
X169164000Y-104140000D02*
X171704000Y-104140000D01*
X169164000Y-109220000D02*
X171704000Y-109220000D01*
X157226095Y-108926381D02*
X157226095Y-109735905D01*
X157273714Y-109831143D01*
X157321333Y-109878762D01*
X157416571Y-109926381D01*
X157607048Y-109926381D01*
X157702286Y-109878762D01*
X157749905Y-109831143D01*
X157797524Y-109735905D01*
X157797524Y-108926381D01*
X158797524Y-109926381D02*
X158226095Y-109926381D01*
X158511809Y-109926381D02*
X158511809Y-108926381D01*
X158416571Y-109069238D01*
X158321333Y-109164476D01*
X158226095Y-109212095D01*
X164234905Y-112085381D02*
X164234905Y-111085381D01*
X164473000Y-111085381D01*
X164615858Y-111133000D01*
X164711096Y-111228238D01*
X164758715Y-111323476D01*
X164806334Y-111513952D01*
X164806334Y-111656810D01*
X164758715Y-111847286D01*
X164711096Y-111942524D01*
X164615858Y-112037762D01*
X164473000Y-112085381D01*
X164234905Y-112085381D01*
X165758715Y-112085381D02*
X165187286Y-112085381D01*
X165473000Y-112085381D02*
X165473000Y-111085381D01*
X165377762Y-111228238D01*
X165282524Y-111323476D01*
X165187286Y-111371095D01*
X166266905Y-111069381D02*
X166266905Y-110069381D01*
X166647858Y-110069381D01*
X166743096Y-110117000D01*
X166790715Y-110164619D01*
X166838334Y-110259857D01*
X166838334Y-110402714D01*
X166790715Y-110497952D01*
X166743096Y-110545571D01*
X166647858Y-110593190D01*
X166266905Y-110593190D01*
X167790715Y-111069381D02*
X167219286Y-111069381D01*
X167505000Y-111069381D02*
X167505000Y-110069381D01*
X167409762Y-110212238D01*
X167314524Y-110307476D01*
X167219286Y-110355095D01*
M02*
