G75*
%MOIN*%
%OFA0B0*%
%FSLAX25Y25*%
%IPPOS*%
%LPD*%
%AMOC8*
5,1,8,0,0,1.08239X$1,22.5*
%
%ADD10C,0.01000*%
%ADD11C,0.00000*%
%ADD12R,0.06299X0.05118*%
D10*
X0001800Y0001800D02*
X0149300Y0001800D01*
X0149300Y0049300D01*
X0001800Y0049300D01*
X0001800Y0001800D01*
D11*
X0010205Y0024300D02*
X0010207Y0024464D01*
X0010213Y0024628D01*
X0010223Y0024792D01*
X0010237Y0024956D01*
X0010255Y0025119D01*
X0010277Y0025282D01*
X0010304Y0025444D01*
X0010334Y0025606D01*
X0010368Y0025766D01*
X0010406Y0025926D01*
X0010447Y0026085D01*
X0010493Y0026243D01*
X0010543Y0026399D01*
X0010596Y0026555D01*
X0010653Y0026709D01*
X0010714Y0026861D01*
X0010779Y0027012D01*
X0010848Y0027162D01*
X0010920Y0027309D01*
X0010995Y0027455D01*
X0011075Y0027599D01*
X0011157Y0027741D01*
X0011243Y0027881D01*
X0011333Y0028018D01*
X0011426Y0028154D01*
X0011522Y0028287D01*
X0011622Y0028418D01*
X0011724Y0028546D01*
X0011830Y0028672D01*
X0011939Y0028795D01*
X0012051Y0028915D01*
X0012165Y0029033D01*
X0012283Y0029147D01*
X0012403Y0029259D01*
X0012526Y0029368D01*
X0012652Y0029474D01*
X0012780Y0029576D01*
X0012911Y0029676D01*
X0013044Y0029772D01*
X0013180Y0029865D01*
X0013317Y0029955D01*
X0013457Y0030041D01*
X0013599Y0030123D01*
X0013743Y0030203D01*
X0013889Y0030278D01*
X0014036Y0030350D01*
X0014186Y0030419D01*
X0014337Y0030484D01*
X0014489Y0030545D01*
X0014643Y0030602D01*
X0014799Y0030655D01*
X0014955Y0030705D01*
X0015113Y0030751D01*
X0015272Y0030792D01*
X0015432Y0030830D01*
X0015592Y0030864D01*
X0015754Y0030894D01*
X0015916Y0030921D01*
X0016079Y0030943D01*
X0016242Y0030961D01*
X0016406Y0030975D01*
X0016570Y0030985D01*
X0016734Y0030991D01*
X0016898Y0030993D01*
X0017062Y0030991D01*
X0017226Y0030985D01*
X0017390Y0030975D01*
X0017554Y0030961D01*
X0017717Y0030943D01*
X0017880Y0030921D01*
X0018042Y0030894D01*
X0018204Y0030864D01*
X0018364Y0030830D01*
X0018524Y0030792D01*
X0018683Y0030751D01*
X0018841Y0030705D01*
X0018997Y0030655D01*
X0019153Y0030602D01*
X0019307Y0030545D01*
X0019459Y0030484D01*
X0019610Y0030419D01*
X0019760Y0030350D01*
X0019907Y0030278D01*
X0020053Y0030203D01*
X0020197Y0030123D01*
X0020339Y0030041D01*
X0020479Y0029955D01*
X0020616Y0029865D01*
X0020752Y0029772D01*
X0020885Y0029676D01*
X0021016Y0029576D01*
X0021144Y0029474D01*
X0021270Y0029368D01*
X0021393Y0029259D01*
X0021513Y0029147D01*
X0021631Y0029033D01*
X0021745Y0028915D01*
X0021857Y0028795D01*
X0021966Y0028672D01*
X0022072Y0028546D01*
X0022174Y0028418D01*
X0022274Y0028287D01*
X0022370Y0028154D01*
X0022463Y0028018D01*
X0022553Y0027881D01*
X0022639Y0027741D01*
X0022721Y0027599D01*
X0022801Y0027455D01*
X0022876Y0027309D01*
X0022948Y0027162D01*
X0023017Y0027012D01*
X0023082Y0026861D01*
X0023143Y0026709D01*
X0023200Y0026555D01*
X0023253Y0026399D01*
X0023303Y0026243D01*
X0023349Y0026085D01*
X0023390Y0025926D01*
X0023428Y0025766D01*
X0023462Y0025606D01*
X0023492Y0025444D01*
X0023519Y0025282D01*
X0023541Y0025119D01*
X0023559Y0024956D01*
X0023573Y0024792D01*
X0023583Y0024628D01*
X0023589Y0024464D01*
X0023591Y0024300D01*
X0023589Y0024136D01*
X0023583Y0023972D01*
X0023573Y0023808D01*
X0023559Y0023644D01*
X0023541Y0023481D01*
X0023519Y0023318D01*
X0023492Y0023156D01*
X0023462Y0022994D01*
X0023428Y0022834D01*
X0023390Y0022674D01*
X0023349Y0022515D01*
X0023303Y0022357D01*
X0023253Y0022201D01*
X0023200Y0022045D01*
X0023143Y0021891D01*
X0023082Y0021739D01*
X0023017Y0021588D01*
X0022948Y0021438D01*
X0022876Y0021291D01*
X0022801Y0021145D01*
X0022721Y0021001D01*
X0022639Y0020859D01*
X0022553Y0020719D01*
X0022463Y0020582D01*
X0022370Y0020446D01*
X0022274Y0020313D01*
X0022174Y0020182D01*
X0022072Y0020054D01*
X0021966Y0019928D01*
X0021857Y0019805D01*
X0021745Y0019685D01*
X0021631Y0019567D01*
X0021513Y0019453D01*
X0021393Y0019341D01*
X0021270Y0019232D01*
X0021144Y0019126D01*
X0021016Y0019024D01*
X0020885Y0018924D01*
X0020752Y0018828D01*
X0020616Y0018735D01*
X0020479Y0018645D01*
X0020339Y0018559D01*
X0020197Y0018477D01*
X0020053Y0018397D01*
X0019907Y0018322D01*
X0019760Y0018250D01*
X0019610Y0018181D01*
X0019459Y0018116D01*
X0019307Y0018055D01*
X0019153Y0017998D01*
X0018997Y0017945D01*
X0018841Y0017895D01*
X0018683Y0017849D01*
X0018524Y0017808D01*
X0018364Y0017770D01*
X0018204Y0017736D01*
X0018042Y0017706D01*
X0017880Y0017679D01*
X0017717Y0017657D01*
X0017554Y0017639D01*
X0017390Y0017625D01*
X0017226Y0017615D01*
X0017062Y0017609D01*
X0016898Y0017607D01*
X0016734Y0017609D01*
X0016570Y0017615D01*
X0016406Y0017625D01*
X0016242Y0017639D01*
X0016079Y0017657D01*
X0015916Y0017679D01*
X0015754Y0017706D01*
X0015592Y0017736D01*
X0015432Y0017770D01*
X0015272Y0017808D01*
X0015113Y0017849D01*
X0014955Y0017895D01*
X0014799Y0017945D01*
X0014643Y0017998D01*
X0014489Y0018055D01*
X0014337Y0018116D01*
X0014186Y0018181D01*
X0014036Y0018250D01*
X0013889Y0018322D01*
X0013743Y0018397D01*
X0013599Y0018477D01*
X0013457Y0018559D01*
X0013317Y0018645D01*
X0013180Y0018735D01*
X0013044Y0018828D01*
X0012911Y0018924D01*
X0012780Y0019024D01*
X0012652Y0019126D01*
X0012526Y0019232D01*
X0012403Y0019341D01*
X0012283Y0019453D01*
X0012165Y0019567D01*
X0012051Y0019685D01*
X0011939Y0019805D01*
X0011830Y0019928D01*
X0011724Y0020054D01*
X0011622Y0020182D01*
X0011522Y0020313D01*
X0011426Y0020446D01*
X0011333Y0020582D01*
X0011243Y0020719D01*
X0011157Y0020859D01*
X0011075Y0021001D01*
X0010995Y0021145D01*
X0010920Y0021291D01*
X0010848Y0021438D01*
X0010779Y0021588D01*
X0010714Y0021739D01*
X0010653Y0021891D01*
X0010596Y0022045D01*
X0010543Y0022201D01*
X0010493Y0022357D01*
X0010447Y0022515D01*
X0010406Y0022674D01*
X0010368Y0022834D01*
X0010334Y0022994D01*
X0010304Y0023156D01*
X0010277Y0023318D01*
X0010255Y0023481D01*
X0010237Y0023644D01*
X0010223Y0023808D01*
X0010213Y0023972D01*
X0010207Y0024136D01*
X0010205Y0024300D01*
X0085009Y0024300D02*
X0085011Y0024464D01*
X0085017Y0024628D01*
X0085027Y0024792D01*
X0085041Y0024956D01*
X0085059Y0025119D01*
X0085081Y0025282D01*
X0085108Y0025444D01*
X0085138Y0025606D01*
X0085172Y0025766D01*
X0085210Y0025926D01*
X0085251Y0026085D01*
X0085297Y0026243D01*
X0085347Y0026399D01*
X0085400Y0026555D01*
X0085457Y0026709D01*
X0085518Y0026861D01*
X0085583Y0027012D01*
X0085652Y0027162D01*
X0085724Y0027309D01*
X0085799Y0027455D01*
X0085879Y0027599D01*
X0085961Y0027741D01*
X0086047Y0027881D01*
X0086137Y0028018D01*
X0086230Y0028154D01*
X0086326Y0028287D01*
X0086426Y0028418D01*
X0086528Y0028546D01*
X0086634Y0028672D01*
X0086743Y0028795D01*
X0086855Y0028915D01*
X0086969Y0029033D01*
X0087087Y0029147D01*
X0087207Y0029259D01*
X0087330Y0029368D01*
X0087456Y0029474D01*
X0087584Y0029576D01*
X0087715Y0029676D01*
X0087848Y0029772D01*
X0087984Y0029865D01*
X0088121Y0029955D01*
X0088261Y0030041D01*
X0088403Y0030123D01*
X0088547Y0030203D01*
X0088693Y0030278D01*
X0088840Y0030350D01*
X0088990Y0030419D01*
X0089141Y0030484D01*
X0089293Y0030545D01*
X0089447Y0030602D01*
X0089603Y0030655D01*
X0089759Y0030705D01*
X0089917Y0030751D01*
X0090076Y0030792D01*
X0090236Y0030830D01*
X0090396Y0030864D01*
X0090558Y0030894D01*
X0090720Y0030921D01*
X0090883Y0030943D01*
X0091046Y0030961D01*
X0091210Y0030975D01*
X0091374Y0030985D01*
X0091538Y0030991D01*
X0091702Y0030993D01*
X0091866Y0030991D01*
X0092030Y0030985D01*
X0092194Y0030975D01*
X0092358Y0030961D01*
X0092521Y0030943D01*
X0092684Y0030921D01*
X0092846Y0030894D01*
X0093008Y0030864D01*
X0093168Y0030830D01*
X0093328Y0030792D01*
X0093487Y0030751D01*
X0093645Y0030705D01*
X0093801Y0030655D01*
X0093957Y0030602D01*
X0094111Y0030545D01*
X0094263Y0030484D01*
X0094414Y0030419D01*
X0094564Y0030350D01*
X0094711Y0030278D01*
X0094857Y0030203D01*
X0095001Y0030123D01*
X0095143Y0030041D01*
X0095283Y0029955D01*
X0095420Y0029865D01*
X0095556Y0029772D01*
X0095689Y0029676D01*
X0095820Y0029576D01*
X0095948Y0029474D01*
X0096074Y0029368D01*
X0096197Y0029259D01*
X0096317Y0029147D01*
X0096435Y0029033D01*
X0096549Y0028915D01*
X0096661Y0028795D01*
X0096770Y0028672D01*
X0096876Y0028546D01*
X0096978Y0028418D01*
X0097078Y0028287D01*
X0097174Y0028154D01*
X0097267Y0028018D01*
X0097357Y0027881D01*
X0097443Y0027741D01*
X0097525Y0027599D01*
X0097605Y0027455D01*
X0097680Y0027309D01*
X0097752Y0027162D01*
X0097821Y0027012D01*
X0097886Y0026861D01*
X0097947Y0026709D01*
X0098004Y0026555D01*
X0098057Y0026399D01*
X0098107Y0026243D01*
X0098153Y0026085D01*
X0098194Y0025926D01*
X0098232Y0025766D01*
X0098266Y0025606D01*
X0098296Y0025444D01*
X0098323Y0025282D01*
X0098345Y0025119D01*
X0098363Y0024956D01*
X0098377Y0024792D01*
X0098387Y0024628D01*
X0098393Y0024464D01*
X0098395Y0024300D01*
X0098393Y0024136D01*
X0098387Y0023972D01*
X0098377Y0023808D01*
X0098363Y0023644D01*
X0098345Y0023481D01*
X0098323Y0023318D01*
X0098296Y0023156D01*
X0098266Y0022994D01*
X0098232Y0022834D01*
X0098194Y0022674D01*
X0098153Y0022515D01*
X0098107Y0022357D01*
X0098057Y0022201D01*
X0098004Y0022045D01*
X0097947Y0021891D01*
X0097886Y0021739D01*
X0097821Y0021588D01*
X0097752Y0021438D01*
X0097680Y0021291D01*
X0097605Y0021145D01*
X0097525Y0021001D01*
X0097443Y0020859D01*
X0097357Y0020719D01*
X0097267Y0020582D01*
X0097174Y0020446D01*
X0097078Y0020313D01*
X0096978Y0020182D01*
X0096876Y0020054D01*
X0096770Y0019928D01*
X0096661Y0019805D01*
X0096549Y0019685D01*
X0096435Y0019567D01*
X0096317Y0019453D01*
X0096197Y0019341D01*
X0096074Y0019232D01*
X0095948Y0019126D01*
X0095820Y0019024D01*
X0095689Y0018924D01*
X0095556Y0018828D01*
X0095420Y0018735D01*
X0095283Y0018645D01*
X0095143Y0018559D01*
X0095001Y0018477D01*
X0094857Y0018397D01*
X0094711Y0018322D01*
X0094564Y0018250D01*
X0094414Y0018181D01*
X0094263Y0018116D01*
X0094111Y0018055D01*
X0093957Y0017998D01*
X0093801Y0017945D01*
X0093645Y0017895D01*
X0093487Y0017849D01*
X0093328Y0017808D01*
X0093168Y0017770D01*
X0093008Y0017736D01*
X0092846Y0017706D01*
X0092684Y0017679D01*
X0092521Y0017657D01*
X0092358Y0017639D01*
X0092194Y0017625D01*
X0092030Y0017615D01*
X0091866Y0017609D01*
X0091702Y0017607D01*
X0091538Y0017609D01*
X0091374Y0017615D01*
X0091210Y0017625D01*
X0091046Y0017639D01*
X0090883Y0017657D01*
X0090720Y0017679D01*
X0090558Y0017706D01*
X0090396Y0017736D01*
X0090236Y0017770D01*
X0090076Y0017808D01*
X0089917Y0017849D01*
X0089759Y0017895D01*
X0089603Y0017945D01*
X0089447Y0017998D01*
X0089293Y0018055D01*
X0089141Y0018116D01*
X0088990Y0018181D01*
X0088840Y0018250D01*
X0088693Y0018322D01*
X0088547Y0018397D01*
X0088403Y0018477D01*
X0088261Y0018559D01*
X0088121Y0018645D01*
X0087984Y0018735D01*
X0087848Y0018828D01*
X0087715Y0018924D01*
X0087584Y0019024D01*
X0087456Y0019126D01*
X0087330Y0019232D01*
X0087207Y0019341D01*
X0087087Y0019453D01*
X0086969Y0019567D01*
X0086855Y0019685D01*
X0086743Y0019805D01*
X0086634Y0019928D01*
X0086528Y0020054D01*
X0086426Y0020182D01*
X0086326Y0020313D01*
X0086230Y0020446D01*
X0086137Y0020582D01*
X0086047Y0020719D01*
X0085961Y0020859D01*
X0085879Y0021001D01*
X0085799Y0021145D01*
X0085724Y0021291D01*
X0085652Y0021438D01*
X0085583Y0021588D01*
X0085518Y0021739D01*
X0085457Y0021891D01*
X0085400Y0022045D01*
X0085347Y0022201D01*
X0085297Y0022357D01*
X0085251Y0022515D01*
X0085210Y0022674D01*
X0085172Y0022834D01*
X0085138Y0022994D01*
X0085108Y0023156D01*
X0085081Y0023318D01*
X0085059Y0023481D01*
X0085041Y0023644D01*
X0085027Y0023808D01*
X0085017Y0023972D01*
X0085011Y0024136D01*
X0085009Y0024300D01*
D12*
X0106800Y0020560D03*
X0106800Y0028040D03*
X0054300Y0033060D03*
X0054300Y0040540D03*
X0054300Y0015540D03*
X0054300Y0008060D03*
M02*
