G75*
%MOIN*%
%OFA0B0*%
%FSLAX25Y25*%
%IPPOS*%
%LPD*%
%AMOC8*
5,1,8,0,0,1.08239X$1,22.5*
%
%ADD10C,0.00000*%
%ADD11R,0.07000X0.07000*%
%ADD12C,0.07800*%
%ADD13C,0.07400*%
%ADD14C,0.06000*%
%ADD15OC8,0.06300*%
%ADD16C,0.06300*%
%ADD17R,0.06500X0.06500*%
%ADD18C,0.06500*%
%ADD19C,0.03200*%
%ADD20R,0.06600X0.06600*%
%ADD21C,0.04000*%
D10*
X0002600Y0002600D02*
X0002600Y0272561D01*
X0236301Y0272561D01*
X0236301Y0002600D01*
X0002600Y0002600D01*
X0007088Y0012600D02*
X0007090Y0012748D01*
X0007096Y0012896D01*
X0007106Y0013044D01*
X0007120Y0013191D01*
X0007138Y0013338D01*
X0007159Y0013484D01*
X0007185Y0013630D01*
X0007215Y0013775D01*
X0007248Y0013919D01*
X0007286Y0014062D01*
X0007327Y0014204D01*
X0007372Y0014345D01*
X0007420Y0014485D01*
X0007473Y0014624D01*
X0007529Y0014761D01*
X0007589Y0014896D01*
X0007652Y0015030D01*
X0007719Y0015162D01*
X0007790Y0015292D01*
X0007864Y0015420D01*
X0007941Y0015546D01*
X0008022Y0015670D01*
X0008106Y0015792D01*
X0008193Y0015911D01*
X0008284Y0016028D01*
X0008378Y0016143D01*
X0008474Y0016255D01*
X0008574Y0016365D01*
X0008676Y0016471D01*
X0008782Y0016575D01*
X0008890Y0016676D01*
X0009001Y0016774D01*
X0009114Y0016870D01*
X0009230Y0016962D01*
X0009348Y0017051D01*
X0009469Y0017136D01*
X0009592Y0017219D01*
X0009717Y0017298D01*
X0009844Y0017374D01*
X0009973Y0017446D01*
X0010104Y0017515D01*
X0010237Y0017580D01*
X0010372Y0017641D01*
X0010508Y0017699D01*
X0010645Y0017754D01*
X0010784Y0017804D01*
X0010925Y0017851D01*
X0011066Y0017894D01*
X0011209Y0017934D01*
X0011353Y0017969D01*
X0011497Y0018001D01*
X0011643Y0018028D01*
X0011789Y0018052D01*
X0011936Y0018072D01*
X0012083Y0018088D01*
X0012230Y0018100D01*
X0012378Y0018108D01*
X0012526Y0018112D01*
X0012674Y0018112D01*
X0012822Y0018108D01*
X0012970Y0018100D01*
X0013117Y0018088D01*
X0013264Y0018072D01*
X0013411Y0018052D01*
X0013557Y0018028D01*
X0013703Y0018001D01*
X0013847Y0017969D01*
X0013991Y0017934D01*
X0014134Y0017894D01*
X0014275Y0017851D01*
X0014416Y0017804D01*
X0014555Y0017754D01*
X0014692Y0017699D01*
X0014828Y0017641D01*
X0014963Y0017580D01*
X0015096Y0017515D01*
X0015227Y0017446D01*
X0015356Y0017374D01*
X0015483Y0017298D01*
X0015608Y0017219D01*
X0015731Y0017136D01*
X0015852Y0017051D01*
X0015970Y0016962D01*
X0016086Y0016870D01*
X0016199Y0016774D01*
X0016310Y0016676D01*
X0016418Y0016575D01*
X0016524Y0016471D01*
X0016626Y0016365D01*
X0016726Y0016255D01*
X0016822Y0016143D01*
X0016916Y0016028D01*
X0017007Y0015911D01*
X0017094Y0015792D01*
X0017178Y0015670D01*
X0017259Y0015546D01*
X0017336Y0015420D01*
X0017410Y0015292D01*
X0017481Y0015162D01*
X0017548Y0015030D01*
X0017611Y0014896D01*
X0017671Y0014761D01*
X0017727Y0014624D01*
X0017780Y0014485D01*
X0017828Y0014345D01*
X0017873Y0014204D01*
X0017914Y0014062D01*
X0017952Y0013919D01*
X0017985Y0013775D01*
X0018015Y0013630D01*
X0018041Y0013484D01*
X0018062Y0013338D01*
X0018080Y0013191D01*
X0018094Y0013044D01*
X0018104Y0012896D01*
X0018110Y0012748D01*
X0018112Y0012600D01*
X0018110Y0012452D01*
X0018104Y0012304D01*
X0018094Y0012156D01*
X0018080Y0012009D01*
X0018062Y0011862D01*
X0018041Y0011716D01*
X0018015Y0011570D01*
X0017985Y0011425D01*
X0017952Y0011281D01*
X0017914Y0011138D01*
X0017873Y0010996D01*
X0017828Y0010855D01*
X0017780Y0010715D01*
X0017727Y0010576D01*
X0017671Y0010439D01*
X0017611Y0010304D01*
X0017548Y0010170D01*
X0017481Y0010038D01*
X0017410Y0009908D01*
X0017336Y0009780D01*
X0017259Y0009654D01*
X0017178Y0009530D01*
X0017094Y0009408D01*
X0017007Y0009289D01*
X0016916Y0009172D01*
X0016822Y0009057D01*
X0016726Y0008945D01*
X0016626Y0008835D01*
X0016524Y0008729D01*
X0016418Y0008625D01*
X0016310Y0008524D01*
X0016199Y0008426D01*
X0016086Y0008330D01*
X0015970Y0008238D01*
X0015852Y0008149D01*
X0015731Y0008064D01*
X0015608Y0007981D01*
X0015483Y0007902D01*
X0015356Y0007826D01*
X0015227Y0007754D01*
X0015096Y0007685D01*
X0014963Y0007620D01*
X0014828Y0007559D01*
X0014692Y0007501D01*
X0014555Y0007446D01*
X0014416Y0007396D01*
X0014275Y0007349D01*
X0014134Y0007306D01*
X0013991Y0007266D01*
X0013847Y0007231D01*
X0013703Y0007199D01*
X0013557Y0007172D01*
X0013411Y0007148D01*
X0013264Y0007128D01*
X0013117Y0007112D01*
X0012970Y0007100D01*
X0012822Y0007092D01*
X0012674Y0007088D01*
X0012526Y0007088D01*
X0012378Y0007092D01*
X0012230Y0007100D01*
X0012083Y0007112D01*
X0011936Y0007128D01*
X0011789Y0007148D01*
X0011643Y0007172D01*
X0011497Y0007199D01*
X0011353Y0007231D01*
X0011209Y0007266D01*
X0011066Y0007306D01*
X0010925Y0007349D01*
X0010784Y0007396D01*
X0010645Y0007446D01*
X0010508Y0007501D01*
X0010372Y0007559D01*
X0010237Y0007620D01*
X0010104Y0007685D01*
X0009973Y0007754D01*
X0009844Y0007826D01*
X0009717Y0007902D01*
X0009592Y0007981D01*
X0009469Y0008064D01*
X0009348Y0008149D01*
X0009230Y0008238D01*
X0009114Y0008330D01*
X0009001Y0008426D01*
X0008890Y0008524D01*
X0008782Y0008625D01*
X0008676Y0008729D01*
X0008574Y0008835D01*
X0008474Y0008945D01*
X0008378Y0009057D01*
X0008284Y0009172D01*
X0008193Y0009289D01*
X0008106Y0009408D01*
X0008022Y0009530D01*
X0007941Y0009654D01*
X0007864Y0009780D01*
X0007790Y0009908D01*
X0007719Y0010038D01*
X0007652Y0010170D01*
X0007589Y0010304D01*
X0007529Y0010439D01*
X0007473Y0010576D01*
X0007420Y0010715D01*
X0007372Y0010855D01*
X0007327Y0010996D01*
X0007286Y0011138D01*
X0007248Y0011281D01*
X0007215Y0011425D01*
X0007185Y0011570D01*
X0007159Y0011716D01*
X0007138Y0011862D01*
X0007120Y0012009D01*
X0007106Y0012156D01*
X0007096Y0012304D01*
X0007090Y0012452D01*
X0007088Y0012600D01*
X0007088Y0262600D02*
X0007090Y0262748D01*
X0007096Y0262896D01*
X0007106Y0263044D01*
X0007120Y0263191D01*
X0007138Y0263338D01*
X0007159Y0263484D01*
X0007185Y0263630D01*
X0007215Y0263775D01*
X0007248Y0263919D01*
X0007286Y0264062D01*
X0007327Y0264204D01*
X0007372Y0264345D01*
X0007420Y0264485D01*
X0007473Y0264624D01*
X0007529Y0264761D01*
X0007589Y0264896D01*
X0007652Y0265030D01*
X0007719Y0265162D01*
X0007790Y0265292D01*
X0007864Y0265420D01*
X0007941Y0265546D01*
X0008022Y0265670D01*
X0008106Y0265792D01*
X0008193Y0265911D01*
X0008284Y0266028D01*
X0008378Y0266143D01*
X0008474Y0266255D01*
X0008574Y0266365D01*
X0008676Y0266471D01*
X0008782Y0266575D01*
X0008890Y0266676D01*
X0009001Y0266774D01*
X0009114Y0266870D01*
X0009230Y0266962D01*
X0009348Y0267051D01*
X0009469Y0267136D01*
X0009592Y0267219D01*
X0009717Y0267298D01*
X0009844Y0267374D01*
X0009973Y0267446D01*
X0010104Y0267515D01*
X0010237Y0267580D01*
X0010372Y0267641D01*
X0010508Y0267699D01*
X0010645Y0267754D01*
X0010784Y0267804D01*
X0010925Y0267851D01*
X0011066Y0267894D01*
X0011209Y0267934D01*
X0011353Y0267969D01*
X0011497Y0268001D01*
X0011643Y0268028D01*
X0011789Y0268052D01*
X0011936Y0268072D01*
X0012083Y0268088D01*
X0012230Y0268100D01*
X0012378Y0268108D01*
X0012526Y0268112D01*
X0012674Y0268112D01*
X0012822Y0268108D01*
X0012970Y0268100D01*
X0013117Y0268088D01*
X0013264Y0268072D01*
X0013411Y0268052D01*
X0013557Y0268028D01*
X0013703Y0268001D01*
X0013847Y0267969D01*
X0013991Y0267934D01*
X0014134Y0267894D01*
X0014275Y0267851D01*
X0014416Y0267804D01*
X0014555Y0267754D01*
X0014692Y0267699D01*
X0014828Y0267641D01*
X0014963Y0267580D01*
X0015096Y0267515D01*
X0015227Y0267446D01*
X0015356Y0267374D01*
X0015483Y0267298D01*
X0015608Y0267219D01*
X0015731Y0267136D01*
X0015852Y0267051D01*
X0015970Y0266962D01*
X0016086Y0266870D01*
X0016199Y0266774D01*
X0016310Y0266676D01*
X0016418Y0266575D01*
X0016524Y0266471D01*
X0016626Y0266365D01*
X0016726Y0266255D01*
X0016822Y0266143D01*
X0016916Y0266028D01*
X0017007Y0265911D01*
X0017094Y0265792D01*
X0017178Y0265670D01*
X0017259Y0265546D01*
X0017336Y0265420D01*
X0017410Y0265292D01*
X0017481Y0265162D01*
X0017548Y0265030D01*
X0017611Y0264896D01*
X0017671Y0264761D01*
X0017727Y0264624D01*
X0017780Y0264485D01*
X0017828Y0264345D01*
X0017873Y0264204D01*
X0017914Y0264062D01*
X0017952Y0263919D01*
X0017985Y0263775D01*
X0018015Y0263630D01*
X0018041Y0263484D01*
X0018062Y0263338D01*
X0018080Y0263191D01*
X0018094Y0263044D01*
X0018104Y0262896D01*
X0018110Y0262748D01*
X0018112Y0262600D01*
X0018110Y0262452D01*
X0018104Y0262304D01*
X0018094Y0262156D01*
X0018080Y0262009D01*
X0018062Y0261862D01*
X0018041Y0261716D01*
X0018015Y0261570D01*
X0017985Y0261425D01*
X0017952Y0261281D01*
X0017914Y0261138D01*
X0017873Y0260996D01*
X0017828Y0260855D01*
X0017780Y0260715D01*
X0017727Y0260576D01*
X0017671Y0260439D01*
X0017611Y0260304D01*
X0017548Y0260170D01*
X0017481Y0260038D01*
X0017410Y0259908D01*
X0017336Y0259780D01*
X0017259Y0259654D01*
X0017178Y0259530D01*
X0017094Y0259408D01*
X0017007Y0259289D01*
X0016916Y0259172D01*
X0016822Y0259057D01*
X0016726Y0258945D01*
X0016626Y0258835D01*
X0016524Y0258729D01*
X0016418Y0258625D01*
X0016310Y0258524D01*
X0016199Y0258426D01*
X0016086Y0258330D01*
X0015970Y0258238D01*
X0015852Y0258149D01*
X0015731Y0258064D01*
X0015608Y0257981D01*
X0015483Y0257902D01*
X0015356Y0257826D01*
X0015227Y0257754D01*
X0015096Y0257685D01*
X0014963Y0257620D01*
X0014828Y0257559D01*
X0014692Y0257501D01*
X0014555Y0257446D01*
X0014416Y0257396D01*
X0014275Y0257349D01*
X0014134Y0257306D01*
X0013991Y0257266D01*
X0013847Y0257231D01*
X0013703Y0257199D01*
X0013557Y0257172D01*
X0013411Y0257148D01*
X0013264Y0257128D01*
X0013117Y0257112D01*
X0012970Y0257100D01*
X0012822Y0257092D01*
X0012674Y0257088D01*
X0012526Y0257088D01*
X0012378Y0257092D01*
X0012230Y0257100D01*
X0012083Y0257112D01*
X0011936Y0257128D01*
X0011789Y0257148D01*
X0011643Y0257172D01*
X0011497Y0257199D01*
X0011353Y0257231D01*
X0011209Y0257266D01*
X0011066Y0257306D01*
X0010925Y0257349D01*
X0010784Y0257396D01*
X0010645Y0257446D01*
X0010508Y0257501D01*
X0010372Y0257559D01*
X0010237Y0257620D01*
X0010104Y0257685D01*
X0009973Y0257754D01*
X0009844Y0257826D01*
X0009717Y0257902D01*
X0009592Y0257981D01*
X0009469Y0258064D01*
X0009348Y0258149D01*
X0009230Y0258238D01*
X0009114Y0258330D01*
X0009001Y0258426D01*
X0008890Y0258524D01*
X0008782Y0258625D01*
X0008676Y0258729D01*
X0008574Y0258835D01*
X0008474Y0258945D01*
X0008378Y0259057D01*
X0008284Y0259172D01*
X0008193Y0259289D01*
X0008106Y0259408D01*
X0008022Y0259530D01*
X0007941Y0259654D01*
X0007864Y0259780D01*
X0007790Y0259908D01*
X0007719Y0260038D01*
X0007652Y0260170D01*
X0007589Y0260304D01*
X0007529Y0260439D01*
X0007473Y0260576D01*
X0007420Y0260715D01*
X0007372Y0260855D01*
X0007327Y0260996D01*
X0007286Y0261138D01*
X0007248Y0261281D01*
X0007215Y0261425D01*
X0007185Y0261570D01*
X0007159Y0261716D01*
X0007138Y0261862D01*
X0007120Y0262009D01*
X0007106Y0262156D01*
X0007096Y0262304D01*
X0007090Y0262452D01*
X0007088Y0262600D01*
X0222088Y0262600D02*
X0222090Y0262748D01*
X0222096Y0262896D01*
X0222106Y0263044D01*
X0222120Y0263191D01*
X0222138Y0263338D01*
X0222159Y0263484D01*
X0222185Y0263630D01*
X0222215Y0263775D01*
X0222248Y0263919D01*
X0222286Y0264062D01*
X0222327Y0264204D01*
X0222372Y0264345D01*
X0222420Y0264485D01*
X0222473Y0264624D01*
X0222529Y0264761D01*
X0222589Y0264896D01*
X0222652Y0265030D01*
X0222719Y0265162D01*
X0222790Y0265292D01*
X0222864Y0265420D01*
X0222941Y0265546D01*
X0223022Y0265670D01*
X0223106Y0265792D01*
X0223193Y0265911D01*
X0223284Y0266028D01*
X0223378Y0266143D01*
X0223474Y0266255D01*
X0223574Y0266365D01*
X0223676Y0266471D01*
X0223782Y0266575D01*
X0223890Y0266676D01*
X0224001Y0266774D01*
X0224114Y0266870D01*
X0224230Y0266962D01*
X0224348Y0267051D01*
X0224469Y0267136D01*
X0224592Y0267219D01*
X0224717Y0267298D01*
X0224844Y0267374D01*
X0224973Y0267446D01*
X0225104Y0267515D01*
X0225237Y0267580D01*
X0225372Y0267641D01*
X0225508Y0267699D01*
X0225645Y0267754D01*
X0225784Y0267804D01*
X0225925Y0267851D01*
X0226066Y0267894D01*
X0226209Y0267934D01*
X0226353Y0267969D01*
X0226497Y0268001D01*
X0226643Y0268028D01*
X0226789Y0268052D01*
X0226936Y0268072D01*
X0227083Y0268088D01*
X0227230Y0268100D01*
X0227378Y0268108D01*
X0227526Y0268112D01*
X0227674Y0268112D01*
X0227822Y0268108D01*
X0227970Y0268100D01*
X0228117Y0268088D01*
X0228264Y0268072D01*
X0228411Y0268052D01*
X0228557Y0268028D01*
X0228703Y0268001D01*
X0228847Y0267969D01*
X0228991Y0267934D01*
X0229134Y0267894D01*
X0229275Y0267851D01*
X0229416Y0267804D01*
X0229555Y0267754D01*
X0229692Y0267699D01*
X0229828Y0267641D01*
X0229963Y0267580D01*
X0230096Y0267515D01*
X0230227Y0267446D01*
X0230356Y0267374D01*
X0230483Y0267298D01*
X0230608Y0267219D01*
X0230731Y0267136D01*
X0230852Y0267051D01*
X0230970Y0266962D01*
X0231086Y0266870D01*
X0231199Y0266774D01*
X0231310Y0266676D01*
X0231418Y0266575D01*
X0231524Y0266471D01*
X0231626Y0266365D01*
X0231726Y0266255D01*
X0231822Y0266143D01*
X0231916Y0266028D01*
X0232007Y0265911D01*
X0232094Y0265792D01*
X0232178Y0265670D01*
X0232259Y0265546D01*
X0232336Y0265420D01*
X0232410Y0265292D01*
X0232481Y0265162D01*
X0232548Y0265030D01*
X0232611Y0264896D01*
X0232671Y0264761D01*
X0232727Y0264624D01*
X0232780Y0264485D01*
X0232828Y0264345D01*
X0232873Y0264204D01*
X0232914Y0264062D01*
X0232952Y0263919D01*
X0232985Y0263775D01*
X0233015Y0263630D01*
X0233041Y0263484D01*
X0233062Y0263338D01*
X0233080Y0263191D01*
X0233094Y0263044D01*
X0233104Y0262896D01*
X0233110Y0262748D01*
X0233112Y0262600D01*
X0233110Y0262452D01*
X0233104Y0262304D01*
X0233094Y0262156D01*
X0233080Y0262009D01*
X0233062Y0261862D01*
X0233041Y0261716D01*
X0233015Y0261570D01*
X0232985Y0261425D01*
X0232952Y0261281D01*
X0232914Y0261138D01*
X0232873Y0260996D01*
X0232828Y0260855D01*
X0232780Y0260715D01*
X0232727Y0260576D01*
X0232671Y0260439D01*
X0232611Y0260304D01*
X0232548Y0260170D01*
X0232481Y0260038D01*
X0232410Y0259908D01*
X0232336Y0259780D01*
X0232259Y0259654D01*
X0232178Y0259530D01*
X0232094Y0259408D01*
X0232007Y0259289D01*
X0231916Y0259172D01*
X0231822Y0259057D01*
X0231726Y0258945D01*
X0231626Y0258835D01*
X0231524Y0258729D01*
X0231418Y0258625D01*
X0231310Y0258524D01*
X0231199Y0258426D01*
X0231086Y0258330D01*
X0230970Y0258238D01*
X0230852Y0258149D01*
X0230731Y0258064D01*
X0230608Y0257981D01*
X0230483Y0257902D01*
X0230356Y0257826D01*
X0230227Y0257754D01*
X0230096Y0257685D01*
X0229963Y0257620D01*
X0229828Y0257559D01*
X0229692Y0257501D01*
X0229555Y0257446D01*
X0229416Y0257396D01*
X0229275Y0257349D01*
X0229134Y0257306D01*
X0228991Y0257266D01*
X0228847Y0257231D01*
X0228703Y0257199D01*
X0228557Y0257172D01*
X0228411Y0257148D01*
X0228264Y0257128D01*
X0228117Y0257112D01*
X0227970Y0257100D01*
X0227822Y0257092D01*
X0227674Y0257088D01*
X0227526Y0257088D01*
X0227378Y0257092D01*
X0227230Y0257100D01*
X0227083Y0257112D01*
X0226936Y0257128D01*
X0226789Y0257148D01*
X0226643Y0257172D01*
X0226497Y0257199D01*
X0226353Y0257231D01*
X0226209Y0257266D01*
X0226066Y0257306D01*
X0225925Y0257349D01*
X0225784Y0257396D01*
X0225645Y0257446D01*
X0225508Y0257501D01*
X0225372Y0257559D01*
X0225237Y0257620D01*
X0225104Y0257685D01*
X0224973Y0257754D01*
X0224844Y0257826D01*
X0224717Y0257902D01*
X0224592Y0257981D01*
X0224469Y0258064D01*
X0224348Y0258149D01*
X0224230Y0258238D01*
X0224114Y0258330D01*
X0224001Y0258426D01*
X0223890Y0258524D01*
X0223782Y0258625D01*
X0223676Y0258729D01*
X0223574Y0258835D01*
X0223474Y0258945D01*
X0223378Y0259057D01*
X0223284Y0259172D01*
X0223193Y0259289D01*
X0223106Y0259408D01*
X0223022Y0259530D01*
X0222941Y0259654D01*
X0222864Y0259780D01*
X0222790Y0259908D01*
X0222719Y0260038D01*
X0222652Y0260170D01*
X0222589Y0260304D01*
X0222529Y0260439D01*
X0222473Y0260576D01*
X0222420Y0260715D01*
X0222372Y0260855D01*
X0222327Y0260996D01*
X0222286Y0261138D01*
X0222248Y0261281D01*
X0222215Y0261425D01*
X0222185Y0261570D01*
X0222159Y0261716D01*
X0222138Y0261862D01*
X0222120Y0262009D01*
X0222106Y0262156D01*
X0222096Y0262304D01*
X0222090Y0262452D01*
X0222088Y0262600D01*
X0222088Y0012600D02*
X0222090Y0012748D01*
X0222096Y0012896D01*
X0222106Y0013044D01*
X0222120Y0013191D01*
X0222138Y0013338D01*
X0222159Y0013484D01*
X0222185Y0013630D01*
X0222215Y0013775D01*
X0222248Y0013919D01*
X0222286Y0014062D01*
X0222327Y0014204D01*
X0222372Y0014345D01*
X0222420Y0014485D01*
X0222473Y0014624D01*
X0222529Y0014761D01*
X0222589Y0014896D01*
X0222652Y0015030D01*
X0222719Y0015162D01*
X0222790Y0015292D01*
X0222864Y0015420D01*
X0222941Y0015546D01*
X0223022Y0015670D01*
X0223106Y0015792D01*
X0223193Y0015911D01*
X0223284Y0016028D01*
X0223378Y0016143D01*
X0223474Y0016255D01*
X0223574Y0016365D01*
X0223676Y0016471D01*
X0223782Y0016575D01*
X0223890Y0016676D01*
X0224001Y0016774D01*
X0224114Y0016870D01*
X0224230Y0016962D01*
X0224348Y0017051D01*
X0224469Y0017136D01*
X0224592Y0017219D01*
X0224717Y0017298D01*
X0224844Y0017374D01*
X0224973Y0017446D01*
X0225104Y0017515D01*
X0225237Y0017580D01*
X0225372Y0017641D01*
X0225508Y0017699D01*
X0225645Y0017754D01*
X0225784Y0017804D01*
X0225925Y0017851D01*
X0226066Y0017894D01*
X0226209Y0017934D01*
X0226353Y0017969D01*
X0226497Y0018001D01*
X0226643Y0018028D01*
X0226789Y0018052D01*
X0226936Y0018072D01*
X0227083Y0018088D01*
X0227230Y0018100D01*
X0227378Y0018108D01*
X0227526Y0018112D01*
X0227674Y0018112D01*
X0227822Y0018108D01*
X0227970Y0018100D01*
X0228117Y0018088D01*
X0228264Y0018072D01*
X0228411Y0018052D01*
X0228557Y0018028D01*
X0228703Y0018001D01*
X0228847Y0017969D01*
X0228991Y0017934D01*
X0229134Y0017894D01*
X0229275Y0017851D01*
X0229416Y0017804D01*
X0229555Y0017754D01*
X0229692Y0017699D01*
X0229828Y0017641D01*
X0229963Y0017580D01*
X0230096Y0017515D01*
X0230227Y0017446D01*
X0230356Y0017374D01*
X0230483Y0017298D01*
X0230608Y0017219D01*
X0230731Y0017136D01*
X0230852Y0017051D01*
X0230970Y0016962D01*
X0231086Y0016870D01*
X0231199Y0016774D01*
X0231310Y0016676D01*
X0231418Y0016575D01*
X0231524Y0016471D01*
X0231626Y0016365D01*
X0231726Y0016255D01*
X0231822Y0016143D01*
X0231916Y0016028D01*
X0232007Y0015911D01*
X0232094Y0015792D01*
X0232178Y0015670D01*
X0232259Y0015546D01*
X0232336Y0015420D01*
X0232410Y0015292D01*
X0232481Y0015162D01*
X0232548Y0015030D01*
X0232611Y0014896D01*
X0232671Y0014761D01*
X0232727Y0014624D01*
X0232780Y0014485D01*
X0232828Y0014345D01*
X0232873Y0014204D01*
X0232914Y0014062D01*
X0232952Y0013919D01*
X0232985Y0013775D01*
X0233015Y0013630D01*
X0233041Y0013484D01*
X0233062Y0013338D01*
X0233080Y0013191D01*
X0233094Y0013044D01*
X0233104Y0012896D01*
X0233110Y0012748D01*
X0233112Y0012600D01*
X0233110Y0012452D01*
X0233104Y0012304D01*
X0233094Y0012156D01*
X0233080Y0012009D01*
X0233062Y0011862D01*
X0233041Y0011716D01*
X0233015Y0011570D01*
X0232985Y0011425D01*
X0232952Y0011281D01*
X0232914Y0011138D01*
X0232873Y0010996D01*
X0232828Y0010855D01*
X0232780Y0010715D01*
X0232727Y0010576D01*
X0232671Y0010439D01*
X0232611Y0010304D01*
X0232548Y0010170D01*
X0232481Y0010038D01*
X0232410Y0009908D01*
X0232336Y0009780D01*
X0232259Y0009654D01*
X0232178Y0009530D01*
X0232094Y0009408D01*
X0232007Y0009289D01*
X0231916Y0009172D01*
X0231822Y0009057D01*
X0231726Y0008945D01*
X0231626Y0008835D01*
X0231524Y0008729D01*
X0231418Y0008625D01*
X0231310Y0008524D01*
X0231199Y0008426D01*
X0231086Y0008330D01*
X0230970Y0008238D01*
X0230852Y0008149D01*
X0230731Y0008064D01*
X0230608Y0007981D01*
X0230483Y0007902D01*
X0230356Y0007826D01*
X0230227Y0007754D01*
X0230096Y0007685D01*
X0229963Y0007620D01*
X0229828Y0007559D01*
X0229692Y0007501D01*
X0229555Y0007446D01*
X0229416Y0007396D01*
X0229275Y0007349D01*
X0229134Y0007306D01*
X0228991Y0007266D01*
X0228847Y0007231D01*
X0228703Y0007199D01*
X0228557Y0007172D01*
X0228411Y0007148D01*
X0228264Y0007128D01*
X0228117Y0007112D01*
X0227970Y0007100D01*
X0227822Y0007092D01*
X0227674Y0007088D01*
X0227526Y0007088D01*
X0227378Y0007092D01*
X0227230Y0007100D01*
X0227083Y0007112D01*
X0226936Y0007128D01*
X0226789Y0007148D01*
X0226643Y0007172D01*
X0226497Y0007199D01*
X0226353Y0007231D01*
X0226209Y0007266D01*
X0226066Y0007306D01*
X0225925Y0007349D01*
X0225784Y0007396D01*
X0225645Y0007446D01*
X0225508Y0007501D01*
X0225372Y0007559D01*
X0225237Y0007620D01*
X0225104Y0007685D01*
X0224973Y0007754D01*
X0224844Y0007826D01*
X0224717Y0007902D01*
X0224592Y0007981D01*
X0224469Y0008064D01*
X0224348Y0008149D01*
X0224230Y0008238D01*
X0224114Y0008330D01*
X0224001Y0008426D01*
X0223890Y0008524D01*
X0223782Y0008625D01*
X0223676Y0008729D01*
X0223574Y0008835D01*
X0223474Y0008945D01*
X0223378Y0009057D01*
X0223284Y0009172D01*
X0223193Y0009289D01*
X0223106Y0009408D01*
X0223022Y0009530D01*
X0222941Y0009654D01*
X0222864Y0009780D01*
X0222790Y0009908D01*
X0222719Y0010038D01*
X0222652Y0010170D01*
X0222589Y0010304D01*
X0222529Y0010439D01*
X0222473Y0010576D01*
X0222420Y0010715D01*
X0222372Y0010855D01*
X0222327Y0010996D01*
X0222286Y0011138D01*
X0222248Y0011281D01*
X0222215Y0011425D01*
X0222185Y0011570D01*
X0222159Y0011716D01*
X0222138Y0011862D01*
X0222120Y0012009D01*
X0222106Y0012156D01*
X0222096Y0012304D01*
X0222090Y0012452D01*
X0222088Y0012600D01*
D11*
X0202600Y0057600D03*
X0192600Y0057600D03*
X0182600Y0057600D03*
X0172600Y0057600D03*
X0162600Y0057600D03*
X0152600Y0057600D03*
X0142600Y0057600D03*
X0132600Y0057600D03*
X0172600Y0097600D03*
X0172600Y0107600D03*
X0162600Y0107600D03*
X0152600Y0107600D03*
X0142600Y0107600D03*
X0132600Y0107600D03*
X0122600Y0127600D03*
X0137600Y0142600D03*
X0137600Y0152600D03*
X0137600Y0162600D03*
X0137600Y0172600D03*
X0137600Y0182600D03*
X0137600Y0192600D03*
X0137600Y0202600D03*
X0137600Y0212600D03*
X0137600Y0222600D03*
X0137600Y0232600D03*
X0137600Y0242600D03*
X0137600Y0252600D03*
X0107600Y0257600D03*
X0107600Y0227600D03*
X0077600Y0222600D03*
X0077600Y0212600D03*
X0077600Y0202600D03*
X0077600Y0192600D03*
X0077600Y0182600D03*
X0077600Y0172600D03*
X0077600Y0162600D03*
X0077600Y0152600D03*
X0077600Y0142600D03*
X0092600Y0127600D03*
X0092600Y0107600D03*
X0082600Y0107600D03*
X0072600Y0107600D03*
X0062600Y0107600D03*
X0052600Y0107600D03*
X0042600Y0107600D03*
X0032600Y0107600D03*
X0022600Y0107600D03*
X0022600Y0057600D03*
X0032600Y0057600D03*
X0042600Y0057600D03*
X0052600Y0057600D03*
X0062600Y0057600D03*
X0072600Y0057600D03*
X0082600Y0057600D03*
X0092600Y0057600D03*
X0182600Y0107600D03*
X0192600Y0107600D03*
X0192600Y0097600D03*
X0202600Y0107600D03*
X0077600Y0232600D03*
X0077600Y0242600D03*
X0077600Y0252600D03*
D12*
X0182700Y0256500D02*
X0182700Y0248700D01*
X0202500Y0248700D02*
X0202500Y0256500D01*
X0197200Y0031500D02*
X0197200Y0023700D01*
X0177400Y0023700D02*
X0177400Y0031500D01*
X0157800Y0031500D02*
X0157800Y0023700D01*
X0138000Y0023700D02*
X0138000Y0031500D01*
X0092200Y0031500D02*
X0092200Y0023700D01*
X0072400Y0023700D02*
X0072400Y0031500D01*
X0052800Y0031500D02*
X0052800Y0023700D01*
X0033000Y0023700D02*
X0033000Y0031500D01*
D13*
X0047600Y0082600D03*
X0087600Y0082600D03*
X0152600Y0082600D03*
X0192600Y0082600D03*
X0117600Y0202600D03*
X0097600Y0202600D03*
X0097600Y0242600D03*
X0117600Y0242600D03*
D14*
X0154600Y0222600D02*
X0160600Y0222600D01*
X0160600Y0212600D02*
X0154600Y0212600D01*
X0154600Y0202600D02*
X0160600Y0202600D01*
X0160600Y0192600D02*
X0154600Y0192600D01*
X0154600Y0182600D02*
X0160600Y0182600D01*
X0160600Y0172600D02*
X0154600Y0172600D01*
X0154600Y0162600D02*
X0160600Y0162600D01*
X0160600Y0152600D02*
X0154600Y0152600D01*
D15*
X0107600Y0062600D03*
X0217600Y0062600D03*
D16*
X0227600Y0062600D03*
X0117600Y0062600D03*
D17*
X0042600Y0177600D03*
X0042600Y0217600D03*
X0032600Y0217600D03*
D18*
X0032600Y0227600D03*
X0042600Y0227600D03*
X0042600Y0197600D03*
X0042600Y0187600D03*
X0032600Y0187600D03*
X0032600Y0197600D03*
X0032600Y0177600D03*
D19*
X0092600Y0127600D02*
X0122600Y0127600D01*
X0172600Y0097600D02*
X0192600Y0097600D01*
X0107600Y0227600D02*
X0107600Y0257600D01*
D20*
X0112600Y0042600D03*
X0112600Y0007600D03*
D21*
X0112600Y0042600D01*
M02*
