G75*
%MOIN*%
%OFA0B0*%
%FSLAX25Y25*%
%IPPOS*%
%LPD*%
%AMOC8*
5,1,8,0,0,1.08239X$1,22.5*
%
%ADD10C,0.01000*%
%ADD11C,0.00000*%
%ADD12C,0.00500*%
%ADD13C,0.00100*%
%ADD14C,0.00800*%
D10*
X0001800Y0001800D02*
X0149300Y0001800D01*
X0149300Y0049300D01*
X0001800Y0049300D01*
X0001800Y0001800D01*
X0118100Y0014200D02*
X0118100Y0016200D01*
X0118100Y0022600D02*
X0118100Y0024400D01*
D11*
X0085009Y0024300D02*
X0085011Y0024464D01*
X0085017Y0024628D01*
X0085027Y0024792D01*
X0085041Y0024956D01*
X0085059Y0025119D01*
X0085081Y0025282D01*
X0085108Y0025444D01*
X0085138Y0025606D01*
X0085172Y0025766D01*
X0085210Y0025926D01*
X0085251Y0026085D01*
X0085297Y0026243D01*
X0085347Y0026399D01*
X0085400Y0026555D01*
X0085457Y0026709D01*
X0085518Y0026861D01*
X0085583Y0027012D01*
X0085652Y0027162D01*
X0085724Y0027309D01*
X0085799Y0027455D01*
X0085879Y0027599D01*
X0085961Y0027741D01*
X0086047Y0027881D01*
X0086137Y0028018D01*
X0086230Y0028154D01*
X0086326Y0028287D01*
X0086426Y0028418D01*
X0086528Y0028546D01*
X0086634Y0028672D01*
X0086743Y0028795D01*
X0086855Y0028915D01*
X0086969Y0029033D01*
X0087087Y0029147D01*
X0087207Y0029259D01*
X0087330Y0029368D01*
X0087456Y0029474D01*
X0087584Y0029576D01*
X0087715Y0029676D01*
X0087848Y0029772D01*
X0087984Y0029865D01*
X0088121Y0029955D01*
X0088261Y0030041D01*
X0088403Y0030123D01*
X0088547Y0030203D01*
X0088693Y0030278D01*
X0088840Y0030350D01*
X0088990Y0030419D01*
X0089141Y0030484D01*
X0089293Y0030545D01*
X0089447Y0030602D01*
X0089603Y0030655D01*
X0089759Y0030705D01*
X0089917Y0030751D01*
X0090076Y0030792D01*
X0090236Y0030830D01*
X0090396Y0030864D01*
X0090558Y0030894D01*
X0090720Y0030921D01*
X0090883Y0030943D01*
X0091046Y0030961D01*
X0091210Y0030975D01*
X0091374Y0030985D01*
X0091538Y0030991D01*
X0091702Y0030993D01*
X0091866Y0030991D01*
X0092030Y0030985D01*
X0092194Y0030975D01*
X0092358Y0030961D01*
X0092521Y0030943D01*
X0092684Y0030921D01*
X0092846Y0030894D01*
X0093008Y0030864D01*
X0093168Y0030830D01*
X0093328Y0030792D01*
X0093487Y0030751D01*
X0093645Y0030705D01*
X0093801Y0030655D01*
X0093957Y0030602D01*
X0094111Y0030545D01*
X0094263Y0030484D01*
X0094414Y0030419D01*
X0094564Y0030350D01*
X0094711Y0030278D01*
X0094857Y0030203D01*
X0095001Y0030123D01*
X0095143Y0030041D01*
X0095283Y0029955D01*
X0095420Y0029865D01*
X0095556Y0029772D01*
X0095689Y0029676D01*
X0095820Y0029576D01*
X0095948Y0029474D01*
X0096074Y0029368D01*
X0096197Y0029259D01*
X0096317Y0029147D01*
X0096435Y0029033D01*
X0096549Y0028915D01*
X0096661Y0028795D01*
X0096770Y0028672D01*
X0096876Y0028546D01*
X0096978Y0028418D01*
X0097078Y0028287D01*
X0097174Y0028154D01*
X0097267Y0028018D01*
X0097357Y0027881D01*
X0097443Y0027741D01*
X0097525Y0027599D01*
X0097605Y0027455D01*
X0097680Y0027309D01*
X0097752Y0027162D01*
X0097821Y0027012D01*
X0097886Y0026861D01*
X0097947Y0026709D01*
X0098004Y0026555D01*
X0098057Y0026399D01*
X0098107Y0026243D01*
X0098153Y0026085D01*
X0098194Y0025926D01*
X0098232Y0025766D01*
X0098266Y0025606D01*
X0098296Y0025444D01*
X0098323Y0025282D01*
X0098345Y0025119D01*
X0098363Y0024956D01*
X0098377Y0024792D01*
X0098387Y0024628D01*
X0098393Y0024464D01*
X0098395Y0024300D01*
X0098393Y0024136D01*
X0098387Y0023972D01*
X0098377Y0023808D01*
X0098363Y0023644D01*
X0098345Y0023481D01*
X0098323Y0023318D01*
X0098296Y0023156D01*
X0098266Y0022994D01*
X0098232Y0022834D01*
X0098194Y0022674D01*
X0098153Y0022515D01*
X0098107Y0022357D01*
X0098057Y0022201D01*
X0098004Y0022045D01*
X0097947Y0021891D01*
X0097886Y0021739D01*
X0097821Y0021588D01*
X0097752Y0021438D01*
X0097680Y0021291D01*
X0097605Y0021145D01*
X0097525Y0021001D01*
X0097443Y0020859D01*
X0097357Y0020719D01*
X0097267Y0020582D01*
X0097174Y0020446D01*
X0097078Y0020313D01*
X0096978Y0020182D01*
X0096876Y0020054D01*
X0096770Y0019928D01*
X0096661Y0019805D01*
X0096549Y0019685D01*
X0096435Y0019567D01*
X0096317Y0019453D01*
X0096197Y0019341D01*
X0096074Y0019232D01*
X0095948Y0019126D01*
X0095820Y0019024D01*
X0095689Y0018924D01*
X0095556Y0018828D01*
X0095420Y0018735D01*
X0095283Y0018645D01*
X0095143Y0018559D01*
X0095001Y0018477D01*
X0094857Y0018397D01*
X0094711Y0018322D01*
X0094564Y0018250D01*
X0094414Y0018181D01*
X0094263Y0018116D01*
X0094111Y0018055D01*
X0093957Y0017998D01*
X0093801Y0017945D01*
X0093645Y0017895D01*
X0093487Y0017849D01*
X0093328Y0017808D01*
X0093168Y0017770D01*
X0093008Y0017736D01*
X0092846Y0017706D01*
X0092684Y0017679D01*
X0092521Y0017657D01*
X0092358Y0017639D01*
X0092194Y0017625D01*
X0092030Y0017615D01*
X0091866Y0017609D01*
X0091702Y0017607D01*
X0091538Y0017609D01*
X0091374Y0017615D01*
X0091210Y0017625D01*
X0091046Y0017639D01*
X0090883Y0017657D01*
X0090720Y0017679D01*
X0090558Y0017706D01*
X0090396Y0017736D01*
X0090236Y0017770D01*
X0090076Y0017808D01*
X0089917Y0017849D01*
X0089759Y0017895D01*
X0089603Y0017945D01*
X0089447Y0017998D01*
X0089293Y0018055D01*
X0089141Y0018116D01*
X0088990Y0018181D01*
X0088840Y0018250D01*
X0088693Y0018322D01*
X0088547Y0018397D01*
X0088403Y0018477D01*
X0088261Y0018559D01*
X0088121Y0018645D01*
X0087984Y0018735D01*
X0087848Y0018828D01*
X0087715Y0018924D01*
X0087584Y0019024D01*
X0087456Y0019126D01*
X0087330Y0019232D01*
X0087207Y0019341D01*
X0087087Y0019453D01*
X0086969Y0019567D01*
X0086855Y0019685D01*
X0086743Y0019805D01*
X0086634Y0019928D01*
X0086528Y0020054D01*
X0086426Y0020182D01*
X0086326Y0020313D01*
X0086230Y0020446D01*
X0086137Y0020582D01*
X0086047Y0020719D01*
X0085961Y0020859D01*
X0085879Y0021001D01*
X0085799Y0021145D01*
X0085724Y0021291D01*
X0085652Y0021438D01*
X0085583Y0021588D01*
X0085518Y0021739D01*
X0085457Y0021891D01*
X0085400Y0022045D01*
X0085347Y0022201D01*
X0085297Y0022357D01*
X0085251Y0022515D01*
X0085210Y0022674D01*
X0085172Y0022834D01*
X0085138Y0022994D01*
X0085108Y0023156D01*
X0085081Y0023318D01*
X0085059Y0023481D01*
X0085041Y0023644D01*
X0085027Y0023808D01*
X0085017Y0023972D01*
X0085011Y0024136D01*
X0085009Y0024300D01*
X0010205Y0024300D02*
X0010207Y0024464D01*
X0010213Y0024628D01*
X0010223Y0024792D01*
X0010237Y0024956D01*
X0010255Y0025119D01*
X0010277Y0025282D01*
X0010304Y0025444D01*
X0010334Y0025606D01*
X0010368Y0025766D01*
X0010406Y0025926D01*
X0010447Y0026085D01*
X0010493Y0026243D01*
X0010543Y0026399D01*
X0010596Y0026555D01*
X0010653Y0026709D01*
X0010714Y0026861D01*
X0010779Y0027012D01*
X0010848Y0027162D01*
X0010920Y0027309D01*
X0010995Y0027455D01*
X0011075Y0027599D01*
X0011157Y0027741D01*
X0011243Y0027881D01*
X0011333Y0028018D01*
X0011426Y0028154D01*
X0011522Y0028287D01*
X0011622Y0028418D01*
X0011724Y0028546D01*
X0011830Y0028672D01*
X0011939Y0028795D01*
X0012051Y0028915D01*
X0012165Y0029033D01*
X0012283Y0029147D01*
X0012403Y0029259D01*
X0012526Y0029368D01*
X0012652Y0029474D01*
X0012780Y0029576D01*
X0012911Y0029676D01*
X0013044Y0029772D01*
X0013180Y0029865D01*
X0013317Y0029955D01*
X0013457Y0030041D01*
X0013599Y0030123D01*
X0013743Y0030203D01*
X0013889Y0030278D01*
X0014036Y0030350D01*
X0014186Y0030419D01*
X0014337Y0030484D01*
X0014489Y0030545D01*
X0014643Y0030602D01*
X0014799Y0030655D01*
X0014955Y0030705D01*
X0015113Y0030751D01*
X0015272Y0030792D01*
X0015432Y0030830D01*
X0015592Y0030864D01*
X0015754Y0030894D01*
X0015916Y0030921D01*
X0016079Y0030943D01*
X0016242Y0030961D01*
X0016406Y0030975D01*
X0016570Y0030985D01*
X0016734Y0030991D01*
X0016898Y0030993D01*
X0017062Y0030991D01*
X0017226Y0030985D01*
X0017390Y0030975D01*
X0017554Y0030961D01*
X0017717Y0030943D01*
X0017880Y0030921D01*
X0018042Y0030894D01*
X0018204Y0030864D01*
X0018364Y0030830D01*
X0018524Y0030792D01*
X0018683Y0030751D01*
X0018841Y0030705D01*
X0018997Y0030655D01*
X0019153Y0030602D01*
X0019307Y0030545D01*
X0019459Y0030484D01*
X0019610Y0030419D01*
X0019760Y0030350D01*
X0019907Y0030278D01*
X0020053Y0030203D01*
X0020197Y0030123D01*
X0020339Y0030041D01*
X0020479Y0029955D01*
X0020616Y0029865D01*
X0020752Y0029772D01*
X0020885Y0029676D01*
X0021016Y0029576D01*
X0021144Y0029474D01*
X0021270Y0029368D01*
X0021393Y0029259D01*
X0021513Y0029147D01*
X0021631Y0029033D01*
X0021745Y0028915D01*
X0021857Y0028795D01*
X0021966Y0028672D01*
X0022072Y0028546D01*
X0022174Y0028418D01*
X0022274Y0028287D01*
X0022370Y0028154D01*
X0022463Y0028018D01*
X0022553Y0027881D01*
X0022639Y0027741D01*
X0022721Y0027599D01*
X0022801Y0027455D01*
X0022876Y0027309D01*
X0022948Y0027162D01*
X0023017Y0027012D01*
X0023082Y0026861D01*
X0023143Y0026709D01*
X0023200Y0026555D01*
X0023253Y0026399D01*
X0023303Y0026243D01*
X0023349Y0026085D01*
X0023390Y0025926D01*
X0023428Y0025766D01*
X0023462Y0025606D01*
X0023492Y0025444D01*
X0023519Y0025282D01*
X0023541Y0025119D01*
X0023559Y0024956D01*
X0023573Y0024792D01*
X0023583Y0024628D01*
X0023589Y0024464D01*
X0023591Y0024300D01*
X0023589Y0024136D01*
X0023583Y0023972D01*
X0023573Y0023808D01*
X0023559Y0023644D01*
X0023541Y0023481D01*
X0023519Y0023318D01*
X0023492Y0023156D01*
X0023462Y0022994D01*
X0023428Y0022834D01*
X0023390Y0022674D01*
X0023349Y0022515D01*
X0023303Y0022357D01*
X0023253Y0022201D01*
X0023200Y0022045D01*
X0023143Y0021891D01*
X0023082Y0021739D01*
X0023017Y0021588D01*
X0022948Y0021438D01*
X0022876Y0021291D01*
X0022801Y0021145D01*
X0022721Y0021001D01*
X0022639Y0020859D01*
X0022553Y0020719D01*
X0022463Y0020582D01*
X0022370Y0020446D01*
X0022274Y0020313D01*
X0022174Y0020182D01*
X0022072Y0020054D01*
X0021966Y0019928D01*
X0021857Y0019805D01*
X0021745Y0019685D01*
X0021631Y0019567D01*
X0021513Y0019453D01*
X0021393Y0019341D01*
X0021270Y0019232D01*
X0021144Y0019126D01*
X0021016Y0019024D01*
X0020885Y0018924D01*
X0020752Y0018828D01*
X0020616Y0018735D01*
X0020479Y0018645D01*
X0020339Y0018559D01*
X0020197Y0018477D01*
X0020053Y0018397D01*
X0019907Y0018322D01*
X0019760Y0018250D01*
X0019610Y0018181D01*
X0019459Y0018116D01*
X0019307Y0018055D01*
X0019153Y0017998D01*
X0018997Y0017945D01*
X0018841Y0017895D01*
X0018683Y0017849D01*
X0018524Y0017808D01*
X0018364Y0017770D01*
X0018204Y0017736D01*
X0018042Y0017706D01*
X0017880Y0017679D01*
X0017717Y0017657D01*
X0017554Y0017639D01*
X0017390Y0017625D01*
X0017226Y0017615D01*
X0017062Y0017609D01*
X0016898Y0017607D01*
X0016734Y0017609D01*
X0016570Y0017615D01*
X0016406Y0017625D01*
X0016242Y0017639D01*
X0016079Y0017657D01*
X0015916Y0017679D01*
X0015754Y0017706D01*
X0015592Y0017736D01*
X0015432Y0017770D01*
X0015272Y0017808D01*
X0015113Y0017849D01*
X0014955Y0017895D01*
X0014799Y0017945D01*
X0014643Y0017998D01*
X0014489Y0018055D01*
X0014337Y0018116D01*
X0014186Y0018181D01*
X0014036Y0018250D01*
X0013889Y0018322D01*
X0013743Y0018397D01*
X0013599Y0018477D01*
X0013457Y0018559D01*
X0013317Y0018645D01*
X0013180Y0018735D01*
X0013044Y0018828D01*
X0012911Y0018924D01*
X0012780Y0019024D01*
X0012652Y0019126D01*
X0012526Y0019232D01*
X0012403Y0019341D01*
X0012283Y0019453D01*
X0012165Y0019567D01*
X0012051Y0019685D01*
X0011939Y0019805D01*
X0011830Y0019928D01*
X0011724Y0020054D01*
X0011622Y0020182D01*
X0011522Y0020313D01*
X0011426Y0020446D01*
X0011333Y0020582D01*
X0011243Y0020719D01*
X0011157Y0020859D01*
X0011075Y0021001D01*
X0010995Y0021145D01*
X0010920Y0021291D01*
X0010848Y0021438D01*
X0010779Y0021588D01*
X0010714Y0021739D01*
X0010653Y0021891D01*
X0010596Y0022045D01*
X0010543Y0022201D01*
X0010493Y0022357D01*
X0010447Y0022515D01*
X0010406Y0022674D01*
X0010368Y0022834D01*
X0010334Y0022994D01*
X0010304Y0023156D01*
X0010277Y0023318D01*
X0010255Y0023481D01*
X0010237Y0023644D01*
X0010223Y0023808D01*
X0010213Y0023972D01*
X0010207Y0024136D01*
X0010205Y0024300D01*
D12*
X0006269Y0014064D02*
X0006271Y0013969D01*
X0006277Y0013874D01*
X0006286Y0013779D01*
X0006300Y0013685D01*
X0006317Y0013592D01*
X0006338Y0013499D01*
X0006362Y0013407D01*
X0006391Y0013316D01*
X0006422Y0013226D01*
X0006458Y0013138D01*
X0006497Y0013051D01*
X0006540Y0012966D01*
X0006585Y0012883D01*
X0006635Y0012802D01*
X0006687Y0012722D01*
X0006743Y0012645D01*
X0006801Y0012570D01*
X0006863Y0012498D01*
X0006928Y0012428D01*
X0006995Y0012361D01*
X0007065Y0012296D01*
X0007137Y0012234D01*
X0007212Y0012176D01*
X0007289Y0012120D01*
X0007369Y0012068D01*
X0007450Y0012018D01*
X0007533Y0011973D01*
X0007618Y0011930D01*
X0007705Y0011891D01*
X0007793Y0011855D01*
X0007883Y0011824D01*
X0007974Y0011795D01*
X0008066Y0011771D01*
X0008159Y0011750D01*
X0008252Y0011733D01*
X0008346Y0011719D01*
X0008441Y0011710D01*
X0008536Y0011704D01*
X0008631Y0011702D01*
X0099969Y0011702D01*
X0100064Y0011704D01*
X0100159Y0011710D01*
X0100254Y0011719D01*
X0100348Y0011733D01*
X0100441Y0011750D01*
X0100534Y0011771D01*
X0100626Y0011795D01*
X0100717Y0011824D01*
X0100807Y0011855D01*
X0100895Y0011891D01*
X0100982Y0011930D01*
X0101067Y0011973D01*
X0101150Y0012018D01*
X0101231Y0012068D01*
X0101311Y0012120D01*
X0101388Y0012176D01*
X0101463Y0012234D01*
X0101535Y0012296D01*
X0101605Y0012361D01*
X0101672Y0012428D01*
X0101737Y0012498D01*
X0101799Y0012570D01*
X0101857Y0012645D01*
X0101913Y0012722D01*
X0101965Y0012802D01*
X0102015Y0012883D01*
X0102060Y0012966D01*
X0102103Y0013051D01*
X0102142Y0013138D01*
X0102178Y0013226D01*
X0102209Y0013316D01*
X0102238Y0013407D01*
X0102262Y0013499D01*
X0102283Y0013592D01*
X0102300Y0013685D01*
X0102314Y0013779D01*
X0102323Y0013874D01*
X0102329Y0013969D01*
X0102331Y0014064D01*
X0102331Y0034536D01*
X0102329Y0034631D01*
X0102323Y0034726D01*
X0102314Y0034821D01*
X0102300Y0034915D01*
X0102283Y0035008D01*
X0102262Y0035101D01*
X0102238Y0035193D01*
X0102209Y0035284D01*
X0102178Y0035374D01*
X0102142Y0035462D01*
X0102103Y0035549D01*
X0102060Y0035634D01*
X0102015Y0035717D01*
X0101965Y0035798D01*
X0101913Y0035878D01*
X0101857Y0035955D01*
X0101799Y0036030D01*
X0101737Y0036102D01*
X0101672Y0036172D01*
X0101605Y0036239D01*
X0101535Y0036304D01*
X0101463Y0036366D01*
X0101388Y0036424D01*
X0101311Y0036480D01*
X0101231Y0036532D01*
X0101150Y0036582D01*
X0101067Y0036627D01*
X0100982Y0036670D01*
X0100895Y0036709D01*
X0100807Y0036745D01*
X0100717Y0036776D01*
X0100626Y0036805D01*
X0100534Y0036829D01*
X0100441Y0036850D01*
X0100348Y0036867D01*
X0100254Y0036881D01*
X0100159Y0036890D01*
X0100064Y0036896D01*
X0099969Y0036898D01*
X0008631Y0036898D01*
X0008536Y0036896D01*
X0008441Y0036890D01*
X0008346Y0036881D01*
X0008252Y0036867D01*
X0008159Y0036850D01*
X0008066Y0036829D01*
X0007974Y0036805D01*
X0007883Y0036776D01*
X0007793Y0036745D01*
X0007705Y0036709D01*
X0007618Y0036670D01*
X0007533Y0036627D01*
X0007450Y0036582D01*
X0007369Y0036532D01*
X0007289Y0036480D01*
X0007212Y0036424D01*
X0007137Y0036366D01*
X0007065Y0036304D01*
X0006995Y0036239D01*
X0006928Y0036172D01*
X0006863Y0036102D01*
X0006801Y0036030D01*
X0006743Y0035955D01*
X0006687Y0035878D01*
X0006635Y0035798D01*
X0006585Y0035717D01*
X0006540Y0035634D01*
X0006497Y0035549D01*
X0006458Y0035462D01*
X0006422Y0035374D01*
X0006391Y0035284D01*
X0006362Y0035193D01*
X0006338Y0035101D01*
X0006317Y0035008D01*
X0006300Y0034915D01*
X0006286Y0034821D01*
X0006277Y0034726D01*
X0006271Y0034631D01*
X0006269Y0034536D01*
X0006269Y0014064D01*
X0030875Y0011898D02*
X0030875Y0036702D01*
X0048198Y0036702D02*
X0048198Y0011898D01*
X0060402Y0011898D02*
X0060402Y0036702D01*
X0077725Y0036702D02*
X0077725Y0011898D01*
D13*
X0124350Y0010851D02*
X0124350Y0011751D01*
X0124350Y0011750D02*
X0124533Y0011754D01*
X0124716Y0011761D01*
X0124899Y0011774D01*
X0125082Y0011791D01*
X0125264Y0011812D01*
X0125445Y0011837D01*
X0125626Y0011867D01*
X0125806Y0011902D01*
X0125985Y0011940D01*
X0126163Y0011983D01*
X0126340Y0012031D01*
X0126515Y0012082D01*
X0126690Y0012138D01*
X0126863Y0012198D01*
X0127034Y0012263D01*
X0127204Y0012331D01*
X0127373Y0012403D01*
X0127539Y0012480D01*
X0127703Y0012561D01*
X0127866Y0012645D01*
X0128026Y0012734D01*
X0128185Y0012826D01*
X0128341Y0012922D01*
X0128494Y0013022D01*
X0128645Y0013126D01*
X0128794Y0013233D01*
X0128940Y0013344D01*
X0129083Y0013458D01*
X0129223Y0013576D01*
X0129360Y0013697D01*
X0129495Y0013821D01*
X0129626Y0013949D01*
X0129755Y0014080D01*
X0129880Y0014214D01*
X0130001Y0014350D01*
X0130120Y0014490D01*
X0130235Y0014633D01*
X0130346Y0014778D01*
X0130454Y0014926D01*
X0130558Y0015077D01*
X0130659Y0015230D01*
X0130756Y0015385D01*
X0130849Y0015543D01*
X0130938Y0015703D01*
X0131732Y0015280D01*
X0131632Y0015100D01*
X0131528Y0014923D01*
X0131420Y0014749D01*
X0131307Y0014577D01*
X0131190Y0014409D01*
X0131069Y0014243D01*
X0130945Y0014080D01*
X0130816Y0013920D01*
X0130683Y0013763D01*
X0130547Y0013610D01*
X0130407Y0013460D01*
X0130263Y0013313D01*
X0130116Y0013170D01*
X0129965Y0013030D01*
X0129811Y0012895D01*
X0129654Y0012763D01*
X0129494Y0012635D01*
X0129330Y0012510D01*
X0129164Y0012390D01*
X0128994Y0012274D01*
X0128822Y0012162D01*
X0128648Y0012054D01*
X0128470Y0011951D01*
X0128291Y0011852D01*
X0128108Y0011757D01*
X0127924Y0011667D01*
X0127738Y0011581D01*
X0127549Y0011500D01*
X0127359Y0011423D01*
X0127166Y0011351D01*
X0126972Y0011284D01*
X0126777Y0011221D01*
X0126580Y0011163D01*
X0126382Y0011110D01*
X0126182Y0011062D01*
X0125981Y0011019D01*
X0125780Y0010981D01*
X0125577Y0010947D01*
X0125374Y0010919D01*
X0125170Y0010895D01*
X0124965Y0010876D01*
X0124761Y0010863D01*
X0124556Y0010854D01*
X0124350Y0010850D01*
X0124350Y0010944D01*
X0124553Y0010948D01*
X0124756Y0010956D01*
X0124959Y0010970D01*
X0125161Y0010988D01*
X0125362Y0011012D01*
X0125563Y0011040D01*
X0125764Y0011073D01*
X0125963Y0011111D01*
X0126161Y0011154D01*
X0126359Y0011202D01*
X0126555Y0011254D01*
X0126750Y0011311D01*
X0126943Y0011373D01*
X0127135Y0011440D01*
X0127325Y0011511D01*
X0127513Y0011586D01*
X0127699Y0011667D01*
X0127884Y0011752D01*
X0128066Y0011841D01*
X0128246Y0011935D01*
X0128424Y0012033D01*
X0128599Y0012135D01*
X0128772Y0012241D01*
X0128942Y0012352D01*
X0129110Y0012467D01*
X0129274Y0012586D01*
X0129436Y0012709D01*
X0129594Y0012835D01*
X0129750Y0012966D01*
X0129902Y0013100D01*
X0130051Y0013238D01*
X0130197Y0013379D01*
X0130339Y0013524D01*
X0130477Y0013673D01*
X0130612Y0013824D01*
X0130743Y0013979D01*
X0130870Y0014137D01*
X0130994Y0014299D01*
X0131113Y0014463D01*
X0131229Y0014630D01*
X0131340Y0014799D01*
X0131448Y0014972D01*
X0131551Y0015147D01*
X0131649Y0015324D01*
X0131566Y0015368D01*
X0131469Y0015193D01*
X0131367Y0015020D01*
X0131261Y0014850D01*
X0131151Y0014682D01*
X0131037Y0014517D01*
X0130918Y0014355D01*
X0130796Y0014195D01*
X0130670Y0014039D01*
X0130541Y0013886D01*
X0130407Y0013736D01*
X0130271Y0013589D01*
X0130130Y0013446D01*
X0129986Y0013306D01*
X0129839Y0013170D01*
X0129688Y0013037D01*
X0129535Y0012908D01*
X0129378Y0012783D01*
X0129218Y0012661D01*
X0129055Y0012544D01*
X0128890Y0012430D01*
X0128722Y0012321D01*
X0128551Y0012215D01*
X0128378Y0012114D01*
X0128202Y0012017D01*
X0128024Y0011925D01*
X0127844Y0011837D01*
X0127661Y0011753D01*
X0127477Y0011673D01*
X0127291Y0011598D01*
X0127103Y0011528D01*
X0126913Y0011462D01*
X0126722Y0011401D01*
X0126530Y0011345D01*
X0126336Y0011293D01*
X0126141Y0011246D01*
X0125945Y0011203D01*
X0125747Y0011166D01*
X0125549Y0011133D01*
X0125351Y0011105D01*
X0125151Y0011082D01*
X0124952Y0011064D01*
X0124751Y0011050D01*
X0124551Y0011042D01*
X0124350Y0011038D01*
X0124350Y0011132D01*
X0124549Y0011136D01*
X0124747Y0011144D01*
X0124945Y0011157D01*
X0125142Y0011176D01*
X0125339Y0011198D01*
X0125536Y0011226D01*
X0125731Y0011258D01*
X0125926Y0011296D01*
X0126120Y0011337D01*
X0126313Y0011384D01*
X0126505Y0011435D01*
X0126695Y0011491D01*
X0126884Y0011551D01*
X0127071Y0011616D01*
X0127257Y0011686D01*
X0127441Y0011760D01*
X0127623Y0011839D01*
X0127803Y0011922D01*
X0127982Y0012009D01*
X0128158Y0012100D01*
X0128331Y0012196D01*
X0128503Y0012296D01*
X0128671Y0012400D01*
X0128838Y0012508D01*
X0129001Y0012621D01*
X0129162Y0012737D01*
X0129320Y0012857D01*
X0129475Y0012981D01*
X0129627Y0013108D01*
X0129776Y0013239D01*
X0129921Y0013374D01*
X0130064Y0013512D01*
X0130202Y0013654D01*
X0130338Y0013799D01*
X0130470Y0013947D01*
X0130598Y0014099D01*
X0130722Y0014253D01*
X0130843Y0014410D01*
X0130960Y0014571D01*
X0131073Y0014734D01*
X0131181Y0014900D01*
X0131286Y0015068D01*
X0131387Y0015239D01*
X0131483Y0015412D01*
X0131401Y0015457D01*
X0131305Y0015285D01*
X0131206Y0015116D01*
X0131102Y0014950D01*
X0130994Y0014786D01*
X0130883Y0014625D01*
X0130767Y0014466D01*
X0130648Y0014311D01*
X0130525Y0014158D01*
X0130398Y0014009D01*
X0130268Y0013862D01*
X0130134Y0013719D01*
X0129997Y0013579D01*
X0129856Y0013442D01*
X0129713Y0013309D01*
X0129566Y0013179D01*
X0129415Y0013053D01*
X0129262Y0012931D01*
X0129106Y0012812D01*
X0128947Y0012697D01*
X0128785Y0012587D01*
X0128621Y0012480D01*
X0128454Y0012377D01*
X0128285Y0012278D01*
X0128113Y0012183D01*
X0127939Y0012093D01*
X0127763Y0012006D01*
X0127585Y0011925D01*
X0127405Y0011847D01*
X0127223Y0011774D01*
X0127040Y0011705D01*
X0126854Y0011641D01*
X0126668Y0011581D01*
X0126480Y0011526D01*
X0126290Y0011475D01*
X0126100Y0011429D01*
X0125908Y0011388D01*
X0125715Y0011351D01*
X0125522Y0011319D01*
X0125328Y0011292D01*
X0125133Y0011269D01*
X0124938Y0011251D01*
X0124742Y0011238D01*
X0124546Y0011230D01*
X0124350Y0011226D01*
X0124350Y0011320D01*
X0124544Y0011324D01*
X0124738Y0011332D01*
X0124931Y0011345D01*
X0125124Y0011363D01*
X0125316Y0011385D01*
X0125508Y0011412D01*
X0125699Y0011444D01*
X0125890Y0011480D01*
X0126079Y0011521D01*
X0126267Y0011566D01*
X0126454Y0011616D01*
X0126640Y0011671D01*
X0126825Y0011730D01*
X0127008Y0011793D01*
X0127189Y0011861D01*
X0127369Y0011934D01*
X0127547Y0012010D01*
X0127723Y0012091D01*
X0127897Y0012177D01*
X0128069Y0012266D01*
X0128239Y0012360D01*
X0128406Y0012457D01*
X0128571Y0012559D01*
X0128733Y0012665D01*
X0128893Y0012774D01*
X0129050Y0012888D01*
X0129204Y0013005D01*
X0129356Y0013126D01*
X0129504Y0013250D01*
X0129649Y0013378D01*
X0129792Y0013510D01*
X0129931Y0013645D01*
X0130066Y0013783D01*
X0130198Y0013925D01*
X0130327Y0014070D01*
X0130452Y0014218D01*
X0130574Y0014369D01*
X0130692Y0014522D01*
X0130806Y0014679D01*
X0130916Y0014838D01*
X0131022Y0015000D01*
X0131125Y0015165D01*
X0131223Y0015332D01*
X0131318Y0015501D01*
X0131235Y0015545D01*
X0131141Y0015378D01*
X0131044Y0015213D01*
X0130943Y0015050D01*
X0130838Y0014890D01*
X0130729Y0014733D01*
X0130616Y0014578D01*
X0130500Y0014426D01*
X0130380Y0014277D01*
X0130256Y0014131D01*
X0130129Y0013988D01*
X0129998Y0013848D01*
X0129864Y0013712D01*
X0129727Y0013578D01*
X0129586Y0013448D01*
X0129443Y0013321D01*
X0129296Y0013198D01*
X0129146Y0013079D01*
X0128994Y0012963D01*
X0128839Y0012851D01*
X0128681Y0012743D01*
X0128520Y0012638D01*
X0128357Y0012538D01*
X0128192Y0012441D01*
X0128025Y0012349D01*
X0127855Y0012261D01*
X0127683Y0012176D01*
X0127509Y0012096D01*
X0127333Y0012021D01*
X0127155Y0011949D01*
X0126976Y0011882D01*
X0126795Y0011819D01*
X0126613Y0011761D01*
X0126429Y0011707D01*
X0126244Y0011657D01*
X0126058Y0011613D01*
X0125871Y0011572D01*
X0125683Y0011536D01*
X0125494Y0011505D01*
X0125305Y0011478D01*
X0125115Y0011456D01*
X0124924Y0011439D01*
X0124733Y0011426D01*
X0124542Y0011418D01*
X0124350Y0011414D01*
X0124350Y0011508D01*
X0124539Y0011512D01*
X0124728Y0011520D01*
X0124917Y0011532D01*
X0125105Y0011550D01*
X0125293Y0011572D01*
X0125480Y0011598D01*
X0125667Y0011629D01*
X0125853Y0011664D01*
X0126038Y0011704D01*
X0126222Y0011749D01*
X0126404Y0011798D01*
X0126586Y0011851D01*
X0126766Y0011908D01*
X0126944Y0011970D01*
X0127122Y0012037D01*
X0127297Y0012107D01*
X0127471Y0012182D01*
X0127643Y0012261D01*
X0127812Y0012345D01*
X0127980Y0012432D01*
X0128146Y0012523D01*
X0128309Y0012619D01*
X0128470Y0012718D01*
X0128629Y0012821D01*
X0128785Y0012928D01*
X0128938Y0013039D01*
X0129089Y0013153D01*
X0129236Y0013271D01*
X0129381Y0013393D01*
X0129523Y0013518D01*
X0129662Y0013646D01*
X0129797Y0013778D01*
X0129930Y0013913D01*
X0130059Y0014051D01*
X0130185Y0014193D01*
X0130307Y0014337D01*
X0130426Y0014484D01*
X0130541Y0014634D01*
X0130652Y0014787D01*
X0130760Y0014943D01*
X0130864Y0015101D01*
X0130964Y0015261D01*
X0131060Y0015424D01*
X0131152Y0015589D01*
X0131069Y0015634D01*
X0130978Y0015470D01*
X0130883Y0015309D01*
X0130784Y0015151D01*
X0130682Y0014995D01*
X0130575Y0014841D01*
X0130465Y0014690D01*
X0130351Y0014542D01*
X0130234Y0014396D01*
X0130113Y0014254D01*
X0129989Y0014114D01*
X0129862Y0013978D01*
X0129731Y0013844D01*
X0129597Y0013714D01*
X0129460Y0013587D01*
X0129320Y0013464D01*
X0129177Y0013344D01*
X0129031Y0013227D01*
X0128882Y0013114D01*
X0128730Y0013005D01*
X0128576Y0012899D01*
X0128420Y0012797D01*
X0128261Y0012699D01*
X0128099Y0012605D01*
X0127936Y0012515D01*
X0127770Y0012428D01*
X0127602Y0012346D01*
X0127433Y0012268D01*
X0127261Y0012194D01*
X0127088Y0012125D01*
X0126913Y0012059D01*
X0126736Y0011998D01*
X0126558Y0011941D01*
X0126379Y0011888D01*
X0126199Y0011840D01*
X0126017Y0011796D01*
X0125834Y0011756D01*
X0125651Y0011721D01*
X0125467Y0011691D01*
X0125282Y0011665D01*
X0125096Y0011643D01*
X0124910Y0011626D01*
X0124724Y0011614D01*
X0124537Y0011606D01*
X0124350Y0011602D01*
X0124350Y0011696D01*
X0124535Y0011700D01*
X0124719Y0011708D01*
X0124903Y0011720D01*
X0125087Y0011737D01*
X0125270Y0011758D01*
X0125453Y0011784D01*
X0125635Y0011814D01*
X0125816Y0011849D01*
X0125996Y0011888D01*
X0126176Y0011931D01*
X0126354Y0011979D01*
X0126531Y0012031D01*
X0126707Y0012087D01*
X0126881Y0012147D01*
X0127054Y0012212D01*
X0127225Y0012281D01*
X0127394Y0012354D01*
X0127562Y0012431D01*
X0127728Y0012512D01*
X0127891Y0012598D01*
X0128053Y0012687D01*
X0128212Y0012780D01*
X0128369Y0012877D01*
X0128524Y0012977D01*
X0128676Y0013082D01*
X0128826Y0013190D01*
X0128973Y0013301D01*
X0129117Y0013416D01*
X0129258Y0013535D01*
X0129397Y0013657D01*
X0129532Y0013782D01*
X0129664Y0013911D01*
X0129794Y0014043D01*
X0129920Y0014177D01*
X0130042Y0014315D01*
X0130161Y0014456D01*
X0130277Y0014600D01*
X0130390Y0014746D01*
X0130498Y0014895D01*
X0130603Y0015047D01*
X0130705Y0015201D01*
X0130802Y0015358D01*
X0130896Y0015517D01*
X0130986Y0015678D01*
X0131611Y0023535D02*
X0130830Y0023089D01*
X0130737Y0023246D01*
X0130640Y0023400D01*
X0130539Y0023552D01*
X0130434Y0023701D01*
X0130326Y0023848D01*
X0130215Y0023993D01*
X0130100Y0024134D01*
X0129981Y0024273D01*
X0129859Y0024408D01*
X0129734Y0024541D01*
X0129606Y0024671D01*
X0129475Y0024797D01*
X0129341Y0024921D01*
X0129204Y0025041D01*
X0129064Y0025158D01*
X0128921Y0025271D01*
X0128775Y0025381D01*
X0128627Y0025487D01*
X0128476Y0025590D01*
X0128323Y0025689D01*
X0128168Y0025784D01*
X0128010Y0025875D01*
X0127850Y0025963D01*
X0127688Y0026047D01*
X0127525Y0026127D01*
X0127359Y0026203D01*
X0127191Y0026274D01*
X0127022Y0026342D01*
X0126851Y0026406D01*
X0126679Y0026465D01*
X0126505Y0026521D01*
X0126330Y0026572D01*
X0126154Y0026619D01*
X0125977Y0026661D01*
X0125798Y0026700D01*
X0125619Y0026734D01*
X0125439Y0026764D01*
X0125259Y0026789D01*
X0125078Y0026810D01*
X0124896Y0026826D01*
X0124714Y0026839D01*
X0124532Y0026846D01*
X0124350Y0026850D01*
X0124349Y0027749D01*
X0124350Y0027750D01*
X0124554Y0027746D01*
X0124758Y0027738D01*
X0124962Y0027724D01*
X0125166Y0027706D01*
X0125369Y0027682D01*
X0125571Y0027654D01*
X0125773Y0027621D01*
X0125973Y0027583D01*
X0126173Y0027540D01*
X0126372Y0027492D01*
X0126569Y0027440D01*
X0126765Y0027382D01*
X0126960Y0027320D01*
X0127153Y0027254D01*
X0127345Y0027182D01*
X0127534Y0027106D01*
X0127722Y0027026D01*
X0127908Y0026941D01*
X0128092Y0026851D01*
X0128273Y0026758D01*
X0128452Y0026659D01*
X0128629Y0026557D01*
X0128803Y0026450D01*
X0128975Y0026339D01*
X0129144Y0026224D01*
X0129310Y0026105D01*
X0129473Y0025982D01*
X0129633Y0025855D01*
X0129790Y0025724D01*
X0129944Y0025589D01*
X0130094Y0025451D01*
X0130241Y0025309D01*
X0130385Y0025164D01*
X0130525Y0025015D01*
X0130661Y0024863D01*
X0130794Y0024707D01*
X0130922Y0024549D01*
X0131047Y0024387D01*
X0131168Y0024222D01*
X0131285Y0024055D01*
X0131398Y0023884D01*
X0131507Y0023711D01*
X0131612Y0023536D01*
X0131530Y0023489D01*
X0131427Y0023663D01*
X0131319Y0023834D01*
X0131207Y0024002D01*
X0131092Y0024168D01*
X0130972Y0024331D01*
X0130848Y0024490D01*
X0130721Y0024647D01*
X0130590Y0024801D01*
X0130455Y0024951D01*
X0130317Y0025099D01*
X0130175Y0025242D01*
X0130029Y0025383D01*
X0129881Y0025519D01*
X0129729Y0025652D01*
X0129573Y0025782D01*
X0129415Y0025907D01*
X0129254Y0026029D01*
X0129090Y0026147D01*
X0128923Y0026261D01*
X0128753Y0026370D01*
X0128581Y0026476D01*
X0128406Y0026577D01*
X0128229Y0026675D01*
X0128050Y0026767D01*
X0127868Y0026856D01*
X0127684Y0026940D01*
X0127499Y0027020D01*
X0127311Y0027095D01*
X0127122Y0027165D01*
X0126931Y0027231D01*
X0126738Y0027292D01*
X0126544Y0027349D01*
X0126349Y0027401D01*
X0126153Y0027448D01*
X0125955Y0027490D01*
X0125757Y0027528D01*
X0125557Y0027561D01*
X0125357Y0027589D01*
X0125156Y0027612D01*
X0124955Y0027630D01*
X0124754Y0027644D01*
X0124552Y0027652D01*
X0124350Y0027656D01*
X0124350Y0027562D01*
X0124549Y0027558D01*
X0124749Y0027550D01*
X0124948Y0027537D01*
X0125147Y0027518D01*
X0125346Y0027496D01*
X0125543Y0027468D01*
X0125741Y0027435D01*
X0125937Y0027398D01*
X0126132Y0027356D01*
X0126326Y0027310D01*
X0126519Y0027258D01*
X0126711Y0027202D01*
X0126901Y0027142D01*
X0127090Y0027077D01*
X0127277Y0027007D01*
X0127463Y0026933D01*
X0127646Y0026854D01*
X0127828Y0026771D01*
X0128008Y0026683D01*
X0128185Y0026592D01*
X0128360Y0026496D01*
X0128533Y0026395D01*
X0128703Y0026291D01*
X0128871Y0026182D01*
X0129036Y0026070D01*
X0129198Y0025954D01*
X0129357Y0025833D01*
X0129514Y0025709D01*
X0129667Y0025581D01*
X0129818Y0025450D01*
X0129965Y0025314D01*
X0130108Y0025176D01*
X0130249Y0025034D01*
X0130386Y0024888D01*
X0130519Y0024739D01*
X0130649Y0024587D01*
X0130775Y0024432D01*
X0130897Y0024274D01*
X0131015Y0024113D01*
X0131129Y0023950D01*
X0131240Y0023783D01*
X0131346Y0023614D01*
X0131448Y0023443D01*
X0131367Y0023396D01*
X0131266Y0023566D01*
X0131161Y0023733D01*
X0131051Y0023897D01*
X0130938Y0024059D01*
X0130821Y0024218D01*
X0130701Y0024374D01*
X0130576Y0024528D01*
X0130448Y0024678D01*
X0130316Y0024825D01*
X0130181Y0024969D01*
X0130042Y0025109D01*
X0129900Y0025246D01*
X0129755Y0025380D01*
X0129606Y0025510D01*
X0129454Y0025636D01*
X0129300Y0025759D01*
X0129142Y0025878D01*
X0128982Y0025993D01*
X0128819Y0026104D01*
X0128653Y0026211D01*
X0128485Y0026315D01*
X0128314Y0026414D01*
X0128141Y0026509D01*
X0127965Y0026599D01*
X0127788Y0026686D01*
X0127608Y0026768D01*
X0127427Y0026846D01*
X0127244Y0026919D01*
X0127059Y0026988D01*
X0126872Y0027052D01*
X0126684Y0027112D01*
X0126494Y0027168D01*
X0126304Y0027218D01*
X0126112Y0027265D01*
X0125919Y0027306D01*
X0125725Y0027343D01*
X0125530Y0027375D01*
X0125334Y0027402D01*
X0125138Y0027425D01*
X0124941Y0027443D01*
X0124744Y0027456D01*
X0124547Y0027464D01*
X0124350Y0027468D01*
X0124350Y0027374D01*
X0124545Y0027370D01*
X0124740Y0027362D01*
X0124935Y0027349D01*
X0125129Y0027331D01*
X0125323Y0027309D01*
X0125516Y0027282D01*
X0125709Y0027250D01*
X0125900Y0027214D01*
X0126091Y0027173D01*
X0126281Y0027127D01*
X0126469Y0027077D01*
X0126657Y0027022D01*
X0126843Y0026963D01*
X0127027Y0026900D01*
X0127210Y0026831D01*
X0127391Y0026759D01*
X0127570Y0026682D01*
X0127748Y0026601D01*
X0127923Y0026515D01*
X0128097Y0026426D01*
X0128268Y0026332D01*
X0128436Y0026234D01*
X0128603Y0026132D01*
X0128767Y0026026D01*
X0128928Y0025916D01*
X0129086Y0025802D01*
X0129242Y0025685D01*
X0129395Y0025563D01*
X0129545Y0025438D01*
X0129692Y0025310D01*
X0129835Y0025178D01*
X0129976Y0025042D01*
X0130113Y0024903D01*
X0130247Y0024761D01*
X0130377Y0024616D01*
X0130504Y0024468D01*
X0130627Y0024316D01*
X0130746Y0024162D01*
X0130862Y0024005D01*
X0130973Y0023845D01*
X0131081Y0023682D01*
X0131185Y0023517D01*
X0131285Y0023349D01*
X0131204Y0023303D01*
X0131105Y0023468D01*
X0131002Y0023632D01*
X0130895Y0023792D01*
X0130785Y0023950D01*
X0130671Y0024106D01*
X0130553Y0024258D01*
X0130431Y0024408D01*
X0130306Y0024554D01*
X0130177Y0024698D01*
X0130045Y0024838D01*
X0129910Y0024976D01*
X0129771Y0025110D01*
X0129629Y0025240D01*
X0129484Y0025367D01*
X0129336Y0025491D01*
X0129185Y0025610D01*
X0129031Y0025727D01*
X0128874Y0025839D01*
X0128715Y0025948D01*
X0128553Y0026052D01*
X0128388Y0026153D01*
X0128222Y0026250D01*
X0128052Y0026343D01*
X0127881Y0026431D01*
X0127708Y0026516D01*
X0127532Y0026596D01*
X0127355Y0026672D01*
X0127176Y0026744D01*
X0126995Y0026811D01*
X0126813Y0026874D01*
X0126629Y0026932D01*
X0126444Y0026986D01*
X0126258Y0027036D01*
X0126070Y0027081D01*
X0125882Y0027122D01*
X0125693Y0027158D01*
X0125502Y0027189D01*
X0125311Y0027216D01*
X0125120Y0027238D01*
X0124928Y0027255D01*
X0124735Y0027268D01*
X0124543Y0027276D01*
X0124350Y0027280D01*
X0124350Y0027186D01*
X0124540Y0027182D01*
X0124731Y0027174D01*
X0124921Y0027162D01*
X0125111Y0027144D01*
X0125300Y0027122D01*
X0125488Y0027096D01*
X0125676Y0027065D01*
X0125864Y0027029D01*
X0126050Y0026989D01*
X0126235Y0026945D01*
X0126419Y0026896D01*
X0126602Y0026842D01*
X0126784Y0026785D01*
X0126964Y0026722D01*
X0127142Y0026656D01*
X0127319Y0026585D01*
X0127494Y0026510D01*
X0127668Y0026431D01*
X0127839Y0026347D01*
X0128008Y0026260D01*
X0128175Y0026168D01*
X0128340Y0026072D01*
X0128503Y0025973D01*
X0128663Y0025869D01*
X0128820Y0025762D01*
X0128975Y0025651D01*
X0129127Y0025536D01*
X0129276Y0025418D01*
X0129422Y0025296D01*
X0129566Y0025170D01*
X0129706Y0025041D01*
X0129843Y0024909D01*
X0129977Y0024773D01*
X0130108Y0024635D01*
X0130235Y0024493D01*
X0130359Y0024348D01*
X0130479Y0024200D01*
X0130595Y0024049D01*
X0130708Y0023896D01*
X0130817Y0023740D01*
X0130923Y0023581D01*
X0131024Y0023420D01*
X0131122Y0023256D01*
X0131040Y0023209D01*
X0130944Y0023371D01*
X0130844Y0023530D01*
X0130740Y0023687D01*
X0130632Y0023842D01*
X0130520Y0023993D01*
X0130405Y0024142D01*
X0130286Y0024288D01*
X0130164Y0024431D01*
X0130038Y0024571D01*
X0129909Y0024708D01*
X0129777Y0024842D01*
X0129641Y0024973D01*
X0129503Y0025100D01*
X0129361Y0025224D01*
X0129217Y0025345D01*
X0129069Y0025462D01*
X0128919Y0025575D01*
X0128766Y0025685D01*
X0128610Y0025791D01*
X0128452Y0025893D01*
X0128292Y0025992D01*
X0128129Y0026086D01*
X0127964Y0026177D01*
X0127797Y0026263D01*
X0127628Y0026346D01*
X0127457Y0026424D01*
X0127284Y0026498D01*
X0127109Y0026568D01*
X0126932Y0026634D01*
X0126754Y0026695D01*
X0126575Y0026752D01*
X0126394Y0026805D01*
X0126212Y0026854D01*
X0126029Y0026898D01*
X0125845Y0026937D01*
X0125660Y0026972D01*
X0125475Y0027003D01*
X0125288Y0027029D01*
X0125101Y0027051D01*
X0124914Y0027068D01*
X0124726Y0027080D01*
X0124538Y0027088D01*
X0124350Y0027092D01*
X0124350Y0026998D01*
X0124536Y0026994D01*
X0124721Y0026986D01*
X0124907Y0026974D01*
X0125092Y0026957D01*
X0125277Y0026936D01*
X0125461Y0026910D01*
X0125644Y0026880D01*
X0125827Y0026845D01*
X0126009Y0026806D01*
X0126190Y0026762D01*
X0126369Y0026715D01*
X0126548Y0026662D01*
X0126725Y0026606D01*
X0126901Y0026545D01*
X0127075Y0026480D01*
X0127248Y0026411D01*
X0127419Y0026338D01*
X0127588Y0026261D01*
X0127755Y0026179D01*
X0127920Y0026094D01*
X0128083Y0026004D01*
X0128244Y0025911D01*
X0128402Y0025814D01*
X0128558Y0025713D01*
X0128712Y0025608D01*
X0128863Y0025500D01*
X0129012Y0025388D01*
X0129157Y0025272D01*
X0129300Y0025153D01*
X0129440Y0025031D01*
X0129577Y0024905D01*
X0129711Y0024776D01*
X0129841Y0024643D01*
X0129969Y0024508D01*
X0130093Y0024370D01*
X0130214Y0024228D01*
X0130331Y0024084D01*
X0130445Y0023937D01*
X0130555Y0023787D01*
X0130662Y0023635D01*
X0130764Y0023480D01*
X0130863Y0023322D01*
X0130959Y0023163D01*
X0130877Y0023116D01*
X0130783Y0023274D01*
X0130685Y0023429D01*
X0130584Y0023582D01*
X0130478Y0023733D01*
X0130369Y0023881D01*
X0130257Y0024026D01*
X0130141Y0024168D01*
X0130022Y0024308D01*
X0129899Y0024445D01*
X0129773Y0024578D01*
X0129644Y0024709D01*
X0129512Y0024837D01*
X0129377Y0024961D01*
X0129239Y0025082D01*
X0129098Y0025199D01*
X0128954Y0025313D01*
X0128807Y0025424D01*
X0128658Y0025531D01*
X0128506Y0025635D01*
X0128352Y0025734D01*
X0128196Y0025830D01*
X0128037Y0025922D01*
X0127876Y0026011D01*
X0127713Y0026095D01*
X0127548Y0026176D01*
X0127381Y0026252D01*
X0127212Y0026324D01*
X0127041Y0026393D01*
X0126869Y0026457D01*
X0126696Y0026517D01*
X0126521Y0026573D01*
X0126344Y0026624D01*
X0126167Y0026671D01*
X0125988Y0026714D01*
X0125809Y0026753D01*
X0125628Y0026787D01*
X0125447Y0026817D01*
X0125265Y0026842D01*
X0125083Y0026864D01*
X0124900Y0026880D01*
X0124717Y0026893D01*
X0124533Y0026900D01*
X0124350Y0026904D01*
X0124251Y0027749D02*
X0124251Y0026849D01*
X0124250Y0026850D02*
X0124066Y0026846D01*
X0123881Y0026838D01*
X0123697Y0026826D01*
X0123514Y0026809D01*
X0123330Y0026787D01*
X0123148Y0026762D01*
X0122966Y0026731D01*
X0122785Y0026696D01*
X0122604Y0026657D01*
X0122425Y0026613D01*
X0122247Y0026565D01*
X0122070Y0026513D01*
X0121894Y0026456D01*
X0121720Y0026396D01*
X0121548Y0026330D01*
X0121377Y0026261D01*
X0121207Y0026188D01*
X0121040Y0026110D01*
X0120875Y0026028D01*
X0120711Y0025943D01*
X0120550Y0025853D01*
X0120391Y0025759D01*
X0120234Y0025662D01*
X0120080Y0025561D01*
X0119928Y0025456D01*
X0119779Y0025347D01*
X0119633Y0025235D01*
X0119489Y0025119D01*
X0119349Y0025000D01*
X0119211Y0024877D01*
X0119076Y0024751D01*
X0118944Y0024622D01*
X0118816Y0024489D01*
X0118691Y0024354D01*
X0118569Y0024215D01*
X0117882Y0024796D01*
X0118018Y0024952D01*
X0118159Y0025104D01*
X0118303Y0025253D01*
X0118450Y0025398D01*
X0118601Y0025539D01*
X0118755Y0025676D01*
X0118913Y0025810D01*
X0119074Y0025940D01*
X0119238Y0026066D01*
X0119405Y0026188D01*
X0119575Y0026306D01*
X0119748Y0026419D01*
X0119924Y0026528D01*
X0120102Y0026633D01*
X0120283Y0026734D01*
X0120466Y0026830D01*
X0120651Y0026922D01*
X0120839Y0027009D01*
X0121029Y0027091D01*
X0121220Y0027169D01*
X0121414Y0027242D01*
X0121609Y0027310D01*
X0121806Y0027374D01*
X0122004Y0027432D01*
X0122204Y0027486D01*
X0122405Y0027535D01*
X0122607Y0027579D01*
X0122810Y0027618D01*
X0123014Y0027652D01*
X0123219Y0027681D01*
X0123424Y0027705D01*
X0123630Y0027723D01*
X0123837Y0027737D01*
X0124043Y0027746D01*
X0124250Y0027750D01*
X0124250Y0027656D01*
X0124046Y0027652D01*
X0123841Y0027643D01*
X0123637Y0027630D01*
X0123434Y0027611D01*
X0123231Y0027587D01*
X0123028Y0027559D01*
X0122826Y0027525D01*
X0122626Y0027487D01*
X0122426Y0027443D01*
X0122227Y0027395D01*
X0122030Y0027342D01*
X0121833Y0027284D01*
X0121639Y0027221D01*
X0121446Y0027153D01*
X0121254Y0027081D01*
X0121065Y0027004D01*
X0120877Y0026923D01*
X0120692Y0026837D01*
X0120509Y0026746D01*
X0120327Y0026651D01*
X0120149Y0026552D01*
X0119973Y0026448D01*
X0119799Y0026340D01*
X0119628Y0026228D01*
X0119460Y0026111D01*
X0119295Y0025991D01*
X0119132Y0025866D01*
X0118973Y0025738D01*
X0118817Y0025606D01*
X0118665Y0025470D01*
X0118515Y0025330D01*
X0118370Y0025187D01*
X0118227Y0025040D01*
X0118089Y0024889D01*
X0117954Y0024736D01*
X0118025Y0024675D01*
X0118159Y0024827D01*
X0118296Y0024976D01*
X0118437Y0025121D01*
X0118581Y0025262D01*
X0118728Y0025401D01*
X0118879Y0025535D01*
X0119033Y0025666D01*
X0119191Y0025793D01*
X0119351Y0025916D01*
X0119515Y0026035D01*
X0119681Y0026150D01*
X0119850Y0026261D01*
X0120021Y0026368D01*
X0120196Y0026470D01*
X0120372Y0026569D01*
X0120551Y0026663D01*
X0120733Y0026752D01*
X0120916Y0026837D01*
X0121101Y0026918D01*
X0121289Y0026994D01*
X0121478Y0027065D01*
X0121669Y0027132D01*
X0121861Y0027194D01*
X0122055Y0027251D01*
X0122250Y0027304D01*
X0122447Y0027351D01*
X0122644Y0027394D01*
X0122843Y0027432D01*
X0123042Y0027466D01*
X0123242Y0027494D01*
X0123443Y0027517D01*
X0123644Y0027536D01*
X0123846Y0027550D01*
X0124048Y0027558D01*
X0124250Y0027562D01*
X0124250Y0027468D01*
X0124050Y0027464D01*
X0123851Y0027456D01*
X0123651Y0027442D01*
X0123452Y0027424D01*
X0123254Y0027401D01*
X0123056Y0027373D01*
X0122859Y0027340D01*
X0122663Y0027302D01*
X0122467Y0027260D01*
X0122273Y0027213D01*
X0122080Y0027161D01*
X0121889Y0027104D01*
X0121698Y0027043D01*
X0121510Y0026977D01*
X0121323Y0026906D01*
X0121138Y0026831D01*
X0120954Y0026751D01*
X0120773Y0026667D01*
X0120594Y0026579D01*
X0120417Y0026486D01*
X0120242Y0026389D01*
X0120070Y0026287D01*
X0119901Y0026182D01*
X0119733Y0026072D01*
X0119569Y0025958D01*
X0119408Y0025841D01*
X0119249Y0025719D01*
X0119094Y0025594D01*
X0118941Y0025464D01*
X0118792Y0025331D01*
X0118646Y0025195D01*
X0118504Y0025055D01*
X0118365Y0024911D01*
X0118229Y0024764D01*
X0118097Y0024614D01*
X0118169Y0024554D01*
X0118299Y0024702D01*
X0118433Y0024847D01*
X0118571Y0024989D01*
X0118712Y0025127D01*
X0118856Y0025262D01*
X0119003Y0025394D01*
X0119154Y0025521D01*
X0119308Y0025645D01*
X0119464Y0025766D01*
X0119624Y0025882D01*
X0119786Y0025994D01*
X0119951Y0026103D01*
X0120119Y0026207D01*
X0120289Y0026307D01*
X0120462Y0026403D01*
X0120637Y0026495D01*
X0120814Y0026583D01*
X0120993Y0026666D01*
X0121174Y0026744D01*
X0121357Y0026819D01*
X0121542Y0026888D01*
X0121728Y0026953D01*
X0121916Y0027014D01*
X0122106Y0027070D01*
X0122296Y0027121D01*
X0122488Y0027168D01*
X0122681Y0027210D01*
X0122875Y0027247D01*
X0123070Y0027280D01*
X0123266Y0027307D01*
X0123462Y0027330D01*
X0123658Y0027348D01*
X0123855Y0027362D01*
X0124053Y0027370D01*
X0124250Y0027374D01*
X0124250Y0027280D01*
X0124055Y0027276D01*
X0123860Y0027268D01*
X0123665Y0027255D01*
X0123471Y0027237D01*
X0123277Y0027214D01*
X0123084Y0027187D01*
X0122891Y0027155D01*
X0122700Y0027118D01*
X0122509Y0027076D01*
X0122319Y0027030D01*
X0122131Y0026980D01*
X0121944Y0026924D01*
X0121758Y0026864D01*
X0121574Y0026800D01*
X0121391Y0026731D01*
X0121210Y0026658D01*
X0121031Y0026580D01*
X0120854Y0026498D01*
X0120679Y0026411D01*
X0120507Y0026321D01*
X0120336Y0026226D01*
X0120168Y0026127D01*
X0120002Y0026024D01*
X0119839Y0025917D01*
X0119678Y0025806D01*
X0119521Y0025691D01*
X0119366Y0025572D01*
X0119214Y0025449D01*
X0119065Y0025323D01*
X0118919Y0025193D01*
X0118777Y0025060D01*
X0118638Y0024923D01*
X0118502Y0024783D01*
X0118370Y0024639D01*
X0118241Y0024493D01*
X0118313Y0024432D01*
X0118440Y0024577D01*
X0118571Y0024719D01*
X0118705Y0024857D01*
X0118842Y0024992D01*
X0118983Y0025124D01*
X0119127Y0025252D01*
X0119274Y0025377D01*
X0119424Y0025498D01*
X0119577Y0025615D01*
X0119733Y0025729D01*
X0119892Y0025839D01*
X0120053Y0025945D01*
X0120217Y0026046D01*
X0120383Y0026144D01*
X0120551Y0026238D01*
X0120722Y0026328D01*
X0120895Y0026413D01*
X0121070Y0026494D01*
X0121247Y0026571D01*
X0121425Y0026643D01*
X0121606Y0026712D01*
X0121788Y0026775D01*
X0121971Y0026834D01*
X0122156Y0026889D01*
X0122342Y0026939D01*
X0122530Y0026985D01*
X0122718Y0027026D01*
X0122908Y0027062D01*
X0123098Y0027094D01*
X0123289Y0027121D01*
X0123480Y0027143D01*
X0123672Y0027161D01*
X0123865Y0027174D01*
X0124057Y0027182D01*
X0124250Y0027186D01*
X0124250Y0027092D01*
X0124060Y0027088D01*
X0123869Y0027080D01*
X0123679Y0027067D01*
X0123490Y0027050D01*
X0123300Y0027028D01*
X0123112Y0027001D01*
X0122924Y0026970D01*
X0122737Y0026934D01*
X0122551Y0026893D01*
X0122366Y0026848D01*
X0122182Y0026799D01*
X0121999Y0026744D01*
X0121818Y0026686D01*
X0121638Y0026623D01*
X0121460Y0026556D01*
X0121283Y0026484D01*
X0121108Y0026408D01*
X0120936Y0026328D01*
X0120765Y0026244D01*
X0120596Y0026155D01*
X0120430Y0026063D01*
X0120265Y0025966D01*
X0120104Y0025866D01*
X0119944Y0025761D01*
X0119788Y0025653D01*
X0119634Y0025540D01*
X0119483Y0025424D01*
X0119334Y0025305D01*
X0119189Y0025182D01*
X0119047Y0025055D01*
X0118908Y0024925D01*
X0118772Y0024791D01*
X0118639Y0024655D01*
X0118510Y0024515D01*
X0118384Y0024371D01*
X0118456Y0024311D01*
X0118580Y0024452D01*
X0118708Y0024590D01*
X0118839Y0024725D01*
X0118973Y0024857D01*
X0119110Y0024986D01*
X0119251Y0025111D01*
X0119395Y0025233D01*
X0119541Y0025351D01*
X0119690Y0025465D01*
X0119842Y0025576D01*
X0119997Y0025683D01*
X0120154Y0025786D01*
X0120314Y0025886D01*
X0120476Y0025981D01*
X0120641Y0026073D01*
X0120807Y0026160D01*
X0120976Y0026243D01*
X0121147Y0026323D01*
X0121319Y0026398D01*
X0121494Y0026468D01*
X0121670Y0026535D01*
X0121847Y0026597D01*
X0122027Y0026655D01*
X0122207Y0026708D01*
X0122389Y0026757D01*
X0122571Y0026801D01*
X0122755Y0026841D01*
X0122940Y0026877D01*
X0123126Y0026908D01*
X0123312Y0026934D01*
X0123499Y0026956D01*
X0123686Y0026973D01*
X0123874Y0026986D01*
X0124062Y0026994D01*
X0124250Y0026998D01*
X0124250Y0026904D01*
X0124064Y0026900D01*
X0123879Y0026892D01*
X0123693Y0026880D01*
X0123508Y0026863D01*
X0123324Y0026841D01*
X0123140Y0026815D01*
X0122956Y0026784D01*
X0122774Y0026749D01*
X0122592Y0026710D01*
X0122412Y0026666D01*
X0122232Y0026617D01*
X0122054Y0026565D01*
X0121877Y0026508D01*
X0121702Y0026446D01*
X0121528Y0026381D01*
X0121356Y0026311D01*
X0121185Y0026237D01*
X0121017Y0026159D01*
X0120850Y0026076D01*
X0120686Y0025990D01*
X0120523Y0025900D01*
X0120363Y0025805D01*
X0120205Y0025707D01*
X0120050Y0025605D01*
X0119897Y0025500D01*
X0119747Y0025390D01*
X0119599Y0025277D01*
X0119455Y0025160D01*
X0119313Y0025040D01*
X0119174Y0024917D01*
X0119038Y0024790D01*
X0118906Y0024660D01*
X0118777Y0024526D01*
X0118650Y0024390D01*
X0118528Y0024250D01*
X0117841Y0013852D02*
X0118533Y0014429D01*
X0118532Y0014428D02*
X0118651Y0014291D01*
X0118772Y0014157D01*
X0118897Y0014026D01*
X0119025Y0013898D01*
X0119156Y0013774D01*
X0119290Y0013652D01*
X0119427Y0013533D01*
X0119566Y0013418D01*
X0119709Y0013307D01*
X0119854Y0013198D01*
X0120001Y0013093D01*
X0120151Y0012992D01*
X0120303Y0012895D01*
X0120458Y0012801D01*
X0120615Y0012710D01*
X0120774Y0012624D01*
X0120935Y0012541D01*
X0121098Y0012463D01*
X0121263Y0012388D01*
X0121429Y0012317D01*
X0121597Y0012250D01*
X0121767Y0012188D01*
X0121938Y0012129D01*
X0122111Y0012074D01*
X0122284Y0012024D01*
X0122459Y0011978D01*
X0122635Y0011936D01*
X0122812Y0011898D01*
X0122990Y0011865D01*
X0123169Y0011835D01*
X0123348Y0011810D01*
X0123528Y0011790D01*
X0123708Y0011773D01*
X0123888Y0011761D01*
X0124069Y0011754D01*
X0124250Y0011750D01*
X0124251Y0010851D01*
X0124250Y0010850D01*
X0124047Y0010854D01*
X0123845Y0010862D01*
X0123642Y0010876D01*
X0123440Y0010894D01*
X0123239Y0010917D01*
X0123038Y0010945D01*
X0122838Y0010978D01*
X0122638Y0011015D01*
X0122440Y0011057D01*
X0122242Y0011104D01*
X0122046Y0011156D01*
X0121852Y0011213D01*
X0121658Y0011274D01*
X0121466Y0011339D01*
X0121276Y0011410D01*
X0121087Y0011485D01*
X0120901Y0011564D01*
X0120716Y0011648D01*
X0120533Y0011736D01*
X0120353Y0011829D01*
X0120175Y0011925D01*
X0119999Y0012027D01*
X0119826Y0012132D01*
X0119655Y0012241D01*
X0119487Y0012355D01*
X0119321Y0012472D01*
X0119159Y0012594D01*
X0118999Y0012719D01*
X0118843Y0012848D01*
X0118690Y0012981D01*
X0118540Y0013118D01*
X0118393Y0013258D01*
X0118250Y0013401D01*
X0118110Y0013548D01*
X0117973Y0013698D01*
X0117841Y0013852D01*
X0117913Y0013912D01*
X0118044Y0013760D01*
X0118179Y0013612D01*
X0118317Y0013467D01*
X0118459Y0013325D01*
X0118604Y0013186D01*
X0118752Y0013051D01*
X0118904Y0012920D01*
X0119059Y0012792D01*
X0119216Y0012668D01*
X0119377Y0012548D01*
X0119540Y0012432D01*
X0119707Y0012320D01*
X0119875Y0012212D01*
X0120047Y0012107D01*
X0120221Y0012007D01*
X0120397Y0011912D01*
X0120575Y0011820D01*
X0120756Y0011733D01*
X0120939Y0011650D01*
X0121123Y0011571D01*
X0121309Y0011497D01*
X0121498Y0011428D01*
X0121687Y0011363D01*
X0121879Y0011303D01*
X0122071Y0011247D01*
X0122265Y0011196D01*
X0122460Y0011149D01*
X0122656Y0011107D01*
X0122853Y0011070D01*
X0123051Y0011038D01*
X0123250Y0011010D01*
X0123449Y0010987D01*
X0123649Y0010969D01*
X0123849Y0010956D01*
X0124050Y0010948D01*
X0124250Y0010944D01*
X0124250Y0011038D01*
X0124052Y0011042D01*
X0123854Y0011050D01*
X0123656Y0011063D01*
X0123458Y0011081D01*
X0123261Y0011104D01*
X0123065Y0011131D01*
X0122869Y0011163D01*
X0122675Y0011199D01*
X0122481Y0011241D01*
X0122288Y0011287D01*
X0122096Y0011337D01*
X0121906Y0011393D01*
X0121717Y0011452D01*
X0121529Y0011517D01*
X0121343Y0011585D01*
X0121159Y0011658D01*
X0120976Y0011736D01*
X0120796Y0011818D01*
X0120617Y0011904D01*
X0120441Y0011995D01*
X0120267Y0012089D01*
X0120095Y0012188D01*
X0119925Y0012291D01*
X0119758Y0012398D01*
X0119594Y0012509D01*
X0119433Y0012624D01*
X0119274Y0012743D01*
X0119118Y0012865D01*
X0118965Y0012991D01*
X0118815Y0013121D01*
X0118668Y0013255D01*
X0118525Y0013392D01*
X0118385Y0013532D01*
X0118248Y0013675D01*
X0118115Y0013822D01*
X0117985Y0013972D01*
X0118057Y0014032D01*
X0118186Y0013884D01*
X0118317Y0013739D01*
X0118452Y0013597D01*
X0118591Y0013459D01*
X0118733Y0013323D01*
X0118878Y0013191D01*
X0119026Y0013063D01*
X0119177Y0012938D01*
X0119331Y0012817D01*
X0119488Y0012700D01*
X0119648Y0012586D01*
X0119810Y0012477D01*
X0119975Y0012371D01*
X0120143Y0012269D01*
X0120313Y0012171D01*
X0120485Y0012078D01*
X0120659Y0011988D01*
X0120836Y0011903D01*
X0121014Y0011822D01*
X0121194Y0011745D01*
X0121377Y0011673D01*
X0121560Y0011605D01*
X0121746Y0011542D01*
X0121933Y0011483D01*
X0122121Y0011428D01*
X0122310Y0011378D01*
X0122501Y0011333D01*
X0122693Y0011292D01*
X0122885Y0011255D01*
X0123079Y0011224D01*
X0123273Y0011197D01*
X0123468Y0011175D01*
X0123663Y0011157D01*
X0123858Y0011144D01*
X0124054Y0011136D01*
X0124250Y0011132D01*
X0124250Y0011226D01*
X0124056Y0011230D01*
X0123863Y0011238D01*
X0123670Y0011251D01*
X0123477Y0011268D01*
X0123284Y0011290D01*
X0123092Y0011317D01*
X0122901Y0011348D01*
X0122711Y0011384D01*
X0122521Y0011424D01*
X0122333Y0011469D01*
X0122146Y0011519D01*
X0121960Y0011573D01*
X0121775Y0011631D01*
X0121592Y0011694D01*
X0121410Y0011761D01*
X0121230Y0011832D01*
X0121052Y0011908D01*
X0120875Y0011988D01*
X0120701Y0012072D01*
X0120529Y0012161D01*
X0120359Y0012253D01*
X0120191Y0012350D01*
X0120025Y0012451D01*
X0119862Y0012555D01*
X0119702Y0012663D01*
X0119544Y0012776D01*
X0119389Y0012892D01*
X0119236Y0013011D01*
X0119087Y0013135D01*
X0118940Y0013261D01*
X0118797Y0013392D01*
X0118657Y0013525D01*
X0118520Y0013662D01*
X0118387Y0013803D01*
X0118256Y0013946D01*
X0118130Y0014093D01*
X0118202Y0014153D01*
X0118327Y0014008D01*
X0118456Y0013866D01*
X0118588Y0013728D01*
X0118723Y0013592D01*
X0118862Y0013460D01*
X0119003Y0013331D01*
X0119148Y0013206D01*
X0119295Y0013084D01*
X0119446Y0012966D01*
X0119599Y0012851D01*
X0119755Y0012741D01*
X0119914Y0012633D01*
X0120075Y0012530D01*
X0120239Y0012431D01*
X0120405Y0012335D01*
X0120573Y0012244D01*
X0120743Y0012157D01*
X0120915Y0012073D01*
X0121090Y0011994D01*
X0121266Y0011919D01*
X0121444Y0011849D01*
X0121623Y0011782D01*
X0121804Y0011720D01*
X0121987Y0011663D01*
X0122171Y0011609D01*
X0122356Y0011560D01*
X0122542Y0011516D01*
X0122729Y0011476D01*
X0122917Y0011441D01*
X0123106Y0011410D01*
X0123296Y0011383D01*
X0123486Y0011362D01*
X0123676Y0011344D01*
X0123867Y0011332D01*
X0124059Y0011324D01*
X0124250Y0011320D01*
X0124250Y0011414D01*
X0124061Y0011418D01*
X0123872Y0011426D01*
X0123683Y0011438D01*
X0123495Y0011455D01*
X0123307Y0011477D01*
X0123120Y0011503D01*
X0122933Y0011533D01*
X0122747Y0011568D01*
X0122562Y0011608D01*
X0122378Y0011652D01*
X0122196Y0011700D01*
X0122014Y0011753D01*
X0121834Y0011810D01*
X0121655Y0011871D01*
X0121477Y0011937D01*
X0121301Y0012006D01*
X0121127Y0012080D01*
X0120955Y0012158D01*
X0120785Y0012241D01*
X0120617Y0012327D01*
X0120451Y0012417D01*
X0120287Y0012512D01*
X0120125Y0012610D01*
X0119966Y0012712D01*
X0119809Y0012818D01*
X0119655Y0012927D01*
X0119503Y0013041D01*
X0119355Y0013157D01*
X0119209Y0013278D01*
X0119066Y0013401D01*
X0118926Y0013529D01*
X0118789Y0013659D01*
X0118655Y0013793D01*
X0118525Y0013930D01*
X0118398Y0014070D01*
X0118274Y0014213D01*
X0118346Y0014273D01*
X0118469Y0014132D01*
X0118594Y0013994D01*
X0118723Y0013858D01*
X0118855Y0013726D01*
X0118990Y0013597D01*
X0119129Y0013472D01*
X0119270Y0013349D01*
X0119414Y0013230D01*
X0119561Y0013115D01*
X0119710Y0013003D01*
X0119863Y0012895D01*
X0120018Y0012790D01*
X0120175Y0012690D01*
X0120335Y0012593D01*
X0120496Y0012499D01*
X0120661Y0012410D01*
X0120827Y0012325D01*
X0120995Y0012244D01*
X0121165Y0012166D01*
X0121337Y0012093D01*
X0121511Y0012024D01*
X0121686Y0011960D01*
X0121863Y0011899D01*
X0122041Y0011843D01*
X0122220Y0011791D01*
X0122401Y0011743D01*
X0122583Y0011700D01*
X0122765Y0011661D01*
X0122949Y0011626D01*
X0123133Y0011596D01*
X0123318Y0011570D01*
X0123504Y0011549D01*
X0123690Y0011532D01*
X0123877Y0011520D01*
X0124063Y0011512D01*
X0124250Y0011508D01*
X0124250Y0011602D01*
X0124066Y0011606D01*
X0123881Y0011613D01*
X0123697Y0011626D01*
X0123513Y0011642D01*
X0123330Y0011663D01*
X0123147Y0011689D01*
X0122965Y0011719D01*
X0122784Y0011753D01*
X0122603Y0011791D01*
X0122424Y0011834D01*
X0122245Y0011881D01*
X0122068Y0011933D01*
X0121892Y0011988D01*
X0121717Y0012048D01*
X0121544Y0012112D01*
X0121373Y0012180D01*
X0121203Y0012252D01*
X0121035Y0012329D01*
X0120869Y0012409D01*
X0120705Y0012493D01*
X0120542Y0012581D01*
X0120382Y0012673D01*
X0120225Y0012769D01*
X0120069Y0012869D01*
X0119916Y0012972D01*
X0119766Y0013079D01*
X0119618Y0013189D01*
X0119473Y0013303D01*
X0119331Y0013421D01*
X0119191Y0013542D01*
X0119055Y0013666D01*
X0118921Y0013793D01*
X0118791Y0013924D01*
X0118663Y0014057D01*
X0118539Y0014194D01*
X0118419Y0014333D01*
X0118491Y0014394D01*
X0118610Y0014256D01*
X0118733Y0014121D01*
X0118858Y0013989D01*
X0118987Y0013860D01*
X0119119Y0013734D01*
X0119254Y0013612D01*
X0119392Y0013492D01*
X0119532Y0013376D01*
X0119676Y0013264D01*
X0119822Y0013155D01*
X0119970Y0013049D01*
X0120121Y0012947D01*
X0120275Y0012849D01*
X0120430Y0012754D01*
X0120588Y0012663D01*
X0120749Y0012576D01*
X0120911Y0012493D01*
X0121075Y0012414D01*
X0121241Y0012339D01*
X0121409Y0012267D01*
X0121578Y0012200D01*
X0121749Y0012137D01*
X0121921Y0012078D01*
X0122095Y0012023D01*
X0122270Y0011972D01*
X0122446Y0011925D01*
X0122624Y0011883D01*
X0122802Y0011845D01*
X0122981Y0011811D01*
X0123161Y0011782D01*
X0123341Y0011757D01*
X0123522Y0011736D01*
X0123704Y0011719D01*
X0123886Y0011707D01*
X0124068Y0011700D01*
X0124250Y0011696D01*
D14*
X0136800Y0016800D02*
X0139300Y0014300D01*
X0144300Y0014300D01*
X0146800Y0016800D01*
X0146800Y0021800D01*
X0144300Y0024300D01*
X0146800Y0026800D01*
X0146800Y0031800D01*
X0144300Y0034300D01*
X0146800Y0036800D01*
X0146800Y0041800D01*
X0144300Y0044300D01*
X0139300Y0044300D01*
X0136800Y0041800D01*
X0136800Y0036800D01*
X0139300Y0034300D01*
X0136800Y0031800D01*
X0136800Y0026800D01*
X0139300Y0024300D01*
X0136800Y0021800D01*
X0136800Y0016800D01*
M02*
