G75*
%MOIN*%
%OFA0B0*%
%FSLAX25Y25*%
%IPPOS*%
%LPD*%
%AMOC8*
5,1,8,0,0,1.08239X$1,22.5*
%
%ADD10C,0.00000*%
D10*
X0005833Y0002600D02*
X0005833Y0182561D01*
X0269534Y0182561D01*
X0269534Y0002600D01*
X0005833Y0002600D01*
X0014534Y0012600D02*
X0014536Y0012758D01*
X0014542Y0012916D01*
X0014552Y0013074D01*
X0014566Y0013232D01*
X0014584Y0013389D01*
X0014605Y0013546D01*
X0014631Y0013702D01*
X0014661Y0013858D01*
X0014694Y0014013D01*
X0014732Y0014166D01*
X0014773Y0014319D01*
X0014818Y0014471D01*
X0014867Y0014622D01*
X0014920Y0014771D01*
X0014976Y0014919D01*
X0015036Y0015065D01*
X0015100Y0015210D01*
X0015168Y0015353D01*
X0015239Y0015495D01*
X0015313Y0015635D01*
X0015391Y0015772D01*
X0015473Y0015908D01*
X0015557Y0016042D01*
X0015646Y0016173D01*
X0015737Y0016302D01*
X0015832Y0016429D01*
X0015929Y0016554D01*
X0016030Y0016676D01*
X0016134Y0016795D01*
X0016241Y0016912D01*
X0016351Y0017026D01*
X0016464Y0017137D01*
X0016579Y0017246D01*
X0016697Y0017351D01*
X0016818Y0017453D01*
X0016941Y0017553D01*
X0017067Y0017649D01*
X0017195Y0017742D01*
X0017325Y0017832D01*
X0017458Y0017918D01*
X0017593Y0018002D01*
X0017729Y0018081D01*
X0017868Y0018158D01*
X0018009Y0018230D01*
X0018151Y0018300D01*
X0018295Y0018365D01*
X0018441Y0018427D01*
X0018588Y0018485D01*
X0018737Y0018540D01*
X0018887Y0018591D01*
X0019038Y0018638D01*
X0019190Y0018681D01*
X0019343Y0018720D01*
X0019498Y0018756D01*
X0019653Y0018787D01*
X0019809Y0018815D01*
X0019965Y0018839D01*
X0020122Y0018859D01*
X0020280Y0018875D01*
X0020437Y0018887D01*
X0020596Y0018895D01*
X0020754Y0018899D01*
X0020912Y0018899D01*
X0021070Y0018895D01*
X0021229Y0018887D01*
X0021386Y0018875D01*
X0021544Y0018859D01*
X0021701Y0018839D01*
X0021857Y0018815D01*
X0022013Y0018787D01*
X0022168Y0018756D01*
X0022323Y0018720D01*
X0022476Y0018681D01*
X0022628Y0018638D01*
X0022779Y0018591D01*
X0022929Y0018540D01*
X0023078Y0018485D01*
X0023225Y0018427D01*
X0023371Y0018365D01*
X0023515Y0018300D01*
X0023657Y0018230D01*
X0023798Y0018158D01*
X0023937Y0018081D01*
X0024073Y0018002D01*
X0024208Y0017918D01*
X0024341Y0017832D01*
X0024471Y0017742D01*
X0024599Y0017649D01*
X0024725Y0017553D01*
X0024848Y0017453D01*
X0024969Y0017351D01*
X0025087Y0017246D01*
X0025202Y0017137D01*
X0025315Y0017026D01*
X0025425Y0016912D01*
X0025532Y0016795D01*
X0025636Y0016676D01*
X0025737Y0016554D01*
X0025834Y0016429D01*
X0025929Y0016302D01*
X0026020Y0016173D01*
X0026109Y0016042D01*
X0026193Y0015908D01*
X0026275Y0015772D01*
X0026353Y0015635D01*
X0026427Y0015495D01*
X0026498Y0015353D01*
X0026566Y0015210D01*
X0026630Y0015065D01*
X0026690Y0014919D01*
X0026746Y0014771D01*
X0026799Y0014622D01*
X0026848Y0014471D01*
X0026893Y0014319D01*
X0026934Y0014166D01*
X0026972Y0014013D01*
X0027005Y0013858D01*
X0027035Y0013702D01*
X0027061Y0013546D01*
X0027082Y0013389D01*
X0027100Y0013232D01*
X0027114Y0013074D01*
X0027124Y0012916D01*
X0027130Y0012758D01*
X0027132Y0012600D01*
X0027130Y0012442D01*
X0027124Y0012284D01*
X0027114Y0012126D01*
X0027100Y0011968D01*
X0027082Y0011811D01*
X0027061Y0011654D01*
X0027035Y0011498D01*
X0027005Y0011342D01*
X0026972Y0011187D01*
X0026934Y0011034D01*
X0026893Y0010881D01*
X0026848Y0010729D01*
X0026799Y0010578D01*
X0026746Y0010429D01*
X0026690Y0010281D01*
X0026630Y0010135D01*
X0026566Y0009990D01*
X0026498Y0009847D01*
X0026427Y0009705D01*
X0026353Y0009565D01*
X0026275Y0009428D01*
X0026193Y0009292D01*
X0026109Y0009158D01*
X0026020Y0009027D01*
X0025929Y0008898D01*
X0025834Y0008771D01*
X0025737Y0008646D01*
X0025636Y0008524D01*
X0025532Y0008405D01*
X0025425Y0008288D01*
X0025315Y0008174D01*
X0025202Y0008063D01*
X0025087Y0007954D01*
X0024969Y0007849D01*
X0024848Y0007747D01*
X0024725Y0007647D01*
X0024599Y0007551D01*
X0024471Y0007458D01*
X0024341Y0007368D01*
X0024208Y0007282D01*
X0024073Y0007198D01*
X0023937Y0007119D01*
X0023798Y0007042D01*
X0023657Y0006970D01*
X0023515Y0006900D01*
X0023371Y0006835D01*
X0023225Y0006773D01*
X0023078Y0006715D01*
X0022929Y0006660D01*
X0022779Y0006609D01*
X0022628Y0006562D01*
X0022476Y0006519D01*
X0022323Y0006480D01*
X0022168Y0006444D01*
X0022013Y0006413D01*
X0021857Y0006385D01*
X0021701Y0006361D01*
X0021544Y0006341D01*
X0021386Y0006325D01*
X0021229Y0006313D01*
X0021070Y0006305D01*
X0020912Y0006301D01*
X0020754Y0006301D01*
X0020596Y0006305D01*
X0020437Y0006313D01*
X0020280Y0006325D01*
X0020122Y0006341D01*
X0019965Y0006361D01*
X0019809Y0006385D01*
X0019653Y0006413D01*
X0019498Y0006444D01*
X0019343Y0006480D01*
X0019190Y0006519D01*
X0019038Y0006562D01*
X0018887Y0006609D01*
X0018737Y0006660D01*
X0018588Y0006715D01*
X0018441Y0006773D01*
X0018295Y0006835D01*
X0018151Y0006900D01*
X0018009Y0006970D01*
X0017868Y0007042D01*
X0017729Y0007119D01*
X0017593Y0007198D01*
X0017458Y0007282D01*
X0017325Y0007368D01*
X0017195Y0007458D01*
X0017067Y0007551D01*
X0016941Y0007647D01*
X0016818Y0007747D01*
X0016697Y0007849D01*
X0016579Y0007954D01*
X0016464Y0008063D01*
X0016351Y0008174D01*
X0016241Y0008288D01*
X0016134Y0008405D01*
X0016030Y0008524D01*
X0015929Y0008646D01*
X0015832Y0008771D01*
X0015737Y0008898D01*
X0015646Y0009027D01*
X0015557Y0009158D01*
X0015473Y0009292D01*
X0015391Y0009428D01*
X0015313Y0009565D01*
X0015239Y0009705D01*
X0015168Y0009847D01*
X0015100Y0009990D01*
X0015036Y0010135D01*
X0014976Y0010281D01*
X0014920Y0010429D01*
X0014867Y0010578D01*
X0014818Y0010729D01*
X0014773Y0010881D01*
X0014732Y0011034D01*
X0014694Y0011187D01*
X0014661Y0011342D01*
X0014631Y0011498D01*
X0014605Y0011654D01*
X0014584Y0011811D01*
X0014566Y0011968D01*
X0014552Y0012126D01*
X0014542Y0012284D01*
X0014536Y0012442D01*
X0014534Y0012600D01*
X0244534Y0012600D02*
X0244536Y0012758D01*
X0244542Y0012916D01*
X0244552Y0013074D01*
X0244566Y0013232D01*
X0244584Y0013389D01*
X0244605Y0013546D01*
X0244631Y0013702D01*
X0244661Y0013858D01*
X0244694Y0014013D01*
X0244732Y0014166D01*
X0244773Y0014319D01*
X0244818Y0014471D01*
X0244867Y0014622D01*
X0244920Y0014771D01*
X0244976Y0014919D01*
X0245036Y0015065D01*
X0245100Y0015210D01*
X0245168Y0015353D01*
X0245239Y0015495D01*
X0245313Y0015635D01*
X0245391Y0015772D01*
X0245473Y0015908D01*
X0245557Y0016042D01*
X0245646Y0016173D01*
X0245737Y0016302D01*
X0245832Y0016429D01*
X0245929Y0016554D01*
X0246030Y0016676D01*
X0246134Y0016795D01*
X0246241Y0016912D01*
X0246351Y0017026D01*
X0246464Y0017137D01*
X0246579Y0017246D01*
X0246697Y0017351D01*
X0246818Y0017453D01*
X0246941Y0017553D01*
X0247067Y0017649D01*
X0247195Y0017742D01*
X0247325Y0017832D01*
X0247458Y0017918D01*
X0247593Y0018002D01*
X0247729Y0018081D01*
X0247868Y0018158D01*
X0248009Y0018230D01*
X0248151Y0018300D01*
X0248295Y0018365D01*
X0248441Y0018427D01*
X0248588Y0018485D01*
X0248737Y0018540D01*
X0248887Y0018591D01*
X0249038Y0018638D01*
X0249190Y0018681D01*
X0249343Y0018720D01*
X0249498Y0018756D01*
X0249653Y0018787D01*
X0249809Y0018815D01*
X0249965Y0018839D01*
X0250122Y0018859D01*
X0250280Y0018875D01*
X0250437Y0018887D01*
X0250596Y0018895D01*
X0250754Y0018899D01*
X0250912Y0018899D01*
X0251070Y0018895D01*
X0251229Y0018887D01*
X0251386Y0018875D01*
X0251544Y0018859D01*
X0251701Y0018839D01*
X0251857Y0018815D01*
X0252013Y0018787D01*
X0252168Y0018756D01*
X0252323Y0018720D01*
X0252476Y0018681D01*
X0252628Y0018638D01*
X0252779Y0018591D01*
X0252929Y0018540D01*
X0253078Y0018485D01*
X0253225Y0018427D01*
X0253371Y0018365D01*
X0253515Y0018300D01*
X0253657Y0018230D01*
X0253798Y0018158D01*
X0253937Y0018081D01*
X0254073Y0018002D01*
X0254208Y0017918D01*
X0254341Y0017832D01*
X0254471Y0017742D01*
X0254599Y0017649D01*
X0254725Y0017553D01*
X0254848Y0017453D01*
X0254969Y0017351D01*
X0255087Y0017246D01*
X0255202Y0017137D01*
X0255315Y0017026D01*
X0255425Y0016912D01*
X0255532Y0016795D01*
X0255636Y0016676D01*
X0255737Y0016554D01*
X0255834Y0016429D01*
X0255929Y0016302D01*
X0256020Y0016173D01*
X0256109Y0016042D01*
X0256193Y0015908D01*
X0256275Y0015772D01*
X0256353Y0015635D01*
X0256427Y0015495D01*
X0256498Y0015353D01*
X0256566Y0015210D01*
X0256630Y0015065D01*
X0256690Y0014919D01*
X0256746Y0014771D01*
X0256799Y0014622D01*
X0256848Y0014471D01*
X0256893Y0014319D01*
X0256934Y0014166D01*
X0256972Y0014013D01*
X0257005Y0013858D01*
X0257035Y0013702D01*
X0257061Y0013546D01*
X0257082Y0013389D01*
X0257100Y0013232D01*
X0257114Y0013074D01*
X0257124Y0012916D01*
X0257130Y0012758D01*
X0257132Y0012600D01*
X0257130Y0012442D01*
X0257124Y0012284D01*
X0257114Y0012126D01*
X0257100Y0011968D01*
X0257082Y0011811D01*
X0257061Y0011654D01*
X0257035Y0011498D01*
X0257005Y0011342D01*
X0256972Y0011187D01*
X0256934Y0011034D01*
X0256893Y0010881D01*
X0256848Y0010729D01*
X0256799Y0010578D01*
X0256746Y0010429D01*
X0256690Y0010281D01*
X0256630Y0010135D01*
X0256566Y0009990D01*
X0256498Y0009847D01*
X0256427Y0009705D01*
X0256353Y0009565D01*
X0256275Y0009428D01*
X0256193Y0009292D01*
X0256109Y0009158D01*
X0256020Y0009027D01*
X0255929Y0008898D01*
X0255834Y0008771D01*
X0255737Y0008646D01*
X0255636Y0008524D01*
X0255532Y0008405D01*
X0255425Y0008288D01*
X0255315Y0008174D01*
X0255202Y0008063D01*
X0255087Y0007954D01*
X0254969Y0007849D01*
X0254848Y0007747D01*
X0254725Y0007647D01*
X0254599Y0007551D01*
X0254471Y0007458D01*
X0254341Y0007368D01*
X0254208Y0007282D01*
X0254073Y0007198D01*
X0253937Y0007119D01*
X0253798Y0007042D01*
X0253657Y0006970D01*
X0253515Y0006900D01*
X0253371Y0006835D01*
X0253225Y0006773D01*
X0253078Y0006715D01*
X0252929Y0006660D01*
X0252779Y0006609D01*
X0252628Y0006562D01*
X0252476Y0006519D01*
X0252323Y0006480D01*
X0252168Y0006444D01*
X0252013Y0006413D01*
X0251857Y0006385D01*
X0251701Y0006361D01*
X0251544Y0006341D01*
X0251386Y0006325D01*
X0251229Y0006313D01*
X0251070Y0006305D01*
X0250912Y0006301D01*
X0250754Y0006301D01*
X0250596Y0006305D01*
X0250437Y0006313D01*
X0250280Y0006325D01*
X0250122Y0006341D01*
X0249965Y0006361D01*
X0249809Y0006385D01*
X0249653Y0006413D01*
X0249498Y0006444D01*
X0249343Y0006480D01*
X0249190Y0006519D01*
X0249038Y0006562D01*
X0248887Y0006609D01*
X0248737Y0006660D01*
X0248588Y0006715D01*
X0248441Y0006773D01*
X0248295Y0006835D01*
X0248151Y0006900D01*
X0248009Y0006970D01*
X0247868Y0007042D01*
X0247729Y0007119D01*
X0247593Y0007198D01*
X0247458Y0007282D01*
X0247325Y0007368D01*
X0247195Y0007458D01*
X0247067Y0007551D01*
X0246941Y0007647D01*
X0246818Y0007747D01*
X0246697Y0007849D01*
X0246579Y0007954D01*
X0246464Y0008063D01*
X0246351Y0008174D01*
X0246241Y0008288D01*
X0246134Y0008405D01*
X0246030Y0008524D01*
X0245929Y0008646D01*
X0245832Y0008771D01*
X0245737Y0008898D01*
X0245646Y0009027D01*
X0245557Y0009158D01*
X0245473Y0009292D01*
X0245391Y0009428D01*
X0245313Y0009565D01*
X0245239Y0009705D01*
X0245168Y0009847D01*
X0245100Y0009990D01*
X0245036Y0010135D01*
X0244976Y0010281D01*
X0244920Y0010429D01*
X0244867Y0010578D01*
X0244818Y0010729D01*
X0244773Y0010881D01*
X0244732Y0011034D01*
X0244694Y0011187D01*
X0244661Y0011342D01*
X0244631Y0011498D01*
X0244605Y0011654D01*
X0244584Y0011811D01*
X0244566Y0011968D01*
X0244552Y0012126D01*
X0244542Y0012284D01*
X0244536Y0012442D01*
X0244534Y0012600D01*
X0014534Y0172600D02*
X0014536Y0172758D01*
X0014542Y0172916D01*
X0014552Y0173074D01*
X0014566Y0173232D01*
X0014584Y0173389D01*
X0014605Y0173546D01*
X0014631Y0173702D01*
X0014661Y0173858D01*
X0014694Y0174013D01*
X0014732Y0174166D01*
X0014773Y0174319D01*
X0014818Y0174471D01*
X0014867Y0174622D01*
X0014920Y0174771D01*
X0014976Y0174919D01*
X0015036Y0175065D01*
X0015100Y0175210D01*
X0015168Y0175353D01*
X0015239Y0175495D01*
X0015313Y0175635D01*
X0015391Y0175772D01*
X0015473Y0175908D01*
X0015557Y0176042D01*
X0015646Y0176173D01*
X0015737Y0176302D01*
X0015832Y0176429D01*
X0015929Y0176554D01*
X0016030Y0176676D01*
X0016134Y0176795D01*
X0016241Y0176912D01*
X0016351Y0177026D01*
X0016464Y0177137D01*
X0016579Y0177246D01*
X0016697Y0177351D01*
X0016818Y0177453D01*
X0016941Y0177553D01*
X0017067Y0177649D01*
X0017195Y0177742D01*
X0017325Y0177832D01*
X0017458Y0177918D01*
X0017593Y0178002D01*
X0017729Y0178081D01*
X0017868Y0178158D01*
X0018009Y0178230D01*
X0018151Y0178300D01*
X0018295Y0178365D01*
X0018441Y0178427D01*
X0018588Y0178485D01*
X0018737Y0178540D01*
X0018887Y0178591D01*
X0019038Y0178638D01*
X0019190Y0178681D01*
X0019343Y0178720D01*
X0019498Y0178756D01*
X0019653Y0178787D01*
X0019809Y0178815D01*
X0019965Y0178839D01*
X0020122Y0178859D01*
X0020280Y0178875D01*
X0020437Y0178887D01*
X0020596Y0178895D01*
X0020754Y0178899D01*
X0020912Y0178899D01*
X0021070Y0178895D01*
X0021229Y0178887D01*
X0021386Y0178875D01*
X0021544Y0178859D01*
X0021701Y0178839D01*
X0021857Y0178815D01*
X0022013Y0178787D01*
X0022168Y0178756D01*
X0022323Y0178720D01*
X0022476Y0178681D01*
X0022628Y0178638D01*
X0022779Y0178591D01*
X0022929Y0178540D01*
X0023078Y0178485D01*
X0023225Y0178427D01*
X0023371Y0178365D01*
X0023515Y0178300D01*
X0023657Y0178230D01*
X0023798Y0178158D01*
X0023937Y0178081D01*
X0024073Y0178002D01*
X0024208Y0177918D01*
X0024341Y0177832D01*
X0024471Y0177742D01*
X0024599Y0177649D01*
X0024725Y0177553D01*
X0024848Y0177453D01*
X0024969Y0177351D01*
X0025087Y0177246D01*
X0025202Y0177137D01*
X0025315Y0177026D01*
X0025425Y0176912D01*
X0025532Y0176795D01*
X0025636Y0176676D01*
X0025737Y0176554D01*
X0025834Y0176429D01*
X0025929Y0176302D01*
X0026020Y0176173D01*
X0026109Y0176042D01*
X0026193Y0175908D01*
X0026275Y0175772D01*
X0026353Y0175635D01*
X0026427Y0175495D01*
X0026498Y0175353D01*
X0026566Y0175210D01*
X0026630Y0175065D01*
X0026690Y0174919D01*
X0026746Y0174771D01*
X0026799Y0174622D01*
X0026848Y0174471D01*
X0026893Y0174319D01*
X0026934Y0174166D01*
X0026972Y0174013D01*
X0027005Y0173858D01*
X0027035Y0173702D01*
X0027061Y0173546D01*
X0027082Y0173389D01*
X0027100Y0173232D01*
X0027114Y0173074D01*
X0027124Y0172916D01*
X0027130Y0172758D01*
X0027132Y0172600D01*
X0027130Y0172442D01*
X0027124Y0172284D01*
X0027114Y0172126D01*
X0027100Y0171968D01*
X0027082Y0171811D01*
X0027061Y0171654D01*
X0027035Y0171498D01*
X0027005Y0171342D01*
X0026972Y0171187D01*
X0026934Y0171034D01*
X0026893Y0170881D01*
X0026848Y0170729D01*
X0026799Y0170578D01*
X0026746Y0170429D01*
X0026690Y0170281D01*
X0026630Y0170135D01*
X0026566Y0169990D01*
X0026498Y0169847D01*
X0026427Y0169705D01*
X0026353Y0169565D01*
X0026275Y0169428D01*
X0026193Y0169292D01*
X0026109Y0169158D01*
X0026020Y0169027D01*
X0025929Y0168898D01*
X0025834Y0168771D01*
X0025737Y0168646D01*
X0025636Y0168524D01*
X0025532Y0168405D01*
X0025425Y0168288D01*
X0025315Y0168174D01*
X0025202Y0168063D01*
X0025087Y0167954D01*
X0024969Y0167849D01*
X0024848Y0167747D01*
X0024725Y0167647D01*
X0024599Y0167551D01*
X0024471Y0167458D01*
X0024341Y0167368D01*
X0024208Y0167282D01*
X0024073Y0167198D01*
X0023937Y0167119D01*
X0023798Y0167042D01*
X0023657Y0166970D01*
X0023515Y0166900D01*
X0023371Y0166835D01*
X0023225Y0166773D01*
X0023078Y0166715D01*
X0022929Y0166660D01*
X0022779Y0166609D01*
X0022628Y0166562D01*
X0022476Y0166519D01*
X0022323Y0166480D01*
X0022168Y0166444D01*
X0022013Y0166413D01*
X0021857Y0166385D01*
X0021701Y0166361D01*
X0021544Y0166341D01*
X0021386Y0166325D01*
X0021229Y0166313D01*
X0021070Y0166305D01*
X0020912Y0166301D01*
X0020754Y0166301D01*
X0020596Y0166305D01*
X0020437Y0166313D01*
X0020280Y0166325D01*
X0020122Y0166341D01*
X0019965Y0166361D01*
X0019809Y0166385D01*
X0019653Y0166413D01*
X0019498Y0166444D01*
X0019343Y0166480D01*
X0019190Y0166519D01*
X0019038Y0166562D01*
X0018887Y0166609D01*
X0018737Y0166660D01*
X0018588Y0166715D01*
X0018441Y0166773D01*
X0018295Y0166835D01*
X0018151Y0166900D01*
X0018009Y0166970D01*
X0017868Y0167042D01*
X0017729Y0167119D01*
X0017593Y0167198D01*
X0017458Y0167282D01*
X0017325Y0167368D01*
X0017195Y0167458D01*
X0017067Y0167551D01*
X0016941Y0167647D01*
X0016818Y0167747D01*
X0016697Y0167849D01*
X0016579Y0167954D01*
X0016464Y0168063D01*
X0016351Y0168174D01*
X0016241Y0168288D01*
X0016134Y0168405D01*
X0016030Y0168524D01*
X0015929Y0168646D01*
X0015832Y0168771D01*
X0015737Y0168898D01*
X0015646Y0169027D01*
X0015557Y0169158D01*
X0015473Y0169292D01*
X0015391Y0169428D01*
X0015313Y0169565D01*
X0015239Y0169705D01*
X0015168Y0169847D01*
X0015100Y0169990D01*
X0015036Y0170135D01*
X0014976Y0170281D01*
X0014920Y0170429D01*
X0014867Y0170578D01*
X0014818Y0170729D01*
X0014773Y0170881D01*
X0014732Y0171034D01*
X0014694Y0171187D01*
X0014661Y0171342D01*
X0014631Y0171498D01*
X0014605Y0171654D01*
X0014584Y0171811D01*
X0014566Y0171968D01*
X0014552Y0172126D01*
X0014542Y0172284D01*
X0014536Y0172442D01*
X0014534Y0172600D01*
M02*
