G75*
G70*
%OFA0B0*%
%FSLAX24Y24*%
%IPPOS*%
%LPD*%
%AMOC8*
5,1,8,0,0,1.08239X$1,22.5*
%
%ADD10C,0.1182*%
%ADD11R,0.0780X0.0780*%
%ADD12C,0.0860*%
%ADD13C,0.0820*%
%ADD14OC8,0.0720*%
%ADD15C,0.0640*%
%ADD16OC8,0.0710*%
%ADD17C,0.0710*%
D10*
X001500Y001180D03*
X001500Y026180D03*
X022500Y026180D03*
D11*
X014000Y025180D03*
X014000Y024180D03*
X014000Y023180D03*
X014000Y022180D03*
X014000Y021180D03*
X014000Y020180D03*
X014000Y019180D03*
X014000Y018180D03*
X014000Y017180D03*
X014000Y016180D03*
X014000Y015180D03*
X014000Y014180D03*
X012500Y012680D03*
X013500Y010680D03*
X014500Y010680D03*
X015500Y010680D03*
X016500Y010680D03*
X017500Y010680D03*
X017500Y009680D03*
X018500Y010680D03*
X019500Y010680D03*
X019500Y009680D03*
X020500Y010680D03*
X020500Y005680D03*
X019500Y005680D03*
X018500Y005680D03*
X017500Y005680D03*
X016500Y005680D03*
X015500Y005680D03*
X014500Y005680D03*
X013500Y005680D03*
X012000Y005680D03*
X012000Y003680D03*
X010000Y005680D03*
X009000Y005680D03*
X008000Y005680D03*
X007000Y005680D03*
X006000Y005680D03*
X005000Y005680D03*
X004000Y005680D03*
X003000Y005680D03*
X003000Y010680D03*
X004000Y010680D03*
X005000Y010680D03*
X006000Y010680D03*
X007000Y010680D03*
X008000Y010680D03*
X009000Y010680D03*
X010000Y010680D03*
X010000Y012680D03*
X008000Y014180D03*
X008000Y015180D03*
X008000Y016180D03*
X008000Y017180D03*
X008000Y018180D03*
X008000Y019180D03*
X008000Y020180D03*
X008000Y021180D03*
X008000Y022180D03*
X008000Y023180D03*
X008000Y024180D03*
X008000Y025180D03*
X011000Y025680D03*
X011000Y022680D03*
D12*
X017510Y024790D02*
X017510Y025570D01*
X019490Y025570D02*
X019490Y024790D01*
X019960Y003070D02*
X019960Y002290D01*
X017980Y002290D02*
X017980Y003070D01*
X016020Y003070D02*
X016020Y002290D01*
X014040Y002290D02*
X014040Y003070D01*
X009460Y003070D02*
X009460Y002290D01*
X007480Y002290D02*
X007480Y003070D01*
X005520Y003070D02*
X005520Y002290D01*
X003540Y002290D02*
X003540Y003070D01*
D13*
X005000Y008180D03*
X009000Y008180D03*
X015500Y008180D03*
X019500Y008180D03*
X012000Y020180D03*
X010000Y020180D03*
X010000Y024180D03*
X012000Y024180D03*
D14*
X005500Y023680D03*
X005500Y022680D03*
X004500Y022680D03*
X004500Y023680D03*
X004500Y020180D03*
X004500Y019180D03*
X004500Y018180D03*
X005500Y018180D03*
X005500Y019180D03*
X005500Y020180D03*
D15*
X015720Y020180D02*
X016280Y020180D01*
X016280Y019180D02*
X015720Y019180D01*
X015720Y018180D02*
X016280Y018180D01*
X016280Y017180D02*
X015720Y017180D01*
X015720Y016180D02*
X016280Y016180D01*
X016280Y015180D02*
X015720Y015180D01*
X015720Y021180D02*
X016280Y021180D01*
X016280Y022180D02*
X015720Y022180D01*
D16*
X020000Y013180D03*
D17*
X020000Y014180D03*
M02*
