G75*
G70*
%OFA0B0*%
%FSLAX24Y24*%
%IPPOS*%
%LPD*%
%AMOC8*
5,1,8,0,0,1.08239X$1,22.5*
%
%ADD10C,0.0000*%
%ADD11C,0.0140*%
%ADD12C,0.0050*%
%ADD13C,0.0040*%
%ADD14C,0.0060*%
%ADD15C,0.0070*%
%ADD16R,0.1500X0.0300*%
D10*
X000583Y000260D02*
X000583Y018256D01*
X026953Y018256D01*
X026953Y000260D01*
X000583Y000260D01*
X001453Y001260D02*
X001455Y001310D01*
X001461Y001360D01*
X001471Y001409D01*
X001485Y001457D01*
X001502Y001504D01*
X001523Y001549D01*
X001548Y001593D01*
X001576Y001634D01*
X001608Y001673D01*
X001642Y001710D01*
X001679Y001744D01*
X001719Y001774D01*
X001761Y001801D01*
X001805Y001825D01*
X001851Y001846D01*
X001898Y001862D01*
X001946Y001875D01*
X001996Y001884D01*
X002045Y001889D01*
X002096Y001890D01*
X002146Y001887D01*
X002195Y001880D01*
X002244Y001869D01*
X002292Y001854D01*
X002338Y001836D01*
X002383Y001814D01*
X002426Y001788D01*
X002467Y001759D01*
X002506Y001727D01*
X002542Y001692D01*
X002574Y001654D01*
X002604Y001614D01*
X002631Y001571D01*
X002654Y001527D01*
X002673Y001481D01*
X002689Y001433D01*
X002701Y001384D01*
X002709Y001335D01*
X002713Y001285D01*
X002713Y001235D01*
X002709Y001185D01*
X002701Y001136D01*
X002689Y001087D01*
X002673Y001039D01*
X002654Y000993D01*
X002631Y000949D01*
X002604Y000906D01*
X002574Y000866D01*
X002542Y000828D01*
X002506Y000793D01*
X002467Y000761D01*
X002426Y000732D01*
X002383Y000706D01*
X002338Y000684D01*
X002292Y000666D01*
X002244Y000651D01*
X002195Y000640D01*
X002146Y000633D01*
X002096Y000630D01*
X002045Y000631D01*
X001996Y000636D01*
X001946Y000645D01*
X001898Y000658D01*
X001851Y000674D01*
X001805Y000695D01*
X001761Y000719D01*
X001719Y000746D01*
X001679Y000776D01*
X001642Y000810D01*
X001608Y000847D01*
X001576Y000886D01*
X001548Y000927D01*
X001523Y000971D01*
X001502Y001016D01*
X001485Y001063D01*
X001471Y001111D01*
X001461Y001160D01*
X001455Y001210D01*
X001453Y001260D01*
X024453Y001260D02*
X024455Y001310D01*
X024461Y001360D01*
X024471Y001409D01*
X024485Y001457D01*
X024502Y001504D01*
X024523Y001549D01*
X024548Y001593D01*
X024576Y001634D01*
X024608Y001673D01*
X024642Y001710D01*
X024679Y001744D01*
X024719Y001774D01*
X024761Y001801D01*
X024805Y001825D01*
X024851Y001846D01*
X024898Y001862D01*
X024946Y001875D01*
X024996Y001884D01*
X025045Y001889D01*
X025096Y001890D01*
X025146Y001887D01*
X025195Y001880D01*
X025244Y001869D01*
X025292Y001854D01*
X025338Y001836D01*
X025383Y001814D01*
X025426Y001788D01*
X025467Y001759D01*
X025506Y001727D01*
X025542Y001692D01*
X025574Y001654D01*
X025604Y001614D01*
X025631Y001571D01*
X025654Y001527D01*
X025673Y001481D01*
X025689Y001433D01*
X025701Y001384D01*
X025709Y001335D01*
X025713Y001285D01*
X025713Y001235D01*
X025709Y001185D01*
X025701Y001136D01*
X025689Y001087D01*
X025673Y001039D01*
X025654Y000993D01*
X025631Y000949D01*
X025604Y000906D01*
X025574Y000866D01*
X025542Y000828D01*
X025506Y000793D01*
X025467Y000761D01*
X025426Y000732D01*
X025383Y000706D01*
X025338Y000684D01*
X025292Y000666D01*
X025244Y000651D01*
X025195Y000640D01*
X025146Y000633D01*
X025096Y000630D01*
X025045Y000631D01*
X024996Y000636D01*
X024946Y000645D01*
X024898Y000658D01*
X024851Y000674D01*
X024805Y000695D01*
X024761Y000719D01*
X024719Y000746D01*
X024679Y000776D01*
X024642Y000810D01*
X024608Y000847D01*
X024576Y000886D01*
X024548Y000927D01*
X024523Y000971D01*
X024502Y001016D01*
X024485Y001063D01*
X024471Y001111D01*
X024461Y001160D01*
X024455Y001210D01*
X024453Y001260D01*
X001453Y017260D02*
X001455Y017310D01*
X001461Y017360D01*
X001471Y017409D01*
X001485Y017457D01*
X001502Y017504D01*
X001523Y017549D01*
X001548Y017593D01*
X001576Y017634D01*
X001608Y017673D01*
X001642Y017710D01*
X001679Y017744D01*
X001719Y017774D01*
X001761Y017801D01*
X001805Y017825D01*
X001851Y017846D01*
X001898Y017862D01*
X001946Y017875D01*
X001996Y017884D01*
X002045Y017889D01*
X002096Y017890D01*
X002146Y017887D01*
X002195Y017880D01*
X002244Y017869D01*
X002292Y017854D01*
X002338Y017836D01*
X002383Y017814D01*
X002426Y017788D01*
X002467Y017759D01*
X002506Y017727D01*
X002542Y017692D01*
X002574Y017654D01*
X002604Y017614D01*
X002631Y017571D01*
X002654Y017527D01*
X002673Y017481D01*
X002689Y017433D01*
X002701Y017384D01*
X002709Y017335D01*
X002713Y017285D01*
X002713Y017235D01*
X002709Y017185D01*
X002701Y017136D01*
X002689Y017087D01*
X002673Y017039D01*
X002654Y016993D01*
X002631Y016949D01*
X002604Y016906D01*
X002574Y016866D01*
X002542Y016828D01*
X002506Y016793D01*
X002467Y016761D01*
X002426Y016732D01*
X002383Y016706D01*
X002338Y016684D01*
X002292Y016666D01*
X002244Y016651D01*
X002195Y016640D01*
X002146Y016633D01*
X002096Y016630D01*
X002045Y016631D01*
X001996Y016636D01*
X001946Y016645D01*
X001898Y016658D01*
X001851Y016674D01*
X001805Y016695D01*
X001761Y016719D01*
X001719Y016746D01*
X001679Y016776D01*
X001642Y016810D01*
X001608Y016847D01*
X001576Y016886D01*
X001548Y016927D01*
X001523Y016971D01*
X001502Y017016D01*
X001485Y017063D01*
X001471Y017111D01*
X001461Y017160D01*
X001455Y017210D01*
X001453Y017260D01*
D11*
X010988Y015587D02*
X010988Y015484D01*
X011091Y015380D01*
X011298Y015380D01*
X011402Y015277D01*
X011402Y015173D01*
X011298Y015070D01*
X011091Y015070D01*
X010988Y015173D01*
X011688Y015173D02*
X011791Y015277D01*
X012101Y015277D01*
X012101Y015380D02*
X011998Y015484D01*
X011791Y015484D01*
X012101Y015380D02*
X012101Y015070D01*
X011791Y015070D01*
X011688Y015173D01*
X011402Y015587D02*
X011298Y015691D01*
X011091Y015691D01*
X010988Y015587D01*
X012388Y015484D02*
X012594Y015484D01*
X012491Y015587D02*
X012491Y015173D01*
X012594Y015070D01*
X012854Y015070D02*
X012854Y015691D01*
X013268Y015070D01*
X013268Y015691D01*
X013554Y015587D02*
X013554Y015173D01*
X013657Y015070D01*
X013864Y015070D01*
X013968Y015173D01*
X013968Y015587D01*
X013864Y015691D01*
X013657Y015691D01*
X013554Y015587D01*
X014254Y015587D02*
X014254Y015173D01*
X014357Y015070D01*
X014564Y015070D01*
X014667Y015173D01*
X014667Y015380D01*
X014461Y015380D01*
X014667Y015587D02*
X014564Y015691D01*
X014357Y015691D01*
X014254Y015587D01*
X014954Y015587D02*
X014954Y015484D01*
X015057Y015380D01*
X015264Y015380D01*
X015367Y015277D01*
X015367Y015173D01*
X015264Y015070D01*
X015057Y015070D01*
X014954Y015173D01*
X014954Y015587D02*
X015057Y015691D01*
X015264Y015691D01*
X015367Y015587D01*
X014694Y014551D02*
X014694Y013930D01*
X014487Y013930D02*
X014901Y013930D01*
X014487Y014344D02*
X014694Y014551D01*
X014201Y014551D02*
X014201Y014137D01*
X013994Y013930D01*
X013787Y014137D01*
X013787Y014551D01*
X012801Y014551D02*
X012801Y014033D01*
X012698Y013930D01*
X012491Y013930D01*
X012388Y014033D01*
X012388Y014551D01*
X012101Y014447D02*
X011998Y014551D01*
X011791Y014551D01*
X011688Y014447D01*
X011688Y014344D01*
X011791Y014240D01*
X011998Y014240D01*
X012101Y014137D01*
X012101Y014033D01*
X011998Y013930D01*
X011791Y013930D01*
X011688Y014033D01*
X011402Y014240D02*
X011298Y014137D01*
X010988Y014137D01*
X010988Y013930D02*
X010988Y014551D01*
X011298Y014551D01*
X011402Y014447D01*
X011402Y014240D01*
D12*
X005833Y009385D02*
X021958Y009385D01*
X021958Y001010D01*
X005833Y001010D01*
X005833Y009385D01*
X003948Y006903D02*
X003948Y006676D01*
X003948Y006789D02*
X003608Y006789D01*
X003721Y006676D01*
X003721Y004903D02*
X003665Y004903D01*
X003608Y004846D01*
X003608Y004733D01*
X003665Y004676D01*
X003721Y004903D02*
X003948Y004676D01*
X003948Y004903D01*
X023218Y005092D02*
X023275Y005035D01*
X023218Y005092D02*
X023218Y005205D01*
X023275Y005262D01*
X023331Y005262D01*
X023558Y005035D01*
X023558Y005262D01*
X023558Y007035D02*
X023558Y007262D01*
X023558Y007148D02*
X023218Y007148D01*
X023331Y007035D01*
X023275Y009035D02*
X023218Y009092D01*
X023218Y009205D01*
X023275Y009262D01*
X023331Y009262D01*
X023558Y009035D01*
X023558Y009262D01*
X023558Y003262D02*
X023558Y003035D01*
X023558Y003148D02*
X023218Y003148D01*
X023331Y003035D01*
D13*
X024332Y011024D02*
X024639Y011484D01*
X024793Y011254D02*
X025023Y011484D01*
X025023Y011024D01*
X025099Y011254D02*
X024793Y011254D01*
X024639Y011024D02*
X024332Y011484D01*
X022841Y011662D02*
X025932Y011662D01*
X025932Y011425D01*
X026109Y011425D01*
X026109Y012291D01*
X026493Y013345D01*
X026493Y013571D01*
X026491Y013580D01*
X026487Y013587D01*
X026481Y013593D01*
X026472Y013596D01*
X026464Y013596D01*
X026456Y013593D01*
X026449Y013587D01*
X026445Y013580D01*
X026443Y013571D01*
X026444Y013571D02*
X026444Y013374D01*
X026109Y012439D01*
X026109Y016219D01*
X026493Y015175D01*
X026493Y014949D01*
X026491Y014940D01*
X026487Y014933D01*
X026481Y014927D01*
X026472Y014924D01*
X026464Y014924D01*
X026456Y014927D01*
X026449Y014933D01*
X026445Y014940D01*
X026443Y014949D01*
X026444Y014949D02*
X026444Y015146D01*
X026109Y016081D01*
X026109Y016219D02*
X026109Y017095D01*
X025932Y017095D01*
X025932Y016858D01*
X022802Y016858D01*
X021355Y016858D02*
X020607Y016858D01*
X019131Y016858D02*
X018510Y016858D01*
X018510Y011662D01*
X019131Y011662D01*
X020568Y011662D02*
X021306Y011662D01*
X024374Y013095D02*
X024374Y013177D01*
X025314Y013279D01*
X025314Y013483D01*
X024374Y013586D01*
X024374Y013667D01*
X025457Y013565D01*
X025476Y013561D01*
X025495Y013555D01*
X025512Y013545D01*
X025528Y013533D01*
X025541Y013518D01*
X025552Y013501D01*
X025559Y013483D01*
X025559Y013258D02*
X025552Y013240D01*
X025541Y013223D01*
X025528Y013208D01*
X025512Y013196D01*
X025495Y013186D01*
X025476Y013180D01*
X025457Y013176D01*
X025457Y013177D02*
X024374Y013095D01*
X025558Y013259D02*
X025567Y013296D01*
X025573Y013333D01*
X025575Y013371D01*
X025573Y013409D01*
X025567Y013446D01*
X025558Y013483D01*
X026109Y012439D02*
X026109Y012291D01*
X025457Y014955D02*
X024374Y014853D01*
X024374Y014934D01*
X025314Y015037D01*
X025314Y015241D01*
X024374Y015343D01*
X024374Y015425D01*
X025457Y015343D01*
X025476Y015339D01*
X025495Y015333D01*
X025512Y015323D01*
X025528Y015311D01*
X025541Y015296D01*
X025552Y015279D01*
X025559Y015261D01*
X025559Y015037D02*
X025552Y015019D01*
X025541Y015002D01*
X025528Y014987D01*
X025512Y014975D01*
X025495Y014965D01*
X025476Y014959D01*
X025457Y014955D01*
X025558Y015037D02*
X025567Y015074D01*
X025573Y015111D01*
X025575Y015149D01*
X025573Y015187D01*
X025567Y015224D01*
X025558Y015261D01*
X005688Y007475D02*
X005612Y007399D01*
X005305Y007399D01*
X005381Y007475D02*
X005381Y007322D01*
X005381Y007169D02*
X005688Y007169D01*
X005688Y006938D01*
X005612Y006862D01*
X005381Y006862D01*
X005458Y006708D02*
X005381Y006631D01*
X005381Y006478D01*
X005458Y006401D01*
X005612Y006401D01*
X005688Y006478D01*
X005688Y006631D01*
X005612Y006708D01*
X005458Y006708D01*
X005381Y006248D02*
X005535Y006018D01*
X005688Y006248D01*
X005688Y006018D02*
X005228Y006018D01*
X005458Y005864D02*
X005688Y005864D01*
X005688Y005634D01*
X005612Y005557D01*
X005535Y005634D01*
X005535Y005864D01*
X005458Y005864D02*
X005381Y005787D01*
X005381Y005634D01*
X005458Y005404D02*
X005535Y005404D01*
X005535Y005097D01*
X005612Y005097D02*
X005458Y005097D01*
X005381Y005174D01*
X005381Y005327D01*
X005458Y005404D01*
X005688Y005327D02*
X005688Y005174D01*
X005612Y005097D01*
X005381Y004943D02*
X005381Y004867D01*
X005535Y004713D01*
X005535Y004560D02*
X005458Y004483D01*
X005458Y004253D01*
X005458Y004099D02*
X005458Y003792D01*
X005535Y003639D02*
X005458Y003562D01*
X005458Y003332D01*
X005612Y003332D01*
X005688Y003409D01*
X005688Y003562D01*
X005612Y003639D01*
X005535Y003639D01*
X005305Y003485D02*
X005458Y003332D01*
X005458Y003178D02*
X005458Y002948D01*
X005381Y002872D01*
X005305Y002872D01*
X005228Y002948D01*
X005228Y003102D01*
X005305Y003178D01*
X005612Y003178D01*
X005688Y003102D01*
X005688Y002948D01*
X005612Y002872D01*
X005612Y002718D02*
X005458Y002718D01*
X005381Y002641D01*
X005381Y002565D01*
X005458Y002411D01*
X005228Y002411D01*
X005228Y002718D01*
X005612Y002718D02*
X005688Y002641D01*
X005688Y002488D01*
X005612Y002411D01*
X005688Y002258D02*
X005688Y001951D01*
X005381Y002258D01*
X005305Y002258D01*
X005228Y002181D01*
X005228Y002028D01*
X005305Y001951D01*
X005228Y001797D02*
X005688Y001797D01*
X005688Y001490D02*
X005228Y001490D01*
X005381Y001644D01*
X005228Y001797D01*
X005688Y001337D02*
X005688Y001030D01*
X005228Y001030D01*
X005305Y003485D02*
X005228Y003639D01*
X005228Y004253D02*
X005228Y004483D01*
X005305Y004560D01*
X005381Y004560D01*
X005458Y004483D01*
X005535Y004560D02*
X005612Y004560D01*
X005688Y004483D01*
X005688Y004253D01*
X005228Y004253D01*
X005381Y004713D02*
X005688Y004713D01*
D14*
X003583Y004270D02*
X003585Y004298D01*
X003591Y004325D01*
X003600Y004351D01*
X003613Y004376D01*
X003630Y004399D01*
X003649Y004419D01*
X003671Y004436D01*
X003695Y004450D01*
X003721Y004460D01*
X003748Y004467D01*
X003776Y004470D01*
X003804Y004469D01*
X003831Y004464D01*
X003858Y004455D01*
X003883Y004443D01*
X003906Y004428D01*
X003927Y004409D01*
X003945Y004388D01*
X003960Y004364D01*
X003971Y004338D01*
X003979Y004312D01*
X003983Y004284D01*
X003983Y004256D01*
X003979Y004228D01*
X003971Y004202D01*
X003960Y004176D01*
X003945Y004152D01*
X003927Y004131D01*
X003906Y004112D01*
X003883Y004097D01*
X003858Y004085D01*
X003831Y004076D01*
X003804Y004071D01*
X003776Y004070D01*
X003748Y004073D01*
X003721Y004080D01*
X003695Y004090D01*
X003671Y004104D01*
X003649Y004121D01*
X003630Y004141D01*
X003613Y004164D01*
X003600Y004189D01*
X003591Y004215D01*
X003585Y004242D01*
X003583Y004270D01*
X003433Y003260D02*
X001733Y003260D01*
X001183Y003260D01*
X001183Y007260D01*
X001733Y007260D01*
X003433Y007260D01*
X003433Y003260D01*
X004133Y003260D01*
X004133Y007260D01*
X003783Y007260D01*
X003433Y007260D01*
X003383Y007460D01*
X003833Y007460D01*
X003783Y007260D01*
X003583Y006250D02*
X003585Y006278D01*
X003591Y006305D01*
X003600Y006331D01*
X003613Y006356D01*
X003630Y006379D01*
X003649Y006399D01*
X003671Y006416D01*
X003695Y006430D01*
X003721Y006440D01*
X003748Y006447D01*
X003776Y006450D01*
X003804Y006449D01*
X003831Y006444D01*
X003858Y006435D01*
X003883Y006423D01*
X003906Y006408D01*
X003927Y006389D01*
X003945Y006368D01*
X003960Y006344D01*
X003971Y006318D01*
X003979Y006292D01*
X003983Y006264D01*
X003983Y006236D01*
X003979Y006208D01*
X003971Y006182D01*
X003960Y006156D01*
X003945Y006132D01*
X003927Y006111D01*
X003906Y006092D01*
X003883Y006077D01*
X003858Y006065D01*
X003831Y006056D01*
X003804Y006051D01*
X003776Y006050D01*
X003748Y006053D01*
X003721Y006060D01*
X003695Y006070D01*
X003671Y006084D01*
X003649Y006101D01*
X003630Y006121D01*
X003613Y006144D01*
X003600Y006169D01*
X003591Y006195D01*
X003585Y006222D01*
X003583Y006250D01*
X001733Y007260D02*
X001733Y003260D01*
X023033Y002760D02*
X023383Y002760D01*
X023733Y002760D01*
X025433Y002760D01*
X025433Y006760D01*
X023733Y006760D01*
X023733Y010760D01*
X025433Y010760D01*
X025983Y010760D01*
X025983Y006760D01*
X025433Y006760D01*
X025433Y010760D01*
X023733Y010760D02*
X023033Y010760D01*
X023033Y006760D01*
X023383Y006760D01*
X023733Y006760D01*
X023783Y006560D01*
X023333Y006560D01*
X023383Y006760D01*
X023033Y006760D02*
X023733Y006760D01*
X025433Y006760D01*
X025983Y006760D01*
X025983Y002760D01*
X025433Y002760D01*
X023783Y002560D02*
X023733Y002760D01*
X023733Y006760D01*
X023033Y006760D02*
X023033Y002760D01*
X023383Y002760D02*
X023333Y002560D01*
X023783Y002560D01*
X023183Y003770D02*
X023185Y003798D01*
X023191Y003825D01*
X023200Y003851D01*
X023213Y003876D01*
X023230Y003899D01*
X023249Y003919D01*
X023271Y003936D01*
X023295Y003950D01*
X023321Y003960D01*
X023348Y003967D01*
X023376Y003970D01*
X023404Y003969D01*
X023431Y003964D01*
X023458Y003955D01*
X023483Y003943D01*
X023506Y003928D01*
X023527Y003909D01*
X023545Y003888D01*
X023560Y003864D01*
X023571Y003838D01*
X023579Y003812D01*
X023583Y003784D01*
X023583Y003756D01*
X023579Y003728D01*
X023571Y003702D01*
X023560Y003676D01*
X023545Y003652D01*
X023527Y003631D01*
X023506Y003612D01*
X023483Y003597D01*
X023458Y003585D01*
X023431Y003576D01*
X023404Y003571D01*
X023376Y003570D01*
X023348Y003573D01*
X023321Y003580D01*
X023295Y003590D01*
X023271Y003604D01*
X023249Y003621D01*
X023230Y003641D01*
X023213Y003664D01*
X023200Y003689D01*
X023191Y003715D01*
X023185Y003742D01*
X023183Y003770D01*
X023183Y005750D02*
X023185Y005778D01*
X023191Y005805D01*
X023200Y005831D01*
X023213Y005856D01*
X023230Y005879D01*
X023249Y005899D01*
X023271Y005916D01*
X023295Y005930D01*
X023321Y005940D01*
X023348Y005947D01*
X023376Y005950D01*
X023404Y005949D01*
X023431Y005944D01*
X023458Y005935D01*
X023483Y005923D01*
X023506Y005908D01*
X023527Y005889D01*
X023545Y005868D01*
X023560Y005844D01*
X023571Y005818D01*
X023579Y005792D01*
X023583Y005764D01*
X023583Y005736D01*
X023579Y005708D01*
X023571Y005682D01*
X023560Y005656D01*
X023545Y005632D01*
X023527Y005611D01*
X023506Y005592D01*
X023483Y005577D01*
X023458Y005565D01*
X023431Y005556D01*
X023404Y005551D01*
X023376Y005550D01*
X023348Y005553D01*
X023321Y005560D01*
X023295Y005570D01*
X023271Y005584D01*
X023249Y005601D01*
X023230Y005621D01*
X023213Y005644D01*
X023200Y005669D01*
X023191Y005695D01*
X023185Y005722D01*
X023183Y005750D01*
X023183Y007770D02*
X023185Y007798D01*
X023191Y007825D01*
X023200Y007851D01*
X023213Y007876D01*
X023230Y007899D01*
X023249Y007919D01*
X023271Y007936D01*
X023295Y007950D01*
X023321Y007960D01*
X023348Y007967D01*
X023376Y007970D01*
X023404Y007969D01*
X023431Y007964D01*
X023458Y007955D01*
X023483Y007943D01*
X023506Y007928D01*
X023527Y007909D01*
X023545Y007888D01*
X023560Y007864D01*
X023571Y007838D01*
X023579Y007812D01*
X023583Y007784D01*
X023583Y007756D01*
X023579Y007728D01*
X023571Y007702D01*
X023560Y007676D01*
X023545Y007652D01*
X023527Y007631D01*
X023506Y007612D01*
X023483Y007597D01*
X023458Y007585D01*
X023431Y007576D01*
X023404Y007571D01*
X023376Y007570D01*
X023348Y007573D01*
X023321Y007580D01*
X023295Y007590D01*
X023271Y007604D01*
X023249Y007621D01*
X023230Y007641D01*
X023213Y007664D01*
X023200Y007689D01*
X023191Y007715D01*
X023185Y007742D01*
X023183Y007770D01*
X023183Y009750D02*
X023185Y009778D01*
X023191Y009805D01*
X023200Y009831D01*
X023213Y009856D01*
X023230Y009879D01*
X023249Y009899D01*
X023271Y009916D01*
X023295Y009930D01*
X023321Y009940D01*
X023348Y009947D01*
X023376Y009950D01*
X023404Y009949D01*
X023431Y009944D01*
X023458Y009935D01*
X023483Y009923D01*
X023506Y009908D01*
X023527Y009889D01*
X023545Y009868D01*
X023560Y009844D01*
X023571Y009818D01*
X023579Y009792D01*
X023583Y009764D01*
X023583Y009736D01*
X023579Y009708D01*
X023571Y009682D01*
X023560Y009656D01*
X023545Y009632D01*
X023527Y009611D01*
X023506Y009592D01*
X023483Y009577D01*
X023458Y009565D01*
X023431Y009556D01*
X023404Y009551D01*
X023376Y009550D01*
X023348Y009553D01*
X023321Y009560D01*
X023295Y009570D01*
X023271Y009584D01*
X023249Y009601D01*
X023230Y009621D01*
X023213Y009644D01*
X023200Y009669D01*
X023191Y009695D01*
X023185Y009722D01*
X023183Y009750D01*
D15*
X022588Y008504D02*
X022168Y008504D01*
X022588Y008504D02*
X022798Y008294D01*
X022588Y008084D01*
X022168Y008084D01*
X022168Y007860D02*
X022168Y007440D01*
X022483Y007440D01*
X022378Y007650D01*
X022378Y007755D01*
X022483Y007860D01*
X022693Y007860D01*
X022798Y007755D01*
X022798Y007545D01*
X022693Y007440D01*
X022483Y007215D02*
X022483Y006795D01*
X022273Y007005D02*
X022693Y007005D01*
X022588Y005149D02*
X022168Y005149D01*
X022588Y005149D02*
X022798Y004939D01*
X022588Y004729D01*
X022168Y004729D01*
X022273Y004504D02*
X022168Y004399D01*
X022168Y004189D01*
X022273Y004084D01*
X022273Y004504D02*
X022378Y004504D01*
X022798Y004084D01*
X022798Y004504D01*
X022798Y003860D02*
X022798Y003440D01*
X022798Y003650D02*
X022168Y003650D01*
X022378Y003440D01*
X022483Y003215D02*
X022483Y002795D01*
X022273Y003005D02*
X022693Y003005D01*
X004998Y003643D02*
X004368Y003643D01*
X004368Y003958D01*
X004473Y004063D01*
X004683Y004063D01*
X004788Y003958D01*
X004788Y003643D01*
X004998Y004287D02*
X004368Y004287D01*
X004368Y004707D02*
X004998Y004707D01*
X004788Y004497D01*
X004998Y004287D01*
X004998Y004932D02*
X004368Y004932D01*
X004368Y005247D01*
X004473Y005352D01*
X004683Y005352D01*
X004788Y005247D01*
X004788Y004932D01*
X004788Y005142D02*
X004998Y005352D01*
X005103Y005576D02*
X005103Y005997D01*
X004998Y006221D02*
X004998Y006431D01*
X004998Y006326D02*
X004368Y006326D01*
X004368Y006221D02*
X004368Y006431D01*
X004368Y006650D02*
X004998Y007071D01*
X004368Y007071D01*
X004368Y006650D02*
X004998Y006650D01*
D16*
X002583Y005260D03*
X024583Y004760D03*
X024583Y008760D03*
M02*
