G75*
%MOIN*%
%OFA0B0*%
%FSLAX24Y24*%
%IPPOS*%
%LPD*%
%AMOC8*
5,1,8,0,0,1.08239X$1,22.5*
%
%ADD10R,0.0700X0.0700*%
%ADD11C,0.0780*%
%ADD12C,0.0740*%
%ADD13R,0.1000X0.0500*%
%ADD14C,0.0560*%
%ADD15OC8,0.0630*%
%ADD16C,0.0630*%
%ADD17R,0.0650X0.0650*%
%ADD18C,0.0650*%
%ADD19C,0.0320*%
%ADD20C,0.0400*%
%ADD21R,0.0660X0.0660*%
%ADD22C,0.0500*%
D10*
X002260Y005760D03*
X003260Y005760D03*
X004260Y005760D03*
X005260Y005760D03*
X006260Y005760D03*
X007260Y005760D03*
X008260Y005760D03*
X009260Y005760D03*
X013260Y005760D03*
X014260Y005760D03*
X015260Y005760D03*
X016260Y005760D03*
X017260Y005760D03*
X018260Y005760D03*
X019260Y005760D03*
X020260Y005760D03*
X019260Y009760D03*
X019260Y010760D03*
X018260Y010760D03*
X017260Y010760D03*
X017260Y009760D03*
X016260Y010760D03*
X015260Y010760D03*
X014260Y010760D03*
X013260Y010760D03*
X012260Y012760D03*
X013760Y014260D03*
X013760Y015260D03*
X013760Y016260D03*
X013760Y017260D03*
X013760Y018260D03*
X013760Y019260D03*
X013760Y020260D03*
X013760Y021260D03*
X013760Y022260D03*
X013760Y023260D03*
X013760Y024260D03*
X013760Y025260D03*
X010760Y025760D03*
X010760Y022760D03*
X007760Y022260D03*
X007760Y021260D03*
X007760Y020260D03*
X007760Y019260D03*
X007760Y018260D03*
X007760Y017260D03*
X007760Y016260D03*
X007760Y015260D03*
X007760Y014260D03*
X009260Y012760D03*
X009260Y010760D03*
X008260Y010760D03*
X007260Y010760D03*
X006260Y010760D03*
X005260Y010760D03*
X004260Y010760D03*
X003260Y010760D03*
X002260Y010760D03*
X007760Y023260D03*
X007760Y024260D03*
X007760Y025260D03*
X020260Y010760D03*
D11*
X019720Y003150D02*
X019720Y002370D01*
X017740Y002370D02*
X017740Y003150D01*
X015780Y003150D02*
X015780Y002370D01*
X013800Y002370D02*
X013800Y003150D01*
X009220Y003150D02*
X009220Y002370D01*
X007240Y002370D02*
X007240Y003150D01*
X005280Y003150D02*
X005280Y002370D01*
X003300Y002370D02*
X003300Y003150D01*
X018270Y024870D02*
X018270Y025650D01*
X020250Y025650D02*
X020250Y024870D01*
D12*
X011760Y024260D03*
X009760Y024260D03*
X009760Y020260D03*
X011760Y020260D03*
X008760Y008260D03*
X004760Y008260D03*
X015260Y008260D03*
X019260Y008260D03*
D13*
X015260Y025260D03*
X015260Y026260D03*
D14*
X015480Y022260D02*
X016040Y022260D01*
X016040Y021260D02*
X015480Y021260D01*
X015480Y020260D02*
X016040Y020260D01*
X016040Y019260D02*
X015480Y019260D01*
X015480Y018260D02*
X016040Y018260D01*
X016040Y017260D02*
X015480Y017260D01*
X015480Y016260D02*
X016040Y016260D01*
X016040Y015260D02*
X015480Y015260D01*
D15*
X010760Y006260D03*
X021760Y006260D03*
D16*
X022760Y006260D03*
X011760Y006260D03*
D17*
X004260Y017760D03*
X004260Y021760D03*
X003260Y021760D03*
D18*
X003260Y022760D03*
X004260Y022760D03*
X004260Y019760D03*
X004260Y018760D03*
X003260Y018760D03*
X003260Y019760D03*
X003260Y017760D03*
D19*
X002260Y004260D02*
X002260Y001760D01*
X002760Y001260D01*
X009760Y001260D01*
X010260Y001760D01*
X010260Y002260D01*
X012260Y003760D01*
X012260Y004260D01*
X012760Y004760D01*
X013760Y004760D01*
X014260Y005760D01*
X013779Y006770D02*
X013536Y006670D01*
X013350Y006484D01*
X013303Y006370D01*
X013260Y006370D01*
X013260Y006265D01*
X013260Y006370D01*
X012884Y006370D01*
X012834Y006360D01*
X012787Y006340D01*
X012744Y006312D01*
X012735Y006303D01*
X012735Y006454D01*
X012587Y006812D01*
X012312Y007087D01*
X011954Y007235D01*
X011566Y007235D01*
X011208Y007087D01*
X010956Y006835D01*
X010760Y006835D01*
X010760Y006420D01*
X010760Y006835D01*
X010522Y006835D01*
X010267Y006580D01*
X010073Y006580D01*
X009984Y006670D01*
X009741Y006770D01*
X008779Y006770D01*
X008536Y006670D01*
X008350Y006484D01*
X008303Y006370D01*
X008260Y006370D01*
X008260Y006265D01*
X008260Y006265D01*
X008260Y006265D01*
X008260Y006370D01*
X008217Y006370D01*
X008170Y006484D01*
X007984Y006670D01*
X007741Y006770D01*
X006779Y006770D01*
X006760Y006762D01*
X006741Y006770D01*
X005779Y006770D01*
X005760Y006762D01*
X005741Y006770D01*
X004779Y006770D01*
X004760Y006762D01*
X004741Y006770D01*
X003779Y006770D01*
X003760Y006762D01*
X003741Y006770D01*
X002779Y006770D01*
X002536Y006670D01*
X002350Y006484D01*
X002303Y006370D01*
X002260Y006370D01*
X002260Y006265D01*
X002260Y006370D01*
X001884Y006370D01*
X001834Y006360D01*
X001787Y006340D01*
X001744Y006312D01*
X001708Y006276D01*
X001680Y006233D01*
X001660Y006186D01*
X001650Y006136D01*
X001650Y006030D01*
X001580Y006100D01*
X001580Y009832D01*
X001779Y009750D01*
X002741Y009750D01*
X002760Y009758D01*
X002779Y009750D01*
X003741Y009750D01*
X003760Y009758D01*
X003779Y009750D01*
X004741Y009750D01*
X004760Y009758D01*
X004779Y009750D01*
X005741Y009750D01*
X005984Y009850D01*
X006170Y010036D01*
X006217Y010150D01*
X006260Y010150D01*
X006636Y010150D01*
X006686Y010160D01*
X006733Y010180D01*
X006760Y010198D01*
X006787Y010180D01*
X006834Y010160D01*
X006884Y010150D01*
X007260Y010150D01*
X007303Y010150D01*
X007350Y010036D01*
X007536Y009850D01*
X007779Y009750D01*
X008090Y009750D01*
X008065Y009724D01*
X007940Y009423D01*
X007940Y008897D01*
X007936Y008892D01*
X007800Y008658D01*
X007730Y008396D01*
X007730Y008124D01*
X007800Y007862D01*
X007936Y007628D01*
X008128Y007436D01*
X008362Y007300D01*
X008624Y007230D01*
X008896Y007230D01*
X009158Y007300D01*
X009392Y007436D01*
X009584Y007628D01*
X009720Y007862D01*
X009790Y008124D01*
X009790Y008396D01*
X009720Y008658D01*
X009584Y008892D01*
X009580Y008897D01*
X009580Y008920D01*
X009600Y008940D01*
X016447Y008940D01*
X016536Y008850D01*
X016779Y008750D01*
X017741Y008750D01*
X017984Y008850D01*
X018170Y009036D01*
X018260Y009255D01*
X018350Y009036D01*
X018440Y008947D01*
X018440Y008897D01*
X018436Y008892D01*
X018300Y008658D01*
X018230Y008396D01*
X018230Y008124D01*
X018300Y007862D01*
X018436Y007628D01*
X018628Y007436D01*
X018862Y007300D01*
X019124Y007230D01*
X019396Y007230D01*
X019658Y007300D01*
X019892Y007436D01*
X020084Y007628D01*
X020220Y007862D01*
X020290Y008124D01*
X020290Y008396D01*
X020220Y008658D01*
X020084Y008892D01*
X020080Y008897D01*
X020080Y008947D01*
X020170Y009036D01*
X020270Y009279D01*
X020270Y009750D01*
X020741Y009750D01*
X020984Y009850D01*
X021170Y010036D01*
X021270Y010279D01*
X021270Y011241D01*
X021170Y011484D01*
X021080Y011573D01*
X021080Y011923D01*
X020955Y012224D01*
X020224Y012955D01*
X019923Y013080D01*
X015100Y013080D01*
X014724Y013455D01*
X014628Y013495D01*
X014670Y013536D01*
X014770Y013779D01*
X014770Y014440D01*
X015003Y014440D01*
X015293Y014320D01*
X016227Y014320D01*
X016572Y014463D01*
X016837Y014728D01*
X016980Y015073D01*
X016980Y015447D01*
X016850Y015760D01*
X016980Y016073D01*
X016980Y016447D01*
X016850Y016760D01*
X016980Y017073D01*
X016980Y017447D01*
X016850Y017760D01*
X016980Y018073D01*
X016980Y018447D01*
X016850Y018760D01*
X016980Y019073D01*
X016980Y019447D01*
X016850Y019760D01*
X016980Y020073D01*
X016980Y020447D01*
X016850Y020760D01*
X016980Y021073D01*
X016980Y021447D01*
X016837Y021792D01*
X016572Y022057D01*
X016545Y022068D01*
X016567Y022134D01*
X016580Y022218D01*
X016580Y022260D01*
X016580Y022302D01*
X016567Y022386D01*
X016540Y022467D01*
X016502Y022543D01*
X016452Y022612D01*
X016392Y022672D01*
X016323Y022722D01*
X016247Y022760D01*
X016166Y022787D01*
X016082Y022800D01*
X015760Y022800D01*
X015760Y022260D01*
X016760Y022260D01*
X017760Y022260D01*
X018260Y022760D01*
X018260Y024760D01*
X017760Y024260D01*
X013760Y024260D01*
X013260Y024260D01*
X011760Y025760D01*
X010760Y025760D01*
X010360Y025103D02*
X011160Y025103D01*
X011128Y025084D02*
X011123Y025080D01*
X010397Y025080D01*
X010392Y025084D01*
X010158Y025220D01*
X009896Y025290D01*
X009624Y025290D01*
X009580Y025278D01*
X009580Y025923D01*
X009455Y026224D01*
X009224Y026455D01*
X009084Y026596D01*
X014100Y026596D01*
X014100Y026270D01*
X013279Y026270D01*
X013036Y026170D01*
X012850Y025984D01*
X012750Y025741D01*
X012750Y024930D01*
X012724Y024955D01*
X012423Y025080D01*
X012397Y025080D01*
X012392Y025084D01*
X012158Y025220D01*
X011896Y025290D01*
X011624Y025290D01*
X011362Y025220D01*
X011128Y025084D01*
X011760Y024260D02*
X012260Y024260D01*
X012760Y023760D01*
X012760Y022760D01*
X013260Y022260D01*
X013760Y022260D01*
X014260Y022260D01*
X015260Y021260D01*
X015760Y021260D01*
X015760Y022260D02*
X015760Y022260D01*
X015760Y022260D01*
X016580Y022260D01*
X015760Y022260D01*
X015760Y022800D01*
X015438Y022800D01*
X015354Y022787D01*
X015273Y022760D01*
X015197Y022722D01*
X015128Y022672D01*
X015068Y022612D01*
X015068Y022612D01*
X014770Y022910D01*
X014770Y023741D01*
X014670Y023984D01*
X014484Y024170D01*
X014370Y024217D01*
X014370Y024260D01*
X014370Y024303D01*
X014483Y024350D01*
X015891Y024350D01*
X016134Y024450D01*
X016320Y024636D01*
X016420Y024879D01*
X016420Y025641D01*
X016371Y025760D01*
X016420Y025879D01*
X016420Y025900D01*
X017670Y025900D01*
X017653Y025859D01*
X017631Y025777D01*
X017620Y025693D01*
X017620Y025260D01*
X018270Y025260D01*
X018260Y025250D01*
X018260Y024760D01*
X018270Y024785D02*
X018270Y024785D01*
X018270Y025103D02*
X018270Y025103D01*
X018270Y025260D02*
X018270Y024220D01*
X018313Y024220D01*
X018397Y024231D01*
X018479Y024253D01*
X018558Y024286D01*
X018632Y024328D01*
X018699Y024380D01*
X018760Y024441D01*
X018812Y024508D01*
X018854Y024582D01*
X018887Y024661D01*
X018909Y024743D01*
X018920Y024827D01*
X018920Y025260D01*
X018920Y025693D01*
X018909Y025777D01*
X018887Y025859D01*
X018870Y025900D01*
X019230Y025900D01*
X019200Y025788D01*
X019200Y024732D01*
X019272Y024465D01*
X019390Y024260D01*
X019390Y014599D01*
X019521Y014283D01*
X020031Y013773D01*
X020031Y013773D01*
X020273Y013531D01*
X020589Y013400D01*
X021900Y013400D01*
X021900Y006835D01*
X021760Y006835D01*
X021760Y006260D01*
X021260Y006760D01*
X021260Y008760D01*
X021260Y012760D01*
X020760Y013260D01*
X017760Y013260D01*
X017260Y013760D01*
X017260Y021760D01*
X016760Y022260D01*
X016580Y022237D02*
X019390Y022237D01*
X019390Y021918D02*
X016711Y021918D01*
X016917Y021600D02*
X019390Y021600D01*
X019390Y021281D02*
X016980Y021281D01*
X016934Y020963D02*
X019390Y020963D01*
X019390Y020644D02*
X016898Y020644D01*
X016980Y020326D02*
X019390Y020326D01*
X019390Y020007D02*
X016953Y020007D01*
X016880Y019689D02*
X019390Y019689D01*
X019390Y019370D02*
X016980Y019370D01*
X016971Y019052D02*
X019390Y019052D01*
X019390Y018733D02*
X016862Y018733D01*
X016980Y018415D02*
X019390Y018415D01*
X019390Y018096D02*
X016980Y018096D01*
X016858Y017778D02*
X019390Y017778D01*
X019390Y017459D02*
X016975Y017459D01*
X016980Y017141D02*
X019390Y017141D01*
X019390Y016822D02*
X016876Y016822D01*
X016957Y016504D02*
X019390Y016504D01*
X019390Y016185D02*
X016980Y016185D01*
X016894Y015867D02*
X019390Y015867D01*
X019390Y015548D02*
X016938Y015548D01*
X016980Y015230D02*
X019390Y015230D01*
X019390Y014911D02*
X016913Y014911D01*
X016702Y014593D02*
X019393Y014593D01*
X019530Y014274D02*
X014770Y014274D01*
X014770Y013956D02*
X019848Y013956D01*
X020167Y013637D02*
X014711Y013637D01*
X014861Y013319D02*
X021900Y013319D01*
X021900Y013000D02*
X020116Y013000D01*
X020498Y012682D02*
X021900Y012682D01*
X021900Y012363D02*
X020817Y012363D01*
X021030Y012045D02*
X021900Y012045D01*
X021900Y011726D02*
X021080Y011726D01*
X021201Y011408D02*
X021900Y011408D01*
X021900Y011089D02*
X021270Y011089D01*
X021270Y010771D02*
X021900Y010771D01*
X021900Y010452D02*
X021270Y010452D01*
X021210Y010134D02*
X021900Y010134D01*
X021900Y009815D02*
X020898Y009815D01*
X020270Y009497D02*
X021900Y009497D01*
X021900Y009178D02*
X020228Y009178D01*
X020103Y008860D02*
X021900Y008860D01*
X021900Y008541D02*
X020251Y008541D01*
X020290Y008223D02*
X021900Y008223D01*
X021900Y007904D02*
X020231Y007904D01*
X020042Y007586D02*
X021900Y007586D01*
X021900Y007267D02*
X019534Y007267D01*
X018986Y007267D02*
X009034Y007267D01*
X008760Y007260D02*
X008260Y006760D01*
X006760Y008260D01*
X007260Y008760D01*
X007260Y010760D01*
X006260Y010760D01*
X006270Y010760D02*
X006870Y010760D01*
X007250Y010760D01*
X007250Y010760D01*
X006270Y010760D01*
X006270Y010760D01*
X006260Y010255D02*
X006260Y010150D01*
X006260Y010255D01*
X006260Y010255D01*
X006210Y010134D02*
X007310Y010134D01*
X007260Y010150D02*
X007260Y010255D01*
X007260Y010255D01*
X007260Y010150D01*
X007622Y009815D02*
X005898Y009815D01*
X005260Y010760D02*
X004260Y010760D01*
X003260Y010760D02*
X003260Y011260D01*
X003760Y011760D01*
X006260Y011760D01*
X006760Y012260D01*
X006760Y015760D01*
X007260Y016260D01*
X007760Y016260D01*
X007760Y017260D02*
X006760Y017260D01*
X005760Y016260D01*
X005760Y013260D01*
X005260Y012760D01*
X003260Y012760D01*
X002260Y011760D01*
X002260Y010760D01*
X001622Y009815D02*
X001580Y009815D01*
X001580Y009497D02*
X007970Y009497D01*
X007940Y009178D02*
X001580Y009178D01*
X001580Y008860D02*
X004566Y008860D01*
X004612Y008874D02*
X004518Y008844D01*
X004430Y008799D01*
X004350Y008741D01*
X004279Y008670D01*
X004221Y008590D01*
X004176Y008502D01*
X004146Y008408D01*
X004130Y008310D01*
X004130Y008260D01*
X004760Y008260D01*
X006760Y008260D01*
X007730Y008223D02*
X005390Y008223D01*
X005390Y008210D02*
X005390Y008260D01*
X005390Y008310D01*
X005374Y008408D01*
X005344Y008502D01*
X005299Y008590D01*
X005241Y008670D01*
X005170Y008741D01*
X005090Y008799D01*
X005002Y008844D01*
X004908Y008874D01*
X004810Y008890D01*
X004760Y008890D01*
X004760Y008260D01*
X003760Y008260D01*
X002260Y006760D01*
X001260Y007760D01*
X001260Y012260D01*
X002260Y013260D01*
X002260Y018260D01*
X002760Y018760D01*
X003260Y018760D01*
X004260Y018760D01*
X004845Y018760D01*
X004845Y018806D01*
X004831Y018897D01*
X004821Y018928D01*
X005095Y019202D01*
X005245Y019564D01*
X005245Y019956D01*
X005132Y020228D01*
X005565Y019796D01*
X005796Y019565D01*
X005873Y019533D01*
X004972Y018632D01*
X004959Y018645D01*
X004842Y018693D01*
X004845Y018714D01*
X004845Y018760D01*
X004260Y018760D01*
X004260Y018760D01*
X004260Y018760D01*
X003675Y018760D01*
X003260Y018760D01*
X003260Y018760D01*
X004260Y018760D01*
X004845Y018733D02*
X005073Y018733D01*
X004945Y019052D02*
X005392Y019052D01*
X005165Y019370D02*
X005710Y019370D01*
X005672Y019689D02*
X005245Y019689D01*
X005224Y020007D02*
X005353Y020007D01*
X006260Y020260D02*
X007760Y020260D01*
X008260Y020260D01*
X009260Y019260D01*
X011260Y019260D01*
X011760Y019760D01*
X011760Y020260D01*
X011006Y020963D02*
X010514Y020963D01*
X010584Y020892D02*
X010392Y021084D01*
X010158Y021220D01*
X009896Y021290D01*
X009624Y021290D01*
X009439Y021240D01*
X008724Y021955D01*
X008672Y021977D01*
X008670Y021984D01*
X008484Y022170D01*
X008370Y022217D01*
X008370Y022260D01*
X008370Y022636D01*
X008360Y022686D01*
X008340Y022733D01*
X008322Y022760D01*
X008340Y022787D01*
X008360Y022834D01*
X008370Y022884D01*
X008370Y023260D01*
X008370Y023303D01*
X008484Y023350D01*
X008670Y023536D01*
X008715Y023646D01*
X008796Y023565D01*
X009097Y023440D01*
X009123Y023440D01*
X009128Y023436D01*
X009362Y023300D01*
X009624Y023230D01*
X009896Y023230D01*
X010158Y023300D01*
X010392Y023436D01*
X010397Y023440D01*
X011123Y023440D01*
X011128Y023436D01*
X011362Y023300D01*
X011624Y023230D01*
X011896Y023230D01*
X011940Y023242D01*
X011940Y022597D01*
X012065Y022296D01*
X012565Y021796D01*
X012750Y021610D01*
X012750Y020779D01*
X012758Y020760D01*
X012750Y020741D01*
X012750Y020545D01*
X012720Y020658D01*
X012584Y020892D01*
X012392Y021084D01*
X012158Y021220D01*
X011896Y021290D01*
X011624Y021290D01*
X011362Y021220D01*
X011128Y021084D01*
X010936Y020892D01*
X010800Y020658D01*
X010760Y020508D01*
X010720Y020658D01*
X010584Y020892D01*
X010723Y020644D02*
X010797Y020644D01*
X011591Y021281D02*
X009929Y021281D01*
X009591Y021281D02*
X009399Y021281D01*
X009080Y021600D02*
X012750Y021600D01*
X012750Y021281D02*
X011929Y021281D01*
X012442Y021918D02*
X008762Y021918D01*
X008370Y022237D02*
X012124Y022237D01*
X011957Y022555D02*
X008370Y022555D01*
X008368Y022874D02*
X011940Y022874D01*
X011940Y023192D02*
X008370Y023192D01*
X008370Y023260D02*
X008265Y023260D01*
X008265Y023260D01*
X008370Y023260D01*
X008644Y023511D02*
X008927Y023511D01*
X009260Y023260D02*
X009760Y022760D01*
X010760Y022760D01*
X009260Y023260D02*
X007760Y023260D01*
X006760Y023260D01*
X006260Y023760D01*
X003760Y023760D01*
X003260Y023260D01*
X003260Y022760D01*
X003260Y022760D01*
X003260Y023345D01*
X003306Y023345D01*
X003397Y023331D01*
X003428Y023321D01*
X003702Y023595D01*
X004064Y023745D01*
X004456Y023745D01*
X004818Y023595D01*
X004833Y023580D01*
X005097Y023580D01*
X005423Y023580D01*
X005724Y023455D01*
X007023Y022157D01*
X007036Y022170D01*
X007150Y022217D01*
X007150Y022260D01*
X007255Y022260D01*
X007255Y022260D01*
X007150Y022260D01*
X007150Y022636D01*
X007160Y022686D01*
X007180Y022733D01*
X007198Y022760D01*
X007180Y022787D01*
X007160Y022834D01*
X007150Y022884D01*
X007150Y023260D01*
X007255Y023260D01*
X007150Y023260D01*
X007150Y023303D01*
X007036Y023350D01*
X006850Y023536D01*
X006750Y023779D01*
X006750Y024741D01*
X006758Y024760D01*
X006750Y024779D01*
X006750Y025440D01*
X003100Y025440D01*
X003080Y025420D01*
X003080Y023317D01*
X003123Y023331D01*
X003214Y023345D01*
X003260Y023345D01*
X003260Y022760D01*
X003260Y022874D02*
X003260Y022874D01*
X003260Y023192D02*
X003260Y023192D01*
X003080Y023511D02*
X003618Y023511D01*
X003080Y023829D02*
X006750Y023829D01*
X006750Y024148D02*
X003080Y024148D01*
X003080Y024466D02*
X006750Y024466D01*
X006750Y024785D02*
X003080Y024785D01*
X003080Y025103D02*
X006750Y025103D01*
X006750Y025422D02*
X003081Y025422D01*
X002260Y025760D02*
X002760Y026260D01*
X008260Y026260D01*
X008760Y025760D01*
X008760Y024760D01*
X009260Y024260D01*
X009760Y024260D01*
X011760Y024260D01*
X012360Y025103D02*
X012750Y025103D01*
X012750Y025422D02*
X009580Y025422D01*
X009580Y025740D02*
X012750Y025740D01*
X012925Y026059D02*
X009524Y026059D01*
X009303Y026377D02*
X014100Y026377D01*
X014265Y024260D02*
X014370Y024260D01*
X014265Y024260D01*
X014265Y024260D01*
X014265Y024260D01*
X014506Y024148D02*
X019390Y024148D01*
X019390Y023829D02*
X014734Y023829D01*
X014770Y023511D02*
X019390Y023511D01*
X019390Y023192D02*
X014770Y023192D01*
X014806Y022874D02*
X019390Y022874D01*
X019390Y022555D02*
X016493Y022555D01*
X015760Y022555D02*
X015760Y022555D01*
X016149Y024466D02*
X017761Y024466D01*
X017780Y024441D02*
X017728Y024508D01*
X017686Y024582D01*
X017653Y024661D01*
X017631Y024743D01*
X017620Y024827D01*
X017620Y025260D01*
X018270Y025260D01*
X018920Y025260D01*
X018270Y025260D01*
X018270Y025260D01*
X018270Y025260D01*
X018270Y025260D01*
X018270Y024220D01*
X018227Y024220D01*
X018143Y024231D01*
X018061Y024253D01*
X017982Y024286D01*
X017908Y024328D01*
X017841Y024380D01*
X017780Y024441D01*
X017626Y024785D02*
X016381Y024785D01*
X016420Y025103D02*
X017620Y025103D01*
X017620Y025422D02*
X016420Y025422D01*
X016379Y025740D02*
X017626Y025740D01*
X018914Y025740D02*
X019200Y025740D01*
X019200Y025422D02*
X018920Y025422D01*
X018920Y025103D02*
X019200Y025103D01*
X019200Y024785D02*
X018914Y024785D01*
X018779Y024466D02*
X019271Y024466D01*
X018270Y024466D02*
X018270Y024466D01*
X015760Y020260D02*
X015260Y020260D01*
X014260Y021260D01*
X013760Y021260D01*
X013760Y020260D02*
X014260Y020260D01*
X015260Y019260D01*
X015760Y019260D01*
X015760Y018260D02*
X015260Y018260D01*
X014260Y019260D01*
X013760Y019260D01*
X013760Y018260D02*
X013260Y018260D01*
X012760Y017760D01*
X012760Y015760D01*
X012260Y015260D01*
X011260Y015260D01*
X010760Y014760D01*
X010760Y011260D01*
X011260Y010760D01*
X013260Y010760D01*
X014260Y010760D02*
X014260Y011260D01*
X013760Y011760D01*
X011760Y011760D01*
X011260Y012260D01*
X011260Y013760D01*
X011760Y014260D01*
X013760Y014260D01*
X013760Y015260D02*
X015760Y015260D01*
X015760Y016260D02*
X013760Y016260D01*
X013760Y017260D02*
X015760Y017260D01*
X012750Y020644D02*
X012723Y020644D01*
X012750Y020963D02*
X012514Y020963D01*
X009760Y020260D02*
X009260Y020260D01*
X008260Y021260D01*
X007760Y021260D01*
X006760Y021260D01*
X005260Y022760D01*
X004260Y022760D01*
X004260Y021760D02*
X004760Y021760D01*
X006260Y020260D01*
X006760Y019260D02*
X007760Y019260D01*
X007760Y018260D02*
X006760Y018260D01*
X005260Y016760D01*
X003760Y016760D01*
X003260Y017260D01*
X003260Y017760D01*
X004260Y017760D02*
X005260Y017760D01*
X006760Y019260D01*
X006943Y022237D02*
X007150Y022237D01*
X007150Y022555D02*
X006625Y022555D01*
X006306Y022874D02*
X007152Y022874D01*
X007150Y023192D02*
X005988Y023192D01*
X005591Y023511D02*
X006876Y023511D01*
X007255Y023260D02*
X007255Y023260D01*
X007760Y023260D02*
X007760Y022260D01*
X007760Y022270D02*
X007760Y022870D01*
X007760Y023250D01*
X007760Y022270D01*
X007760Y022270D01*
X007760Y022555D02*
X007760Y022555D01*
X007760Y022874D02*
X007760Y022874D01*
X007760Y023192D02*
X007760Y023192D01*
X007760Y023250D02*
X007760Y023250D01*
X008265Y022260D02*
X008370Y022260D01*
X008265Y022260D01*
X008265Y022260D01*
X004260Y019760D02*
X003260Y019760D01*
X002760Y019760D01*
X001760Y018760D01*
X001760Y013760D01*
X000760Y012760D01*
X000760Y005760D01*
X002260Y004260D01*
X003260Y005260D01*
X003260Y005760D01*
X002497Y006630D02*
X001580Y006630D01*
X001580Y006312D02*
X001744Y006312D01*
X002260Y006312D02*
X002260Y006312D01*
X002260Y006265D02*
X002260Y006265D01*
X002260Y006760D02*
X002260Y005760D01*
X001580Y006949D02*
X011070Y006949D01*
X010760Y006760D02*
X010760Y006260D01*
X010760Y006420D02*
X010760Y006420D01*
X010760Y006630D02*
X010760Y006630D01*
X010760Y006760D02*
X011260Y007260D01*
X012760Y007260D01*
X013260Y006760D01*
X014760Y008260D01*
X015260Y008260D01*
X017760Y008260D01*
X019260Y006760D01*
X021260Y008760D01*
X021900Y006949D02*
X012450Y006949D01*
X012662Y006630D02*
X013497Y006630D01*
X013260Y006760D02*
X013260Y005760D01*
X013250Y005760D02*
X012650Y005760D01*
X013250Y005760D01*
X013250Y005760D01*
X013260Y006265D02*
X013260Y006265D01*
X013260Y006312D02*
X013260Y006312D01*
X012744Y006312D02*
X012735Y006312D01*
X012650Y005861D02*
X012650Y005760D01*
X012650Y005580D01*
X012597Y005580D01*
X012580Y005573D01*
X012580Y005701D01*
X012587Y005708D01*
X012650Y005861D01*
X012650Y005675D02*
X012580Y005675D01*
X011760Y005260D02*
X011260Y004760D01*
X010260Y005760D01*
X009260Y005760D01*
X008760Y004760D02*
X009260Y004260D01*
X009260Y002800D01*
X009220Y002760D01*
X007260Y002780D02*
X007240Y002760D01*
X007260Y002780D02*
X007260Y004260D01*
X006260Y004760D01*
X006260Y005760D01*
X007260Y005760D02*
X007260Y005260D01*
X007760Y004760D01*
X008760Y004760D01*
X008260Y005760D02*
X008260Y006760D01*
X008023Y006630D02*
X008497Y006630D01*
X008260Y006312D02*
X008260Y006312D01*
X008486Y007267D02*
X001580Y007267D01*
X001580Y007586D02*
X007978Y007586D01*
X007789Y007904D02*
X005280Y007904D01*
X005299Y007930D02*
X005241Y007850D01*
X005170Y007779D01*
X005090Y007721D01*
X005002Y007676D01*
X004908Y007646D01*
X004810Y007630D01*
X004760Y007630D01*
X004760Y008260D01*
X005390Y008260D01*
X004760Y008260D01*
X004760Y008260D01*
X004760Y008260D01*
X004760Y008260D01*
X004760Y008260D01*
X004760Y008890D01*
X004710Y008890D01*
X004612Y008874D01*
X004760Y008860D02*
X004760Y008860D01*
X004954Y008860D02*
X007917Y008860D01*
X007769Y008541D02*
X005324Y008541D01*
X005390Y008210D02*
X005374Y008112D01*
X005344Y008018D01*
X005299Y007930D01*
X004760Y007904D02*
X004760Y007904D01*
X004760Y007630D02*
X004760Y008260D01*
X004130Y008260D01*
X004130Y008210D01*
X004146Y008112D01*
X004176Y008018D01*
X004221Y007930D01*
X004279Y007850D01*
X004350Y007779D01*
X004430Y007721D01*
X004518Y007676D01*
X004612Y007646D01*
X004710Y007630D01*
X004760Y007630D01*
X004240Y007904D02*
X001580Y007904D01*
X001580Y008223D02*
X004130Y008223D01*
X004196Y008541D02*
X001580Y008541D01*
X004260Y005760D02*
X004260Y004760D01*
X003300Y003800D01*
X003300Y002760D01*
X005280Y002760D02*
X005280Y004280D01*
X005260Y004760D01*
X005260Y005760D01*
X004760Y008223D02*
X004760Y008223D01*
X004760Y008541D02*
X004760Y008541D01*
X008260Y011760D02*
X007760Y012260D01*
X007760Y014260D01*
X007760Y015260D02*
X008260Y015260D01*
X008760Y014760D01*
X008760Y013260D01*
X009260Y012760D01*
X009260Y010760D01*
X009260Y009760D02*
X008760Y009260D01*
X008760Y008260D01*
X008760Y007260D02*
X010260Y007260D01*
X010760Y006760D01*
X010317Y006630D02*
X010023Y006630D01*
X009542Y007586D02*
X018478Y007586D01*
X018289Y007904D02*
X015780Y007904D01*
X015799Y007930D02*
X015844Y008018D01*
X015874Y008112D01*
X015890Y008210D01*
X015890Y008260D01*
X015890Y008310D01*
X015874Y008408D01*
X015844Y008502D01*
X015799Y008590D01*
X015741Y008670D01*
X015670Y008741D01*
X015590Y008799D01*
X015502Y008844D01*
X015408Y008874D01*
X015310Y008890D01*
X015260Y008890D01*
X015260Y008260D01*
X015890Y008260D01*
X015260Y008260D01*
X015260Y008260D01*
X015260Y008260D01*
X015260Y007630D01*
X015310Y007630D01*
X015408Y007646D01*
X015502Y007676D01*
X015590Y007721D01*
X015670Y007779D01*
X015741Y007850D01*
X015799Y007930D01*
X015890Y008223D02*
X018230Y008223D01*
X018269Y008541D02*
X015824Y008541D01*
X015454Y008860D02*
X016527Y008860D01*
X017260Y009760D02*
X009260Y009760D01*
X008260Y010760D01*
X008260Y011760D01*
X009603Y008860D02*
X015066Y008860D01*
X015112Y008874D02*
X015018Y008844D01*
X014930Y008799D01*
X014850Y008741D01*
X014779Y008670D01*
X014721Y008590D01*
X014676Y008502D01*
X014646Y008408D01*
X014630Y008310D01*
X014630Y008260D01*
X015260Y008260D01*
X015260Y008260D01*
X015260Y008260D01*
X015260Y008890D01*
X015210Y008890D01*
X015112Y008874D01*
X015260Y008860D02*
X015260Y008860D01*
X015260Y008541D02*
X015260Y008541D01*
X015260Y008260D02*
X014630Y008260D01*
X014630Y008210D01*
X014646Y008112D01*
X014676Y008018D01*
X014721Y007930D01*
X014779Y007850D01*
X014850Y007779D01*
X014930Y007721D01*
X015018Y007676D01*
X015112Y007646D01*
X015210Y007630D01*
X015260Y007630D01*
X015260Y008260D01*
X015260Y008223D02*
X015260Y008223D01*
X015260Y007904D02*
X015260Y007904D01*
X014740Y007904D02*
X009731Y007904D01*
X009790Y008223D02*
X014630Y008223D01*
X014696Y008541D02*
X009751Y008541D01*
X011760Y006260D02*
X011760Y005260D01*
X011260Y004760D02*
X011260Y004260D01*
X013800Y003800D02*
X013800Y002760D01*
X013800Y003800D02*
X015260Y005260D01*
X015260Y005760D01*
X016260Y005760D02*
X016260Y004760D01*
X015760Y004260D01*
X015760Y003760D01*
X015780Y003740D01*
X015780Y002760D01*
X017740Y002760D02*
X017760Y002780D01*
X017760Y004260D01*
X017260Y004760D01*
X017260Y005760D01*
X017741Y006770D02*
X016779Y006770D01*
X016760Y006762D01*
X016741Y006770D01*
X015779Y006770D01*
X015760Y006762D01*
X015741Y006770D01*
X014779Y006770D01*
X014760Y006762D01*
X014741Y006770D01*
X013779Y006770D01*
X015260Y010760D02*
X016260Y010760D01*
X017260Y010760D02*
X018260Y010760D01*
X018260Y008760D01*
X017760Y008260D01*
X017993Y008860D02*
X018417Y008860D01*
X018292Y009178D02*
X018228Y009178D01*
X019260Y009760D02*
X019260Y008260D01*
X019260Y006760D02*
X019260Y005760D01*
X019260Y006265D02*
X019260Y006265D01*
X019260Y006265D01*
X019260Y006370D01*
X019303Y006370D01*
X019350Y006484D01*
X019536Y006670D01*
X019779Y006770D01*
X020741Y006770D01*
X020984Y006670D01*
X021170Y006484D01*
X021185Y006446D01*
X021185Y006498D01*
X021522Y006835D01*
X021760Y006835D01*
X021760Y006260D01*
X021760Y006260D01*
X021760Y005685D01*
X021900Y005685D01*
X021900Y005120D01*
X021616Y005120D01*
X021270Y005466D01*
X021270Y005937D01*
X021522Y005685D01*
X021760Y005685D01*
X021760Y006260D01*
X021760Y006260D01*
X021760Y006312D02*
X021760Y006312D01*
X021760Y006630D02*
X021760Y006630D01*
X021317Y006630D02*
X021023Y006630D01*
X021760Y005993D02*
X021760Y005993D01*
X021900Y005675D02*
X021270Y005675D01*
X021380Y005356D02*
X021900Y005356D01*
X019720Y003800D02*
X018260Y005260D01*
X018260Y005760D01*
X018741Y006770D02*
X018984Y006670D01*
X019170Y006484D01*
X019217Y006370D01*
X019260Y006370D01*
X019260Y006265D01*
X019260Y006312D02*
X019260Y006312D01*
X019023Y006630D02*
X019497Y006630D01*
X018741Y006770D02*
X017779Y006770D01*
X017760Y006762D01*
X017741Y006770D01*
X019260Y009760D02*
X019260Y010760D01*
X020260Y010760D02*
X020260Y011760D01*
X019760Y012260D01*
X014760Y012260D01*
X014260Y012760D01*
X012260Y012760D01*
X019720Y003800D02*
X019720Y002760D01*
X003260Y021760D02*
X002760Y021760D01*
X002260Y021260D01*
X002260Y020260D01*
X002760Y019760D01*
X002760Y021760D02*
X002260Y022260D01*
X002260Y025760D01*
D20*
X015260Y026260D02*
X015760Y026760D01*
X019760Y026760D01*
X020260Y026260D01*
X020260Y025270D01*
X020250Y025260D01*
X020250Y014770D01*
X020760Y014260D01*
X022260Y014260D01*
X022760Y013760D01*
X022760Y006260D01*
X022760Y004760D01*
X022260Y004260D01*
X021260Y003260D01*
X021260Y001260D01*
X020760Y000760D01*
X011260Y000760D01*
X020260Y005260D02*
X021260Y004260D01*
X022260Y004260D01*
X020260Y005260D02*
X020260Y005760D01*
D21*
X011260Y004260D03*
X011260Y000760D03*
D22*
X013760Y025260D02*
X015260Y025260D01*
M02*
