G75*
%MOIN*%
%OFA0B0*%
%FSLAX24Y24*%
%IPPOS*%
%LPD*%
%AMOC8*
5,1,8,0,0,1.08239X$1,22.5*
%
%ADD10C,0.1182*%
%ADD11R,0.0780X0.0780*%
%ADD12C,0.0860*%
%ADD13C,0.0820*%
%ADD14C,0.0640*%
%ADD15OC8,0.0710*%
%ADD16C,0.0710*%
%ADD17R,0.0730X0.0730*%
%ADD18C,0.0730*%
%ADD19R,0.0740X0.0740*%
D10*
X001260Y001260D03*
X022760Y001260D03*
X022760Y026260D03*
X001260Y026260D03*
D11*
X007760Y025260D03*
X007760Y024260D03*
X007760Y023260D03*
X007760Y022260D03*
X007760Y021260D03*
X007760Y020260D03*
X007760Y019260D03*
X007760Y018260D03*
X007760Y017260D03*
X007760Y016260D03*
X007760Y015260D03*
X007760Y014260D03*
X009260Y012760D03*
X009260Y010760D03*
X008260Y010760D03*
X007260Y010760D03*
X006260Y010760D03*
X005260Y010760D03*
X004260Y010760D03*
X003260Y010760D03*
X002260Y010760D03*
X002260Y005760D03*
X003260Y005760D03*
X004260Y005760D03*
X005260Y005760D03*
X006260Y005760D03*
X007260Y005760D03*
X008260Y005760D03*
X009260Y005760D03*
X013260Y005760D03*
X014260Y005760D03*
X015260Y005760D03*
X016260Y005760D03*
X017260Y005760D03*
X018260Y005760D03*
X019260Y005760D03*
X020260Y005760D03*
X019260Y009760D03*
X019260Y010760D03*
X018260Y010760D03*
X017260Y010760D03*
X017260Y009760D03*
X016260Y010760D03*
X015260Y010760D03*
X014260Y010760D03*
X013260Y010760D03*
X012260Y012760D03*
X013760Y014260D03*
X013760Y015260D03*
X013760Y016260D03*
X013760Y017260D03*
X013760Y018260D03*
X013760Y019260D03*
X013760Y020260D03*
X013760Y021260D03*
X013760Y022260D03*
X013760Y023260D03*
X013760Y024260D03*
X013760Y025260D03*
X010760Y025760D03*
X010760Y022760D03*
X020260Y010760D03*
D12*
X019720Y003150D02*
X019720Y002370D01*
X017740Y002370D02*
X017740Y003150D01*
X015780Y003150D02*
X015780Y002370D01*
X013800Y002370D02*
X013800Y003150D01*
X009220Y003150D02*
X009220Y002370D01*
X007240Y002370D02*
X007240Y003150D01*
X005280Y003150D02*
X005280Y002370D01*
X003300Y002370D02*
X003300Y003150D01*
X018270Y024870D02*
X018270Y025650D01*
X020250Y025650D02*
X020250Y024870D01*
D13*
X011760Y024260D03*
X009760Y024260D03*
X009760Y020260D03*
X011760Y020260D03*
X008760Y008260D03*
X004760Y008260D03*
X015260Y008260D03*
X019260Y008260D03*
D14*
X016040Y015260D02*
X015480Y015260D01*
X015480Y016260D02*
X016040Y016260D01*
X016040Y017260D02*
X015480Y017260D01*
X015480Y018260D02*
X016040Y018260D01*
X016040Y019260D02*
X015480Y019260D01*
X015480Y020260D02*
X016040Y020260D01*
X016040Y021260D02*
X015480Y021260D01*
X015480Y022260D02*
X016040Y022260D01*
D15*
X010760Y006260D03*
X021760Y006260D03*
D16*
X022760Y006260D03*
X011760Y006260D03*
D17*
X004260Y017760D03*
X004260Y021760D03*
X003260Y021760D03*
D18*
X003260Y022760D03*
X004260Y022760D03*
X004260Y019760D03*
X004260Y018760D03*
X003260Y018760D03*
X003260Y019760D03*
X003260Y017760D03*
D19*
X011260Y004260D03*
X011260Y000760D03*
M02*
