%
M48
M72
T01C0.0320
T02C0.0350
T03C0.0390
T04C0.0400
T05C0.0520
T06C0.1100
%
T01
X16000Y15180
X16000Y16180
X16000Y17180
X16000Y18180
X16000Y19180
X16000Y20180
X16000Y21180
X16000Y22180
X20000Y14180
X20000Y13180
T02
X19500Y8180
X15500Y8180
X9000Y8180
X5000Y8180
X10000Y20180
X12000Y20180
X12000Y24180
X10000Y24180
T03
X11000Y25680
X11000Y22680
X8000Y22180
X8000Y21180
X8000Y20180
X8000Y19180
X8000Y18180
X8000Y17180
X8000Y16180
X8000Y15180
X8000Y14180
X10000Y12680
X10000Y10680
X9000Y10680
X8000Y10680
X7000Y10680
X6000Y10680
X5000Y10680
X4000Y10680
X3000Y10680
X3000Y5680
X4000Y5680
X5000Y5680
X6000Y5680
X7000Y5680
X8000Y5680
X9000Y5680
X10000Y5680
X12000Y5680
X13500Y5680
X14500Y5680
X15500Y5680
X16500Y5680
X17500Y5680
X18500Y5680
X19500Y5680
X20500Y5680
X19500Y9680
X19500Y10680
X18500Y10680
X17500Y10680
X17500Y9680
X16500Y10680
X15500Y10680
X14500Y10680
X13500Y10680
X12500Y12680
X14000Y14180
X14000Y15180
X14000Y16180
X14000Y17180
X14000Y18180
X14000Y19180
X14000Y20180
X14000Y21180
X14000Y22180
X14000Y23180
X14000Y24180
X14000Y25180
X8000Y25180
X8000Y24180
X8000Y23180
X20500Y10680
X12000Y3680
T04
X5500Y18180
X5500Y19180
X5500Y20180
X4500Y20180
X4500Y19180
X4500Y18180
X4500Y22680
X4500Y23680
X5500Y23680
X5500Y22680
T05
X17510Y25180
X19490Y25180
X19960Y2680
X17980Y2680
X16020Y2680
X14040Y2680
X9460Y2680
X7480Y2680
X5520Y2680
X3540Y2680
T06
X1500Y1180
X1500Y26180
X22500Y26180
M30
