G75*
%MOIN*%
%OFA0B0*%
%FSLAX25Y25*%
%IPPOS*%
%LPD*%
%AMOC8*
5,1,8,0,0,1.08239X$1,22.5*
%
%ADD10C,0.00000*%
%ADD11R,0.07000X0.07000*%
%ADD12C,0.07800*%
%ADD13C,0.07400*%
%ADD14R,0.10000X0.05000*%
%ADD15C,0.06000*%
%ADD16OC8,0.06300*%
%ADD17C,0.06300*%
%ADD18R,0.06500X0.06500*%
%ADD19C,0.06500*%
%ADD20C,0.03200*%
%ADD21C,0.04000*%
%ADD22R,0.06600X0.06600*%
%ADD23C,0.05000*%
D10*
X0002600Y0002600D02*
X0002600Y0272561D01*
X0236301Y0272561D01*
X0236301Y0002600D01*
X0002600Y0002600D01*
X0007088Y0012600D02*
X0007090Y0012748D01*
X0007096Y0012896D01*
X0007106Y0013044D01*
X0007120Y0013191D01*
X0007138Y0013338D01*
X0007159Y0013484D01*
X0007185Y0013630D01*
X0007215Y0013775D01*
X0007248Y0013919D01*
X0007286Y0014062D01*
X0007327Y0014204D01*
X0007372Y0014345D01*
X0007420Y0014485D01*
X0007473Y0014624D01*
X0007529Y0014761D01*
X0007589Y0014896D01*
X0007652Y0015030D01*
X0007719Y0015162D01*
X0007790Y0015292D01*
X0007864Y0015420D01*
X0007941Y0015546D01*
X0008022Y0015670D01*
X0008106Y0015792D01*
X0008193Y0015911D01*
X0008284Y0016028D01*
X0008378Y0016143D01*
X0008474Y0016255D01*
X0008574Y0016365D01*
X0008676Y0016471D01*
X0008782Y0016575D01*
X0008890Y0016676D01*
X0009001Y0016774D01*
X0009114Y0016870D01*
X0009230Y0016962D01*
X0009348Y0017051D01*
X0009469Y0017136D01*
X0009592Y0017219D01*
X0009717Y0017298D01*
X0009844Y0017374D01*
X0009973Y0017446D01*
X0010104Y0017515D01*
X0010237Y0017580D01*
X0010372Y0017641D01*
X0010508Y0017699D01*
X0010645Y0017754D01*
X0010784Y0017804D01*
X0010925Y0017851D01*
X0011066Y0017894D01*
X0011209Y0017934D01*
X0011353Y0017969D01*
X0011497Y0018001D01*
X0011643Y0018028D01*
X0011789Y0018052D01*
X0011936Y0018072D01*
X0012083Y0018088D01*
X0012230Y0018100D01*
X0012378Y0018108D01*
X0012526Y0018112D01*
X0012674Y0018112D01*
X0012822Y0018108D01*
X0012970Y0018100D01*
X0013117Y0018088D01*
X0013264Y0018072D01*
X0013411Y0018052D01*
X0013557Y0018028D01*
X0013703Y0018001D01*
X0013847Y0017969D01*
X0013991Y0017934D01*
X0014134Y0017894D01*
X0014275Y0017851D01*
X0014416Y0017804D01*
X0014555Y0017754D01*
X0014692Y0017699D01*
X0014828Y0017641D01*
X0014963Y0017580D01*
X0015096Y0017515D01*
X0015227Y0017446D01*
X0015356Y0017374D01*
X0015483Y0017298D01*
X0015608Y0017219D01*
X0015731Y0017136D01*
X0015852Y0017051D01*
X0015970Y0016962D01*
X0016086Y0016870D01*
X0016199Y0016774D01*
X0016310Y0016676D01*
X0016418Y0016575D01*
X0016524Y0016471D01*
X0016626Y0016365D01*
X0016726Y0016255D01*
X0016822Y0016143D01*
X0016916Y0016028D01*
X0017007Y0015911D01*
X0017094Y0015792D01*
X0017178Y0015670D01*
X0017259Y0015546D01*
X0017336Y0015420D01*
X0017410Y0015292D01*
X0017481Y0015162D01*
X0017548Y0015030D01*
X0017611Y0014896D01*
X0017671Y0014761D01*
X0017727Y0014624D01*
X0017780Y0014485D01*
X0017828Y0014345D01*
X0017873Y0014204D01*
X0017914Y0014062D01*
X0017952Y0013919D01*
X0017985Y0013775D01*
X0018015Y0013630D01*
X0018041Y0013484D01*
X0018062Y0013338D01*
X0018080Y0013191D01*
X0018094Y0013044D01*
X0018104Y0012896D01*
X0018110Y0012748D01*
X0018112Y0012600D01*
X0018110Y0012452D01*
X0018104Y0012304D01*
X0018094Y0012156D01*
X0018080Y0012009D01*
X0018062Y0011862D01*
X0018041Y0011716D01*
X0018015Y0011570D01*
X0017985Y0011425D01*
X0017952Y0011281D01*
X0017914Y0011138D01*
X0017873Y0010996D01*
X0017828Y0010855D01*
X0017780Y0010715D01*
X0017727Y0010576D01*
X0017671Y0010439D01*
X0017611Y0010304D01*
X0017548Y0010170D01*
X0017481Y0010038D01*
X0017410Y0009908D01*
X0017336Y0009780D01*
X0017259Y0009654D01*
X0017178Y0009530D01*
X0017094Y0009408D01*
X0017007Y0009289D01*
X0016916Y0009172D01*
X0016822Y0009057D01*
X0016726Y0008945D01*
X0016626Y0008835D01*
X0016524Y0008729D01*
X0016418Y0008625D01*
X0016310Y0008524D01*
X0016199Y0008426D01*
X0016086Y0008330D01*
X0015970Y0008238D01*
X0015852Y0008149D01*
X0015731Y0008064D01*
X0015608Y0007981D01*
X0015483Y0007902D01*
X0015356Y0007826D01*
X0015227Y0007754D01*
X0015096Y0007685D01*
X0014963Y0007620D01*
X0014828Y0007559D01*
X0014692Y0007501D01*
X0014555Y0007446D01*
X0014416Y0007396D01*
X0014275Y0007349D01*
X0014134Y0007306D01*
X0013991Y0007266D01*
X0013847Y0007231D01*
X0013703Y0007199D01*
X0013557Y0007172D01*
X0013411Y0007148D01*
X0013264Y0007128D01*
X0013117Y0007112D01*
X0012970Y0007100D01*
X0012822Y0007092D01*
X0012674Y0007088D01*
X0012526Y0007088D01*
X0012378Y0007092D01*
X0012230Y0007100D01*
X0012083Y0007112D01*
X0011936Y0007128D01*
X0011789Y0007148D01*
X0011643Y0007172D01*
X0011497Y0007199D01*
X0011353Y0007231D01*
X0011209Y0007266D01*
X0011066Y0007306D01*
X0010925Y0007349D01*
X0010784Y0007396D01*
X0010645Y0007446D01*
X0010508Y0007501D01*
X0010372Y0007559D01*
X0010237Y0007620D01*
X0010104Y0007685D01*
X0009973Y0007754D01*
X0009844Y0007826D01*
X0009717Y0007902D01*
X0009592Y0007981D01*
X0009469Y0008064D01*
X0009348Y0008149D01*
X0009230Y0008238D01*
X0009114Y0008330D01*
X0009001Y0008426D01*
X0008890Y0008524D01*
X0008782Y0008625D01*
X0008676Y0008729D01*
X0008574Y0008835D01*
X0008474Y0008945D01*
X0008378Y0009057D01*
X0008284Y0009172D01*
X0008193Y0009289D01*
X0008106Y0009408D01*
X0008022Y0009530D01*
X0007941Y0009654D01*
X0007864Y0009780D01*
X0007790Y0009908D01*
X0007719Y0010038D01*
X0007652Y0010170D01*
X0007589Y0010304D01*
X0007529Y0010439D01*
X0007473Y0010576D01*
X0007420Y0010715D01*
X0007372Y0010855D01*
X0007327Y0010996D01*
X0007286Y0011138D01*
X0007248Y0011281D01*
X0007215Y0011425D01*
X0007185Y0011570D01*
X0007159Y0011716D01*
X0007138Y0011862D01*
X0007120Y0012009D01*
X0007106Y0012156D01*
X0007096Y0012304D01*
X0007090Y0012452D01*
X0007088Y0012600D01*
X0007088Y0262600D02*
X0007090Y0262748D01*
X0007096Y0262896D01*
X0007106Y0263044D01*
X0007120Y0263191D01*
X0007138Y0263338D01*
X0007159Y0263484D01*
X0007185Y0263630D01*
X0007215Y0263775D01*
X0007248Y0263919D01*
X0007286Y0264062D01*
X0007327Y0264204D01*
X0007372Y0264345D01*
X0007420Y0264485D01*
X0007473Y0264624D01*
X0007529Y0264761D01*
X0007589Y0264896D01*
X0007652Y0265030D01*
X0007719Y0265162D01*
X0007790Y0265292D01*
X0007864Y0265420D01*
X0007941Y0265546D01*
X0008022Y0265670D01*
X0008106Y0265792D01*
X0008193Y0265911D01*
X0008284Y0266028D01*
X0008378Y0266143D01*
X0008474Y0266255D01*
X0008574Y0266365D01*
X0008676Y0266471D01*
X0008782Y0266575D01*
X0008890Y0266676D01*
X0009001Y0266774D01*
X0009114Y0266870D01*
X0009230Y0266962D01*
X0009348Y0267051D01*
X0009469Y0267136D01*
X0009592Y0267219D01*
X0009717Y0267298D01*
X0009844Y0267374D01*
X0009973Y0267446D01*
X0010104Y0267515D01*
X0010237Y0267580D01*
X0010372Y0267641D01*
X0010508Y0267699D01*
X0010645Y0267754D01*
X0010784Y0267804D01*
X0010925Y0267851D01*
X0011066Y0267894D01*
X0011209Y0267934D01*
X0011353Y0267969D01*
X0011497Y0268001D01*
X0011643Y0268028D01*
X0011789Y0268052D01*
X0011936Y0268072D01*
X0012083Y0268088D01*
X0012230Y0268100D01*
X0012378Y0268108D01*
X0012526Y0268112D01*
X0012674Y0268112D01*
X0012822Y0268108D01*
X0012970Y0268100D01*
X0013117Y0268088D01*
X0013264Y0268072D01*
X0013411Y0268052D01*
X0013557Y0268028D01*
X0013703Y0268001D01*
X0013847Y0267969D01*
X0013991Y0267934D01*
X0014134Y0267894D01*
X0014275Y0267851D01*
X0014416Y0267804D01*
X0014555Y0267754D01*
X0014692Y0267699D01*
X0014828Y0267641D01*
X0014963Y0267580D01*
X0015096Y0267515D01*
X0015227Y0267446D01*
X0015356Y0267374D01*
X0015483Y0267298D01*
X0015608Y0267219D01*
X0015731Y0267136D01*
X0015852Y0267051D01*
X0015970Y0266962D01*
X0016086Y0266870D01*
X0016199Y0266774D01*
X0016310Y0266676D01*
X0016418Y0266575D01*
X0016524Y0266471D01*
X0016626Y0266365D01*
X0016726Y0266255D01*
X0016822Y0266143D01*
X0016916Y0266028D01*
X0017007Y0265911D01*
X0017094Y0265792D01*
X0017178Y0265670D01*
X0017259Y0265546D01*
X0017336Y0265420D01*
X0017410Y0265292D01*
X0017481Y0265162D01*
X0017548Y0265030D01*
X0017611Y0264896D01*
X0017671Y0264761D01*
X0017727Y0264624D01*
X0017780Y0264485D01*
X0017828Y0264345D01*
X0017873Y0264204D01*
X0017914Y0264062D01*
X0017952Y0263919D01*
X0017985Y0263775D01*
X0018015Y0263630D01*
X0018041Y0263484D01*
X0018062Y0263338D01*
X0018080Y0263191D01*
X0018094Y0263044D01*
X0018104Y0262896D01*
X0018110Y0262748D01*
X0018112Y0262600D01*
X0018110Y0262452D01*
X0018104Y0262304D01*
X0018094Y0262156D01*
X0018080Y0262009D01*
X0018062Y0261862D01*
X0018041Y0261716D01*
X0018015Y0261570D01*
X0017985Y0261425D01*
X0017952Y0261281D01*
X0017914Y0261138D01*
X0017873Y0260996D01*
X0017828Y0260855D01*
X0017780Y0260715D01*
X0017727Y0260576D01*
X0017671Y0260439D01*
X0017611Y0260304D01*
X0017548Y0260170D01*
X0017481Y0260038D01*
X0017410Y0259908D01*
X0017336Y0259780D01*
X0017259Y0259654D01*
X0017178Y0259530D01*
X0017094Y0259408D01*
X0017007Y0259289D01*
X0016916Y0259172D01*
X0016822Y0259057D01*
X0016726Y0258945D01*
X0016626Y0258835D01*
X0016524Y0258729D01*
X0016418Y0258625D01*
X0016310Y0258524D01*
X0016199Y0258426D01*
X0016086Y0258330D01*
X0015970Y0258238D01*
X0015852Y0258149D01*
X0015731Y0258064D01*
X0015608Y0257981D01*
X0015483Y0257902D01*
X0015356Y0257826D01*
X0015227Y0257754D01*
X0015096Y0257685D01*
X0014963Y0257620D01*
X0014828Y0257559D01*
X0014692Y0257501D01*
X0014555Y0257446D01*
X0014416Y0257396D01*
X0014275Y0257349D01*
X0014134Y0257306D01*
X0013991Y0257266D01*
X0013847Y0257231D01*
X0013703Y0257199D01*
X0013557Y0257172D01*
X0013411Y0257148D01*
X0013264Y0257128D01*
X0013117Y0257112D01*
X0012970Y0257100D01*
X0012822Y0257092D01*
X0012674Y0257088D01*
X0012526Y0257088D01*
X0012378Y0257092D01*
X0012230Y0257100D01*
X0012083Y0257112D01*
X0011936Y0257128D01*
X0011789Y0257148D01*
X0011643Y0257172D01*
X0011497Y0257199D01*
X0011353Y0257231D01*
X0011209Y0257266D01*
X0011066Y0257306D01*
X0010925Y0257349D01*
X0010784Y0257396D01*
X0010645Y0257446D01*
X0010508Y0257501D01*
X0010372Y0257559D01*
X0010237Y0257620D01*
X0010104Y0257685D01*
X0009973Y0257754D01*
X0009844Y0257826D01*
X0009717Y0257902D01*
X0009592Y0257981D01*
X0009469Y0258064D01*
X0009348Y0258149D01*
X0009230Y0258238D01*
X0009114Y0258330D01*
X0009001Y0258426D01*
X0008890Y0258524D01*
X0008782Y0258625D01*
X0008676Y0258729D01*
X0008574Y0258835D01*
X0008474Y0258945D01*
X0008378Y0259057D01*
X0008284Y0259172D01*
X0008193Y0259289D01*
X0008106Y0259408D01*
X0008022Y0259530D01*
X0007941Y0259654D01*
X0007864Y0259780D01*
X0007790Y0259908D01*
X0007719Y0260038D01*
X0007652Y0260170D01*
X0007589Y0260304D01*
X0007529Y0260439D01*
X0007473Y0260576D01*
X0007420Y0260715D01*
X0007372Y0260855D01*
X0007327Y0260996D01*
X0007286Y0261138D01*
X0007248Y0261281D01*
X0007215Y0261425D01*
X0007185Y0261570D01*
X0007159Y0261716D01*
X0007138Y0261862D01*
X0007120Y0262009D01*
X0007106Y0262156D01*
X0007096Y0262304D01*
X0007090Y0262452D01*
X0007088Y0262600D01*
X0222088Y0262600D02*
X0222090Y0262748D01*
X0222096Y0262896D01*
X0222106Y0263044D01*
X0222120Y0263191D01*
X0222138Y0263338D01*
X0222159Y0263484D01*
X0222185Y0263630D01*
X0222215Y0263775D01*
X0222248Y0263919D01*
X0222286Y0264062D01*
X0222327Y0264204D01*
X0222372Y0264345D01*
X0222420Y0264485D01*
X0222473Y0264624D01*
X0222529Y0264761D01*
X0222589Y0264896D01*
X0222652Y0265030D01*
X0222719Y0265162D01*
X0222790Y0265292D01*
X0222864Y0265420D01*
X0222941Y0265546D01*
X0223022Y0265670D01*
X0223106Y0265792D01*
X0223193Y0265911D01*
X0223284Y0266028D01*
X0223378Y0266143D01*
X0223474Y0266255D01*
X0223574Y0266365D01*
X0223676Y0266471D01*
X0223782Y0266575D01*
X0223890Y0266676D01*
X0224001Y0266774D01*
X0224114Y0266870D01*
X0224230Y0266962D01*
X0224348Y0267051D01*
X0224469Y0267136D01*
X0224592Y0267219D01*
X0224717Y0267298D01*
X0224844Y0267374D01*
X0224973Y0267446D01*
X0225104Y0267515D01*
X0225237Y0267580D01*
X0225372Y0267641D01*
X0225508Y0267699D01*
X0225645Y0267754D01*
X0225784Y0267804D01*
X0225925Y0267851D01*
X0226066Y0267894D01*
X0226209Y0267934D01*
X0226353Y0267969D01*
X0226497Y0268001D01*
X0226643Y0268028D01*
X0226789Y0268052D01*
X0226936Y0268072D01*
X0227083Y0268088D01*
X0227230Y0268100D01*
X0227378Y0268108D01*
X0227526Y0268112D01*
X0227674Y0268112D01*
X0227822Y0268108D01*
X0227970Y0268100D01*
X0228117Y0268088D01*
X0228264Y0268072D01*
X0228411Y0268052D01*
X0228557Y0268028D01*
X0228703Y0268001D01*
X0228847Y0267969D01*
X0228991Y0267934D01*
X0229134Y0267894D01*
X0229275Y0267851D01*
X0229416Y0267804D01*
X0229555Y0267754D01*
X0229692Y0267699D01*
X0229828Y0267641D01*
X0229963Y0267580D01*
X0230096Y0267515D01*
X0230227Y0267446D01*
X0230356Y0267374D01*
X0230483Y0267298D01*
X0230608Y0267219D01*
X0230731Y0267136D01*
X0230852Y0267051D01*
X0230970Y0266962D01*
X0231086Y0266870D01*
X0231199Y0266774D01*
X0231310Y0266676D01*
X0231418Y0266575D01*
X0231524Y0266471D01*
X0231626Y0266365D01*
X0231726Y0266255D01*
X0231822Y0266143D01*
X0231916Y0266028D01*
X0232007Y0265911D01*
X0232094Y0265792D01*
X0232178Y0265670D01*
X0232259Y0265546D01*
X0232336Y0265420D01*
X0232410Y0265292D01*
X0232481Y0265162D01*
X0232548Y0265030D01*
X0232611Y0264896D01*
X0232671Y0264761D01*
X0232727Y0264624D01*
X0232780Y0264485D01*
X0232828Y0264345D01*
X0232873Y0264204D01*
X0232914Y0264062D01*
X0232952Y0263919D01*
X0232985Y0263775D01*
X0233015Y0263630D01*
X0233041Y0263484D01*
X0233062Y0263338D01*
X0233080Y0263191D01*
X0233094Y0263044D01*
X0233104Y0262896D01*
X0233110Y0262748D01*
X0233112Y0262600D01*
X0233110Y0262452D01*
X0233104Y0262304D01*
X0233094Y0262156D01*
X0233080Y0262009D01*
X0233062Y0261862D01*
X0233041Y0261716D01*
X0233015Y0261570D01*
X0232985Y0261425D01*
X0232952Y0261281D01*
X0232914Y0261138D01*
X0232873Y0260996D01*
X0232828Y0260855D01*
X0232780Y0260715D01*
X0232727Y0260576D01*
X0232671Y0260439D01*
X0232611Y0260304D01*
X0232548Y0260170D01*
X0232481Y0260038D01*
X0232410Y0259908D01*
X0232336Y0259780D01*
X0232259Y0259654D01*
X0232178Y0259530D01*
X0232094Y0259408D01*
X0232007Y0259289D01*
X0231916Y0259172D01*
X0231822Y0259057D01*
X0231726Y0258945D01*
X0231626Y0258835D01*
X0231524Y0258729D01*
X0231418Y0258625D01*
X0231310Y0258524D01*
X0231199Y0258426D01*
X0231086Y0258330D01*
X0230970Y0258238D01*
X0230852Y0258149D01*
X0230731Y0258064D01*
X0230608Y0257981D01*
X0230483Y0257902D01*
X0230356Y0257826D01*
X0230227Y0257754D01*
X0230096Y0257685D01*
X0229963Y0257620D01*
X0229828Y0257559D01*
X0229692Y0257501D01*
X0229555Y0257446D01*
X0229416Y0257396D01*
X0229275Y0257349D01*
X0229134Y0257306D01*
X0228991Y0257266D01*
X0228847Y0257231D01*
X0228703Y0257199D01*
X0228557Y0257172D01*
X0228411Y0257148D01*
X0228264Y0257128D01*
X0228117Y0257112D01*
X0227970Y0257100D01*
X0227822Y0257092D01*
X0227674Y0257088D01*
X0227526Y0257088D01*
X0227378Y0257092D01*
X0227230Y0257100D01*
X0227083Y0257112D01*
X0226936Y0257128D01*
X0226789Y0257148D01*
X0226643Y0257172D01*
X0226497Y0257199D01*
X0226353Y0257231D01*
X0226209Y0257266D01*
X0226066Y0257306D01*
X0225925Y0257349D01*
X0225784Y0257396D01*
X0225645Y0257446D01*
X0225508Y0257501D01*
X0225372Y0257559D01*
X0225237Y0257620D01*
X0225104Y0257685D01*
X0224973Y0257754D01*
X0224844Y0257826D01*
X0224717Y0257902D01*
X0224592Y0257981D01*
X0224469Y0258064D01*
X0224348Y0258149D01*
X0224230Y0258238D01*
X0224114Y0258330D01*
X0224001Y0258426D01*
X0223890Y0258524D01*
X0223782Y0258625D01*
X0223676Y0258729D01*
X0223574Y0258835D01*
X0223474Y0258945D01*
X0223378Y0259057D01*
X0223284Y0259172D01*
X0223193Y0259289D01*
X0223106Y0259408D01*
X0223022Y0259530D01*
X0222941Y0259654D01*
X0222864Y0259780D01*
X0222790Y0259908D01*
X0222719Y0260038D01*
X0222652Y0260170D01*
X0222589Y0260304D01*
X0222529Y0260439D01*
X0222473Y0260576D01*
X0222420Y0260715D01*
X0222372Y0260855D01*
X0222327Y0260996D01*
X0222286Y0261138D01*
X0222248Y0261281D01*
X0222215Y0261425D01*
X0222185Y0261570D01*
X0222159Y0261716D01*
X0222138Y0261862D01*
X0222120Y0262009D01*
X0222106Y0262156D01*
X0222096Y0262304D01*
X0222090Y0262452D01*
X0222088Y0262600D01*
X0222088Y0012600D02*
X0222090Y0012748D01*
X0222096Y0012896D01*
X0222106Y0013044D01*
X0222120Y0013191D01*
X0222138Y0013338D01*
X0222159Y0013484D01*
X0222185Y0013630D01*
X0222215Y0013775D01*
X0222248Y0013919D01*
X0222286Y0014062D01*
X0222327Y0014204D01*
X0222372Y0014345D01*
X0222420Y0014485D01*
X0222473Y0014624D01*
X0222529Y0014761D01*
X0222589Y0014896D01*
X0222652Y0015030D01*
X0222719Y0015162D01*
X0222790Y0015292D01*
X0222864Y0015420D01*
X0222941Y0015546D01*
X0223022Y0015670D01*
X0223106Y0015792D01*
X0223193Y0015911D01*
X0223284Y0016028D01*
X0223378Y0016143D01*
X0223474Y0016255D01*
X0223574Y0016365D01*
X0223676Y0016471D01*
X0223782Y0016575D01*
X0223890Y0016676D01*
X0224001Y0016774D01*
X0224114Y0016870D01*
X0224230Y0016962D01*
X0224348Y0017051D01*
X0224469Y0017136D01*
X0224592Y0017219D01*
X0224717Y0017298D01*
X0224844Y0017374D01*
X0224973Y0017446D01*
X0225104Y0017515D01*
X0225237Y0017580D01*
X0225372Y0017641D01*
X0225508Y0017699D01*
X0225645Y0017754D01*
X0225784Y0017804D01*
X0225925Y0017851D01*
X0226066Y0017894D01*
X0226209Y0017934D01*
X0226353Y0017969D01*
X0226497Y0018001D01*
X0226643Y0018028D01*
X0226789Y0018052D01*
X0226936Y0018072D01*
X0227083Y0018088D01*
X0227230Y0018100D01*
X0227378Y0018108D01*
X0227526Y0018112D01*
X0227674Y0018112D01*
X0227822Y0018108D01*
X0227970Y0018100D01*
X0228117Y0018088D01*
X0228264Y0018072D01*
X0228411Y0018052D01*
X0228557Y0018028D01*
X0228703Y0018001D01*
X0228847Y0017969D01*
X0228991Y0017934D01*
X0229134Y0017894D01*
X0229275Y0017851D01*
X0229416Y0017804D01*
X0229555Y0017754D01*
X0229692Y0017699D01*
X0229828Y0017641D01*
X0229963Y0017580D01*
X0230096Y0017515D01*
X0230227Y0017446D01*
X0230356Y0017374D01*
X0230483Y0017298D01*
X0230608Y0017219D01*
X0230731Y0017136D01*
X0230852Y0017051D01*
X0230970Y0016962D01*
X0231086Y0016870D01*
X0231199Y0016774D01*
X0231310Y0016676D01*
X0231418Y0016575D01*
X0231524Y0016471D01*
X0231626Y0016365D01*
X0231726Y0016255D01*
X0231822Y0016143D01*
X0231916Y0016028D01*
X0232007Y0015911D01*
X0232094Y0015792D01*
X0232178Y0015670D01*
X0232259Y0015546D01*
X0232336Y0015420D01*
X0232410Y0015292D01*
X0232481Y0015162D01*
X0232548Y0015030D01*
X0232611Y0014896D01*
X0232671Y0014761D01*
X0232727Y0014624D01*
X0232780Y0014485D01*
X0232828Y0014345D01*
X0232873Y0014204D01*
X0232914Y0014062D01*
X0232952Y0013919D01*
X0232985Y0013775D01*
X0233015Y0013630D01*
X0233041Y0013484D01*
X0233062Y0013338D01*
X0233080Y0013191D01*
X0233094Y0013044D01*
X0233104Y0012896D01*
X0233110Y0012748D01*
X0233112Y0012600D01*
X0233110Y0012452D01*
X0233104Y0012304D01*
X0233094Y0012156D01*
X0233080Y0012009D01*
X0233062Y0011862D01*
X0233041Y0011716D01*
X0233015Y0011570D01*
X0232985Y0011425D01*
X0232952Y0011281D01*
X0232914Y0011138D01*
X0232873Y0010996D01*
X0232828Y0010855D01*
X0232780Y0010715D01*
X0232727Y0010576D01*
X0232671Y0010439D01*
X0232611Y0010304D01*
X0232548Y0010170D01*
X0232481Y0010038D01*
X0232410Y0009908D01*
X0232336Y0009780D01*
X0232259Y0009654D01*
X0232178Y0009530D01*
X0232094Y0009408D01*
X0232007Y0009289D01*
X0231916Y0009172D01*
X0231822Y0009057D01*
X0231726Y0008945D01*
X0231626Y0008835D01*
X0231524Y0008729D01*
X0231418Y0008625D01*
X0231310Y0008524D01*
X0231199Y0008426D01*
X0231086Y0008330D01*
X0230970Y0008238D01*
X0230852Y0008149D01*
X0230731Y0008064D01*
X0230608Y0007981D01*
X0230483Y0007902D01*
X0230356Y0007826D01*
X0230227Y0007754D01*
X0230096Y0007685D01*
X0229963Y0007620D01*
X0229828Y0007559D01*
X0229692Y0007501D01*
X0229555Y0007446D01*
X0229416Y0007396D01*
X0229275Y0007349D01*
X0229134Y0007306D01*
X0228991Y0007266D01*
X0228847Y0007231D01*
X0228703Y0007199D01*
X0228557Y0007172D01*
X0228411Y0007148D01*
X0228264Y0007128D01*
X0228117Y0007112D01*
X0227970Y0007100D01*
X0227822Y0007092D01*
X0227674Y0007088D01*
X0227526Y0007088D01*
X0227378Y0007092D01*
X0227230Y0007100D01*
X0227083Y0007112D01*
X0226936Y0007128D01*
X0226789Y0007148D01*
X0226643Y0007172D01*
X0226497Y0007199D01*
X0226353Y0007231D01*
X0226209Y0007266D01*
X0226066Y0007306D01*
X0225925Y0007349D01*
X0225784Y0007396D01*
X0225645Y0007446D01*
X0225508Y0007501D01*
X0225372Y0007559D01*
X0225237Y0007620D01*
X0225104Y0007685D01*
X0224973Y0007754D01*
X0224844Y0007826D01*
X0224717Y0007902D01*
X0224592Y0007981D01*
X0224469Y0008064D01*
X0224348Y0008149D01*
X0224230Y0008238D01*
X0224114Y0008330D01*
X0224001Y0008426D01*
X0223890Y0008524D01*
X0223782Y0008625D01*
X0223676Y0008729D01*
X0223574Y0008835D01*
X0223474Y0008945D01*
X0223378Y0009057D01*
X0223284Y0009172D01*
X0223193Y0009289D01*
X0223106Y0009408D01*
X0223022Y0009530D01*
X0222941Y0009654D01*
X0222864Y0009780D01*
X0222790Y0009908D01*
X0222719Y0010038D01*
X0222652Y0010170D01*
X0222589Y0010304D01*
X0222529Y0010439D01*
X0222473Y0010576D01*
X0222420Y0010715D01*
X0222372Y0010855D01*
X0222327Y0010996D01*
X0222286Y0011138D01*
X0222248Y0011281D01*
X0222215Y0011425D01*
X0222185Y0011570D01*
X0222159Y0011716D01*
X0222138Y0011862D01*
X0222120Y0012009D01*
X0222106Y0012156D01*
X0222096Y0012304D01*
X0222090Y0012452D01*
X0222088Y0012600D01*
D11*
X0202600Y0057600D03*
X0192600Y0057600D03*
X0182600Y0057600D03*
X0172600Y0057600D03*
X0162600Y0057600D03*
X0152600Y0057600D03*
X0142600Y0057600D03*
X0132600Y0057600D03*
X0172600Y0097600D03*
X0172600Y0107600D03*
X0162600Y0107600D03*
X0152600Y0107600D03*
X0142600Y0107600D03*
X0132600Y0107600D03*
X0122600Y0127600D03*
X0137600Y0142600D03*
X0137600Y0152600D03*
X0137600Y0162600D03*
X0137600Y0172600D03*
X0137600Y0182600D03*
X0137600Y0192600D03*
X0137600Y0202600D03*
X0137600Y0212600D03*
X0137600Y0222600D03*
X0137600Y0232600D03*
X0137600Y0242600D03*
X0137600Y0252600D03*
X0107600Y0257600D03*
X0107600Y0227600D03*
X0077600Y0222600D03*
X0077600Y0212600D03*
X0077600Y0202600D03*
X0077600Y0192600D03*
X0077600Y0182600D03*
X0077600Y0172600D03*
X0077600Y0162600D03*
X0077600Y0152600D03*
X0077600Y0142600D03*
X0092600Y0127600D03*
X0092600Y0107600D03*
X0082600Y0107600D03*
X0072600Y0107600D03*
X0062600Y0107600D03*
X0052600Y0107600D03*
X0042600Y0107600D03*
X0032600Y0107600D03*
X0022600Y0107600D03*
X0022600Y0057600D03*
X0032600Y0057600D03*
X0042600Y0057600D03*
X0052600Y0057600D03*
X0062600Y0057600D03*
X0072600Y0057600D03*
X0082600Y0057600D03*
X0092600Y0057600D03*
X0182600Y0107600D03*
X0192600Y0107600D03*
X0192600Y0097600D03*
X0202600Y0107600D03*
X0077600Y0232600D03*
X0077600Y0242600D03*
X0077600Y0252600D03*
D12*
X0182700Y0256500D02*
X0182700Y0248700D01*
X0202500Y0248700D02*
X0202500Y0256500D01*
X0197200Y0031500D02*
X0197200Y0023700D01*
X0177400Y0023700D02*
X0177400Y0031500D01*
X0157800Y0031500D02*
X0157800Y0023700D01*
X0138000Y0023700D02*
X0138000Y0031500D01*
X0092200Y0031500D02*
X0092200Y0023700D01*
X0072400Y0023700D02*
X0072400Y0031500D01*
X0052800Y0031500D02*
X0052800Y0023700D01*
X0033000Y0023700D02*
X0033000Y0031500D01*
D13*
X0047600Y0082600D03*
X0087600Y0082600D03*
X0152600Y0082600D03*
X0192600Y0082600D03*
X0117600Y0202600D03*
X0097600Y0202600D03*
X0097600Y0242600D03*
X0117600Y0242600D03*
D14*
X0152600Y0252600D03*
X0152600Y0262600D03*
D15*
X0154600Y0222600D02*
X0160600Y0222600D01*
X0160600Y0212600D02*
X0154600Y0212600D01*
X0154600Y0202600D02*
X0160600Y0202600D01*
X0160600Y0192600D02*
X0154600Y0192600D01*
X0154600Y0182600D02*
X0160600Y0182600D01*
X0160600Y0172600D02*
X0154600Y0172600D01*
X0154600Y0162600D02*
X0160600Y0162600D01*
X0160600Y0152600D02*
X0154600Y0152600D01*
D16*
X0107600Y0062600D03*
X0217600Y0062600D03*
D17*
X0227600Y0062600D03*
X0117600Y0062600D03*
D18*
X0042600Y0177600D03*
X0042600Y0217600D03*
X0032600Y0217600D03*
D19*
X0032600Y0227600D03*
X0042600Y0227600D03*
X0042600Y0197600D03*
X0042600Y0187600D03*
X0032600Y0187600D03*
X0032600Y0197600D03*
X0032600Y0177600D03*
D20*
X0032600Y0172600D01*
X0037600Y0167600D01*
X0052600Y0167600D01*
X0067600Y0182600D01*
X0077600Y0182600D01*
X0077600Y0172600D02*
X0067600Y0172600D01*
X0057600Y0162600D01*
X0057600Y0132600D01*
X0052600Y0127600D01*
X0032600Y0127600D01*
X0022600Y0117600D01*
X0022600Y0107600D01*
X0017787Y0097500D02*
X0015800Y0098323D01*
X0015800Y0060997D01*
X0016500Y0060297D01*
X0016500Y0061356D01*
X0016600Y0061858D01*
X0016796Y0062332D01*
X0017080Y0062757D01*
X0017443Y0063120D01*
X0017868Y0063404D01*
X0018342Y0063600D01*
X0018844Y0063700D01*
X0022600Y0063700D01*
X0022600Y0062654D01*
X0022600Y0063700D01*
X0023033Y0063700D01*
X0023505Y0064839D01*
X0025361Y0066695D01*
X0027787Y0067700D01*
X0037413Y0067700D01*
X0037600Y0067622D01*
X0037787Y0067700D01*
X0047413Y0067700D01*
X0047600Y0067622D01*
X0047787Y0067700D01*
X0057413Y0067700D01*
X0057600Y0067622D01*
X0057787Y0067700D01*
X0067413Y0067700D01*
X0067600Y0067622D01*
X0067787Y0067700D01*
X0077413Y0067700D01*
X0079839Y0066695D01*
X0081695Y0064839D01*
X0082167Y0063700D01*
X0082600Y0063700D01*
X0082600Y0062654D01*
X0082600Y0062654D01*
X0082600Y0062654D01*
X0082600Y0063700D01*
X0083033Y0063700D01*
X0083505Y0064839D01*
X0085361Y0066695D01*
X0087787Y0067700D01*
X0097413Y0067700D01*
X0099839Y0066695D01*
X0101695Y0064839D01*
X0101725Y0064767D01*
X0101850Y0064715D01*
X0101850Y0064982D01*
X0105218Y0068350D01*
X0107600Y0068350D01*
X0107600Y0062600D01*
X0107600Y0067600D01*
X0112600Y0072600D01*
X0127600Y0072600D01*
X0132600Y0067600D01*
X0147600Y0082600D01*
X0152600Y0082600D01*
X0177600Y0082600D01*
X0192600Y0067600D01*
X0212600Y0087600D01*
X0212600Y0067600D01*
X0217600Y0062600D01*
X0217600Y0062600D01*
X0217600Y0068350D01*
X0219000Y0068350D01*
X0219000Y0134000D01*
X0205889Y0134000D01*
X0202728Y0135309D01*
X0200309Y0137728D01*
X0200309Y0137728D01*
X0195209Y0142828D01*
X0193900Y0145989D01*
X0193900Y0242596D01*
X0192716Y0244647D01*
X0192000Y0247318D01*
X0192000Y0257882D01*
X0192299Y0259000D01*
X0188700Y0259000D01*
X0188868Y0258594D01*
X0189089Y0257771D01*
X0189200Y0256926D01*
X0189200Y0252600D01*
X0182700Y0252600D01*
X0182600Y0252500D01*
X0182600Y0247600D01*
X0177600Y0242600D01*
X0137600Y0242600D01*
X0132600Y0242600D01*
X0117600Y0257600D01*
X0107600Y0257600D01*
X0103924Y0250842D02*
X0101576Y0252198D01*
X0098956Y0252900D01*
X0096244Y0252900D01*
X0095800Y0252781D01*
X0095800Y0259231D01*
X0094552Y0262245D01*
X0092245Y0264552D01*
X0090836Y0265961D01*
X0141000Y0265961D01*
X0141000Y0262700D01*
X0132787Y0262700D01*
X0130361Y0261695D01*
X0128505Y0259839D01*
X0127500Y0257413D01*
X0127500Y0249297D01*
X0127245Y0249552D01*
X0124231Y0250800D01*
X0123966Y0250800D01*
X0123924Y0250842D01*
X0121576Y0252198D01*
X0118956Y0252900D01*
X0116244Y0252900D01*
X0113624Y0252198D01*
X0111276Y0250842D01*
X0111234Y0250800D01*
X0103966Y0250800D01*
X0103924Y0250842D01*
X0101773Y0252084D02*
X0113427Y0252084D01*
X0121773Y0252084D02*
X0127500Y0252084D01*
X0127500Y0255282D02*
X0095800Y0255282D01*
X0095800Y0258481D02*
X0127942Y0258481D01*
X0130346Y0261679D02*
X0094786Y0261679D01*
X0091919Y0264878D02*
X0141000Y0264878D01*
X0144827Y0243500D02*
X0143700Y0243033D01*
X0143700Y0242600D01*
X0142654Y0242600D01*
X0142654Y0242600D01*
X0142654Y0242600D01*
X0143700Y0242600D01*
X0143700Y0242167D01*
X0144839Y0241695D01*
X0146695Y0239839D01*
X0147700Y0237413D01*
X0147700Y0229097D01*
X0150438Y0226358D01*
X0150952Y0226871D01*
X0151665Y0227390D01*
X0152450Y0227790D01*
X0153289Y0228062D01*
X0154159Y0228200D01*
X0157600Y0228200D01*
X0157600Y0222600D01*
X0167600Y0222600D01*
X0177600Y0222600D01*
X0182600Y0227600D01*
X0182600Y0247600D01*
X0182700Y0248885D02*
X0182700Y0248885D01*
X0182700Y0245687D02*
X0182700Y0245687D01*
X0182700Y0242488D02*
X0182700Y0242488D01*
X0182700Y0242200D02*
X0182274Y0242200D01*
X0181429Y0242311D01*
X0180606Y0242532D01*
X0179819Y0242858D01*
X0179081Y0243284D01*
X0178405Y0243803D01*
X0177803Y0244405D01*
X0177284Y0245081D01*
X0176858Y0245819D01*
X0176532Y0246606D01*
X0176311Y0247429D01*
X0176200Y0248274D01*
X0176200Y0252600D01*
X0182700Y0252600D01*
X0182700Y0252600D01*
X0189200Y0252600D01*
X0189200Y0248274D01*
X0189089Y0247429D01*
X0188868Y0246606D01*
X0188542Y0245819D01*
X0188116Y0245081D01*
X0187597Y0244405D01*
X0186995Y0243803D01*
X0186319Y0243284D01*
X0185581Y0242858D01*
X0184794Y0242532D01*
X0183971Y0242311D01*
X0183126Y0242200D01*
X0182700Y0242200D01*
X0182700Y0252600D01*
X0182700Y0252600D01*
X0182700Y0252600D01*
X0182700Y0242200D01*
X0184632Y0242488D02*
X0193900Y0242488D01*
X0192437Y0245687D02*
X0188466Y0245687D01*
X0189200Y0248885D02*
X0192000Y0248885D01*
X0192000Y0252084D02*
X0189200Y0252084D01*
X0189200Y0255282D02*
X0192000Y0255282D01*
X0192160Y0258481D02*
X0188899Y0258481D01*
X0182700Y0252600D02*
X0176200Y0252600D01*
X0176200Y0256926D01*
X0176311Y0257771D01*
X0176532Y0258594D01*
X0176700Y0259000D01*
X0164200Y0259000D01*
X0164200Y0258787D01*
X0163708Y0257600D01*
X0164200Y0256413D01*
X0164200Y0248787D01*
X0163195Y0246361D01*
X0161339Y0244505D01*
X0158913Y0243500D01*
X0144827Y0243500D01*
X0143700Y0242488D02*
X0180768Y0242488D01*
X0176934Y0245687D02*
X0162521Y0245687D01*
X0164200Y0248885D02*
X0176200Y0248885D01*
X0176200Y0252084D02*
X0164200Y0252084D01*
X0164200Y0255282D02*
X0176200Y0255282D01*
X0176501Y0258481D02*
X0164073Y0258481D01*
X0146923Y0239290D02*
X0193900Y0239290D01*
X0193900Y0236091D02*
X0147700Y0236091D01*
X0147700Y0232893D02*
X0193900Y0232893D01*
X0193900Y0229694D02*
X0147700Y0229694D01*
X0150301Y0226496D02*
X0150576Y0226496D01*
X0157600Y0226496D02*
X0157600Y0226496D01*
X0157600Y0228200D02*
X0157600Y0222600D01*
X0157600Y0222600D01*
X0166200Y0222600D01*
X0166200Y0223041D01*
X0166062Y0223911D01*
X0165790Y0224750D01*
X0165390Y0225535D01*
X0164871Y0226248D01*
X0164248Y0226871D01*
X0163535Y0227390D01*
X0162750Y0227790D01*
X0161911Y0228062D01*
X0161041Y0228200D01*
X0157600Y0228200D01*
X0157600Y0223297D02*
X0157600Y0223297D01*
X0157600Y0222600D02*
X0157600Y0222600D01*
X0166200Y0222600D01*
X0166200Y0222159D01*
X0166062Y0221289D01*
X0165902Y0220795D01*
X0166038Y0220738D01*
X0168738Y0218038D01*
X0170200Y0214510D01*
X0170200Y0210690D01*
X0168920Y0207600D01*
X0170200Y0204510D01*
X0170200Y0200690D01*
X0168920Y0197600D01*
X0170200Y0194510D01*
X0170200Y0190690D01*
X0168920Y0187600D01*
X0170200Y0184510D01*
X0170200Y0180690D01*
X0168920Y0177600D01*
X0170200Y0174510D01*
X0170200Y0170690D01*
X0168920Y0167600D01*
X0170200Y0164510D01*
X0170200Y0160690D01*
X0168920Y0157600D01*
X0170200Y0154510D01*
X0170200Y0150690D01*
X0168738Y0147162D01*
X0166038Y0144462D01*
X0162510Y0143000D01*
X0152690Y0143000D01*
X0149311Y0144400D01*
X0147700Y0144400D01*
X0147700Y0137787D01*
X0146695Y0135361D01*
X0146284Y0134950D01*
X0147245Y0134552D01*
X0150997Y0130800D01*
X0199231Y0130800D01*
X0202245Y0129552D01*
X0209552Y0122245D01*
X0210800Y0119231D01*
X0210800Y0115734D01*
X0211695Y0114839D01*
X0212700Y0112413D01*
X0212700Y0102787D01*
X0211695Y0100361D01*
X0209839Y0098505D01*
X0207413Y0097500D01*
X0202700Y0097500D01*
X0202700Y0092787D01*
X0201695Y0090361D01*
X0200800Y0089466D01*
X0200800Y0088966D01*
X0200842Y0088924D01*
X0202198Y0086576D01*
X0202900Y0083956D01*
X0202900Y0081244D01*
X0202198Y0078624D01*
X0200842Y0076276D01*
X0198924Y0074358D01*
X0196576Y0073002D01*
X0193956Y0072300D01*
X0191244Y0072300D01*
X0188624Y0073002D01*
X0186276Y0074358D01*
X0184358Y0076276D01*
X0183002Y0078624D01*
X0182300Y0081244D01*
X0182300Y0083956D01*
X0183002Y0086576D01*
X0184358Y0088924D01*
X0184400Y0088966D01*
X0184400Y0089466D01*
X0183505Y0090361D01*
X0182600Y0092546D01*
X0181695Y0090361D01*
X0179839Y0088505D01*
X0177413Y0087500D01*
X0167787Y0087500D01*
X0165361Y0088505D01*
X0164466Y0089400D01*
X0095800Y0089400D01*
X0095800Y0088966D01*
X0095842Y0088924D01*
X0097198Y0086576D01*
X0097900Y0083956D01*
X0097900Y0081244D01*
X0097198Y0078624D01*
X0095842Y0076276D01*
X0093924Y0074358D01*
X0091576Y0073002D01*
X0088956Y0072300D01*
X0086244Y0072300D01*
X0083624Y0073002D01*
X0081276Y0074358D01*
X0079358Y0076276D01*
X0078002Y0078624D01*
X0077300Y0081244D01*
X0077300Y0083956D01*
X0078002Y0086576D01*
X0079358Y0088924D01*
X0079400Y0088966D01*
X0079400Y0095664D01*
X0078482Y0097500D01*
X0077787Y0097500D01*
X0075361Y0098505D01*
X0073505Y0100361D01*
X0073033Y0101500D01*
X0072600Y0101500D01*
X0072600Y0102546D01*
X0072600Y0102546D01*
X0072600Y0101500D01*
X0068844Y0101500D01*
X0068342Y0101600D01*
X0067868Y0101796D01*
X0067600Y0101975D01*
X0067332Y0101796D01*
X0066858Y0101600D01*
X0066356Y0101500D01*
X0062600Y0101500D01*
X0062600Y0102546D01*
X0062600Y0102546D01*
X0062600Y0101500D01*
X0062167Y0101500D01*
X0061695Y0100361D01*
X0059839Y0098505D01*
X0057413Y0097500D01*
X0047787Y0097500D01*
X0047600Y0097578D01*
X0047413Y0097500D01*
X0037787Y0097500D01*
X0037600Y0097578D01*
X0037413Y0097500D01*
X0027787Y0097500D01*
X0027600Y0097578D01*
X0027413Y0097500D01*
X0017787Y0097500D01*
X0015800Y0095357D02*
X0079400Y0095357D01*
X0079400Y0092158D02*
X0015800Y0092158D01*
X0015800Y0088960D02*
X0079393Y0088960D01*
X0077784Y0085761D02*
X0053060Y0085761D01*
X0052988Y0085902D02*
X0052405Y0086704D01*
X0051704Y0087405D01*
X0050902Y0087988D01*
X0050018Y0088438D01*
X0049075Y0088745D01*
X0048096Y0088900D01*
X0047600Y0088900D01*
X0047600Y0082600D01*
X0067600Y0082600D01*
X0072600Y0087600D01*
X0072600Y0107600D01*
X0062600Y0107600D01*
X0062700Y0107600D02*
X0068700Y0107600D01*
X0072500Y0107600D01*
X0072500Y0107600D01*
X0062700Y0107600D01*
X0062700Y0107600D01*
X0062600Y0101754D02*
X0062600Y0101754D01*
X0067230Y0101754D02*
X0067970Y0101754D01*
X0072600Y0101754D02*
X0072600Y0101754D01*
X0075311Y0098555D02*
X0059889Y0098555D01*
X0052600Y0107600D02*
X0042600Y0107600D01*
X0032600Y0107600D02*
X0032600Y0112600D01*
X0037600Y0117600D01*
X0062600Y0117600D01*
X0067600Y0122600D01*
X0067600Y0157600D01*
X0072600Y0162600D01*
X0077600Y0162600D01*
X0077600Y0152600D02*
X0082600Y0152600D01*
X0087600Y0147600D01*
X0087600Y0132600D01*
X0092600Y0127600D01*
X0092600Y0107600D01*
X0082600Y0107600D02*
X0087600Y0097600D01*
X0172600Y0097600D01*
X0172600Y0107600D02*
X0182600Y0107600D01*
X0182600Y0087600D01*
X0177600Y0082600D01*
X0182300Y0082563D02*
X0158900Y0082563D01*
X0158900Y0082600D02*
X0152600Y0082600D01*
X0158900Y0082600D01*
X0158900Y0083096D01*
X0158745Y0084075D01*
X0158438Y0085018D01*
X0157988Y0085902D01*
X0157405Y0086704D01*
X0156704Y0087405D01*
X0155902Y0087988D01*
X0155018Y0088438D01*
X0154075Y0088745D01*
X0153096Y0088900D01*
X0152600Y0088900D01*
X0152600Y0082600D01*
X0152600Y0082600D01*
X0152600Y0082600D01*
X0152600Y0076300D01*
X0153096Y0076300D01*
X0154075Y0076455D01*
X0155018Y0076762D01*
X0155902Y0077212D01*
X0156704Y0077795D01*
X0157405Y0078496D01*
X0157988Y0079298D01*
X0158438Y0080182D01*
X0158745Y0081125D01*
X0158900Y0082104D01*
X0158900Y0082600D01*
X0158060Y0085761D02*
X0182784Y0085761D01*
X0184393Y0088960D02*
X0180294Y0088960D01*
X0182439Y0092158D02*
X0182760Y0092158D01*
X0192600Y0097600D02*
X0192600Y0082600D01*
X0200732Y0076166D02*
X0219000Y0076166D01*
X0219000Y0079364D02*
X0202396Y0079364D01*
X0202900Y0082563D02*
X0219000Y0082563D01*
X0219000Y0085761D02*
X0202416Y0085761D01*
X0200807Y0088960D02*
X0219000Y0088960D01*
X0219000Y0092158D02*
X0202440Y0092158D01*
X0202700Y0095357D02*
X0219000Y0095357D01*
X0219000Y0098555D02*
X0209889Y0098555D01*
X0212272Y0101754D02*
X0219000Y0101754D01*
X0219000Y0104952D02*
X0212700Y0104952D01*
X0212700Y0108151D02*
X0219000Y0108151D01*
X0219000Y0111349D02*
X0212700Y0111349D01*
X0211816Y0114548D02*
X0219000Y0114548D01*
X0219000Y0117746D02*
X0210800Y0117746D01*
X0210090Y0120945D02*
X0219000Y0120945D01*
X0219000Y0124143D02*
X0207653Y0124143D01*
X0204455Y0127342D02*
X0219000Y0127342D01*
X0219000Y0130540D02*
X0199858Y0130540D01*
X0197600Y0122600D02*
X0147600Y0122600D01*
X0142600Y0127600D01*
X0122600Y0127600D01*
X0117600Y0117600D02*
X0137600Y0117600D01*
X0142600Y0112600D01*
X0142600Y0107600D01*
X0132600Y0107600D02*
X0112600Y0107600D01*
X0107600Y0112600D01*
X0107600Y0147600D01*
X0112600Y0152600D01*
X0122600Y0152600D01*
X0127600Y0157600D01*
X0127600Y0177600D01*
X0132600Y0182600D01*
X0137600Y0182600D01*
X0137600Y0172600D02*
X0157600Y0172600D01*
X0157600Y0162600D02*
X0137600Y0162600D01*
X0137600Y0152600D02*
X0157600Y0152600D01*
X0163317Y0143334D02*
X0195000Y0143334D01*
X0193900Y0146533D02*
X0168109Y0146533D01*
X0169803Y0149732D02*
X0193900Y0149732D01*
X0193900Y0152930D02*
X0170200Y0152930D01*
X0169529Y0156129D02*
X0193900Y0156129D01*
X0193900Y0159327D02*
X0169635Y0159327D01*
X0170200Y0162526D02*
X0193900Y0162526D01*
X0193900Y0165724D02*
X0169697Y0165724D01*
X0169468Y0168923D02*
X0193900Y0168923D01*
X0193900Y0172121D02*
X0170200Y0172121D01*
X0169864Y0175320D02*
X0193900Y0175320D01*
X0193900Y0178518D02*
X0169300Y0178518D01*
X0170200Y0181717D02*
X0193900Y0181717D01*
X0193900Y0184915D02*
X0170032Y0184915D01*
X0169133Y0188114D02*
X0193900Y0188114D01*
X0193900Y0191312D02*
X0170200Y0191312D01*
X0170200Y0194511D02*
X0193900Y0194511D01*
X0193900Y0197709D02*
X0168965Y0197709D01*
X0170200Y0200908D02*
X0193900Y0200908D01*
X0193900Y0204106D02*
X0170200Y0204106D01*
X0169042Y0207305D02*
X0193900Y0207305D01*
X0193900Y0210503D02*
X0170122Y0210503D01*
X0170200Y0213702D02*
X0193900Y0213702D01*
X0193900Y0216900D02*
X0169210Y0216900D01*
X0172600Y0217600D02*
X0167600Y0222600D01*
X0166159Y0223297D02*
X0193900Y0223297D01*
X0193900Y0220099D02*
X0166678Y0220099D01*
X0172600Y0217600D02*
X0172600Y0137600D01*
X0177600Y0132600D01*
X0207600Y0132600D01*
X0212600Y0127600D01*
X0212600Y0087600D01*
X0219000Y0072967D02*
X0196446Y0072967D01*
X0197787Y0067700D02*
X0195361Y0066695D01*
X0193505Y0064839D01*
X0193033Y0063700D01*
X0192600Y0063700D01*
X0192600Y0062654D01*
X0192600Y0062654D01*
X0192600Y0062654D01*
X0192600Y0063700D01*
X0192167Y0063700D01*
X0191695Y0064839D01*
X0189839Y0066695D01*
X0187413Y0067700D01*
X0177787Y0067700D01*
X0177600Y0067622D01*
X0177413Y0067700D01*
X0167787Y0067700D01*
X0167600Y0067622D01*
X0167413Y0067700D01*
X0157787Y0067700D01*
X0157600Y0067622D01*
X0157413Y0067700D01*
X0147787Y0067700D01*
X0147600Y0067622D01*
X0147413Y0067700D01*
X0137787Y0067700D01*
X0135361Y0066695D01*
X0133505Y0064839D01*
X0133033Y0063700D01*
X0132600Y0063700D01*
X0132600Y0062654D01*
X0132600Y0063700D01*
X0128844Y0063700D01*
X0128342Y0063600D01*
X0127868Y0063404D01*
X0127443Y0063120D01*
X0127350Y0063027D01*
X0127350Y0064539D01*
X0125866Y0068123D01*
X0123123Y0070866D01*
X0119539Y0072350D01*
X0115661Y0072350D01*
X0112077Y0070866D01*
X0109561Y0068350D01*
X0107600Y0068350D01*
X0107600Y0062600D01*
X0107600Y0062600D01*
X0107600Y0063372D02*
X0107600Y0063372D01*
X0107600Y0066570D02*
X0107600Y0066570D01*
X0107600Y0067600D02*
X0102600Y0072600D01*
X0087600Y0072600D01*
X0082600Y0067600D01*
X0067600Y0082600D01*
X0077300Y0082563D02*
X0053900Y0082563D01*
X0053900Y0082600D02*
X0047600Y0082600D01*
X0037600Y0082600D01*
X0022600Y0067600D01*
X0012600Y0077600D01*
X0012600Y0122600D01*
X0022600Y0132600D01*
X0022600Y0182600D01*
X0027600Y0187600D01*
X0032600Y0187600D01*
X0042600Y0187600D01*
X0048450Y0187600D01*
X0048450Y0188060D01*
X0048306Y0188970D01*
X0048206Y0189276D01*
X0050950Y0192020D01*
X0052450Y0195641D01*
X0052450Y0199559D01*
X0051323Y0202281D01*
X0055648Y0197955D01*
X0057955Y0195648D01*
X0058731Y0195327D01*
X0049719Y0186315D01*
X0049589Y0186445D01*
X0048417Y0186931D01*
X0048450Y0187140D01*
X0048450Y0187600D01*
X0042600Y0187600D01*
X0042600Y0187600D01*
X0042600Y0187600D01*
X0036750Y0187600D01*
X0032600Y0187600D01*
X0032600Y0187600D01*
X0042600Y0187600D01*
X0048442Y0188114D02*
X0051517Y0188114D01*
X0050242Y0191312D02*
X0054716Y0191312D01*
X0051982Y0194511D02*
X0057914Y0194511D01*
X0055894Y0197709D02*
X0052450Y0197709D01*
X0052696Y0200908D02*
X0051891Y0200908D01*
X0042600Y0197600D02*
X0032600Y0197600D01*
X0027600Y0197600D01*
X0017600Y0187600D01*
X0017600Y0137600D01*
X0007600Y0127600D01*
X0007600Y0057600D01*
X0022600Y0042600D01*
X0032600Y0052600D01*
X0032600Y0057600D01*
X0025236Y0066570D02*
X0015800Y0066570D01*
X0015800Y0063372D02*
X0017820Y0063372D01*
X0022600Y0063372D02*
X0022600Y0063372D01*
X0022600Y0062654D02*
X0022600Y0062654D01*
X0022600Y0067600D02*
X0022600Y0057600D01*
X0015800Y0069769D02*
X0110980Y0069769D01*
X0103439Y0066570D02*
X0099964Y0066570D01*
X0097600Y0057600D02*
X0092600Y0057600D01*
X0097600Y0057600D02*
X0112600Y0042600D01*
X0112600Y0047600D01*
X0117600Y0052600D01*
X0117600Y0062600D01*
X0124220Y0069769D02*
X0219000Y0069769D01*
X0217600Y0068350D02*
X0215218Y0068350D01*
X0211850Y0064982D01*
X0211850Y0064465D01*
X0211695Y0064839D01*
X0209839Y0066695D01*
X0207413Y0067700D01*
X0197787Y0067700D01*
X0195236Y0066570D02*
X0189964Y0066570D01*
X0192600Y0067600D02*
X0192600Y0057600D01*
X0192600Y0063372D02*
X0192600Y0063372D01*
X0188754Y0072967D02*
X0091446Y0072967D01*
X0095732Y0076166D02*
X0184468Y0076166D01*
X0182804Y0079364D02*
X0158022Y0079364D01*
X0152600Y0079364D02*
X0152600Y0079364D01*
X0152600Y0076300D02*
X0152600Y0082600D01*
X0152600Y0082600D01*
X0152600Y0082600D01*
X0146300Y0082600D01*
X0146300Y0083096D01*
X0146455Y0084075D01*
X0146762Y0085018D01*
X0147212Y0085902D01*
X0147795Y0086704D01*
X0148496Y0087405D01*
X0149298Y0087988D01*
X0150182Y0088438D01*
X0151125Y0088745D01*
X0152104Y0088900D01*
X0152600Y0088900D01*
X0152600Y0082600D01*
X0146300Y0082600D01*
X0146300Y0082104D01*
X0146455Y0081125D01*
X0146762Y0080182D01*
X0147212Y0079298D01*
X0147795Y0078496D01*
X0148496Y0077795D01*
X0149298Y0077212D01*
X0150182Y0076762D01*
X0151125Y0076455D01*
X0152104Y0076300D01*
X0152600Y0076300D01*
X0147178Y0079364D02*
X0097396Y0079364D01*
X0097900Y0082563D02*
X0146300Y0082563D01*
X0147140Y0085761D02*
X0097416Y0085761D01*
X0095807Y0088960D02*
X0164906Y0088960D01*
X0152600Y0085761D02*
X0152600Y0085761D01*
X0152600Y0082563D02*
X0152600Y0082563D01*
X0135236Y0066570D02*
X0126509Y0066570D01*
X0127350Y0063372D02*
X0127820Y0063372D01*
X0126500Y0058609D02*
X0126500Y0057600D01*
X0132500Y0057600D01*
X0132500Y0057600D01*
X0126500Y0057600D01*
X0126500Y0055800D01*
X0125969Y0055800D01*
X0125800Y0055730D01*
X0125800Y0057011D01*
X0125866Y0057077D01*
X0126500Y0058609D01*
X0126500Y0056975D02*
X0125800Y0056975D01*
X0132600Y0057600D02*
X0132600Y0067600D01*
X0132600Y0063372D02*
X0132600Y0063372D01*
X0132600Y0062654D02*
X0132600Y0062654D01*
X0142600Y0057600D02*
X0137600Y0047600D01*
X0127600Y0047600D01*
X0122600Y0042600D01*
X0122600Y0027600D01*
X0117600Y0022600D01*
X0107600Y0022600D01*
X0097600Y0012600D01*
X0027600Y0012600D01*
X0022600Y0017600D01*
X0022600Y0042600D01*
X0033000Y0038000D02*
X0042600Y0047600D01*
X0042600Y0057600D01*
X0052600Y0057600D02*
X0052600Y0047600D01*
X0052800Y0042800D01*
X0052800Y0027600D01*
X0033000Y0027600D02*
X0033000Y0038000D01*
X0062600Y0047600D02*
X0072600Y0042600D01*
X0072600Y0027800D01*
X0072400Y0027600D01*
X0092200Y0027600D02*
X0092600Y0028000D01*
X0092600Y0042600D01*
X0087600Y0047600D01*
X0077600Y0047600D01*
X0072600Y0052600D01*
X0072600Y0057600D01*
X0079964Y0066570D02*
X0085236Y0066570D01*
X0082600Y0067600D02*
X0082600Y0057600D01*
X0082600Y0063372D02*
X0082600Y0063372D01*
X0083754Y0072967D02*
X0015800Y0072967D01*
X0015800Y0076166D02*
X0079468Y0076166D01*
X0077804Y0079364D02*
X0053022Y0079364D01*
X0052988Y0079298D02*
X0053438Y0080182D01*
X0053745Y0081125D01*
X0053900Y0082104D01*
X0053900Y0082600D01*
X0053900Y0083096D01*
X0053745Y0084075D01*
X0053438Y0085018D01*
X0052988Y0085902D01*
X0053900Y0082600D02*
X0047600Y0082600D01*
X0047600Y0082600D01*
X0047600Y0082600D01*
X0047600Y0076300D01*
X0048096Y0076300D01*
X0049075Y0076455D01*
X0050018Y0076762D01*
X0050902Y0077212D01*
X0051704Y0077795D01*
X0052405Y0078496D01*
X0052988Y0079298D01*
X0047600Y0079364D02*
X0047600Y0079364D01*
X0047600Y0076300D02*
X0047600Y0082600D01*
X0047600Y0082600D01*
X0047600Y0082600D01*
X0041300Y0082600D01*
X0041300Y0083096D01*
X0041455Y0084075D01*
X0041762Y0085018D01*
X0042212Y0085902D01*
X0042795Y0086704D01*
X0043496Y0087405D01*
X0044298Y0087988D01*
X0045182Y0088438D01*
X0046125Y0088745D01*
X0047104Y0088900D01*
X0047600Y0088900D01*
X0047600Y0082600D01*
X0041300Y0082600D01*
X0041300Y0082104D01*
X0041455Y0081125D01*
X0041762Y0080182D01*
X0042212Y0079298D01*
X0042795Y0078496D01*
X0043496Y0077795D01*
X0044298Y0077212D01*
X0045182Y0076762D01*
X0046125Y0076455D01*
X0047104Y0076300D01*
X0047600Y0076300D01*
X0042178Y0079364D02*
X0015800Y0079364D01*
X0015800Y0082563D02*
X0041300Y0082563D01*
X0042140Y0085761D02*
X0015800Y0085761D01*
X0047600Y0085761D02*
X0047600Y0085761D01*
X0047600Y0082563D02*
X0047600Y0082563D01*
X0062600Y0057600D02*
X0062600Y0047600D01*
X0087600Y0082600D02*
X0087600Y0097600D01*
X0082600Y0107600D02*
X0082600Y0117600D01*
X0077600Y0122600D01*
X0077600Y0142600D01*
X0052600Y0177600D02*
X0067600Y0192600D01*
X0077600Y0192600D01*
X0077600Y0202600D02*
X0062600Y0202600D01*
X0047600Y0217600D01*
X0042600Y0217600D01*
X0042600Y0227600D02*
X0052600Y0227600D01*
X0067600Y0212600D01*
X0077600Y0212600D01*
X0082600Y0212600D01*
X0092600Y0202600D01*
X0097600Y0202600D01*
X0104263Y0210503D02*
X0110937Y0210503D01*
X0111276Y0210842D02*
X0109358Y0208924D01*
X0108002Y0206576D01*
X0107600Y0205076D01*
X0107198Y0206576D01*
X0105842Y0208924D01*
X0103924Y0210842D01*
X0101576Y0212198D01*
X0098956Y0212900D01*
X0096244Y0212900D01*
X0094393Y0212404D01*
X0087245Y0219552D01*
X0086725Y0219767D01*
X0086695Y0219839D01*
X0084839Y0221695D01*
X0083700Y0222167D01*
X0083700Y0222600D01*
X0083700Y0226356D01*
X0083600Y0226858D01*
X0083404Y0227332D01*
X0083225Y0227600D01*
X0083404Y0227868D01*
X0083600Y0228342D01*
X0083700Y0228844D01*
X0083700Y0232600D01*
X0083700Y0233033D01*
X0084839Y0233505D01*
X0086695Y0235361D01*
X0087148Y0236455D01*
X0087955Y0235648D01*
X0090969Y0234400D01*
X0091234Y0234400D01*
X0091276Y0234358D01*
X0093624Y0233002D01*
X0096244Y0232300D01*
X0098956Y0232300D01*
X0101576Y0233002D01*
X0103924Y0234358D01*
X0103966Y0234400D01*
X0111234Y0234400D01*
X0111276Y0234358D01*
X0113624Y0233002D01*
X0116244Y0232300D01*
X0118956Y0232300D01*
X0119400Y0232419D01*
X0119400Y0225969D01*
X0120648Y0222955D01*
X0122955Y0220648D01*
X0125648Y0217955D01*
X0127500Y0216103D01*
X0127500Y0207787D01*
X0127578Y0207600D01*
X0127500Y0207413D01*
X0127500Y0205449D01*
X0127198Y0206576D01*
X0125842Y0208924D01*
X0123924Y0210842D01*
X0121576Y0212198D01*
X0118956Y0212900D01*
X0116244Y0212900D01*
X0113624Y0212198D01*
X0111276Y0210842D01*
X0108423Y0207305D02*
X0106777Y0207305D01*
X0117600Y0202600D02*
X0117600Y0197600D01*
X0112600Y0192600D01*
X0092600Y0192600D01*
X0082600Y0202600D01*
X0077600Y0202600D01*
X0089896Y0216900D02*
X0126703Y0216900D01*
X0127500Y0213702D02*
X0093095Y0213702D01*
X0086435Y0220099D02*
X0123505Y0220099D01*
X0122955Y0220648D02*
X0122955Y0220648D01*
X0120507Y0223297D02*
X0083700Y0223297D01*
X0083700Y0222600D02*
X0082654Y0222600D01*
X0082654Y0222600D01*
X0083700Y0222600D01*
X0083672Y0226496D02*
X0119400Y0226496D01*
X0119400Y0229694D02*
X0083700Y0229694D01*
X0083700Y0232600D02*
X0082654Y0232600D01*
X0082654Y0232600D01*
X0083700Y0232600D01*
X0083700Y0232893D02*
X0094032Y0232893D01*
X0092600Y0232600D02*
X0097600Y0227600D01*
X0107600Y0227600D01*
X0101168Y0232893D02*
X0114032Y0232893D01*
X0117600Y0242600D02*
X0122600Y0242600D01*
X0127600Y0237600D01*
X0127600Y0227600D01*
X0132600Y0222600D01*
X0137600Y0222600D01*
X0142600Y0222600D01*
X0152600Y0212600D01*
X0157600Y0212600D01*
X0157600Y0202600D02*
X0152600Y0202600D01*
X0142600Y0212600D01*
X0137600Y0212600D01*
X0137600Y0202600D02*
X0142600Y0202600D01*
X0152600Y0192600D01*
X0157600Y0192600D01*
X0157600Y0182600D02*
X0152600Y0182600D01*
X0142600Y0192600D01*
X0137600Y0192600D01*
X0127500Y0207305D02*
X0126777Y0207305D01*
X0127500Y0210503D02*
X0124263Y0210503D01*
X0117600Y0242600D02*
X0097600Y0242600D01*
X0092600Y0242600D01*
X0087600Y0247600D01*
X0087600Y0257600D01*
X0082600Y0262600D01*
X0027600Y0262600D01*
X0022600Y0257600D01*
X0022600Y0222600D01*
X0027600Y0217600D01*
X0022600Y0212600D01*
X0022600Y0202600D01*
X0027600Y0197600D01*
X0042600Y0177600D02*
X0052600Y0177600D01*
X0032600Y0217600D02*
X0027600Y0217600D01*
X0032600Y0227600D02*
X0032600Y0232600D01*
X0037600Y0237600D01*
X0062600Y0237600D01*
X0067600Y0232600D01*
X0077600Y0232600D01*
X0092600Y0232600D01*
X0087512Y0236091D02*
X0086998Y0236091D01*
X0077600Y0232600D02*
X0077600Y0222600D01*
X0077600Y0222700D02*
X0077600Y0228700D01*
X0077600Y0232500D01*
X0077600Y0222700D01*
X0077600Y0222700D01*
X0077600Y0223297D02*
X0077600Y0223297D01*
X0077600Y0226496D02*
X0077600Y0226496D01*
X0077600Y0229694D02*
X0077600Y0229694D01*
X0077600Y0232500D02*
X0077600Y0232500D01*
X0072546Y0232600D02*
X0071500Y0232600D01*
X0072546Y0232600D01*
X0072546Y0232600D01*
X0071500Y0232600D02*
X0071500Y0228844D01*
X0071600Y0228342D01*
X0071796Y0227868D01*
X0071975Y0227600D01*
X0071796Y0227332D01*
X0071600Y0226858D01*
X0071500Y0226356D01*
X0071500Y0222600D01*
X0072546Y0222600D01*
X0072546Y0222600D01*
X0071500Y0222600D01*
X0071500Y0222167D01*
X0070361Y0221695D01*
X0070231Y0221565D01*
X0057245Y0234552D01*
X0054231Y0235800D01*
X0050969Y0235800D01*
X0048330Y0235800D01*
X0048180Y0235950D01*
X0044559Y0237450D01*
X0040641Y0237450D01*
X0037020Y0235950D01*
X0034276Y0233206D01*
X0033970Y0233306D01*
X0033060Y0233450D01*
X0032600Y0233450D01*
X0032600Y0227600D01*
X0032600Y0227600D01*
X0032600Y0233450D01*
X0032140Y0233450D01*
X0031230Y0233306D01*
X0030800Y0233166D01*
X0030800Y0254203D01*
X0030997Y0254400D01*
X0067500Y0254400D01*
X0067500Y0247787D01*
X0067578Y0247600D01*
X0067500Y0247413D01*
X0067500Y0237787D01*
X0068505Y0235361D01*
X0070361Y0233505D01*
X0071500Y0233033D01*
X0071500Y0232600D01*
X0071500Y0232893D02*
X0058904Y0232893D01*
X0062102Y0229694D02*
X0071500Y0229694D01*
X0071528Y0226496D02*
X0065301Y0226496D01*
X0068499Y0223297D02*
X0071500Y0223297D01*
X0068202Y0236091D02*
X0047839Y0236091D01*
X0037361Y0236091D02*
X0030800Y0236091D01*
X0030800Y0239290D02*
X0067500Y0239290D01*
X0067500Y0242488D02*
X0030800Y0242488D01*
X0030800Y0245687D02*
X0067500Y0245687D01*
X0067500Y0248885D02*
X0030800Y0248885D01*
X0030800Y0252084D02*
X0067500Y0252084D01*
X0032600Y0232893D02*
X0032600Y0232893D01*
X0032600Y0229694D02*
X0032600Y0229694D01*
X0117600Y0142600D02*
X0112600Y0137600D01*
X0112600Y0122600D01*
X0117600Y0117600D01*
X0117600Y0142600D02*
X0137600Y0142600D01*
X0147700Y0143334D02*
X0151883Y0143334D01*
X0147700Y0140136D02*
X0197902Y0140136D01*
X0201100Y0136937D02*
X0147348Y0136937D01*
X0148058Y0133739D02*
X0219000Y0133739D01*
X0202600Y0117600D02*
X0197600Y0122600D01*
X0202600Y0117600D02*
X0202600Y0107600D01*
X0192600Y0107600D02*
X0192600Y0097600D01*
X0217600Y0068350D02*
X0217600Y0062600D01*
X0217600Y0056850D01*
X0219000Y0056850D01*
X0219000Y0051162D01*
X0212600Y0044762D01*
X0211200Y0046162D01*
X0211200Y0049866D01*
X0211695Y0050361D01*
X0212700Y0052787D01*
X0212700Y0059368D01*
X0215218Y0056850D01*
X0217600Y0056850D01*
X0217600Y0062600D01*
X0217600Y0062600D01*
X0217600Y0063372D02*
X0217600Y0063372D01*
X0217600Y0066570D02*
X0217600Y0066570D01*
X0213439Y0066570D02*
X0209964Y0066570D01*
X0217600Y0060173D02*
X0217600Y0060173D01*
X0217600Y0056975D02*
X0217600Y0056975D01*
X0215094Y0056975D02*
X0212700Y0056975D01*
X0212700Y0053776D02*
X0219000Y0053776D01*
X0218415Y0050578D02*
X0211785Y0050578D01*
X0211200Y0047379D02*
X0215217Y0047379D01*
X0197200Y0038000D02*
X0182600Y0052600D01*
X0182600Y0057600D01*
X0172600Y0057600D02*
X0172600Y0047600D01*
X0177600Y0042600D01*
X0177600Y0027800D01*
X0177400Y0027600D01*
X0157800Y0027600D02*
X0157800Y0037400D01*
X0157600Y0037600D01*
X0157600Y0042600D01*
X0162600Y0047600D01*
X0162600Y0057600D01*
X0152600Y0057600D02*
X0152600Y0052600D01*
X0138000Y0038000D01*
X0138000Y0027600D01*
X0197200Y0027600D02*
X0197200Y0038000D01*
X0162600Y0107600D02*
X0152600Y0107600D01*
X0164624Y0226496D02*
X0193900Y0226496D01*
X0182700Y0252084D02*
X0182700Y0252084D01*
D21*
X0197600Y0267600D02*
X0202600Y0262600D01*
X0202600Y0252700D01*
X0202500Y0252600D01*
X0202500Y0147700D01*
X0207600Y0142600D01*
X0222600Y0142600D01*
X0227600Y0137600D01*
X0227600Y0062600D01*
X0227600Y0047600D01*
X0212600Y0032600D01*
X0202600Y0042600D01*
X0202600Y0057600D01*
X0212600Y0032600D02*
X0212600Y0012600D01*
X0207600Y0007600D01*
X0112600Y0007600D01*
X0152600Y0262600D02*
X0157600Y0267600D01*
X0197600Y0267600D01*
D22*
X0112600Y0042600D03*
X0112600Y0007600D03*
D23*
X0137600Y0252600D02*
X0152600Y0252600D01*
M02*
