G75*
%MOIN*%
%OFA0B0*%
%FSLAX24Y24*%
%IPPOS*%
%LPD*%
%AMOC8*
5,1,8,0,0,1.08239X$1,22.5*
%
%ADD10C,0.0000*%
%ADD11C,0.0140*%
%ADD12C,0.0110*%
%ADD13C,0.0090*%
%ADD14C,0.0050*%
%ADD15C,0.0040*%
%ADD16C,0.0060*%
%ADD17C,0.0070*%
%ADD18R,0.0300X0.1500*%
%ADD19C,0.0080*%
D10*
X000260Y000260D02*
X000260Y027256D01*
X023630Y027256D01*
X023630Y000260D01*
X000260Y000260D01*
X000709Y001260D02*
X000711Y001307D01*
X000717Y001353D01*
X000727Y001399D01*
X000740Y001444D01*
X000758Y001487D01*
X000779Y001529D01*
X000803Y001569D01*
X000831Y001606D01*
X000862Y001641D01*
X000896Y001674D01*
X000932Y001703D01*
X000971Y001729D01*
X001012Y001752D01*
X001055Y001771D01*
X001099Y001787D01*
X001144Y001799D01*
X001190Y001807D01*
X001237Y001811D01*
X001283Y001811D01*
X001330Y001807D01*
X001376Y001799D01*
X001421Y001787D01*
X001465Y001771D01*
X001508Y001752D01*
X001549Y001729D01*
X001588Y001703D01*
X001624Y001674D01*
X001658Y001641D01*
X001689Y001606D01*
X001717Y001569D01*
X001741Y001529D01*
X001762Y001487D01*
X001780Y001444D01*
X001793Y001399D01*
X001803Y001353D01*
X001809Y001307D01*
X001811Y001260D01*
X001809Y001213D01*
X001803Y001167D01*
X001793Y001121D01*
X001780Y001076D01*
X001762Y001033D01*
X001741Y000991D01*
X001717Y000951D01*
X001689Y000914D01*
X001658Y000879D01*
X001624Y000846D01*
X001588Y000817D01*
X001549Y000791D01*
X001508Y000768D01*
X001465Y000749D01*
X001421Y000733D01*
X001376Y000721D01*
X001330Y000713D01*
X001283Y000709D01*
X001237Y000709D01*
X001190Y000713D01*
X001144Y000721D01*
X001099Y000733D01*
X001055Y000749D01*
X001012Y000768D01*
X000971Y000791D01*
X000932Y000817D01*
X000896Y000846D01*
X000862Y000879D01*
X000831Y000914D01*
X000803Y000951D01*
X000779Y000991D01*
X000758Y001033D01*
X000740Y001076D01*
X000727Y001121D01*
X000717Y001167D01*
X000711Y001213D01*
X000709Y001260D01*
X000709Y026260D02*
X000711Y026307D01*
X000717Y026353D01*
X000727Y026399D01*
X000740Y026444D01*
X000758Y026487D01*
X000779Y026529D01*
X000803Y026569D01*
X000831Y026606D01*
X000862Y026641D01*
X000896Y026674D01*
X000932Y026703D01*
X000971Y026729D01*
X001012Y026752D01*
X001055Y026771D01*
X001099Y026787D01*
X001144Y026799D01*
X001190Y026807D01*
X001237Y026811D01*
X001283Y026811D01*
X001330Y026807D01*
X001376Y026799D01*
X001421Y026787D01*
X001465Y026771D01*
X001508Y026752D01*
X001549Y026729D01*
X001588Y026703D01*
X001624Y026674D01*
X001658Y026641D01*
X001689Y026606D01*
X001717Y026569D01*
X001741Y026529D01*
X001762Y026487D01*
X001780Y026444D01*
X001793Y026399D01*
X001803Y026353D01*
X001809Y026307D01*
X001811Y026260D01*
X001809Y026213D01*
X001803Y026167D01*
X001793Y026121D01*
X001780Y026076D01*
X001762Y026033D01*
X001741Y025991D01*
X001717Y025951D01*
X001689Y025914D01*
X001658Y025879D01*
X001624Y025846D01*
X001588Y025817D01*
X001549Y025791D01*
X001508Y025768D01*
X001465Y025749D01*
X001421Y025733D01*
X001376Y025721D01*
X001330Y025713D01*
X001283Y025709D01*
X001237Y025709D01*
X001190Y025713D01*
X001144Y025721D01*
X001099Y025733D01*
X001055Y025749D01*
X001012Y025768D01*
X000971Y025791D01*
X000932Y025817D01*
X000896Y025846D01*
X000862Y025879D01*
X000831Y025914D01*
X000803Y025951D01*
X000779Y025991D01*
X000758Y026033D01*
X000740Y026076D01*
X000727Y026121D01*
X000717Y026167D01*
X000711Y026213D01*
X000709Y026260D01*
X022209Y026260D02*
X022211Y026307D01*
X022217Y026353D01*
X022227Y026399D01*
X022240Y026444D01*
X022258Y026487D01*
X022279Y026529D01*
X022303Y026569D01*
X022331Y026606D01*
X022362Y026641D01*
X022396Y026674D01*
X022432Y026703D01*
X022471Y026729D01*
X022512Y026752D01*
X022555Y026771D01*
X022599Y026787D01*
X022644Y026799D01*
X022690Y026807D01*
X022737Y026811D01*
X022783Y026811D01*
X022830Y026807D01*
X022876Y026799D01*
X022921Y026787D01*
X022965Y026771D01*
X023008Y026752D01*
X023049Y026729D01*
X023088Y026703D01*
X023124Y026674D01*
X023158Y026641D01*
X023189Y026606D01*
X023217Y026569D01*
X023241Y026529D01*
X023262Y026487D01*
X023280Y026444D01*
X023293Y026399D01*
X023303Y026353D01*
X023309Y026307D01*
X023311Y026260D01*
X023309Y026213D01*
X023303Y026167D01*
X023293Y026121D01*
X023280Y026076D01*
X023262Y026033D01*
X023241Y025991D01*
X023217Y025951D01*
X023189Y025914D01*
X023158Y025879D01*
X023124Y025846D01*
X023088Y025817D01*
X023049Y025791D01*
X023008Y025768D01*
X022965Y025749D01*
X022921Y025733D01*
X022876Y025721D01*
X022830Y025713D01*
X022783Y025709D01*
X022737Y025709D01*
X022690Y025713D01*
X022644Y025721D01*
X022599Y025733D01*
X022555Y025749D01*
X022512Y025768D01*
X022471Y025791D01*
X022432Y025817D01*
X022396Y025846D01*
X022362Y025879D01*
X022331Y025914D01*
X022303Y025951D01*
X022279Y025991D01*
X022258Y026033D01*
X022240Y026076D01*
X022227Y026121D01*
X022217Y026167D01*
X022211Y026213D01*
X022209Y026260D01*
X022209Y001260D02*
X022211Y001307D01*
X022217Y001353D01*
X022227Y001399D01*
X022240Y001444D01*
X022258Y001487D01*
X022279Y001529D01*
X022303Y001569D01*
X022331Y001606D01*
X022362Y001641D01*
X022396Y001674D01*
X022432Y001703D01*
X022471Y001729D01*
X022512Y001752D01*
X022555Y001771D01*
X022599Y001787D01*
X022644Y001799D01*
X022690Y001807D01*
X022737Y001811D01*
X022783Y001811D01*
X022830Y001807D01*
X022876Y001799D01*
X022921Y001787D01*
X022965Y001771D01*
X023008Y001752D01*
X023049Y001729D01*
X023088Y001703D01*
X023124Y001674D01*
X023158Y001641D01*
X023189Y001606D01*
X023217Y001569D01*
X023241Y001529D01*
X023262Y001487D01*
X023280Y001444D01*
X023293Y001399D01*
X023303Y001353D01*
X023309Y001307D01*
X023311Y001260D01*
X023309Y001213D01*
X023303Y001167D01*
X023293Y001121D01*
X023280Y001076D01*
X023262Y001033D01*
X023241Y000991D01*
X023217Y000951D01*
X023189Y000914D01*
X023158Y000879D01*
X023124Y000846D01*
X023088Y000817D01*
X023049Y000791D01*
X023008Y000768D01*
X022965Y000749D01*
X022921Y000733D01*
X022876Y000721D01*
X022830Y000713D01*
X022783Y000709D01*
X022737Y000709D01*
X022690Y000713D01*
X022644Y000721D01*
X022599Y000733D01*
X022555Y000749D01*
X022512Y000768D01*
X022471Y000791D01*
X022432Y000817D01*
X022396Y000846D01*
X022362Y000879D01*
X022331Y000914D01*
X022303Y000951D01*
X022279Y000991D01*
X022258Y001033D01*
X022240Y001076D01*
X022227Y001121D01*
X022217Y001167D01*
X022211Y001213D01*
X022209Y001260D01*
D11*
X022589Y015830D02*
X022710Y015830D01*
X022830Y015950D01*
X022830Y016190D01*
X022950Y016310D01*
X023070Y016310D01*
X023190Y016190D01*
X023190Y015950D01*
X023070Y015830D01*
X022589Y015830D02*
X022469Y015950D01*
X022469Y016190D01*
X022589Y016310D01*
X022710Y016742D02*
X022710Y016982D01*
X022830Y017102D01*
X023190Y017102D01*
X023190Y016742D01*
X023070Y016622D01*
X022950Y016742D01*
X022950Y017102D01*
X022710Y017414D02*
X022710Y017654D01*
X022589Y017534D02*
X023070Y017534D01*
X023190Y017654D01*
X023190Y017942D02*
X022469Y017942D01*
X023190Y018422D01*
X022469Y018422D01*
X022589Y018734D02*
X022469Y018854D01*
X022469Y019094D01*
X022589Y019214D01*
X023070Y019214D01*
X023190Y019094D01*
X023190Y018854D01*
X023070Y018734D01*
X022589Y018734D01*
X022589Y019525D02*
X022469Y019646D01*
X022469Y019886D01*
X022589Y020006D01*
X022830Y020006D02*
X022830Y019766D01*
X022830Y020006D02*
X023070Y020006D01*
X023190Y019886D01*
X023190Y019646D01*
X023070Y019525D01*
X022589Y019525D01*
X022589Y020317D02*
X022710Y020317D01*
X022830Y020437D01*
X022830Y020678D01*
X022950Y020798D01*
X023070Y020798D01*
X023190Y020678D01*
X023190Y020437D01*
X023070Y020317D01*
X022589Y020317D02*
X022469Y020437D01*
X022469Y020678D01*
X022589Y020798D01*
X022469Y021901D02*
X022950Y021901D01*
X023190Y022141D01*
X022950Y022381D01*
X022469Y022381D01*
X022710Y022693D02*
X022469Y022933D01*
X023190Y022933D01*
X023190Y022693D02*
X023190Y023173D01*
X023190Y023485D02*
X023190Y023605D01*
X023070Y023605D01*
X023070Y023485D01*
X023190Y023485D01*
X023190Y023881D02*
X022710Y024361D01*
X022589Y024361D01*
X022469Y024241D01*
X022469Y024001D01*
X022589Y023881D01*
X023190Y023881D02*
X023190Y024361D01*
X020519Y022330D02*
X020038Y022330D01*
X020278Y022090D02*
X020278Y022571D01*
X018519Y022330D02*
X018038Y022330D01*
D12*
X018367Y001206D02*
X018367Y000615D01*
X018170Y000615D02*
X018564Y000615D01*
X018170Y001009D02*
X018367Y001206D01*
X017929Y001009D02*
X017830Y001009D01*
X017633Y000812D01*
X017633Y000615D02*
X017633Y001009D01*
X017382Y000910D02*
X017382Y000713D01*
X017284Y000615D01*
X017087Y000615D01*
X016989Y000713D01*
X016989Y000910D01*
X017087Y001009D01*
X017284Y001009D01*
X017382Y000910D01*
X016756Y001009D02*
X016559Y001009D01*
X016657Y001107D02*
X016657Y000713D01*
X016756Y000615D01*
X016308Y000713D02*
X016308Y000910D01*
X016210Y001009D01*
X016013Y001009D01*
X015915Y000910D01*
X015915Y000713D01*
X016013Y000615D01*
X016210Y000615D01*
X016308Y000713D01*
X015664Y000615D02*
X015664Y001206D01*
X015467Y001009D01*
X015270Y001206D01*
X015270Y000615D01*
X008064Y000615D02*
X007670Y000615D01*
X008064Y001009D01*
X008064Y001107D01*
X007966Y001206D01*
X007769Y001206D01*
X007670Y001107D01*
X007429Y001009D02*
X007330Y001009D01*
X007133Y000812D01*
X007133Y000615D02*
X007133Y001009D01*
X006882Y000910D02*
X006882Y000713D01*
X006784Y000615D01*
X006587Y000615D01*
X006489Y000713D01*
X006489Y000910D01*
X006587Y001009D01*
X006784Y001009D01*
X006882Y000910D01*
X006256Y001009D02*
X006059Y001009D01*
X006157Y001107D02*
X006157Y000713D01*
X006256Y000615D01*
X005808Y000713D02*
X005808Y000910D01*
X005710Y001009D01*
X005513Y001009D01*
X005415Y000910D01*
X005415Y000713D01*
X005513Y000615D01*
X005710Y000615D01*
X005808Y000713D01*
X005164Y000615D02*
X005164Y001206D01*
X004967Y001009D01*
X004770Y001206D01*
X004770Y000615D01*
D13*
X004603Y016245D02*
X004446Y016402D01*
X004289Y016245D01*
X004289Y016715D01*
X004087Y016637D02*
X004009Y016715D01*
X003852Y016715D01*
X003774Y016637D01*
X003774Y016559D01*
X003852Y016480D01*
X004009Y016480D01*
X004087Y016402D01*
X004087Y016323D01*
X004009Y016245D01*
X003852Y016245D01*
X003774Y016323D01*
X004603Y016245D02*
X004603Y016715D01*
X004525Y023745D02*
X004603Y023823D01*
X004525Y023745D02*
X004368Y023745D01*
X004289Y023823D01*
X004289Y024137D01*
X004368Y024215D01*
X004525Y024215D01*
X004603Y024137D01*
X004087Y024137D02*
X004009Y024215D01*
X003852Y024215D01*
X003774Y024137D01*
X003587Y024215D02*
X003430Y024215D01*
X003508Y024215D02*
X003508Y023745D01*
X003430Y023745D02*
X003587Y023745D01*
X003774Y023745D02*
X004087Y024059D01*
X004087Y024137D01*
X004087Y023745D02*
X003774Y023745D01*
D14*
X003760Y023260D02*
X003760Y021260D01*
X002760Y021260D01*
X002760Y023260D01*
X003760Y023260D01*
X004760Y023260D01*
X004760Y021260D01*
X003760Y021260D01*
X003760Y023260D01*
X002760Y020260D02*
X004760Y020260D01*
X004760Y017260D01*
X002760Y017260D01*
X002760Y020260D01*
X007260Y013760D02*
X007260Y026760D01*
X014260Y026760D01*
X014260Y013760D01*
X007260Y013760D01*
X009760Y011260D02*
X009760Y005260D01*
X001760Y005260D01*
X001760Y011260D01*
X009760Y011260D01*
X006904Y008315D02*
X006769Y008225D01*
X006904Y008135D01*
X006769Y008135D02*
X006769Y008405D01*
X006654Y008360D02*
X006654Y008180D01*
X006609Y008135D01*
X006519Y008135D01*
X006474Y008180D01*
X006654Y008360D01*
X006609Y008405D01*
X006519Y008405D01*
X006474Y008360D01*
X006474Y008180D01*
X006360Y008180D02*
X006315Y008135D01*
X006225Y008135D01*
X006180Y008180D01*
X006360Y008360D01*
X006360Y008180D01*
X006360Y008360D02*
X006315Y008405D01*
X006225Y008405D01*
X006180Y008360D01*
X006180Y008180D01*
X006065Y008135D02*
X005885Y008135D01*
X005975Y008135D02*
X005975Y008405D01*
X005885Y008315D01*
X005830Y009035D02*
X005830Y009080D01*
X006010Y009260D01*
X006010Y009305D01*
X005830Y009305D01*
X005715Y009260D02*
X005715Y009170D01*
X005670Y009125D01*
X005535Y009125D01*
X005535Y009035D02*
X005535Y009305D01*
X005670Y009305D01*
X005715Y009260D01*
X005625Y009125D02*
X005715Y009035D01*
X009314Y005560D02*
X009314Y005260D01*
X009389Y005185D01*
X009539Y005185D01*
X009614Y005260D01*
X009775Y005185D02*
X010075Y005485D01*
X010075Y005560D01*
X010000Y005635D01*
X009850Y005635D01*
X009775Y005560D01*
X009614Y005560D02*
X009539Y005635D01*
X009389Y005635D01*
X009314Y005560D01*
X009775Y005185D02*
X010075Y005185D01*
X008755Y004125D02*
X008755Y003785D01*
X008812Y003955D02*
X008585Y003955D01*
X008755Y004125D01*
X006812Y004069D02*
X006812Y004012D01*
X006755Y003955D01*
X006812Y003898D01*
X006812Y003842D01*
X006755Y003785D01*
X006642Y003785D01*
X006585Y003842D01*
X006698Y003955D02*
X006755Y003955D01*
X006812Y004069D02*
X006755Y004125D01*
X006642Y004125D01*
X006585Y004069D01*
X004862Y004069D02*
X004805Y004125D01*
X004692Y004125D01*
X004635Y004069D01*
X004862Y004069D02*
X004862Y004012D01*
X004635Y003785D01*
X004862Y003785D01*
X002912Y003785D02*
X002685Y003785D01*
X002798Y003785D02*
X002798Y004125D01*
X002685Y004012D01*
X012760Y005260D02*
X020760Y005260D01*
X020760Y011260D01*
X012760Y011260D01*
X012760Y005260D01*
X013298Y004125D02*
X013185Y004012D01*
X013298Y004125D02*
X013298Y003785D01*
X013185Y003785D02*
X013412Y003785D01*
X015135Y003785D02*
X015362Y004012D01*
X015362Y004069D01*
X015305Y004125D01*
X015192Y004125D01*
X015135Y004069D01*
X015135Y003785D02*
X015362Y003785D01*
X017085Y003842D02*
X017142Y003785D01*
X017255Y003785D01*
X017312Y003842D01*
X017312Y003898D01*
X017255Y003955D01*
X017198Y003955D01*
X017255Y003955D02*
X017312Y004012D01*
X017312Y004069D01*
X017255Y004125D01*
X017142Y004125D01*
X017085Y004069D01*
X019085Y003955D02*
X019312Y003955D01*
X019255Y003785D02*
X019255Y004125D01*
X019085Y003955D01*
X020389Y005185D02*
X020539Y005185D01*
X020614Y005260D01*
X020775Y005185D02*
X021075Y005185D01*
X020925Y005185D02*
X020925Y005635D01*
X020775Y005485D01*
X020614Y005560D02*
X020539Y005635D01*
X020389Y005635D01*
X020314Y005560D01*
X020314Y005260D01*
X020389Y005185D01*
X017404Y008135D02*
X017269Y008225D01*
X017404Y008315D01*
X017269Y008405D02*
X017269Y008135D01*
X017154Y008180D02*
X017109Y008135D01*
X017019Y008135D01*
X016974Y008180D01*
X017154Y008360D01*
X017154Y008180D01*
X016974Y008180D02*
X016974Y008360D01*
X017019Y008405D01*
X017109Y008405D01*
X017154Y008360D01*
X016860Y008360D02*
X016860Y008180D01*
X016815Y008135D01*
X016725Y008135D01*
X016680Y008180D01*
X016860Y008360D01*
X016815Y008405D01*
X016725Y008405D01*
X016680Y008360D01*
X016680Y008180D01*
X016565Y008135D02*
X016385Y008135D01*
X016475Y008135D02*
X016475Y008405D01*
X016385Y008315D01*
X016375Y009035D02*
X016330Y009080D01*
X016330Y009125D01*
X016375Y009170D01*
X016465Y009170D01*
X016510Y009125D01*
X016510Y009080D01*
X016465Y009035D01*
X016375Y009035D01*
X016375Y009170D02*
X016330Y009215D01*
X016330Y009260D01*
X016375Y009305D01*
X016465Y009305D01*
X016510Y009260D01*
X016510Y009215D01*
X016465Y009170D01*
X016215Y009170D02*
X016215Y009260D01*
X016170Y009305D01*
X016035Y009305D01*
X016035Y009035D01*
X016035Y009125D02*
X016170Y009125D01*
X016215Y009170D01*
X016125Y009125D02*
X016215Y009035D01*
X015135Y015085D02*
X015135Y015385D01*
X015135Y015235D02*
X014685Y015235D01*
X014835Y015085D01*
X014635Y016285D02*
X014635Y016435D01*
X014635Y016360D02*
X015085Y016360D01*
X015085Y016285D02*
X015085Y016435D01*
X015010Y016592D02*
X015085Y016667D01*
X015085Y016817D01*
X015010Y016892D01*
X014710Y016892D01*
X014635Y016817D01*
X014635Y016667D01*
X014710Y016592D01*
X015010Y016592D01*
X011885Y021385D02*
X011885Y021565D01*
X011885Y021475D02*
X011615Y021475D01*
X011705Y021385D01*
X011660Y021680D02*
X011615Y021725D01*
X011615Y021815D01*
X011660Y021860D01*
X011840Y021680D01*
X011885Y021725D01*
X011885Y021815D01*
X011840Y021860D01*
X011660Y021860D01*
X011615Y021974D02*
X011885Y021974D01*
X011795Y021974D02*
X011705Y022109D01*
X011795Y021974D02*
X011885Y022109D01*
X011840Y021680D02*
X011660Y021680D01*
X010985Y021465D02*
X010985Y021375D01*
X010940Y021330D01*
X010850Y021330D01*
X010850Y021465D01*
X010895Y021510D01*
X010940Y021510D01*
X010985Y021465D01*
X010850Y021330D02*
X010760Y021420D01*
X010715Y021510D01*
X010760Y021215D02*
X010850Y021215D01*
X010895Y021170D01*
X010895Y021035D01*
X010985Y021035D02*
X010715Y021035D01*
X010715Y021170D01*
X010760Y021215D01*
X010895Y021125D02*
X010985Y021215D01*
X009885Y021385D02*
X009885Y021565D01*
X009885Y021475D02*
X009615Y021475D01*
X009705Y021385D01*
X009660Y021680D02*
X009615Y021725D01*
X009615Y021815D01*
X009660Y021860D01*
X009840Y021680D01*
X009885Y021725D01*
X009885Y021815D01*
X009840Y021860D01*
X009660Y021860D01*
X009615Y021974D02*
X009885Y021974D01*
X009795Y021974D02*
X009705Y022109D01*
X009795Y021974D02*
X009885Y022109D01*
X009840Y021680D02*
X009660Y021680D01*
X008985Y021465D02*
X008985Y021375D01*
X008940Y021330D01*
X008850Y021330D02*
X008805Y021420D01*
X008805Y021465D01*
X008850Y021510D01*
X008940Y021510D01*
X008985Y021465D01*
X008850Y021330D02*
X008715Y021330D01*
X008715Y021510D01*
X008760Y021215D02*
X008850Y021215D01*
X008895Y021170D01*
X008895Y021035D01*
X008985Y021035D02*
X008715Y021035D01*
X008715Y021170D01*
X008760Y021215D01*
X008895Y021125D02*
X008985Y021215D01*
X009260Y025260D02*
X009260Y027260D01*
X012260Y027260D01*
X012260Y025260D01*
X009260Y025260D01*
X014685Y022310D02*
X014685Y022160D01*
X014760Y022085D01*
X014835Y022085D01*
X014910Y022160D01*
X014910Y022310D01*
X014985Y022385D01*
X015060Y022385D01*
X015135Y022310D01*
X015135Y022160D01*
X015060Y022085D01*
X014985Y022085D01*
X014910Y022160D01*
X014910Y022310D02*
X014835Y022385D01*
X014760Y022385D01*
X014685Y022310D01*
X018676Y023895D02*
X018903Y024122D01*
X018903Y024179D01*
X018846Y024235D01*
X018733Y024235D01*
X018676Y024179D01*
X018676Y023895D02*
X018903Y023895D01*
X020676Y023895D02*
X020903Y023895D01*
X020789Y023895D02*
X020789Y024235D01*
X020676Y024122D01*
D15*
X014339Y013087D02*
X014186Y013087D01*
X014109Y013010D01*
X014109Y012857D01*
X014186Y012780D01*
X014339Y012780D01*
X014416Y012857D01*
X014416Y013010D01*
X014339Y013087D01*
X013956Y013087D02*
X013879Y013087D01*
X013725Y012933D01*
X013725Y012780D02*
X013725Y013087D01*
X013572Y013087D02*
X013342Y013087D01*
X013265Y013010D01*
X013265Y012857D01*
X013342Y012780D01*
X013572Y012780D01*
X013112Y012780D02*
X012958Y012780D01*
X013035Y012780D02*
X013035Y013087D01*
X012958Y013087D01*
X013035Y013240D02*
X013035Y013317D01*
X012805Y013240D02*
X012805Y012780D01*
X012498Y012780D02*
X012498Y013240D01*
X012651Y013087D01*
X012805Y013240D01*
X011884Y013010D02*
X011807Y013087D01*
X011654Y013087D01*
X011577Y013010D01*
X011577Y012857D01*
X011654Y012780D01*
X011807Y012780D01*
X011884Y012857D01*
X011884Y013010D01*
X011424Y013087D02*
X011347Y013087D01*
X011193Y012933D01*
X011193Y012780D02*
X011193Y013087D01*
X011040Y013164D02*
X011040Y013010D01*
X010963Y012933D01*
X010733Y012933D01*
X010733Y012780D02*
X010733Y013240D01*
X010963Y013240D01*
X011040Y013164D01*
X010119Y013010D02*
X010042Y013087D01*
X009889Y013087D01*
X009812Y013010D01*
X009812Y012857D01*
X009889Y012780D01*
X010042Y012780D01*
X010119Y012857D01*
X010119Y013010D01*
X009659Y013010D02*
X009659Y012780D01*
X009659Y013010D02*
X009582Y013087D01*
X009352Y013087D01*
X009352Y012780D01*
X009198Y012780D02*
X009045Y012780D01*
X009122Y012780D02*
X009122Y013087D01*
X009045Y013087D01*
X008891Y013087D02*
X008891Y012780D01*
X008661Y012780D01*
X008584Y012857D01*
X008584Y013087D01*
X008431Y013087D02*
X008201Y013087D01*
X008124Y013010D01*
X008124Y012857D01*
X008201Y012780D01*
X008431Y012780D01*
X008431Y013240D01*
X007971Y013087D02*
X007894Y013087D01*
X007740Y012933D01*
X007740Y012780D02*
X007740Y013087D01*
X007587Y013087D02*
X007587Y012780D01*
X007587Y013010D02*
X007280Y013010D01*
X007280Y013087D02*
X007280Y012780D01*
X007280Y013087D02*
X007433Y013240D01*
X007587Y013087D01*
X009122Y013240D02*
X009122Y013317D01*
X010356Y011127D02*
X010280Y011050D01*
X010280Y010896D01*
X010356Y010820D01*
X010356Y010666D02*
X010433Y010666D01*
X010510Y010589D01*
X010510Y010436D01*
X010433Y010359D01*
X010356Y010359D01*
X010280Y010436D01*
X010280Y010589D01*
X010356Y010666D01*
X010510Y010589D02*
X010587Y010666D01*
X010663Y010666D01*
X010740Y010589D01*
X010740Y010436D01*
X010663Y010359D01*
X010587Y010359D01*
X010510Y010436D01*
X010510Y010206D02*
X010510Y009976D01*
X010433Y009899D01*
X010356Y009899D01*
X010280Y009976D01*
X010280Y010129D01*
X010356Y010206D01*
X010663Y010206D01*
X010740Y010129D01*
X010740Y009976D01*
X010663Y009899D01*
X010510Y009745D02*
X010510Y009438D01*
X010280Y009669D01*
X010740Y009669D01*
X010740Y009285D02*
X010433Y009285D01*
X010280Y009131D01*
X010433Y008978D01*
X010740Y008978D01*
X010510Y008978D02*
X010510Y009285D01*
X010510Y008825D02*
X010510Y008518D01*
X010433Y008364D02*
X010740Y008364D01*
X010740Y008134D01*
X010663Y008057D01*
X010433Y008057D01*
X010280Y007827D02*
X010280Y007750D01*
X010280Y007827D02*
X010740Y007827D01*
X010740Y007750D02*
X010740Y007904D01*
X010663Y007597D02*
X010510Y007597D01*
X010433Y007520D01*
X010433Y007367D01*
X010510Y007290D01*
X010663Y007290D01*
X010740Y007367D01*
X010740Y007520D01*
X010663Y007597D01*
X010740Y007136D02*
X010740Y006983D01*
X010740Y007060D02*
X010280Y007060D01*
X010280Y006983D01*
X010510Y006830D02*
X010433Y006753D01*
X010433Y006599D01*
X010510Y006523D01*
X010663Y006523D01*
X010740Y006599D01*
X010740Y006753D01*
X010663Y006830D01*
X010510Y006830D01*
X010510Y006369D02*
X010587Y006292D01*
X010587Y006062D01*
X010740Y006062D02*
X010280Y006062D01*
X010280Y006292D01*
X010356Y006369D01*
X010510Y006369D01*
X010663Y010820D02*
X010740Y010896D01*
X010740Y011050D01*
X010663Y011127D01*
X010587Y011127D01*
X010510Y011050D01*
X010510Y010973D01*
X010510Y011050D02*
X010433Y011127D01*
X010356Y011127D01*
X005288Y019135D02*
X005340Y019187D01*
X005340Y019239D01*
X005288Y019291D01*
X005030Y019291D01*
X005030Y019342D02*
X005030Y019239D01*
X005081Y019458D02*
X005030Y019509D01*
X005030Y019613D01*
X005081Y019665D01*
X005133Y019665D01*
X005185Y019613D01*
X005237Y019665D01*
X005288Y019665D01*
X005340Y019613D01*
X005340Y019509D01*
X005288Y019458D01*
X005185Y019561D02*
X005185Y019613D01*
X005288Y022385D02*
X005340Y022437D01*
X005340Y022489D01*
X005288Y022541D01*
X005030Y022541D01*
X005030Y022592D02*
X005030Y022489D01*
X005133Y022708D02*
X005030Y022811D01*
X005340Y022811D01*
X005340Y022708D02*
X005340Y022915D01*
X004340Y022915D02*
X004340Y022708D01*
X004133Y022915D01*
X004081Y022915D01*
X004030Y022863D01*
X004030Y022759D01*
X004081Y022708D01*
X004030Y022592D02*
X004030Y022489D01*
X004030Y022541D02*
X004288Y022541D01*
X004340Y022489D01*
X004340Y022437D01*
X004288Y022385D01*
X021280Y011050D02*
X021356Y011127D01*
X021433Y011127D01*
X021510Y011050D01*
X021587Y011127D01*
X021663Y011127D01*
X021740Y011050D01*
X021740Y010896D01*
X021663Y010820D01*
X021663Y010666D02*
X021740Y010589D01*
X021740Y010436D01*
X021663Y010359D01*
X021587Y010359D01*
X021510Y010436D01*
X021510Y010589D01*
X021587Y010666D01*
X021663Y010666D01*
X021510Y010589D02*
X021433Y010666D01*
X021356Y010666D01*
X021280Y010589D01*
X021280Y010436D01*
X021356Y010359D01*
X021433Y010359D01*
X021510Y010436D01*
X021510Y010206D02*
X021510Y009976D01*
X021433Y009899D01*
X021356Y009899D01*
X021280Y009976D01*
X021280Y010129D01*
X021356Y010206D01*
X021663Y010206D01*
X021740Y010129D01*
X021740Y009976D01*
X021663Y009899D01*
X021510Y009745D02*
X021510Y009438D01*
X021280Y009669D01*
X021740Y009669D01*
X021740Y009285D02*
X021433Y009285D01*
X021280Y009131D01*
X021433Y008978D01*
X021740Y008978D01*
X021510Y008978D02*
X021510Y009285D01*
X021510Y008825D02*
X021510Y008518D01*
X021433Y008364D02*
X021740Y008364D01*
X021740Y008134D01*
X021663Y008057D01*
X021433Y008057D01*
X021280Y007827D02*
X021280Y007750D01*
X021280Y007827D02*
X021740Y007827D01*
X021740Y007750D02*
X021740Y007904D01*
X021663Y007597D02*
X021510Y007597D01*
X021433Y007520D01*
X021433Y007367D01*
X021510Y007290D01*
X021663Y007290D01*
X021740Y007367D01*
X021740Y007520D01*
X021663Y007597D01*
X021740Y007136D02*
X021740Y006983D01*
X021740Y007060D02*
X021280Y007060D01*
X021280Y006983D01*
X021510Y006830D02*
X021433Y006753D01*
X021433Y006599D01*
X021510Y006523D01*
X021663Y006523D01*
X021740Y006599D01*
X021740Y006753D01*
X021663Y006830D01*
X021510Y006830D01*
X021510Y006369D02*
X021356Y006369D01*
X021280Y006292D01*
X021280Y006062D01*
X021740Y006062D01*
X021587Y006062D02*
X021587Y006292D01*
X021510Y006369D01*
X021356Y010820D02*
X021280Y010896D01*
X021280Y011050D01*
X021510Y011050D02*
X021510Y010973D01*
D16*
X021160Y006260D02*
X021162Y006326D01*
X021168Y006391D01*
X021178Y006456D01*
X021191Y006521D01*
X021209Y006584D01*
X021230Y006647D01*
X021255Y006707D01*
X021284Y006767D01*
X021316Y006824D01*
X021351Y006880D01*
X021390Y006933D01*
X021432Y006984D01*
X021476Y007032D01*
X021524Y007077D01*
X021574Y007120D01*
X021627Y007159D01*
X021682Y007196D01*
X021739Y007229D01*
X021798Y007258D01*
X021858Y007284D01*
X021920Y007306D01*
X021983Y007325D01*
X022047Y007339D01*
X022112Y007350D01*
X022178Y007357D01*
X022244Y007360D01*
X022309Y007359D01*
X022375Y007354D01*
X022440Y007345D01*
X022505Y007332D01*
X022568Y007316D01*
X022631Y007296D01*
X022692Y007271D01*
X022752Y007244D01*
X022810Y007213D01*
X022866Y007178D01*
X022920Y007140D01*
X022971Y007099D01*
X023020Y007055D01*
X023066Y007008D01*
X023110Y006959D01*
X023150Y006907D01*
X023187Y006852D01*
X023221Y006796D01*
X023251Y006737D01*
X023278Y006677D01*
X023301Y006616D01*
X023320Y006553D01*
X023336Y006489D01*
X023348Y006424D01*
X023356Y006359D01*
X023360Y006293D01*
X023360Y006227D01*
X023356Y006161D01*
X023348Y006096D01*
X023336Y006031D01*
X023320Y005967D01*
X023301Y005904D01*
X023278Y005843D01*
X023251Y005783D01*
X023221Y005724D01*
X023187Y005668D01*
X023150Y005613D01*
X023110Y005561D01*
X023066Y005512D01*
X023020Y005465D01*
X022971Y005421D01*
X022920Y005380D01*
X022866Y005342D01*
X022810Y005307D01*
X022752Y005276D01*
X022692Y005249D01*
X022631Y005224D01*
X022568Y005204D01*
X022505Y005188D01*
X022440Y005175D01*
X022375Y005166D01*
X022309Y005161D01*
X022244Y005160D01*
X022178Y005163D01*
X022112Y005170D01*
X022047Y005181D01*
X021983Y005195D01*
X021920Y005214D01*
X021858Y005236D01*
X021798Y005262D01*
X021739Y005291D01*
X021682Y005324D01*
X021627Y005361D01*
X021574Y005400D01*
X021524Y005443D01*
X021476Y005488D01*
X021432Y005536D01*
X021390Y005587D01*
X021351Y005640D01*
X021316Y005696D01*
X021284Y005753D01*
X021255Y005813D01*
X021230Y005873D01*
X021209Y005936D01*
X021191Y005999D01*
X021178Y006064D01*
X021168Y006129D01*
X021162Y006194D01*
X021160Y006260D01*
X022760Y005760D02*
X022910Y005760D01*
X022910Y005610D01*
X022910Y005760D02*
X022910Y005910D01*
X022910Y005760D02*
X023060Y005760D01*
X020730Y004310D02*
X020730Y003610D01*
X020730Y001910D01*
X020730Y001360D01*
X016760Y001360D01*
X016760Y001910D01*
X016760Y003610D01*
X020730Y003610D01*
X020730Y004310D02*
X016760Y004310D01*
X012790Y004310D01*
X012790Y003960D01*
X012790Y003610D01*
X012790Y001910D01*
X016760Y001910D01*
X020730Y001910D01*
X019520Y003960D02*
X019522Y003988D01*
X019528Y004015D01*
X019537Y004041D01*
X019550Y004066D01*
X019567Y004089D01*
X019586Y004109D01*
X019608Y004126D01*
X019632Y004140D01*
X019658Y004150D01*
X019685Y004157D01*
X019713Y004160D01*
X019741Y004159D01*
X019768Y004154D01*
X019795Y004145D01*
X019820Y004133D01*
X019843Y004118D01*
X019864Y004099D01*
X019882Y004078D01*
X019897Y004054D01*
X019908Y004028D01*
X019916Y004002D01*
X019920Y003974D01*
X019920Y003946D01*
X019916Y003918D01*
X019908Y003892D01*
X019897Y003866D01*
X019882Y003842D01*
X019864Y003821D01*
X019843Y003802D01*
X019820Y003787D01*
X019795Y003775D01*
X019768Y003766D01*
X019741Y003761D01*
X019713Y003760D01*
X019685Y003763D01*
X019658Y003770D01*
X019632Y003780D01*
X019608Y003794D01*
X019586Y003811D01*
X019567Y003831D01*
X019550Y003854D01*
X019537Y003879D01*
X019528Y003905D01*
X019522Y003932D01*
X019520Y003960D01*
X017540Y003960D02*
X017542Y003988D01*
X017548Y004015D01*
X017557Y004041D01*
X017570Y004066D01*
X017587Y004089D01*
X017606Y004109D01*
X017628Y004126D01*
X017652Y004140D01*
X017678Y004150D01*
X017705Y004157D01*
X017733Y004160D01*
X017761Y004159D01*
X017788Y004154D01*
X017815Y004145D01*
X017840Y004133D01*
X017863Y004118D01*
X017884Y004099D01*
X017902Y004078D01*
X017917Y004054D01*
X017928Y004028D01*
X017936Y004002D01*
X017940Y003974D01*
X017940Y003946D01*
X017936Y003918D01*
X017928Y003892D01*
X017917Y003866D01*
X017902Y003842D01*
X017884Y003821D01*
X017863Y003802D01*
X017840Y003787D01*
X017815Y003775D01*
X017788Y003766D01*
X017761Y003761D01*
X017733Y003760D01*
X017705Y003763D01*
X017678Y003770D01*
X017652Y003780D01*
X017628Y003794D01*
X017606Y003811D01*
X017587Y003831D01*
X017570Y003854D01*
X017557Y003879D01*
X017548Y003905D01*
X017542Y003932D01*
X017540Y003960D01*
X016760Y003610D02*
X016760Y004310D01*
X016760Y003610D02*
X012790Y003610D01*
X012590Y003560D01*
X012590Y004010D01*
X012790Y003960D01*
X013600Y003960D02*
X013602Y003988D01*
X013608Y004015D01*
X013617Y004041D01*
X013630Y004066D01*
X013647Y004089D01*
X013666Y004109D01*
X013688Y004126D01*
X013712Y004140D01*
X013738Y004150D01*
X013765Y004157D01*
X013793Y004160D01*
X013821Y004159D01*
X013848Y004154D01*
X013875Y004145D01*
X013900Y004133D01*
X013923Y004118D01*
X013944Y004099D01*
X013962Y004078D01*
X013977Y004054D01*
X013988Y004028D01*
X013996Y004002D01*
X014000Y003974D01*
X014000Y003946D01*
X013996Y003918D01*
X013988Y003892D01*
X013977Y003866D01*
X013962Y003842D01*
X013944Y003821D01*
X013923Y003802D01*
X013900Y003787D01*
X013875Y003775D01*
X013848Y003766D01*
X013821Y003761D01*
X013793Y003760D01*
X013765Y003763D01*
X013738Y003770D01*
X013712Y003780D01*
X013688Y003794D01*
X013666Y003811D01*
X013647Y003831D01*
X013630Y003854D01*
X013617Y003879D01*
X013608Y003905D01*
X013602Y003932D01*
X013600Y003960D01*
X012060Y005760D02*
X011910Y005760D01*
X011910Y005610D01*
X011910Y005760D02*
X011760Y005760D01*
X011910Y005760D02*
X011910Y005910D01*
X010160Y006260D02*
X010162Y006326D01*
X010168Y006391D01*
X010178Y006456D01*
X010191Y006521D01*
X010209Y006584D01*
X010230Y006647D01*
X010255Y006707D01*
X010284Y006767D01*
X010316Y006824D01*
X010351Y006880D01*
X010390Y006933D01*
X010432Y006984D01*
X010476Y007032D01*
X010524Y007077D01*
X010574Y007120D01*
X010627Y007159D01*
X010682Y007196D01*
X010739Y007229D01*
X010798Y007258D01*
X010858Y007284D01*
X010920Y007306D01*
X010983Y007325D01*
X011047Y007339D01*
X011112Y007350D01*
X011178Y007357D01*
X011244Y007360D01*
X011309Y007359D01*
X011375Y007354D01*
X011440Y007345D01*
X011505Y007332D01*
X011568Y007316D01*
X011631Y007296D01*
X011692Y007271D01*
X011752Y007244D01*
X011810Y007213D01*
X011866Y007178D01*
X011920Y007140D01*
X011971Y007099D01*
X012020Y007055D01*
X012066Y007008D01*
X012110Y006959D01*
X012150Y006907D01*
X012187Y006852D01*
X012221Y006796D01*
X012251Y006737D01*
X012278Y006677D01*
X012301Y006616D01*
X012320Y006553D01*
X012336Y006489D01*
X012348Y006424D01*
X012356Y006359D01*
X012360Y006293D01*
X012360Y006227D01*
X012356Y006161D01*
X012348Y006096D01*
X012336Y006031D01*
X012320Y005967D01*
X012301Y005904D01*
X012278Y005843D01*
X012251Y005783D01*
X012221Y005724D01*
X012187Y005668D01*
X012150Y005613D01*
X012110Y005561D01*
X012066Y005512D01*
X012020Y005465D01*
X011971Y005421D01*
X011920Y005380D01*
X011866Y005342D01*
X011810Y005307D01*
X011752Y005276D01*
X011692Y005249D01*
X011631Y005224D01*
X011568Y005204D01*
X011505Y005188D01*
X011440Y005175D01*
X011375Y005166D01*
X011309Y005161D01*
X011244Y005160D01*
X011178Y005163D01*
X011112Y005170D01*
X011047Y005181D01*
X010983Y005195D01*
X010920Y005214D01*
X010858Y005236D01*
X010798Y005262D01*
X010739Y005291D01*
X010682Y005324D01*
X010627Y005361D01*
X010574Y005400D01*
X010524Y005443D01*
X010476Y005488D01*
X010432Y005536D01*
X010390Y005587D01*
X010351Y005640D01*
X010316Y005696D01*
X010284Y005753D01*
X010255Y005813D01*
X010230Y005873D01*
X010209Y005936D01*
X010191Y005999D01*
X010178Y006064D01*
X010168Y006129D01*
X010162Y006194D01*
X010160Y006260D01*
X010230Y004310D02*
X010230Y003610D01*
X010230Y001910D01*
X010230Y001360D01*
X006260Y001360D01*
X006260Y001910D01*
X006260Y003610D01*
X010230Y003610D01*
X010230Y004310D02*
X006260Y004310D01*
X002290Y004310D01*
X002290Y003960D01*
X002290Y003610D01*
X002290Y001910D01*
X006260Y001910D01*
X010230Y001910D01*
X009020Y003960D02*
X009022Y003988D01*
X009028Y004015D01*
X009037Y004041D01*
X009050Y004066D01*
X009067Y004089D01*
X009086Y004109D01*
X009108Y004126D01*
X009132Y004140D01*
X009158Y004150D01*
X009185Y004157D01*
X009213Y004160D01*
X009241Y004159D01*
X009268Y004154D01*
X009295Y004145D01*
X009320Y004133D01*
X009343Y004118D01*
X009364Y004099D01*
X009382Y004078D01*
X009397Y004054D01*
X009408Y004028D01*
X009416Y004002D01*
X009420Y003974D01*
X009420Y003946D01*
X009416Y003918D01*
X009408Y003892D01*
X009397Y003866D01*
X009382Y003842D01*
X009364Y003821D01*
X009343Y003802D01*
X009320Y003787D01*
X009295Y003775D01*
X009268Y003766D01*
X009241Y003761D01*
X009213Y003760D01*
X009185Y003763D01*
X009158Y003770D01*
X009132Y003780D01*
X009108Y003794D01*
X009086Y003811D01*
X009067Y003831D01*
X009050Y003854D01*
X009037Y003879D01*
X009028Y003905D01*
X009022Y003932D01*
X009020Y003960D01*
X007040Y003960D02*
X007042Y003988D01*
X007048Y004015D01*
X007057Y004041D01*
X007070Y004066D01*
X007087Y004089D01*
X007106Y004109D01*
X007128Y004126D01*
X007152Y004140D01*
X007178Y004150D01*
X007205Y004157D01*
X007233Y004160D01*
X007261Y004159D01*
X007288Y004154D01*
X007315Y004145D01*
X007340Y004133D01*
X007363Y004118D01*
X007384Y004099D01*
X007402Y004078D01*
X007417Y004054D01*
X007428Y004028D01*
X007436Y004002D01*
X007440Y003974D01*
X007440Y003946D01*
X007436Y003918D01*
X007428Y003892D01*
X007417Y003866D01*
X007402Y003842D01*
X007384Y003821D01*
X007363Y003802D01*
X007340Y003787D01*
X007315Y003775D01*
X007288Y003766D01*
X007261Y003761D01*
X007233Y003760D01*
X007205Y003763D01*
X007178Y003770D01*
X007152Y003780D01*
X007128Y003794D01*
X007106Y003811D01*
X007087Y003831D01*
X007070Y003854D01*
X007057Y003879D01*
X007048Y003905D01*
X007042Y003932D01*
X007040Y003960D01*
X006260Y003610D02*
X006260Y004310D01*
X006260Y003610D02*
X002290Y003610D01*
X002090Y003560D01*
X002090Y004010D01*
X002290Y003960D01*
X003100Y003960D02*
X003102Y003988D01*
X003108Y004015D01*
X003117Y004041D01*
X003130Y004066D01*
X003147Y004089D01*
X003166Y004109D01*
X003188Y004126D01*
X003212Y004140D01*
X003238Y004150D01*
X003265Y004157D01*
X003293Y004160D01*
X003321Y004159D01*
X003348Y004154D01*
X003375Y004145D01*
X003400Y004133D01*
X003423Y004118D01*
X003444Y004099D01*
X003462Y004078D01*
X003477Y004054D01*
X003488Y004028D01*
X003496Y004002D01*
X003500Y003974D01*
X003500Y003946D01*
X003496Y003918D01*
X003488Y003892D01*
X003477Y003866D01*
X003462Y003842D01*
X003444Y003821D01*
X003423Y003802D01*
X003400Y003787D01*
X003375Y003775D01*
X003348Y003766D01*
X003321Y003761D01*
X003293Y003760D01*
X003265Y003763D01*
X003238Y003770D01*
X003212Y003780D01*
X003188Y003794D01*
X003166Y003811D01*
X003147Y003831D01*
X003130Y003854D01*
X003117Y003879D01*
X003108Y003905D01*
X003102Y003932D01*
X003100Y003960D01*
X002290Y001910D02*
X002290Y001360D01*
X006260Y001360D01*
X005080Y003960D02*
X005082Y003988D01*
X005088Y004015D01*
X005097Y004041D01*
X005110Y004066D01*
X005127Y004089D01*
X005146Y004109D01*
X005168Y004126D01*
X005192Y004140D01*
X005218Y004150D01*
X005245Y004157D01*
X005273Y004160D01*
X005301Y004159D01*
X005328Y004154D01*
X005355Y004145D01*
X005380Y004133D01*
X005403Y004118D01*
X005424Y004099D01*
X005442Y004078D01*
X005457Y004054D01*
X005468Y004028D01*
X005476Y004002D01*
X005480Y003974D01*
X005480Y003946D01*
X005476Y003918D01*
X005468Y003892D01*
X005457Y003866D01*
X005442Y003842D01*
X005424Y003821D01*
X005403Y003802D01*
X005380Y003787D01*
X005355Y003775D01*
X005328Y003766D01*
X005301Y003761D01*
X005273Y003760D01*
X005245Y003763D01*
X005218Y003770D01*
X005192Y003780D01*
X005168Y003794D01*
X005146Y003811D01*
X005127Y003831D01*
X005110Y003854D01*
X005097Y003879D01*
X005088Y003905D01*
X005082Y003932D01*
X005080Y003960D01*
X012790Y001910D02*
X012790Y001360D01*
X016760Y001360D01*
X015580Y003960D02*
X015582Y003988D01*
X015588Y004015D01*
X015597Y004041D01*
X015610Y004066D01*
X015627Y004089D01*
X015646Y004109D01*
X015668Y004126D01*
X015692Y004140D01*
X015718Y004150D01*
X015745Y004157D01*
X015773Y004160D01*
X015801Y004159D01*
X015828Y004154D01*
X015855Y004145D01*
X015880Y004133D01*
X015903Y004118D01*
X015924Y004099D01*
X015942Y004078D01*
X015957Y004054D01*
X015968Y004028D01*
X015976Y004002D01*
X015980Y003974D01*
X015980Y003946D01*
X015976Y003918D01*
X015968Y003892D01*
X015957Y003866D01*
X015942Y003842D01*
X015924Y003821D01*
X015903Y003802D01*
X015880Y003787D01*
X015855Y003775D01*
X015828Y003766D01*
X015801Y003761D01*
X015773Y003760D01*
X015745Y003763D01*
X015718Y003770D01*
X015692Y003780D01*
X015668Y003794D01*
X015646Y003811D01*
X015627Y003831D01*
X015610Y003854D01*
X015597Y003879D01*
X015588Y003905D01*
X015582Y003932D01*
X015580Y003960D01*
X015260Y014760D02*
X015260Y015660D01*
X015360Y015760D01*
X015260Y015860D01*
X015260Y016660D01*
X015360Y016760D01*
X015260Y016860D01*
X015260Y017660D01*
X015360Y017760D01*
X015260Y017860D01*
X015260Y018660D01*
X015360Y018760D01*
X015260Y018860D01*
X015260Y019660D01*
X015360Y019760D01*
X015260Y019860D01*
X015260Y020660D01*
X015360Y020760D01*
X015260Y020860D01*
X015260Y021660D01*
X015360Y021760D01*
X015260Y021860D01*
X015260Y022760D01*
X016260Y022760D01*
X016260Y021860D01*
X016160Y021760D01*
X016260Y021660D01*
X016260Y020860D01*
X016160Y020760D01*
X016260Y020660D01*
X016260Y019860D01*
X016160Y019760D01*
X016260Y019660D01*
X016260Y018860D01*
X016160Y018760D01*
X016260Y018660D01*
X016260Y017860D01*
X016160Y017760D01*
X016260Y017660D01*
X016260Y016860D01*
X016160Y016760D01*
X016260Y016660D01*
X016260Y015860D01*
X016160Y015760D01*
X016260Y015660D01*
X016260Y014760D01*
X015260Y014760D01*
X017260Y023710D02*
X017260Y024410D01*
X017260Y026110D01*
X017260Y026660D01*
X021260Y026660D01*
X021260Y026110D01*
X021260Y024410D01*
X017260Y024410D01*
X017260Y023710D02*
X021260Y023710D01*
X021260Y024060D01*
X021260Y024410D01*
X021460Y024460D01*
X021460Y024010D01*
X021260Y024060D01*
X020050Y024060D02*
X020052Y024088D01*
X020058Y024115D01*
X020067Y024141D01*
X020080Y024166D01*
X020097Y024189D01*
X020116Y024209D01*
X020138Y024226D01*
X020162Y024240D01*
X020188Y024250D01*
X020215Y024257D01*
X020243Y024260D01*
X020271Y024259D01*
X020298Y024254D01*
X020325Y024245D01*
X020350Y024233D01*
X020373Y024218D01*
X020394Y024199D01*
X020412Y024178D01*
X020427Y024154D01*
X020438Y024128D01*
X020446Y024102D01*
X020450Y024074D01*
X020450Y024046D01*
X020446Y024018D01*
X020438Y023992D01*
X020427Y023966D01*
X020412Y023942D01*
X020394Y023921D01*
X020373Y023902D01*
X020350Y023887D01*
X020325Y023875D01*
X020298Y023866D01*
X020271Y023861D01*
X020243Y023860D01*
X020215Y023863D01*
X020188Y023870D01*
X020162Y023880D01*
X020138Y023894D01*
X020116Y023911D01*
X020097Y023931D01*
X020080Y023954D01*
X020067Y023979D01*
X020058Y024005D01*
X020052Y024032D01*
X020050Y024060D01*
X018070Y024060D02*
X018072Y024088D01*
X018078Y024115D01*
X018087Y024141D01*
X018100Y024166D01*
X018117Y024189D01*
X018136Y024209D01*
X018158Y024226D01*
X018182Y024240D01*
X018208Y024250D01*
X018235Y024257D01*
X018263Y024260D01*
X018291Y024259D01*
X018318Y024254D01*
X018345Y024245D01*
X018370Y024233D01*
X018393Y024218D01*
X018414Y024199D01*
X018432Y024178D01*
X018447Y024154D01*
X018458Y024128D01*
X018466Y024102D01*
X018470Y024074D01*
X018470Y024046D01*
X018466Y024018D01*
X018458Y023992D01*
X018447Y023966D01*
X018432Y023942D01*
X018414Y023921D01*
X018393Y023902D01*
X018370Y023887D01*
X018345Y023875D01*
X018318Y023866D01*
X018291Y023861D01*
X018263Y023860D01*
X018235Y023863D01*
X018208Y023870D01*
X018182Y023880D01*
X018158Y023894D01*
X018136Y023911D01*
X018117Y023931D01*
X018100Y023954D01*
X018087Y023979D01*
X018078Y024005D01*
X018072Y024032D01*
X018070Y024060D01*
X017260Y026110D02*
X021260Y026110D01*
D17*
X020966Y023476D02*
X020650Y023476D01*
X020650Y022845D01*
X020650Y023055D02*
X020966Y023055D01*
X021071Y023160D01*
X021071Y023370D01*
X020966Y023476D01*
X020861Y023055D02*
X021071Y022845D01*
X020426Y022845D02*
X020426Y023476D01*
X020006Y023476D02*
X020006Y022845D01*
X020216Y023055D01*
X020426Y022845D01*
X019782Y023160D02*
X019677Y023055D01*
X019361Y023055D01*
X019361Y022845D02*
X019361Y023476D01*
X019677Y023476D01*
X019782Y023370D01*
X019782Y023160D01*
X016258Y005176D02*
X016258Y004545D01*
X016048Y004545D02*
X016468Y004545D01*
X016048Y004965D02*
X016258Y005176D01*
X015824Y005070D02*
X015824Y004860D01*
X015718Y004755D01*
X015403Y004755D01*
X015403Y004545D02*
X015403Y005176D01*
X015718Y005176D01*
X015824Y005070D01*
X015613Y004755D02*
X015824Y004545D01*
X015179Y004650D02*
X015179Y005070D01*
X015074Y005176D01*
X014864Y005176D01*
X014759Y005070D01*
X014759Y004650D01*
X014864Y004545D01*
X015074Y004545D01*
X015179Y004650D01*
X014534Y005176D02*
X014114Y005176D01*
X014324Y005176D02*
X014324Y004545D01*
X013890Y004650D02*
X013890Y005070D01*
X013785Y005176D01*
X013575Y005176D01*
X013470Y005070D01*
X013470Y004650D01*
X013575Y004545D01*
X013785Y004545D01*
X013890Y004650D01*
X013245Y004545D02*
X013245Y005176D01*
X013035Y004965D01*
X012825Y005176D01*
X012825Y004545D01*
X005968Y004545D02*
X005548Y004545D01*
X005968Y004965D01*
X005968Y005070D01*
X005863Y005176D01*
X005653Y005176D01*
X005548Y005070D01*
X005324Y005070D02*
X005324Y004860D01*
X005218Y004755D01*
X004903Y004755D01*
X004903Y004545D02*
X004903Y005176D01*
X005218Y005176D01*
X005324Y005070D01*
X005113Y004755D02*
X005324Y004545D01*
X004679Y004650D02*
X004679Y005070D01*
X004574Y005176D01*
X004364Y005176D01*
X004259Y005070D01*
X004259Y004650D01*
X004364Y004545D01*
X004574Y004545D01*
X004679Y004650D01*
X004034Y005176D02*
X003614Y005176D01*
X003824Y005176D02*
X003824Y004545D01*
X003390Y004650D02*
X003390Y005070D01*
X003285Y005176D01*
X003075Y005176D01*
X002970Y005070D01*
X002970Y004650D01*
X003075Y004545D01*
X003285Y004545D01*
X003390Y004650D01*
X002745Y004545D02*
X002745Y005176D01*
X002535Y004965D01*
X002325Y005176D01*
X002325Y004545D01*
D18*
X004290Y002760D03*
X008230Y002760D03*
X014790Y002760D03*
X018730Y002760D03*
X019260Y025260D03*
D19*
X012232Y023500D02*
X012232Y021020D01*
X011288Y021020D01*
X011288Y023500D01*
X012232Y023500D01*
X010232Y023500D02*
X010232Y021020D01*
X009288Y021020D01*
X009288Y023500D01*
X010232Y023500D01*
X008000Y008732D02*
X005520Y008732D01*
X005520Y007788D01*
X008000Y007788D01*
X008000Y008732D01*
X016020Y008732D02*
X016020Y007788D01*
X018500Y007788D01*
X018500Y008732D01*
X016020Y008732D01*
M02*
