%
M48
M72
T01C0.0320
T02C0.0350
T03C0.0354
T04C0.0394
T05C0.0520
T06C0.1102
%
T01
X10760Y6260
X11760Y6260
X15760Y15260
X15760Y16260
X15760Y17260
X15760Y18260
X15760Y19260
X15760Y20260
X15760Y21260
X15760Y22260
X21760Y6260
X22760Y6260
T02
X4260Y17760
X4260Y18760
X4260Y19760
X3260Y19760
X3260Y18760
X3260Y17760
X3260Y21760
X3260Y22760
X4260Y22760
X4260Y21760
T03
X9760Y20260
X11760Y20260
X11760Y24260
X9760Y24260
X8760Y8260
X11260Y4260
X11260Y760
X15260Y8260
X19260Y8260
X4760Y8260
T04
X4260Y5760
X3260Y5760
X2260Y5760
X5260Y5760
X6260Y5760
X7260Y5760
X8260Y5760
X9260Y5760
X13260Y5760
X14260Y5760
X15260Y5760
X16260Y5760
X17260Y5760
X18260Y5760
X19260Y5760
X20260Y5760
X19260Y9760
X19260Y10760
X18260Y10760
X17260Y10760
X17260Y9760
X16260Y10760
X15260Y10760
X14260Y10760
X13260Y10760
X12260Y12760
X13760Y14260
X13760Y15260
X13760Y16260
X13760Y17260
X13760Y18260
X13760Y19260
X13760Y20260
X13760Y21260
X13760Y22260
X13760Y23260
X13760Y24260
X13760Y25260
X10760Y25760
X10760Y22760
X7760Y22260
X7760Y21260
X7760Y20260
X7760Y19260
X7760Y18260
X7760Y17260
X7760Y16260
X7760Y15260
X7760Y14260
X9260Y12760
X9260Y10760
X8260Y10760
X7260Y10760
X6260Y10760
X5260Y10760
X4260Y10760
X3260Y10760
X2260Y10760
X7760Y23260
X7760Y24260
X7760Y25260
X20260Y10760
T05
X19720Y2760
X17740Y2760
X15780Y2760
X13800Y2760
X9220Y2760
X7240Y2760
X5280Y2760
X3300Y2760
X18270Y25260
X20250Y25260
T06
X1260Y1260
X22760Y1260
X22760Y26260
X1260Y26260
M30
