G04 #@! TF.FileFunction,Legend,Top*
%FSLAX46Y46*%
G04 Gerber Fmt 4.6, Leading zero omitted, Abs format (unit mm)*
G04 Created by KiCad (PCBNEW 0.201509101502+6177~30~ubuntu14.04.1-product) date Παρ 18 Σεπ 2015 07:16:07 μμ EEST*
%MOMM*%
G01*
G04 APERTURE LIST*
%ADD10C,0.100000*%
%ADD11C,0.150000*%
G04 APERTURE END LIST*
D10*
D11*
X139962000Y-98259000D02*
X140962000Y-98259000D01*
X140962000Y-96559000D02*
X139962000Y-96559000D01*
X145315000Y-104375000D02*
X145890000Y-104375000D01*
X145315000Y-98825000D02*
X145890000Y-98825000D01*
X151865000Y-98825000D02*
X151290000Y-98825000D01*
X151865000Y-104375000D02*
X151290000Y-104375000D01*
X145315000Y-104375000D02*
X145315000Y-98825000D01*
X151865000Y-104375000D02*
X151865000Y-98825000D01*
X145890000Y-104375000D02*
X145890000Y-105650000D01*
X151519000Y-113118000D02*
X152519000Y-113118000D01*
X152519000Y-111418000D02*
X151519000Y-111418000D01*
X139962000Y-103085000D02*
X140962000Y-103085000D01*
X140962000Y-101385000D02*
X139962000Y-101385000D01*
X139962000Y-100672000D02*
X140962000Y-100672000D01*
X140962000Y-98972000D02*
X139962000Y-98972000D01*
X160655000Y-114300000D02*
X160655000Y-96520000D01*
X155575000Y-99060000D02*
X155575000Y-114300000D01*
X160655000Y-114300000D02*
X155575000Y-114300000D01*
X160655000Y-96520000D02*
X158115000Y-96520000D01*
X156845000Y-96240000D02*
X155295000Y-96240000D01*
X158115000Y-96520000D02*
X158115000Y-99060000D01*
X158115000Y-99060000D02*
X155575000Y-99060000D01*
X155295000Y-96240000D02*
X155295000Y-97790000D01*
X146650000Y-110730000D02*
X145450000Y-110730000D01*
X145450000Y-108980000D02*
X146650000Y-108980000D01*
X146650000Y-113143000D02*
X145450000Y-113143000D01*
X145450000Y-111393000D02*
X146650000Y-111393000D01*
X151546000Y-108980000D02*
X152746000Y-108980000D01*
X152746000Y-110730000D02*
X151546000Y-110730000D01*
D10*
X158571400Y-97790000D02*
X158571400Y-97790000D01*
X160198600Y-97790000D02*
X160198600Y-97790000D01*
X158571400Y-97790000D02*
G75*
G03X160198600Y-97790000I813600J0D01*
G01*
X160198600Y-97790000D02*
G75*
G03X158571400Y-97790000I-813600J0D01*
G01*
X156031400Y-100330000D02*
X156031400Y-100330000D01*
X157658600Y-100330000D02*
X157658600Y-100330000D01*
X156031400Y-100330000D02*
G75*
G03X157658600Y-100330000I813600J0D01*
G01*
X157658600Y-100330000D02*
G75*
G03X156031400Y-100330000I-813600J0D01*
G01*
X158571400Y-100330000D02*
X158571400Y-100330000D01*
X160198600Y-100330000D02*
X160198600Y-100330000D01*
X158571400Y-100330000D02*
G75*
G03X160198600Y-100330000I813600J0D01*
G01*
X160198600Y-100330000D02*
G75*
G03X158571400Y-100330000I-813600J0D01*
G01*
X156031400Y-102870000D02*
X156031400Y-102870000D01*
X157658600Y-102870000D02*
X157658600Y-102870000D01*
X156031400Y-102870000D02*
G75*
G03X157658600Y-102870000I813600J0D01*
G01*
X157658600Y-102870000D02*
G75*
G03X156031400Y-102870000I-813600J0D01*
G01*
X158571400Y-102870000D02*
X158571400Y-102870000D01*
X160198600Y-102870000D02*
X160198600Y-102870000D01*
X158571400Y-102870000D02*
G75*
G03X160198600Y-102870000I813600J0D01*
G01*
X160198600Y-102870000D02*
G75*
G03X158571400Y-102870000I-813600J0D01*
G01*
X156031400Y-105410000D02*
X156031400Y-105410000D01*
X157658600Y-105410000D02*
X157658600Y-105410000D01*
X156031400Y-105410000D02*
G75*
G03X157658600Y-105410000I813600J0D01*
G01*
X157658600Y-105410000D02*
G75*
G03X156031400Y-105410000I-813600J0D01*
G01*
X158571400Y-105410000D02*
X158571400Y-105410000D01*
X160198600Y-105410000D02*
X160198600Y-105410000D01*
X158571400Y-105410000D02*
G75*
G03X160198600Y-105410000I813600J0D01*
G01*
X160198600Y-105410000D02*
G75*
G03X158571400Y-105410000I-813600J0D01*
G01*
X156031400Y-107950000D02*
X156031400Y-107950000D01*
X157658600Y-107950000D02*
X157658600Y-107950000D01*
X156031400Y-107950000D02*
G75*
G03X157658600Y-107950000I813600J0D01*
G01*
X157658600Y-107950000D02*
G75*
G03X156031400Y-107950000I-813600J0D01*
G01*
X158571400Y-107950000D02*
X158571400Y-107950000D01*
X160198600Y-107950000D02*
X160198600Y-107950000D01*
X158571400Y-107950000D02*
G75*
G03X160198600Y-107950000I813600J0D01*
G01*
X160198600Y-107950000D02*
G75*
G03X158571400Y-107950000I-813600J0D01*
G01*
X156031400Y-110490000D02*
X156031400Y-110490000D01*
X157658600Y-110490000D02*
X157658600Y-110490000D01*
X156031400Y-110490000D02*
G75*
G03X157658600Y-110490000I813600J0D01*
G01*
X157658600Y-110490000D02*
G75*
G03X156031400Y-110490000I-813600J0D01*
G01*
X158571400Y-110490000D02*
X158571400Y-110490000D01*
X160198600Y-110490000D02*
X160198600Y-110490000D01*
X158571400Y-110490000D02*
G75*
G03X160198600Y-110490000I813600J0D01*
G01*
X160198600Y-110490000D02*
G75*
G03X158571400Y-110490000I-813600J0D01*
G01*
X156031400Y-113030000D02*
X156031400Y-113030000D01*
X157658600Y-113030000D02*
X157658600Y-113030000D01*
X156031400Y-113030000D02*
G75*
G03X157658600Y-113030000I813600J0D01*
G01*
X157658600Y-113030000D02*
G75*
G03X156031400Y-113030000I-813600J0D01*
G01*
X158571400Y-113030000D02*
X158571400Y-113030000D01*
X160198600Y-113030000D02*
X160198600Y-113030000D01*
X158571400Y-113030000D02*
G75*
G03X160198600Y-113030000I813600J0D01*
G01*
X160198600Y-113030000D02*
G75*
G03X158571400Y-113030000I-813600J0D01*
G01*
D11*
X143597334Y-97385143D02*
X143549715Y-97432762D01*
X143406858Y-97480381D01*
X143311620Y-97480381D01*
X143168762Y-97432762D01*
X143073524Y-97337524D01*
X143025905Y-97242286D01*
X142978286Y-97051810D01*
X142978286Y-96908952D01*
X143025905Y-96718476D01*
X143073524Y-96623238D01*
X143168762Y-96528000D01*
X143311620Y-96480381D01*
X143406858Y-96480381D01*
X143549715Y-96528000D01*
X143597334Y-96575619D01*
X144454477Y-96813714D02*
X144454477Y-97480381D01*
X144216381Y-96432762D02*
X143978286Y-97147048D01*
X144597334Y-97147048D01*
X152360381Y-105663905D02*
X153169905Y-105663905D01*
X153265143Y-105616286D01*
X153312762Y-105568667D01*
X153360381Y-105473429D01*
X153360381Y-105282952D01*
X153312762Y-105187714D01*
X153265143Y-105140095D01*
X153169905Y-105092476D01*
X152360381Y-105092476D01*
X153360381Y-104092476D02*
X153360381Y-104663905D01*
X153360381Y-104378191D02*
X152360381Y-104378191D01*
X152503238Y-104473429D01*
X152598476Y-104568667D01*
X152646095Y-104663905D01*
X150455334Y-114403143D02*
X150407715Y-114450762D01*
X150264858Y-114498381D01*
X150169620Y-114498381D01*
X150026762Y-114450762D01*
X149931524Y-114355524D01*
X149883905Y-114260286D01*
X149836286Y-114069810D01*
X149836286Y-113926952D01*
X149883905Y-113736476D01*
X149931524Y-113641238D01*
X150026762Y-113546000D01*
X150169620Y-113498381D01*
X150264858Y-113498381D01*
X150407715Y-113546000D01*
X150455334Y-113593619D01*
X151407715Y-114498381D02*
X150836286Y-114498381D01*
X151122000Y-114498381D02*
X151122000Y-113498381D01*
X151026762Y-113641238D01*
X150931524Y-113736476D01*
X150836286Y-113784095D01*
X143597334Y-102211143D02*
X143549715Y-102258762D01*
X143406858Y-102306381D01*
X143311620Y-102306381D01*
X143168762Y-102258762D01*
X143073524Y-102163524D01*
X143025905Y-102068286D01*
X142978286Y-101877810D01*
X142978286Y-101734952D01*
X143025905Y-101544476D01*
X143073524Y-101449238D01*
X143168762Y-101354000D01*
X143311620Y-101306381D01*
X143406858Y-101306381D01*
X143549715Y-101354000D01*
X143597334Y-101401619D01*
X143978286Y-101401619D02*
X144025905Y-101354000D01*
X144121143Y-101306381D01*
X144359239Y-101306381D01*
X144454477Y-101354000D01*
X144502096Y-101401619D01*
X144549715Y-101496857D01*
X144549715Y-101592095D01*
X144502096Y-101734952D01*
X143930667Y-102306381D01*
X144549715Y-102306381D01*
X143597334Y-99798143D02*
X143549715Y-99845762D01*
X143406858Y-99893381D01*
X143311620Y-99893381D01*
X143168762Y-99845762D01*
X143073524Y-99750524D01*
X143025905Y-99655286D01*
X142978286Y-99464810D01*
X142978286Y-99321952D01*
X143025905Y-99131476D01*
X143073524Y-99036238D01*
X143168762Y-98941000D01*
X143311620Y-98893381D01*
X143406858Y-98893381D01*
X143549715Y-98941000D01*
X143597334Y-98988619D01*
X143930667Y-98893381D02*
X144549715Y-98893381D01*
X144216381Y-99274333D01*
X144359239Y-99274333D01*
X144454477Y-99321952D01*
X144502096Y-99369571D01*
X144549715Y-99464810D01*
X144549715Y-99702905D01*
X144502096Y-99798143D01*
X144454477Y-99845762D01*
X144359239Y-99893381D01*
X144073524Y-99893381D01*
X143978286Y-99845762D01*
X143930667Y-99798143D01*
X159154905Y-95448381D02*
X159154905Y-94448381D01*
X159535858Y-94448381D01*
X159631096Y-94496000D01*
X159678715Y-94543619D01*
X159726334Y-94638857D01*
X159726334Y-94781714D01*
X159678715Y-94876952D01*
X159631096Y-94924571D01*
X159535858Y-94972190D01*
X159154905Y-94972190D01*
X160678715Y-95448381D02*
X160107286Y-95448381D01*
X160393000Y-95448381D02*
X160393000Y-94448381D01*
X160297762Y-94591238D01*
X160202524Y-94686476D01*
X160107286Y-94734095D01*
X144232334Y-108529381D02*
X143899000Y-108053190D01*
X143660905Y-108529381D02*
X143660905Y-107529381D01*
X144041858Y-107529381D01*
X144137096Y-107577000D01*
X144184715Y-107624619D01*
X144232334Y-107719857D01*
X144232334Y-107862714D01*
X144184715Y-107957952D01*
X144137096Y-108005571D01*
X144041858Y-108053190D01*
X143660905Y-108053190D01*
X145184715Y-108529381D02*
X144613286Y-108529381D01*
X144899000Y-108529381D02*
X144899000Y-107529381D01*
X144803762Y-107672238D01*
X144708524Y-107767476D01*
X144613286Y-107815095D01*
X144232334Y-114498381D02*
X143899000Y-114022190D01*
X143660905Y-114498381D02*
X143660905Y-113498381D01*
X144041858Y-113498381D01*
X144137096Y-113546000D01*
X144184715Y-113593619D01*
X144232334Y-113688857D01*
X144232334Y-113831714D01*
X144184715Y-113926952D01*
X144137096Y-113974571D01*
X144041858Y-114022190D01*
X143660905Y-114022190D01*
X144613286Y-113593619D02*
X144660905Y-113546000D01*
X144756143Y-113498381D01*
X144994239Y-113498381D01*
X145089477Y-113546000D01*
X145137096Y-113593619D01*
X145184715Y-113688857D01*
X145184715Y-113784095D01*
X145137096Y-113926952D01*
X144565667Y-114498381D01*
X145184715Y-114498381D01*
X150328334Y-108529381D02*
X149995000Y-108053190D01*
X149756905Y-108529381D02*
X149756905Y-107529381D01*
X150137858Y-107529381D01*
X150233096Y-107577000D01*
X150280715Y-107624619D01*
X150328334Y-107719857D01*
X150328334Y-107862714D01*
X150280715Y-107957952D01*
X150233096Y-108005571D01*
X150137858Y-108053190D01*
X149756905Y-108053190D01*
X150661667Y-107529381D02*
X151280715Y-107529381D01*
X150947381Y-107910333D01*
X151090239Y-107910333D01*
X151185477Y-107957952D01*
X151233096Y-108005571D01*
X151280715Y-108100810D01*
X151280715Y-108338905D01*
X151233096Y-108434143D01*
X151185477Y-108481762D01*
X151090239Y-108529381D01*
X150804524Y-108529381D01*
X150709286Y-108481762D01*
X150661667Y-108434143D01*
M02*
