M48
;DRILL file {KiCad 0.201509101502+6177~30~ubuntu14.04.1-product} date Παρ 18 Σεπ 2015 07:16:03 μμ EEST
;FORMAT={-:-/ absolute / metric / decimal}
FMAT,2
METRIC,TZ
T1C0.800
T2C1.001
T3C1.016
%
G90
G05
M71
T1
X143.961Y-103.29
X153.289Y-114.427
T2
X139.065Y-106.934
X139.065Y-111.887
X141.605Y-106.934
X141.605Y-111.887
T3
X156.845Y-97.79
X156.845Y-100.33
X156.845Y-102.87
X156.845Y-105.41
X156.845Y-107.95
X156.845Y-110.49
X156.845Y-113.03
X159.385Y-97.79
X159.385Y-100.33
X159.385Y-102.87
X159.385Y-105.41
X159.385Y-107.95
X159.385Y-110.49
X159.385Y-113.03
T0
M30
