G04 #@! TF.FileFunction,Copper,L2,Bot,Signal*
%FSLAX46Y46*%
G04 Gerber Fmt 4.6, Leading zero omitted, Abs format (unit mm)*
G04 Created by KiCad (PCBNEW 0.201509101502+6177~30~ubuntu14.04.1-product) date Παρ 18 Σεπ 2015 07:16:07 μμ EEST*
%MOMM*%
G01*
G04 APERTURE LIST*
%ADD10C,0.100000*%
%ADD11R,1.727200X1.727200*%
%ADD12O,1.727200X1.727200*%
%ADD13R,2.000000X2.000000*%
%ADD14C,2.000000*%
%ADD15C,1.600000*%
%ADD16C,0.600000*%
%ADD17C,0.254000*%
G04 APERTURE END LIST*
D10*
D11*
X156845000Y-97790000D03*
D12*
X159385000Y-97790000D03*
X156845000Y-100330000D03*
X159385000Y-100330000D03*
X156845000Y-102870000D03*
X159385000Y-102870000D03*
X156845000Y-105410000D03*
X159385000Y-105410000D03*
X156845000Y-107950000D03*
X159385000Y-107950000D03*
X156845000Y-110490000D03*
X159385000Y-110490000D03*
X156845000Y-113030000D03*
X159385000Y-113030000D03*
D13*
X141605000Y-106934000D03*
D14*
X139065000Y-106934000D03*
D13*
X141605000Y-111887000D03*
D14*
X139065000Y-111887000D03*
D15*
X143961183Y-103289815D03*
X153289000Y-114427000D03*
D16*
X143961183Y-103289815D02*
X143891000Y-103359998D01*
X143891000Y-103359998D02*
X143891000Y-113157000D01*
X143891000Y-113157000D02*
X145161000Y-114427000D01*
X145161000Y-114427000D02*
X153289000Y-114427000D01*
D17*
G36*
X160923000Y-96878213D02*
X160686225Y-96523855D01*
X160105313Y-96135701D01*
X159420080Y-95999400D01*
X159349920Y-95999400D01*
X158664687Y-96135701D01*
X158410615Y-96305467D01*
X158386099Y-96267367D01*
X158076321Y-96055704D01*
X157708600Y-95981239D01*
X155981400Y-95981239D01*
X155637874Y-96045878D01*
X155322367Y-96248901D01*
X155110704Y-96558679D01*
X155036239Y-96926400D01*
X155036239Y-98653600D01*
X155100878Y-98997126D01*
X155303901Y-99312633D01*
X155354463Y-99347180D01*
X155155621Y-99644767D01*
X155019320Y-100330000D01*
X155155621Y-101015233D01*
X155543775Y-101596145D01*
X155549544Y-101600000D01*
X155543775Y-101603855D01*
X155155621Y-102184767D01*
X155019320Y-102870000D01*
X155155621Y-103555233D01*
X155543775Y-104136145D01*
X155549544Y-104140000D01*
X155543775Y-104143855D01*
X155155621Y-104724767D01*
X155019320Y-105410000D01*
X155155621Y-106095233D01*
X155543775Y-106676145D01*
X155549544Y-106680000D01*
X155543775Y-106683855D01*
X155155621Y-107264767D01*
X155019320Y-107950000D01*
X155155621Y-108635233D01*
X155543775Y-109216145D01*
X155549544Y-109220000D01*
X155543775Y-109223855D01*
X155155621Y-109804767D01*
X155019320Y-110490000D01*
X155155621Y-111175233D01*
X155543775Y-111756145D01*
X155838156Y-111952845D01*
X155562312Y-112255053D01*
X155390042Y-112670974D01*
X155511183Y-112903000D01*
X156718000Y-112903000D01*
X156718000Y-112883000D01*
X156972000Y-112883000D01*
X156972000Y-112903000D01*
X159258000Y-112903000D01*
X159258000Y-112883000D01*
X159512000Y-112883000D01*
X159512000Y-112903000D01*
X160718817Y-112903000D01*
X160839958Y-112670974D01*
X160667688Y-112255053D01*
X160391844Y-111952845D01*
X160686225Y-111756145D01*
X160923000Y-111401787D01*
X160923000Y-114949000D01*
X137908000Y-114949000D01*
X137908000Y-113455549D01*
X137972017Y-113519678D01*
X138680014Y-113813665D01*
X139446622Y-113814334D01*
X139990983Y-113589409D01*
X140237279Y-113757696D01*
X140605000Y-113832161D01*
X142605000Y-113832161D01*
X142948526Y-113767522D01*
X143264033Y-113564499D01*
X143383928Y-113389026D01*
X155390042Y-113389026D01*
X155562312Y-113804947D01*
X155956510Y-114236821D01*
X156485973Y-114484968D01*
X156718000Y-114364469D01*
X156718000Y-113157000D01*
X156972000Y-113157000D01*
X156972000Y-114364469D01*
X157204027Y-114484968D01*
X157733490Y-114236821D01*
X158115000Y-113818848D01*
X158496510Y-114236821D01*
X159025973Y-114484968D01*
X159258000Y-114364469D01*
X159258000Y-113157000D01*
X159512000Y-113157000D01*
X159512000Y-114364469D01*
X159744027Y-114484968D01*
X160273490Y-114236821D01*
X160667688Y-113804947D01*
X160839958Y-113389026D01*
X160718817Y-113157000D01*
X159512000Y-113157000D01*
X159258000Y-113157000D01*
X156972000Y-113157000D01*
X156718000Y-113157000D01*
X155511183Y-113157000D01*
X155390042Y-113389026D01*
X143383928Y-113389026D01*
X143475696Y-113254721D01*
X143550161Y-112887000D01*
X143550161Y-110887000D01*
X143485522Y-110543474D01*
X143282499Y-110227967D01*
X142972721Y-110016304D01*
X142605000Y-109941839D01*
X140605000Y-109941839D01*
X140261474Y-110006478D01*
X139986786Y-110183235D01*
X139449986Y-109960335D01*
X138683378Y-109959666D01*
X137974868Y-110252416D01*
X137908000Y-110319168D01*
X137908000Y-108502549D01*
X137972017Y-108566678D01*
X138680014Y-108860665D01*
X139446622Y-108861334D01*
X139990983Y-108636409D01*
X140237279Y-108804696D01*
X140605000Y-108879161D01*
X142605000Y-108879161D01*
X142948526Y-108814522D01*
X143264033Y-108611499D01*
X143475696Y-108301721D01*
X143550161Y-107934000D01*
X143550161Y-105934000D01*
X143485522Y-105590474D01*
X143282499Y-105274967D01*
X142972721Y-105063304D01*
X142605000Y-104988839D01*
X140605000Y-104988839D01*
X140261474Y-105053478D01*
X139986786Y-105230235D01*
X139449986Y-105007335D01*
X138683378Y-105006666D01*
X137974868Y-105299416D01*
X137908000Y-105366168D01*
X137908000Y-94474000D01*
X160923000Y-94474000D01*
X160923000Y-96878213D01*
X160923000Y-96878213D01*
G37*
X160923000Y-96878213D02*
X160686225Y-96523855D01*
X160105313Y-96135701D01*
X159420080Y-95999400D01*
X159349920Y-95999400D01*
X158664687Y-96135701D01*
X158410615Y-96305467D01*
X158386099Y-96267367D01*
X158076321Y-96055704D01*
X157708600Y-95981239D01*
X155981400Y-95981239D01*
X155637874Y-96045878D01*
X155322367Y-96248901D01*
X155110704Y-96558679D01*
X155036239Y-96926400D01*
X155036239Y-98653600D01*
X155100878Y-98997126D01*
X155303901Y-99312633D01*
X155354463Y-99347180D01*
X155155621Y-99644767D01*
X155019320Y-100330000D01*
X155155621Y-101015233D01*
X155543775Y-101596145D01*
X155549544Y-101600000D01*
X155543775Y-101603855D01*
X155155621Y-102184767D01*
X155019320Y-102870000D01*
X155155621Y-103555233D01*
X155543775Y-104136145D01*
X155549544Y-104140000D01*
X155543775Y-104143855D01*
X155155621Y-104724767D01*
X155019320Y-105410000D01*
X155155621Y-106095233D01*
X155543775Y-106676145D01*
X155549544Y-106680000D01*
X155543775Y-106683855D01*
X155155621Y-107264767D01*
X155019320Y-107950000D01*
X155155621Y-108635233D01*
X155543775Y-109216145D01*
X155549544Y-109220000D01*
X155543775Y-109223855D01*
X155155621Y-109804767D01*
X155019320Y-110490000D01*
X155155621Y-111175233D01*
X155543775Y-111756145D01*
X155838156Y-111952845D01*
X155562312Y-112255053D01*
X155390042Y-112670974D01*
X155511183Y-112903000D01*
X156718000Y-112903000D01*
X156718000Y-112883000D01*
X156972000Y-112883000D01*
X156972000Y-112903000D01*
X159258000Y-112903000D01*
X159258000Y-112883000D01*
X159512000Y-112883000D01*
X159512000Y-112903000D01*
X160718817Y-112903000D01*
X160839958Y-112670974D01*
X160667688Y-112255053D01*
X160391844Y-111952845D01*
X160686225Y-111756145D01*
X160923000Y-111401787D01*
X160923000Y-114949000D01*
X137908000Y-114949000D01*
X137908000Y-113455549D01*
X137972017Y-113519678D01*
X138680014Y-113813665D01*
X139446622Y-113814334D01*
X139990983Y-113589409D01*
X140237279Y-113757696D01*
X140605000Y-113832161D01*
X142605000Y-113832161D01*
X142948526Y-113767522D01*
X143264033Y-113564499D01*
X143383928Y-113389026D01*
X155390042Y-113389026D01*
X155562312Y-113804947D01*
X155956510Y-114236821D01*
X156485973Y-114484968D01*
X156718000Y-114364469D01*
X156718000Y-113157000D01*
X156972000Y-113157000D01*
X156972000Y-114364469D01*
X157204027Y-114484968D01*
X157733490Y-114236821D01*
X158115000Y-113818848D01*
X158496510Y-114236821D01*
X159025973Y-114484968D01*
X159258000Y-114364469D01*
X159258000Y-113157000D01*
X159512000Y-113157000D01*
X159512000Y-114364469D01*
X159744027Y-114484968D01*
X160273490Y-114236821D01*
X160667688Y-113804947D01*
X160839958Y-113389026D01*
X160718817Y-113157000D01*
X159512000Y-113157000D01*
X159258000Y-113157000D01*
X156972000Y-113157000D01*
X156718000Y-113157000D01*
X155511183Y-113157000D01*
X155390042Y-113389026D01*
X143383928Y-113389026D01*
X143475696Y-113254721D01*
X143550161Y-112887000D01*
X143550161Y-110887000D01*
X143485522Y-110543474D01*
X143282499Y-110227967D01*
X142972721Y-110016304D01*
X142605000Y-109941839D01*
X140605000Y-109941839D01*
X140261474Y-110006478D01*
X139986786Y-110183235D01*
X139449986Y-109960335D01*
X138683378Y-109959666D01*
X137974868Y-110252416D01*
X137908000Y-110319168D01*
X137908000Y-108502549D01*
X137972017Y-108566678D01*
X138680014Y-108860665D01*
X139446622Y-108861334D01*
X139990983Y-108636409D01*
X140237279Y-108804696D01*
X140605000Y-108879161D01*
X142605000Y-108879161D01*
X142948526Y-108814522D01*
X143264033Y-108611499D01*
X143475696Y-108301721D01*
X143550161Y-107934000D01*
X143550161Y-105934000D01*
X143485522Y-105590474D01*
X143282499Y-105274967D01*
X142972721Y-105063304D01*
X142605000Y-104988839D01*
X140605000Y-104988839D01*
X140261474Y-105053478D01*
X139986786Y-105230235D01*
X139449986Y-105007335D01*
X138683378Y-105006666D01*
X137974868Y-105299416D01*
X137908000Y-105366168D01*
X137908000Y-94474000D01*
X160923000Y-94474000D01*
X160923000Y-96878213D01*
M02*
