%
M48
M72
T01C0.0360
T02C0.0390
T03C0.0520
T04C0.0910
T05C0.1260
%
T01
X18953Y12882
X19985Y12882
X21016Y12882
X21016Y13866
X19985Y13866
X18953Y13866
X18953Y14654
X19985Y14654
X21016Y14654
X21016Y15638
X19985Y15638
X18953Y15638
T02
X21208Y8635
X21208Y1760
X6583Y1760
X6583Y8635
T03
X2583Y6250
X2583Y4270
X24583Y3770
X24583Y5750
X24583Y7770
X24583Y9750
T04
X22083Y11673
X19847Y11673
X19847Y16847
X22083Y16847
T05
X2083Y1260
X25083Y1260
X2083Y17260
M30
